<?xml version="1.0" encoding="utf-8"?>
<!-- Generator: Adobe Illustrator 25.0.0, SVG Export Plug-In . SVG Version: 6.00 Build 0)  -->
<svg version="1.1" id="Layer_1" xmlns="http://www.w3.org/2000/svg" xmlns:xlink="http://www.w3.org/1999/xlink" x="0px" y="0px"
	 viewBox="0 0 29.9 33.3" style="enable-background:new 0 0 29.9 33.3;" xml:space="preserve">
<path id="Icon_material-date-range" d="M10,15H6.7v3.3H10V15z M16.6,15h-3.3v3.3h3.3V15z M23.3,15H20v3.3h3.3L23.3,15z M26.6,3.3H25
	V0h-3.3v3.3H8.3V0H5v3.3H3.3C1.5,3.3,0,4.8,0,6.6c0,0,0,0,0,0l0,23.3c0,1.8,1.5,3.3,3.3,3.3c0,0,0,0,0,0h23.3c1.8,0,3.3-1.5,3.3-3.3
	V6.7C29.9,4.8,28.4,3.3,26.6,3.3z M26.6,29.9H3.3V11.6h23.3V29.9z"/>
</svg>
