<svg xmlns="http://www.w3.org/2000/svg" width="29.941" height="33.268" viewBox="0 0 29.941 33.268">
  <path id="Icon_material-date-range" data-name="Icon material-date-range" d="M14.48,17.971H11.154V21.3H14.48Zm6.654,0H17.807V21.3h3.327Zm6.654,0H24.461V21.3h3.327ZM31.114,6.327H29.451V3H26.124V6.327H12.817V3H9.49V6.327H7.827a3.312,3.312,0,0,0-3.31,3.327L4.5,32.941a3.326,3.326,0,0,0,3.327,3.327H31.114a3.337,3.337,0,0,0,3.327-3.327V9.654A3.337,3.337,0,0,0,31.114,6.327Zm0,26.614H7.827v-18.3H31.114Z" transform="translate(-4.5 -3)" fill="#fff"/>
</svg>
