<svg xmlns="http://www.w3.org/2000/svg" width="34.182" height="25.18" viewBox="0 0 34.182 25.18">
  <path id="field_soccer_football_field" data-name="field, soccer, football field" d="M35.406,7,2.777,7.32A.777.777,0,0,0,2,8.1V31.4a.777.777,0,0,0,.777.777H35.406a.777.777,0,0,0,.777-.777V8.1C36.182,7.668,35.835,7,35.406,7ZM18.314,22.747a3.093,3.093,0,0,1,0-5.994Zm1.554-5.994a3.093,3.093,0,0,1,0,5.994ZM3.554,15.089H6.661v9.322H3.554Zm0,10.876H7.438a.777.777,0,0,0,.777-.777V14.312a.777.777,0,0,0-.777-.777H3.554V8.874H18.314v6.294a4.646,4.646,0,0,0,0,9.165v6.294H3.554Zm16.314,4.661V24.333a4.646,4.646,0,0,0,0-9.165V8.874H34.629v4.661H30.744a.777.777,0,0,0-.777.777V25.188a.777.777,0,0,0,.777.777h3.884v4.661Zm14.761-6.215H31.521V15.089h3.107Z" transform="translate(-2 -7)" fill="#fff"/>
</svg>
