<?xml version="1.0" encoding="utf-8"?>
<!-- Generator: Adobe Illustrator 25.0.0, SVG Export Plug-In . SVG Version: 6.00 Build 0)  -->
<svg version="1.1" id="Layer_1" xmlns="http://www.w3.org/2000/svg" xmlns:xlink="http://www.w3.org/1999/xlink" x="0px" y="0px"
	 viewBox="0 0 34.2 25.2" style="enable-background:new 0 0 34.2 25.2;" xml:space="preserve">
<path id="field_soccer_football_field" d="M33.4,0L0.8,0.3C0.3,0.3,0,0.7,0,1.1c0,0,0,0,0,0v23.3c0,0.4,0.3,0.8,0.8,0.8h32.6
	c0.4,0,0.8-0.3,0.8-0.8l0,0V1.1C34.2,0.7,33.8,0,33.4,0z M16.3,15.7c-1.7-0.4-2.7-2.1-2.2-3.8c0.3-1.1,1.1-2,2.2-2.2V15.7z
	 M17.9,9.8c1.7,0.4,2.7,2.1,2.2,3.8c-0.3,1.1-1.1,2-2.2,2.2V9.8z M1.6,8.1h3.1v9.3H1.6V8.1z M1.6,19h3.9c0.4,0,0.8-0.3,0.8-0.8l0,0
	V7.3c0-0.4-0.3-0.8-0.8-0.8h0H1.6V1.9h14.8v6.3c-2.5,0.4-4.2,2.8-3.8,5.3c0.3,2,1.9,3.5,3.8,3.8v6.3H1.6V19z M17.9,23.6v-6.3
	c2.5-0.4,4.2-2.8,3.8-5.3c-0.3-2-1.9-3.5-3.8-3.8V1.9h14.8v4.7h-3.9c-0.4,0-0.8,0.3-0.8,0.8v0v10.9c0,0.4,0.3,0.8,0.8,0.8l0,0h3.9
	v4.7H17.9z M32.6,17.4h-3.1V8.1h3.1L32.6,17.4z"/>
</svg>
