<?xml version="1.0" encoding="utf-8"?>
<!-- Generator: Adobe Illustrator 25.0.0, SVG Export Plug-In . SVG Version: 6.00 Build 0)  -->
<svg version="1.1" id="Layer_1" xmlns="http://www.w3.org/2000/svg" xmlns:xlink="http://www.w3.org/1999/xlink" x="0px" y="0px"
	 viewBox="0 0 31.6 31.6" style="enable-background:new 0 0 31.6 31.6;" xml:space="preserve">
<g id="Icon_ionic-md-time" transform="translate(0 0)">
	<path id="Path_1" d="M15.8,0C7.1,0,0,7.1,0,15.8s7.1,15.8,15.8,15.8c8.7,0,15.8-7.1,15.8-15.8C31.6,7.1,24.5,0,15.8,0
		C15.8,0,15.8,0,15.8,0z M15.8,28.4c-7,0-12.6-5.7-12.6-12.6S8.8,3.2,15.8,3.2s12.6,5.7,12.6,12.6C28.4,22.8,22.8,28.4,15.8,28.4
		L15.8,28.4z"/>
	<path id="Path_2" d="M16.6,7.9h-2.4v9.5l8.3,5l1.2-1.9l-7.1-4.2L16.6,7.9z"/>
</g>
</svg>
