<?xml version="1.0" encoding="utf-8"?>
<!-- Generator: Adobe Illustrator 25.2.3, SVG Export Plug-In . SVG Version: 6.00 Build 0)  -->
<svg version="1.1" id="Lager_1" xmlns="http://www.w3.org/2000/svg" xmlns:xlink="http://www.w3.org/1999/xlink" x="0px" y="0px"
	 viewBox="0 0 552.2 133.5" style="enable-background:new 0 0 552.2 133.5;" xml:space="preserve">
<style type="text/css">
	.st0{fill:#FFFFFF;}
	.st1{fill:#00242E;}
	.st2{fill-rule:evenodd;clip-rule:evenodd;fill:#00242E;}
	.st3{fill-rule:evenodd;clip-rule:evenodd;fill:#49A6E1;}
	.st4{fill-rule:evenodd;clip-rule:evenodd;fill:#FFFFFF;}
	.st5{fill-rule:evenodd;clip-rule:evenodd;fill:#F8AF8B;}
	.st6{fill-rule:evenodd;clip-rule:evenodd;fill:#F75200;}
</style>
<g>
	<path class="st0" d="M402.3,28.9c0-3.1-2.5-5.7-5.7-5.7h-0.2c-0.3-2.8-2.7-5-5.6-5H25.1c-1.3,0-2.6,0.5-3.6,1.3L8.2,30.7
		c-0.5,0.4-0.9,0.9-1.2,1.4c-1,1-1.5,2.4-1.5,3.9v54.5c0,1.7,0.7,3.3,2,4.3l5.3,4.5c0.2,0.2,0.3,0.3,0.5,0.5L26.6,111
		c1,0.9,2.3,1.3,3.6,1.3h355.9c2.1,0,3.9-1.1,4.8-2.7c0.9-1,1.5-2.4,1.5-3.9V84.2c0-3.1-2.5-5.7-5.7-5.7h-0.2c0-0.1,0-0.3-0.1-0.4
		l8.1-21.1h1.2c2.1,0,3.9-1.1,4.8-2.7c0.9-1,1.5-2.4,1.5-3.9V28.9H402.3z"/>
	<path class="st1" d="M396.6,25.8h-2.7V24c0-1.7-1.4-3.1-3.1-3.1H25.1c-0.7,0-1.5,0.3-2,0.7L9.8,32.8c-0.7,0.6-1.1,1.5-1.1,2.4v54.5
		c0,0.9,0.4,1.8,1.1,2.4l5.5,4.6c0.1,0.1,0.2,0.3,0.4,0.4L29,108.3c0.6,0.5,1.3,0.7,2,0.7h355.9c1.7,0,3.1-1.4,3.1-3.1V84.4
		c0-1.7-1.4-3.1-3.1-3.1h-2.7v-1.8c0-0.4-0.1-0.9-0.2-1.2l9.4-24.5h3.2c1.7,0,3.1-1.4,3.1-3.1V29.2
		C399.7,27.2,398.3,25.8,396.6,25.8z"/>
	<g>
		<path class="st0" d="M18.3,86.3V37.7l9.3-7.8h21.6l9.3,7.8v11.6H44.3v-6.9l-3.2-2.7h-5.4l-3.2,2.7v39.5l3.2,2.6h5.5l3.1-2.6V69.6
			h-7V59.4h21.3v26.8L49.3,94H27.6L18.3,86.3z"/>
		<path class="st0" d="M64.8,85.2h3L77,38.8h-5.4v-8.9h35v8.9h-5.4l9.1,46.4h3.1v8.9H92.6v-8.9h3.8l-1.5-9.5H82.2l-1.5,9.5h4v8.9
			H64.8V85.2z M83.7,66.6h9.5l-4.6-28.4h-0.2L83.7,66.6z"/>
		<path class="st0" d="M117.8,85.2h4.9V38.8h-4.9v-8.9h26.3l8.1,47.2l8-47.2h26.3v8.9h-5v46.4h5v8.9h-22v-8.9h4.1V40l-9.9,50.4
			h-14.6l-9.9-50.2v45h5v8.9h-21.5L117.8,85.2L117.8,85.2z"/>
		<path class="st0" d="M190.8,85.2h4.9V38.8h-4.9v-8.9h40.4v17.2h-11.8v-8.3H210v17.3h16.3v10.5H210v18.5h9.6v-8.6h11.8V94h-40.6
			L190.8,85.2L190.8,85.2z"/>
		<path class="st0" d="M236.5,85.2h4.9V38.8h-4.9v-8.9h35.3l9.3,7.8v48.6l-9.3,7.8h-35.3L236.5,85.2L236.5,85.2z M263.7,84.3
			l3.2-2.7V42.4l-3.2-2.7h-8.1v44.5h8.1V84.3z"/>
		<path class="st0" d="M287.3,85.2h3l9.2-46.4h-5.4v-8.9h35v8.9h-5.4l9.1,46.4h3.1v8.9H315v-8.9h3.8l-1.5-9.5h-12.5l-1.5,9.5h4v8.9
			h-19.8v-8.9H287.3z M306.1,66.6h9.5L311,38.2h-0.2L306.1,66.6z"/>
		<path class="st0" d="M346.7,85.2h7.1V73.6l-13.4-34.7H337V30h22.7v8.9h-5.1l7.1,22.2l7.4-22.2h-5.2V30h20.9v8.9h-3.4L368,73.6
			v11.6h7.1v8.9h-28.3v-8.9H346.7z"/>
	</g>
</g>
<g>
	<path class="st0" d="M545.1,72.6c-1.9-6.6-10.7-9.6-12.4-10.1l-0.1,0c-0.7-0.2-1.5-0.4-2.3-0.6c-1.9-0.5-3.9-1-6.3-1.7
		c11.3-3.4,16.3-11.5,13.8-22.3c-0.1-0.4-0.2-0.9-0.3-1.3l0-0.3c-1.8-6.5-6.3-12.7-9.6-14.9c-7.7-5.3-15.8-4-19.6-3.1
		c-0.8-0.9-2.1-2.3-3.9-4.5c-0.3-0.3-0.6-0.7-0.9-1.1c-4.4-5.3-8.8-6.6-11.7-6.8c-4.2-0.2-26.4,0.5-30.9,1.7c-0.5,0.1-1,0.3-1.6,0.5
		c-4.1,1.9-14.5,10.7-19.8,16.9c-4.2,5-6.5,20.6-5.3,29.5c0.3,2.5,0.6,6.5-1,13.2c-0.2,0.2-0.6,0.4-1.2,0.8
		c-5.6,3.7-8.8,8.7-9.8,14.9c-0.8,5.1,0,11,2.6,17.4l0.7,1.9l1.9-0.7l1.3,8.9l5.3-3.4l1.3,8.5l4.8-4.1l2.8,14.5l2.8-4
		c4.2-6,12.2-16,16.1-17c8.4-2.3,18.9-1.9,28.9-1.6c8.7,0.3,16.8,0.6,22.8-1c4.4-1.2,8.8-2.8,13-4.9c2.8-1.4,6.2-5,8.7-7.9
		c3.6-1.1,6.6-3.4,8.4-6.6C545.7,80.1,546.2,76.3,545.1,72.6z"/>
	<g>
		<g transform="translate(137.75 .095)">
			<path class="st2" d="M291.4,98.7l1.2,8.3l5.3-3.4l1.3,8l4.7-4l2.5,13.2c0,0,11.2-16.2,17.2-17.8c16.3-4.5,39.5,0.7,51.8-2.5
				c4.9-1.3,9.2-3.1,12.6-4.8c3.4-1.7,8.5-7.9,8.5-7.9c6.9-1.8,10.9-8.6,9-15.1c-1.7-5.8-10.1-8.5-11.1-8.7h0h0
				c-0.7-0.2-1.5-0.4-2.2-0.6c-2.7-0.7-6.1-1.6-11.1-3.1c-0.8-0.2-1.5-0.5-2.2-1c1.6-0.1,3.6-0.5,5.8-1
				c11.1-2.9,15.8-10.2,13.5-20.3c-0.1-0.5-0.2-0.9-0.3-1.4v0v0c-1.7-6-5.8-11.8-8.8-13.9c-7.4-5.1-15.1-3.5-19-2.6
				c-0.8-0.7-2.3-2.3-4.9-5.5c-0.3-0.3-0.6-0.7-0.8-1.1c-4-4.8-7.8-5.9-10.2-6C350,7.1,328,7.9,323.8,9c-0.4,0.1-0.8,0.2-1.2,0.4
				c-3.5,1.6-13.6,10-19.1,16.4c-3.8,4.5-6,19.6-4.9,28c0.3,2.7,0.6,7.1-1.1,14.3l0,0.1c-0.1,0.1-0.6,0.6-1.9,1.4
				c-5.1,3.4-8.1,8-8.9,13.6c-0.8,5.4,0.4,11.2,2.4,16.5L291.4,98.7L291.4,98.7z"/>
		</g>
		<path class="st3" d="M506.6,28.5c-2.3,0.5-2.3,0.2-3.7-0.5c-1.5-0.7-9.6-10-10.3-10.4c-0.5-0.4-0.9-1-2.5-1
			c-1.6,0-21.7,0.5-24.6,0.8c-2.5,0.2-4.5,1.9-5.5,2.8c-0.5,0.5-9.3,8.4-10.6,10c-5.5,7.3-4.5,19.3-4.2,19.9
			c3.1-11.9,16.4-28.4,17.3-26.8c0.2,0.4,0.9,1.7,1.6,3.4c1.5,3.2,3.9,9.6,5.2,12.7c4.9-2.2,18-7.7,29.1-8.3
			c-7.2,1.9-8.2,2.1-20.1,7.5c2,0,3.1,0.2,3.9,0.2c0.7,0,1.8-0.1,2.9-0.3c5.7-1.3,22.2-10,28.4-11c1.8-0.3,3.9-0.4,6,0l0-0.1
			C515.9,25.7,508.9,28,506.6,28.5"/>
		<path class="st4" d="M457.9,48.9c0.2,1.5,1.2,0.9,1.5,0.5c0.3-0.4,2.8-2.8,7.7-6.4c0.9-0.7,0.2-1.6,0-2.2c-0.5-1.5-4.8-12-4.8-12
			c0-0.1,0-0.2-0.1-0.2c-0.3-0.7-1.1-1.1-1.5-0.5c-0.2,0.2-0.6,1.8-1.1,4.1C458.6,36.2,457.6,42.8,457.9,48.9 M484.8,66.4
			c-0.1-0.2-0.2-0.4-0.3-0.6c-0.2-0.3-0.3-0.5-0.5-0.8c-1.7-2.7-6.9-10.9-12.9-9.6c-0.1,0-0.2,0-0.3,0.1c-4.2,1.1-4.5,5.6-4.5,7.1
			v0.1c0,0.4,0,0.9,0.1,1c0,0,0,0,0.3,0.1c0.3,0.1,1.3,0.2,2.8,0.5c0.2-2.5,1.5-4.8,3.5-5.3c2.8-0.7,6,1.7,7.1,5.5
			c0.1,0.3,0.2,0.9,0.4,1.4"/>
		<path class="st4" d="M470.5,63.5c0.2,0.8,1,1.2,1.9,1c0.8-0.2,1.3-1,1-1.8l0,0c-0.2-0.8-1-1.2-1.9-1
			C470.8,62,470.3,62.8,470.5,63.5C470.5,63.5,470.5,63.5,470.5,63.5"/>
		<path class="st4" d="M522.4,79c-1-3.5,0.4-7.1,3.2-9.2c-1.5-0.3-13.7-3.8-15.6-4.5c0,0-1.1-1.7-6-2.6c-4.3-0.7-8.6,4-17.4,6.5
			c-48.9,13.8-30-32.9-29-37c-3.7,5.5-6.7,11.2-9,17.4c0,0,0,0,0,0c-3.8,10.3-4.3,18.7-4.8,23.9c-9.6,4.6-10.6,11.1-10.5,12.5
			c1.8-1.5,8.6-2.4,9-2.4c0.5,0,3.3-0.3,0.4,1.8c-4.6,3.2-6.4,7.4-7.5,11.8c1.6-2.6,9.8-6.2,12.4-6.1c-1.5,1.4-4.6,7.5-5.5,11.6
			c0.7-1.5,6-7.2,10.4-8c-1.4,0.9-3.5,5.6-3.9,9.7c2.1-3.6,5.2-6.5,6.7-7.7c5.7-5,34.7-3,35.7-3.1c0.1,0,0.5,0,1,0
			c-11-1.6-22-7.7-23.7-8.4c-2.2-0.9-4.2-1-5.6,0.4c-1.4,1.4-0.7,4.2,0,6c0,0-8.7-16.5,0.1-12.2c6.6,3.2,20.5,12.7,37.2,14.3
			c1.4,0,2.8,0,4.3,0c8.4-0.1,21.2-6.5,22.9-7.8c0.3-0.2,0.9-0.8,0.2-1.4C525.1,83.5,523.1,81.6,522.4,79"/>
		<path class="st5" d="M457.6,32.2c-11,18.6-7.4,37.4-6.8,40c-1.4,0.2-2.7,0.6-4,1.2c-0.1-0.8-0.2-1.7-0.2-2.6
			c-0.4-7.6,1.1-17.1,2.1-21.2c0,0,0,0,0,0C450.8,43.5,453.9,37.7,457.6,32.2"/>
		<path class="st4" d="M527.3,80.5c-0.6-0.3-3.6-2.9-1.6-7c2-4,6.7-4.3,7.2-3.7c-2.9,1.9-3.5,2.8-4.4,4.4
			C527.6,75.7,527.2,77.4,527.3,80.5"/>
		<path class="st6" d="M487.7,56.1c-5.2-2.5-14.7-6.2-20.1-3.1c-0.1,0.1-0.3,0.1-0.1-0.1c0.9-1.1,6-6.2,8.4-7.1
			c2.1-0.8,9.3,5.9,13.2,9.7C488.5,55.7,488.2,55.9,487.7,56.1 M486.2,68.5c-0.8,0-18.8-2.5-20.4-2.9c-1.6-0.5-1.6-1.5-1.7-2.9
			c0-3.8,1.5-8.4,6.5-9.4c8.5-1.8,14.9,10,16.3,11.9C488.4,67.4,487.3,68.5,486.2,68.5 M505.5,51.3c-0.6,0.8-1.2,1.7-1.8,2.6
			c-0.4,0-0.9,0.1-1.3,0.1c0.3-1.1,0.6-2.5,1-3.9c-4-2-12.9-6.6-16.4-7.9c-3.9-1.3-8.7-2.1-13.6-0.5c-4.2,1.4-6,3.3-8.7,5.8
			c-2.2,2.1-6.9,6.5-6.9,6.5c-4.4-1.5-1.2-17.6-0.3-21.8c-11,18.6-7.4,37.4-6.8,40c4.2-0.7,9.5-0.1,14.9,0.9
			c7.3,1.4,13.3-0.6,13.3-0.6l24.3-7.5c3.6-0.6,6.4,0.2,6.8,0.3h0c0,0-3.1-11.5-3.8-13.7C506,51.6,505.8,51.4,505.5,51.3"/>
		<path class="st5" d="M490.3,54.9c0.2-0.1,0.4-0.1,0.5-0.2c-2.9-2.6-8.1-6.5-14.9-10.4c-0.2-0.1-0.4-0.1-0.6,0
			c-3,0.9-5.6,2.4-7.3,3.7c-0.1,0,0,0.1,0.1,0.1C477.6,47.8,485.8,52,490.3,54.9"/>
	</g>
	<g>
		<g>
			<path class="st4" d="M429.1,99.4L429.1,99.4L429.1,99.4z"/>
			<path class="st4" d="M545.1,73.3c-1.9-6.6-10.7-9.6-12.4-10.1l-0.1,0c-0.7-0.2-1.5-0.4-2.3-0.6c-1.9-0.5-3.9-1-6.3-1.7
				c11.3-3.4,16.3-11.5,13.8-22.3c-0.1-0.4-0.2-0.9-0.3-1.3l0-0.3c-1.8-6.5-6.3-12.7-9.6-14.9c-7.7-5.3-15.8-4-19.6-3.1
				c-0.8-0.9-2.1-2.3-3.9-4.5c-0.3-0.3-0.6-0.7-0.9-1.1c-4.4-5.3-8.8-6.6-11.7-6.8c-4.2-0.2-26.4,0.5-30.9,1.7
				c-0.5,0.1-1,0.3-1.6,0.5c-4.1,1.9-14.5,10.7-19.8,16.9c-4.2,5-6.5,20.6-5.3,29.5c0.3,2.5,0.6,6.5-1,13.2
				c-0.2,0.2-0.6,0.4-1.2,0.8c-5.6,3.7-8.8,8.7-9.8,14.9c-0.8,5.1,0,11,2.6,17.4l0.7,1.9l1.9-0.7l1.3,8.9l5.3-3.4l1.3,8.5l4.8-4.1
				l2.8,14.5l2.8-4c4.2-6,12.2-16,16.1-17c8.4-2.3,18.9-1.9,28.9-1.6c8.7,0.3,16.8,0.6,22.8-1c4.4-1.2,8.8-2.8,13-4.9
				c2.8-1.4,6.2-5,8.7-7.9c3.6-1.1,6.6-3.4,8.4-6.6C545.7,80.7,546.2,76.9,545.1,73.3z M534.2,88.5c0,0-5.1,6.2-8.5,7.9
				c-3.4,1.7-7.7,3.4-12.6,4.8c-12.2,3.2-35.5-1.9-51.8,2.5c-6,1.7-17.2,17.8-17.2,17.8l-2.5-13.2l-4.7,4l-1.3-8l-5.3,3.4l-1.2-8.3
				l-2.4,0.9c-2.1-5.3-3.3-11.1-2.4-16.5c0.9-5.6,3.9-10.2,8.9-13.6c1.3-0.8,1.7-1.3,1.9-1.4l0-0.1c1.8-7.2,1.5-11.6,1.1-14.3
				c-1.1-8.4,1-23.5,4.9-28c5.5-6.4,15.6-14.8,19.1-16.4c0.4-0.2,0.8-0.3,1.2-0.4c4.2-1.1,26.2-1.9,30.3-1.7c2.5,0.1,6.2,1.3,10.2,6
				c0.3,0.3,0.6,0.7,0.8,1.1c2.6,3.1,4,4.7,4.9,5.5c3.9-1,11.6-2.5,19,2.6c2.9,2,7.2,7.9,8.8,13.9v0v0c0.1,0.4,0.2,0.9,0.3,1.4
				c2.4,10.2-2.4,17.4-13.5,20.3c-2.2,0.6-4.2,0.9-5.8,1c0.7,0.4,1.4,0.7,2.2,1c5,1.5,8.4,2.4,11.1,3.1c0.8,0.2,1.5,0.4,2.2,0.6h0h0
				c1,0.3,9.4,2.9,11.1,8.7C545.1,79.8,541,86.6,534.2,88.5z"/>
		</g>
		<path class="st3" d="M506.6,29.1c-2.3,0.5-2.3,0.2-3.7-0.5c-1.5-0.7-9.6-10-10.3-10.4c-0.5-0.4-0.9-1-2.5-1
			c-1.6,0-21.7,0.5-24.6,0.8C463,18.3,461,20,460,21c-0.5,0.5-9.3,8.4-10.6,10c-5.5,7.3-4.5,19.3-4.2,19.9
			c3.1-11.9,16.4-28.4,17.3-26.8c0.2,0.4,0.9,1.7,1.6,3.4c1.5,3.2,3.9,9.6,5.2,12.7c4.9-2.2,18-7.7,29.1-8.3
			c-7.2,1.9-8.2,2.1-20.1,7.5c2,0,3.1,0.2,3.9,0.2c0.7,0,1.8-0.1,2.9-0.3c5.7-1.3,22.2-10,28.4-11c1.8-0.3,3.9-0.4,6,0l0-0.1
			C515.9,26.4,508.9,28.7,506.6,29.1"/>
		<path class="st4" d="M457.9,49.5c0.2,1.5,1.2,0.9,1.5,0.5c0.3-0.4,2.8-2.8,7.7-6.4c0.9-0.7,0.2-1.6,0-2.2c-0.5-1.5-4.8-12-4.8-12
			c0-0.1,0-0.2-0.1-0.2c-0.3-0.7-1.1-1.1-1.5-0.5c-0.2,0.2-0.6,1.8-1.1,4.1C458.6,36.8,457.6,43.4,457.9,49.5 M484.8,67
			c-0.1-0.2-0.2-0.4-0.3-0.6c-0.2-0.3-0.3-0.5-0.5-0.8c-1.7-2.7-6.9-10.9-12.9-9.6c-0.1,0-0.2,0-0.3,0.1c-4.2,1.1-4.5,5.6-4.5,7.1
			v0.1c0,0.4,0,0.9,0.1,1c0,0,0,0,0.3,0.1c0.3,0.1,1.3,0.2,2.8,0.5c0.2-2.5,1.5-4.8,3.5-5.3c2.8-0.7,6,1.7,7.1,5.5
			c0.1,0.3,0.2,0.9,0.4,1.4"/>
		<path class="st4" d="M470.5,64.2c0.2,0.8,1,1.2,1.9,1c0.8-0.2,1.3-1,1-1.8l0,0c-0.2-0.8-1-1.2-1.9-1
			C470.8,62.7,470.3,63.4,470.5,64.2C470.5,64.2,470.5,64.2,470.5,64.2"/>
		<path class="st4" d="M522.4,79.7c-1-3.5,0.4-7.1,3.2-9.2c-1.5-0.3-13.7-3.8-15.6-4.5c0,0-1.1-1.7-6-2.6c-4.3-0.7-8.6,4-17.4,6.5
			c-48.9,13.8-30-32.9-29-37c-3.7,5.5-6.7,11.2-9,17.4c0,0,0,0,0,0c-3.8,10.3-4.3,18.7-4.8,23.9c-9.6,4.6-10.6,11.1-10.5,12.5
			c1.8-1.5,8.6-2.4,9-2.4c0.5,0,3.3-0.3,0.4,1.8c-4.6,3.2-6.4,7.4-7.5,11.8c1.6-2.6,9.8-6.2,12.4-6.1c-1.5,1.4-4.6,7.5-5.5,11.6
			c0.7-1.5,6-7.2,10.4-8c-1.4,0.9-3.5,5.6-3.9,9.7c2.1-3.6,5.2-6.5,6.7-7.7c5.7-5,34.7-3,35.7-3.1c0.1,0,0.5,0,1,0
			c-11-1.6-22-7.7-23.7-8.4c-2.2-0.9-4.2-1-5.6,0.4s-0.7,4.2,0,6c0,0-8.7-16.5,0.1-12.2c6.6,3.2,20.5,12.7,37.2,14.3
			c1.4,0,2.8,0,4.3,0c8.4-0.1,21.2-6.5,22.9-7.8c0.3-0.2,0.9-0.8,0.2-1.4C525.1,84.2,523.1,82.2,522.4,79.7"/>
		<path class="st5" d="M457.6,32.8c-11,18.6-7.4,37.4-6.8,40c-1.4,0.2-2.7,0.6-4,1.2c-0.1-0.8-0.2-1.7-0.2-2.6
			c-0.4-7.6,1.1-17.1,2.1-21.2c0,0,0,0,0,0C450.8,44.1,453.9,38.3,457.6,32.8"/>
		<path class="st4" d="M527.3,81.1c-0.6-0.3-3.6-2.9-1.6-7c2-4,6.7-4.3,7.2-3.7c-2.9,1.9-3.5,2.8-4.4,4.4
			C527.6,76.4,527.2,78,527.3,81.1"/>
		<path class="st6" d="M487.7,56.7c-5.2-2.5-14.7-6.2-20.1-3.1c-0.1,0.1-0.3,0.1-0.1-0.1c0.9-1.1,6-6.2,8.4-7.1
			c2.1-0.8,9.3,5.9,13.2,9.7C488.5,56.3,488.2,56.5,487.7,56.7 M486.2,69.1c-0.8,0-18.8-2.5-20.4-2.9c-1.6-0.5-1.6-1.5-1.7-2.9
			c0-3.8,1.5-8.4,6.5-9.4c8.5-1.8,14.9,10,16.3,11.9C488.4,68.1,487.3,69.1,486.2,69.1 M505.5,51.9c-0.6,0.8-1.2,1.7-1.8,2.6
			c-0.4,0-0.9,0.1-1.3,0.1c0.3-1.1,0.6-2.5,1-3.9c-4-2-12.9-6.6-16.4-7.9c-3.9-1.3-8.7-2.1-13.6-0.5c-4.2,1.4-6,3.3-8.7,5.8
			c-2.2,2.1-6.9,6.5-6.9,6.5c-4.4-1.5-1.2-17.6-0.3-21.8c-11,18.6-7.4,37.4-6.8,40c4.2-0.7,9.5-0.1,14.9,0.9
			c7.3,1.4,13.3-0.6,13.3-0.6l24.3-7.5c3.6-0.6,6.4,0.2,6.8,0.3h0c0,0-3.1-11.5-3.8-13.7C506,52.2,505.8,52,505.5,51.9"/>
		<path class="st5" d="M490.3,55.5c0.2-0.1,0.4-0.1,0.5-0.2c-2.9-2.6-8.1-6.5-14.9-10.4c-0.2-0.1-0.4-0.1-0.6,0
			c-3,0.9-5.6,2.4-7.3,3.7c-0.1,0,0,0.1,0.1,0.1C477.6,48.4,485.8,52.6,490.3,55.5"/>
	</g>
</g>
</svg>
