<?xml version="1.0" encoding="utf-8"?>
<!-- Generator: Adobe Illustrator 25.0.0, SVG Export Plug-In . SVG Version: 6.00 Build 0)  -->
<svg version="1.1" id="Lager_1" xmlns="http://www.w3.org/2000/svg" xmlns:xlink="http://www.w3.org/1999/xlink" x="0px" y="0px"
	 viewBox="0 0 2000 517.9" style="enable-background:new 0 0 2000 517.9;" xml:space="preserve">
<style type="text/css">
	.st0{fill:#8F0020;}
</style>
<g>
	<path class="st0" d="M334.1,64.2c0,7.3-1.8,14.7-5.5,22.2c-3.7,7.5-8.7,14.2-15,20.3c-6.4,6-13.7,11.1-21.9,15
		c-8.3,4-16.9,6-25.8,6c-1.3,0-2.9-0.2-4.8-0.7c-1.9-0.5-2.9-1.8-2.9-4.1c0-1.9,1.3-4.6,3.8-8.1c3.2-4.5,6.2-8.9,9.1-13.4
		c2.2-3.8,4.3-8,6.2-12.6c1.9-4.6,2.9-9.1,2.9-13.6c0-6.4-2.5-10.9-7.6-13.6c-5.1-2.7-11-4.1-17.6-4.1c-5.7,0-11.8,1.1-18.1,3.3
		c-6.4,2.2-12.2,5.5-17.4,9.8c-5.2,4.3-9.6,9.7-13.1,16.2c-3.5,6.5-5.2,14.1-5.2,22.7c0,10.5,2.6,19.4,7.9,26.7
		c5.2,7.3,13,15.9,23.1,25.8c2.9,2.6,7.2,6.6,12.9,12.2c5.7,5.6,11.4,12.4,17.2,20.5c5.7,8.1,10.7,17.3,15,27.7
		c4.3,10.3,6.4,21.5,6.4,33.6c0,18.1-4.4,34.8-13.1,50.1c-8.8,15.3-20.3,28.4-34.6,39.3c-14.3,11-30.6,19.5-48.9,25.5
		c-18.3,6-37,9.1-56,9.1c-19.4,0-35-2.1-46.7-6.4c-11.8-4.3-20.7-9.6-26.9-16c-6.2-6.4-10.3-13.1-12.2-20.3
		c-1.9-7.1-2.9-13.6-2.9-19.3c0-12.1,2.8-23.4,8.3-34.1c5.6-10.6,12.9-20,21.9-28.1c9.1-8.1,19.5-14.6,31.2-19.6
		c11.8-4.9,23.8-7.4,36.2-7.4c3.5,0.6,5.9,1.4,7.2,2.1c1.3,0.8,1.9,1.8,1.9,3.1c0,1.6-0.6,3-1.9,4.3c-0.6,1-1.3,1.6-1.9,1.9
		c-16.2,15.3-27.3,29.6-33.4,43.2c-6,13.5-9.1,25.5-9.1,36c0,14.3,3.7,24.6,11,30.8c7.3,6.2,16.1,9.3,26.2,9.3
		c11.8,0,22.7-2.5,32.7-7.4c10-4.9,18.6-11.3,25.8-19.1c7.2-7.8,12.7-16.6,16.7-26.5c4-9.9,6-19.7,6-29.6c0-8.6-1.8-17.1-5.5-25.5
		c-3.7-8.4-8.3-16.7-13.8-24.8c-5.6-8.1-11.6-15.8-18.1-23.1c-6.5-7.3-12.5-14-17.9-20c-8.3-9.5-14.9-18.4-20-26.5
		c-5.1-8.1-7.6-17.7-7.6-28.9c0-5.7,1.6-13.7,4.8-23.8c3.2-10.2,9.5-20.3,19.1-30.5c9.5-10.2,22.8-19,39.8-26.5
		c17-7.5,39.3-11.2,67-11.2c1,0,3.3,0.1,6.9,0.2c3.7,0.2,7.9,0.5,12.6,1c4.8,0.5,9.9,1.3,15.3,2.4c5.4,1.1,10.3,2.7,14.8,4.8
		c4.5,2.1,8.2,4.7,11.2,7.9C332.6,55.5,334.1,59.5,334.1,64.2z"/>
	<path class="st0" d="M495.3,195.4c0,5.1-1,11-3.1,17.6c-2.1,6.7-4.4,13.2-6.9,19.6c-3.2,7.3-6.5,14.9-10,22.9
		c-7,15.3-14.1,30.6-21.2,46c-7.2,15.4-12.5,29.7-16,42.7c-1,2.9-1.8,5.9-2.4,9.1c-1.6,6.4-2.4,13.4-2.4,21c0,7.6,1.3,15.3,3.8,23.1
		c2.5,7.8,7.9,13.9,16.2,18.4c1,0.3,1.9,1,2.9,1.9c1.9,1.9,2.9,3.7,2.9,5.2c-0.3,2.5-1.4,4.1-3.3,4.8c-1.9,0.6-3.7,1-5.2,1
		c-9.5,0-18.4-1.4-26.7-4.3c-8.3-2.9-15.4-6.9-21.5-12.2c-6-5.2-10.7-11.5-14.1-18.8c-3.3-7.3-5-15.6-5-24.8c0-13.7,4-28,11.9-42.9
		v-1c0-0.3,0.1-0.6,0.2-0.7c0.2-0.2,0.2-0.4,0.2-0.7c0-0.6-0.2-1-0.5-1c-1,0-1.9,0.8-2.9,2.4c-8,10.8-16.4,20.4-25.3,28.6
		c-8,7.3-17,13.8-27.2,19.6c-10.2,5.7-21,8.6-32.4,8.6c-6-0.3-11.3-1.9-15.7-4.8c-3.8-2.5-7.3-6.2-10.5-11c-3.2-4.8-4.8-11.8-4.8-21
		c0-3.8,0.7-9.2,2.1-16.2c1.4-7,3.9-14.6,7.4-22.9c3.5-8.3,8.4-16.7,14.8-25.3c6.4-8.6,14.6-16.4,24.6-23.4c10-7,22-12.7,36-17.2
		c14-4.5,30.5-6.7,49.6-6.7c1,0,2.1,0.2,3.3,0.5c2.2,0.6,3.3,2.1,3.3,4.3c0,1.9-0.7,3.7-2.1,5.2c-1.4,1.6-2.9,2.6-4.5,2.9
		c-13,2.5-24.3,7.8-33.6,15.7c-9.4,8-17,16.6-22.9,26c-5.9,9.4-10.3,18.4-13.1,26.9c-2.9,8.6-4.3,14.8-4.3,18.6c0,5.4,1,8.6,2.9,9.5
		c1.9,1,3.8,1.4,5.7,1.4c4.4,0,10-2.7,16.7-8.1c6.7-5.4,13.6-12.3,20.7-20.7c7.2-8.4,14.2-17.9,21.2-28.4c7-10.5,13.3-20.8,18.8-31
		c5.6-10.2,10.1-19.7,13.6-28.6c3.5-8.9,5.2-15.9,5.2-21c0-8.6-2.7-14.4-8.1-17.4c-5.4-3-11.6-4.5-18.6-4.5c-5.1,0-10.1,0.7-15,2.1
		c-4.9,1.4-9.3,2.9-13.1,4.5c-4.5,1.9-8.8,4-12.9,6.2c-3.2,2.2-5.6,3.6-7.4,4.1c-1.8,0.5-2.9,0.7-3.6,0.7c-2.2,0-3.3-1.6-3.3-4.8
		c0-4.1,1.6-8.7,4.8-13.8c3.2-5.1,7.9-9.9,14.3-14.5c6.4-4.6,14.4-8.5,24.1-11.7c9.7-3.2,21.1-4.8,34.1-4.8
		c13.7,0,24.4,1.8,32.2,5.2c7.8,3.5,13.6,7.6,17.4,12.4c3.8,4.8,6.2,9.5,7.2,14.3C494.8,189.2,495.3,192.9,495.3,195.4z"/>
	<path class="st0" d="M835.3,177.3c0,5.1-1,10.8-3.1,17.2c-2.1,6.4-4.6,13-7.6,20c-3,7-6.3,14.1-9.8,21.2
		c-3.5,7.2-6.7,13.8-9.5,19.8c-7,15.3-14.1,30.6-21.2,46c-7.2,15.4-12.5,29.7-16,42.7c-1.6,5.4-2.5,9.4-2.6,11.9
		c-0.2,2.5-0.2,5.1-0.2,7.6c0,1.9-0.4,4-1.2,6.2c-0.8,2.2-2.8,3.7-6,4.3c-7.3,1.9-13.4,3.3-18.1,4.3c-4.8,1-9.4,1.4-13.8,1.4
		c-5.4,0-10-1-13.8-2.9c-3.8-1.9-5.7-5.6-5.7-11c0-3.2,0.2-5.2,0.5-6.2c0.3-1,0.6-1.7,1-2.4c2.9-8.3,7.1-18.7,12.6-31.2
		c5.6-12.6,11-24.9,16.5-37c6.4-14,13.4-28.5,21-43.4c1.6-3.2,3.2-6.5,4.8-10c1.3-2.9,2.6-6,4.1-9.5c1.4-3.5,2.6-6.7,3.6-9.5
		c0.6-1.3,1-2.5,1-3.6c0-1.1,0-2,0-2.6c0-3.2-1.4-4.8-4.3-4.8c-2.5,0-5.1,1-7.6,2.9c-1.3,1-2.2,1.8-2.9,2.4
		c-11.1,10.2-21.8,21.1-32,32.9c-10.2,11.8-19.6,23.5-28.4,35.3c-8.7,11.8-16.6,23-23.6,33.6c-7,10.7-12.7,20-17.2,27.9
		c-1.9,2.9-3.7,5.7-5.2,8.6c-2.9,4.8-5.4,9.4-7.6,13.8c-1.9,3.8-4.5,6.8-7.9,8.8c-3.3,2.1-6.9,3.7-10.7,4.8
		c-3.8,1.1-7.6,1.8-11.4,2.1c-3.8,0.3-7.2,0.5-10,0.5h-5.7c-1,0-1.6-0.2-1.9-0.5c-4.5-0.3-7.2-1.4-8.3-3.3c-1.1-1.9-1.7-3.8-1.7-5.7
		v-2.4c0-0.3,0.2-0.8,0.5-1.4c1-3.2,2.4-7.4,4.3-12.6c1.9-5.2,4.2-11,6.9-17.2c2.7-6.2,5.6-12.7,8.6-19.6c3-6.8,6.1-13.6,9.3-20.3
		c7.3-15.6,15.3-32.4,23.9-50.6c2.9-5.4,5.2-10,6.9-13.8c1.7-3.8,3.3-7.7,4.8-11.7c1.4-4,2.1-7.2,2.1-9.8c0-3.2-1.6-4.8-4.8-4.8
		c-2.9,0.6-5.4,1.4-7.6,2.4c-1.3,0.6-2.2,1.4-2.9,2.4c-11.1,10.5-21.7,21.6-31.7,33.4c-10,11.8-19.3,23.5-27.9,35.3
		c-8.6,11.8-16.3,22.9-23.1,33.4c-6.8,10.5-12.6,19.7-17.4,27.7c-1.6,2.9-3.2,5.6-4.8,8.1c-1.6,2.6-3.1,5-4.5,7.4
		c-1.4,2.4-2.8,4.7-4.1,6.9c-3.5,6.4-8.9,10.8-16.2,13.4c-7.3,2.5-14.5,3.8-21.5,3.8c-4.1,0-8.5-0.6-13.1-1.9
		c-4.6-1.3-6.9-3.7-6.9-7.2c0-1.6,0.2-2.7,0.5-3.3c0-0.6,0.2-1.1,0.5-1.4c1.6-4.1,3.7-9.4,6.4-15.7c2.7-6.4,5.7-13.4,9.1-21
		c3.3-7.6,6.8-15.6,10.5-23.8c3.7-8.3,7.4-16.5,11.2-24.8c8.6-19.1,18-39.4,28.1-61.1c2.5-5.4,4.9-11,7.2-16.7
		c1.6-4.4,3.2-9.2,4.8-14.3c1.6-5.1,2.4-9.4,2.4-12.9c-0.3-1.6-0.6-2.7-0.7-3.3c-0.2-0.6-0.2-1.4-0.2-2.4c0-1.6,0.4-3.2,1.2-4.8
		c0.8-1.6,2.8-2.9,6-3.8c1.6-0.6,5.9-1.4,12.9-2.4c7-1,13.8-1.4,20.5-1.4c5.1,0,9.5,0.4,13.1,1.2c3.6,0.8,5.5,2.5,5.5,5
		c0,5.7-1.8,13.3-5.2,22.7c-3.5,9.4-7.7,19.2-12.6,29.3c-4.9,10.2-9.9,20.3-14.8,30.3c-4.9,10-8.8,18.4-11.7,25
		c-0.3,0.3-0.5,0.6-0.5,1v1.4c0,1,0.5,1.4,1.4,1.4c1,0,1.7-0.3,2.4-1c0.3-0.3,0.6-0.8,1-1.4c0.3-0.6,2.7-3.9,7.2-9.8
		c4.4-5.9,10.2-13.2,17.2-21.9c7-8.7,14.9-18,23.8-27.9c8.9-9.9,18-19.1,27.4-27.7c9.4-8.6,18.8-15.7,28.1-21.2
		c9.4-5.6,17.9-8.3,25.5-8.3c5.4,0,10.6,1.5,15.5,4.5c4.9,3,7.4,8.7,7.4,16.9c0,6-2,14-6,23.8c-4,9.9-8.3,19.8-12.9,29.8
		c-4.6,10-8.9,19.1-12.9,27.2c-4,8.1-6,13.3-6,15.5c0,1,0.3,1.4,1,1.4c1.3,0,2.5-0.8,3.8-2.4c0.3-0.3,2.6-3.5,6.9-9.5
		c4.3-6,9.9-13.4,16.7-21.9c6.8-8.6,14.6-17.8,23.4-27.7c8.7-9.9,17.8-19.1,27.2-27.7c9.4-8.6,18.7-15.7,27.9-21.2
		c9.2-5.6,17.8-8.3,25.8-8.3c5.4,0,10.7,1.3,16,3.8C832.7,162.7,835.3,168.4,835.3,177.3z"/>
	<path class="st0" d="M1161.1,168.7c0,27-6.4,53.2-19.1,78.5c-12.7,25.3-29.7,47.7-51,67.3c-21.3,19.6-45.9,35.2-73.9,47
		c-28,11.8-57.2,17.6-87.8,17.6c-4.8,0-9-0.1-12.6-0.2c-3.7-0.2-6.8-0.4-9.3-0.7c-3.2-0.3-5.9-0.8-8.1-1.4c-5.1-0.6-8.4-2-10-4.1
		c-1.6-2.1-2.4-4.1-2.4-6c0-2.2,0.2-3.6,0.5-4.3l1-1.9c2.2-6,4.9-12.9,8.1-20.5c3.2-7.6,6.6-15.7,10.3-24.3
		c3.6-8.6,7.5-17.3,11.4-26.2c4-8.9,7.9-17.5,11.7-25.8c8.9-19.7,18.4-39.9,28.6-60.6c5.4-12.4,10-23.1,13.8-32.2
		c3.8-9.1,6.9-16.9,9.3-23.6c2.4-6.7,4.1-12.4,5.2-17.2c1.1-4.8,1.7-9.2,1.7-13.4c0-4.5,1.7-7.6,5.2-9.5c1.3-1,3-1.4,5.2-1.4
		c2.5-0.3,5.2-0.6,8.1-1c2.5-0.3,5.3-0.6,8.3-0.7c3-0.2,6.3-0.2,9.8-0.2c2.2,0,4.9,0.1,7.9,0.2c3,0.2,5.7,0.6,8.1,1.2
		c2.4,0.6,4.5,1.7,6.2,3.1c1.7,1.4,2.6,3.3,2.6,5.5c0,1.3-0.4,3.4-1.2,6.4c-0.8,3-2.6,8.2-5.5,15.5c-2.9,7.3-6.9,17.3-12.2,29.8
		c-5.2,12.6-12.2,28.9-20.7,48.9c-9.2,18.8-17.6,36.7-25.3,53.9c-3.5,7.3-6.8,14.8-10,22.4c-3.2,7.6-6.2,14.9-9.1,21.7
		c-2.9,6.8-5.4,13.3-7.6,19.3c-2.2,6-4,11-5.2,14.8c-0.3,0.3-0.5,0.6-0.5,1v1.9c0,1.6,0.4,3.1,1.2,4.5c0.8,1.4,2.6,2.1,5.5,2.1
		c15.6,0,31.7-5.4,48.4-16.2c16.7-10.8,32-25,46-42.7c14-17.6,25.5-37.8,34.6-60.6c9.1-22.7,13.6-45.9,13.6-69.4
		c0-20.3-3.4-38-10.3-52.9c-6.8-14.9-16.6-27.3-29.3-37.2c-12.7-9.9-28.4-17.2-47-22.2c-18.6-4.9-39.5-7.5-62.7-7.9
		c-1-0.3-1.8-0.8-2.4-1.4c-1.6-1-2.4-2.4-2.4-4.3c0-3.5,3.9-6.9,11.7-10.3c7.8-3.3,19.8-5,36-5c5.1,0,12.7,0.6,22.9,1.7
		c10.2,1.1,21.4,3.3,33.6,6.7c12.2,3.3,24.8,8.2,37.7,14.5c12.9,6.4,24.6,14.8,35.1,25.3c10.5,10.5,19.2,23.5,26,38.9
		C1157.7,128.6,1161.1,147.1,1161.1,168.7z"/>
	<path class="st0" d="M1373.8,192.5c0,3.2-1.9,5.4-5.7,6.7c-4.8,2.5-9.2,5-13.4,7.4c-4.1,2.4-7.7,5.2-10.7,8.6
		c-3,3.3-5.6,7.3-7.9,11.9c-2.2,4.6-3.8,10.3-4.8,16.9c-2.9,21.6-8.6,40.9-17.2,57.9c-8.6,17-18.7,31.5-30.3,43.4
		c-11.6,11.9-24.3,21.1-37.9,27.4c-13.7,6.4-27,9.5-40.1,9.5c-11.8,0-21.6-1.8-29.6-5.2c-8-3.5-14.3-8.1-19.1-13.8
		c-4.8-5.7-8.2-12.3-10.3-19.8c-2.1-7.5-3.1-15.2-3.1-23.1c0-8.9,1.3-19.2,3.8-31c2.5-11.8,6.4-23.9,11.5-36.5
		c5.1-12.6,11.5-25,19.3-37.2c7.8-12.2,16.9-23.2,27.4-32.9c10.5-9.7,22.3-17.6,35.5-23.6c13.2-6,27.7-9.1,43.6-9.1
		c1.9,0,5.1,0.2,9.5,0.7c4.4,0.5,9,1.4,13.6,2.6c4.6,1.3,8.6,3.1,11.9,5.5c3.3,2.4,5,5.5,5,9.3c0,1.6-0.4,3.3-1.2,5
		c-0.8,1.8-2.9,2.6-6.4,2.6c-1.6,0-2.8-0.2-3.6-0.5c-0.8-0.3-1.7-0.7-2.6-1.2c-1-0.5-2.2-1-3.6-1.4c-1.4-0.5-3.7-0.7-6.9-0.7
		c-11.1,0-22.5,4.9-34.1,14.8c-11.6,9.9-22.3,22.3-32.2,37.2c-9.9,15-17.9,31.2-24.1,48.9c-6.2,17.6-9.3,34.1-9.3,49.4
		c0,9.2,1.9,17,5.7,23.4c3.8,6.4,10.3,9.5,19.5,9.5c7.6,0,15.1-2.5,22.4-7.6c7.3-5.1,14-12,20-20.8c6-8.7,10.9-19.1,14.6-31
		c3.6-11.9,5.5-24.7,5.5-38.4c0-8.3-0.8-14.8-2.4-19.6c-1.6-4.8-3.3-8.6-5-11.4c-1.8-2.9-3.4-5-5-6.4c-1.6-1.4-2.4-3.1-2.4-5
		c0-1.3,0.3-2.9,0.9-4.8c0.6-1.9,2.2-3.8,4.8-5.7c7.9-6.4,17.8-11.4,29.6-15c11.8-3.7,24.5-5.5,38.2-5.5c2.2,0,4.8,0.1,7.9,0.2
		c3,0.2,5.9,0.6,8.6,1.2c2.7,0.6,5,1.5,6.9,2.6C1372.8,189.1,1373.8,190.6,1373.8,192.5z"/>
	<path class="st0" d="M1629,47.6c0,1-0.2,1.7-0.5,2.4c-0.6,3.2-2.9,9.5-6.9,19.1c-4,9.5-9,20.8-15,33.9c-6.1,13-12.6,27-19.6,42
		c-7,15-13.9,29.5-20.7,43.6c-6.8,14.2-13.1,27.2-18.8,39.1c-5.7,11.9-10.2,21.2-13.4,27.9c-7.9,16.9-15.7,33.4-23.1,49.6
		c-7.5,16.2-12.3,32.1-14.5,47.7c-0.3,1.9-0.3,3.7,0,5.2c0,1.6,0.2,3.1,0.5,4.5c0.3,1.4,0.8,2.9,1.4,4.5c0,3.5-1.4,6.2-4.3,8.1
		c-2.9,1.9-6.2,3.3-10,4.3c-3.8,1-7.7,1.6-11.7,1.9c-4,0.3-6.9,0.5-8.8,0.5c-7.6,0-13.5-0.9-17.6-2.6c-4.1-1.8-6.2-5.7-6.2-11.7
		c0-3.2,0.1-5.4,0.5-6.7c0.3-1.3,0.6-2.2,1-2.9c0.6-2.5,2.1-6.5,4.3-11.9c1.6-4.5,4.1-10.5,7.6-18.1c3.5-7.6,8.3-17.5,14.3-29.6
		c0.6-1.3,1-2.1,1-2.4c0-0.6-0.3-1-1-1c-0.3,0-1.1,0.3-2.4,1c-0.6,0.3-1.1,0.5-1.4,0.5c-15.9,20.4-30,36.2-42.2,47.5
		c-12.3,11.3-22.7,19.6-31.2,24.8c-8.6,5.2-15.4,8.4-20.5,9.5c-5.1,1.1-8.4,1.7-10,1.7c-8.3,0-14.2-3.1-17.9-9.3
		c-3.7-6.2-5.5-14.4-5.5-24.6c0-10.5,1.8-22.5,5.5-36c3.6-13.5,8.9-27.4,15.7-41.7c6.8-14.3,15.1-28.2,24.8-41.7
		c9.7-13.5,20.5-25.7,32.4-36.5c11.9-10.8,24.7-19.5,38.4-26c13.7-6.5,28.1-9.8,43.4-9.8c8.3,0,14.9,1,20,3.1
		c5.1,2.1,8.4,3.4,10,4.1c1.9,0,3.5-1.3,4.8-3.8c12.1-23.8,21.5-44.4,28.4-61.8c6.8-17.3,10.3-30.6,10.3-39.8
		c-0.3-0.3-0.5-0.8-0.5-1.4c-0.3-0.6-0.5-1.6-0.5-2.9c0-1.6,0.5-3.1,1.4-4.5c1-1.4,2.9-2.5,5.7-3.1c2.2-0.3,4.9-0.8,8.1-1.4
		c2.5-0.6,5.6-1.1,9.3-1.4c3.6-0.3,7.7-0.5,12.2-0.5c6,0,12.4,0.5,19.1,1.4c0.6,0,1.3,0.3,1.9,1C1628.2,44.9,1629,46.3,1629,47.6z
		 M1518.8,179.7c-0.6-5.4-4.6-8.1-11.9-8.1c-7.6,0-15.7,2.9-24.3,8.8c-8.6,5.9-17.1,13.6-25.5,23.1c-8.4,9.5-16.5,20.1-24.3,31.7
		c-7.8,11.6-14.6,23.1-20.5,34.6c-5.9,11.4-10.6,22-14.1,31.7c-3.5,9.7-5.3,17.4-5.3,23.1c0,5.1,2.2,7.6,6.7,7.6
		c4.5,0,10.6-3.4,18.4-10.3c7.8-6.8,16-15.4,24.8-25.8c8.7-10.3,17.6-21.7,26.7-34.1c9.1-12.4,17.2-24.2,24.6-35.5
		c7.3-11.3,13.3-21.3,17.9-30.1C1516.5,187.9,1518.8,182.2,1518.8,179.7z"/>
	<path class="st0" d="M1836.4,47.6c0,1-0.2,1.7-0.5,2.4c-0.6,3.2-2.9,9.5-6.9,19.1c-4,9.5-9,20.8-15,33.9c-6,13-12.6,27-19.6,42
		c-7,15-13.9,29.5-20.7,43.6c-6.8,14.2-13.1,27.2-18.8,39.1c-5.7,11.9-10.2,21.2-13.3,27.9c-8,16.9-15.7,33.4-23.1,49.6
		c-7.5,16.2-12.3,32.1-14.5,47.7c-0.3,1.9-0.3,3.7,0,5.2c0,1.6,0.2,3.1,0.5,4.5c0.3,1.4,0.8,2.9,1.4,4.5c0,3.5-1.4,6.2-4.3,8.1
		c-2.9,1.9-6.2,3.3-10,4.3c-3.8,1-7.7,1.6-11.7,1.9c-4,0.3-6.9,0.5-8.8,0.5c-7.6,0-13.5-0.9-17.6-2.6c-4.1-1.8-6.2-5.7-6.2-11.7
		c0-3.2,0.2-5.4,0.5-6.7c0.3-1.3,0.6-2.2,1-2.9c0.6-2.5,2.1-6.5,4.3-11.9c1.6-4.5,4.1-10.5,7.6-18.1c3.5-7.6,8.3-17.5,14.3-29.6
		c0.6-1.3,1-2.1,1-2.4c0-0.6-0.3-1-1-1c-0.3,0-1.1,0.3-2.4,1c-0.6,0.3-1.1,0.5-1.4,0.5c-15.9,20.4-30,36.2-42.2,47.5
		c-12.2,11.3-22.7,19.6-31.2,24.8c-8.6,5.2-15.4,8.4-20.5,9.5c-5.1,1.1-8.4,1.7-10,1.7c-8.3,0-14.2-3.1-17.9-9.3
		c-3.7-6.2-5.5-14.4-5.5-24.6c0-10.5,1.8-22.5,5.5-36c3.7-13.5,8.9-27.4,15.7-41.7c6.8-14.3,15.1-28.2,24.8-41.7
		c9.7-13.5,20.5-25.7,32.4-36.5c11.9-10.8,24.7-19.5,38.4-26c13.7-6.5,28.1-9.8,43.4-9.8c8.3,0,14.9,1,20,3.1
		c5.1,2.1,8.4,3.4,10,4.1c1.9,0,3.5-1.3,4.8-3.8c12.1-23.8,21.5-44.4,28.4-61.8c6.8-17.3,10.2-30.6,10.2-39.8
		c-0.3-0.3-0.5-0.8-0.5-1.4c-0.3-0.6-0.5-1.6-0.5-2.9c0-1.6,0.5-3.1,1.4-4.5c1-1.4,2.9-2.5,5.7-3.1c2.2-0.3,4.9-0.8,8.1-1.4
		c2.5-0.6,5.6-1.1,9.3-1.4c3.6-0.3,7.7-0.5,12.2-0.5c6,0,12.4,0.5,19.1,1.4c0.6,0,1.3,0.3,1.9,1
		C1835.6,44.9,1836.4,46.3,1836.4,47.6z M1726.3,179.7c-0.6-5.4-4.6-8.1-11.9-8.1c-7.6,0-15.7,2.9-24.3,8.8
		c-8.6,5.9-17.1,13.6-25.5,23.1c-8.4,9.5-16.5,20.1-24.3,31.7c-7.8,11.6-14.6,23.1-20.5,34.6c-5.9,11.4-10.6,22-14.1,31.7
		c-3.5,9.7-5.3,17.4-5.3,23.1c0,5.1,2.2,7.6,6.7,7.6c4.4,0,10.6-3.4,18.4-10.3c7.8-6.8,16.1-15.4,24.8-25.8
		c8.7-10.3,17.6-21.7,26.7-34.1c9.1-12.4,17.2-24.2,24.6-35.5c7.3-11.3,13.3-21.3,17.9-30.1C1723.9,187.9,1726.3,182.2,1726.3,179.7
		z"/>
	<path class="st0" d="M1955.3,169.2c0,1.9-1,5.1-3.1,9.5c-2.1,4.5-4.4,9.4-6.9,14.8c-2.5,5.4-4.9,10.8-7.1,16.2
		c-2.2,5.4-3.5,10-3.8,13.8c0,1.9-0.5,3.5-1.4,4.8c-1.6,2.9-4.8,4.3-9.5,4.3c-0.6,0-2.6-0.2-5.7-0.5c-3.2-0.3-6.5-1.2-10-2.6
		c-3.5-1.4-6.6-3.6-9.3-6.7c-2.7-3-4.1-7.4-4.1-13.1c0-3.5,0.6-6.9,1.7-10.3c1.1-3.3,2.4-6.4,3.8-9.3c1.4-2.9,2.7-5.5,3.8-7.9
		c1.1-2.4,1.7-4.5,1.7-6.4c0-2.9-1.5-4.5-4.5-5c-3-0.5-6.8-0.7-11.2-0.7c-3.8,0-8,0.6-12.4,1.9c-4.4,1.3-8.4,3.3-11.9,6.2
		c-3.5,2.9-6.4,6.5-8.8,11c-2.4,4.5-3.6,9.7-3.6,15.7c0,4.5,1.3,9.7,3.8,15.7c2.5,6,7.6,11.8,15.3,17.2c10.2,7.3,19,16.2,26.5,26.7
		c7.5,10.5,11.2,22.4,11.2,35.8c0,4.8-1.3,11.8-4,21.2c-2.7,9.4-7.7,18.8-15,28.4c-7.3,9.5-17.5,17.8-30.5,24.8
		c-13,7-29.9,10.5-50.6,10.5c-23.2,0-40.9-4.3-53.2-12.9c-12.2-8.6-18.4-20-18.4-34.3c0-10.8,2.1-19.9,6.2-27.2
		c4.1-7.3,9.4-13.3,15.7-17.9c6.4-4.6,13.4-7.9,21.2-10c7.8-2.1,15.3-3.1,22.6-3.1c6,0,9.1,2.1,9.1,6.2c0,1.3-0.4,2.5-1.2,3.6
		c-0.8,1.1-1.5,2.1-2.2,3.1c-1,1.3-1.9,2.2-2.9,2.9c-9.5,8.3-15.7,16.4-18.6,24.3c-2.9,8-4.3,14.6-4.3,20c0,9.2,2.9,16.1,8.8,20.7
		c5.9,4.6,12,6.9,18.4,6.9c8.9,0,16.2-2.2,21.9-6.7c5.7-4.5,10.3-9.7,13.6-15.7c3.3-6,5.6-12.2,6.9-18.4c1.3-6.2,1.9-11,1.9-14.5
		c0-6-1-11.3-3.1-15.7c-2.1-4.4-5-8.7-8.8-12.9c-3.8-4.1-8.3-8.5-13.3-13.1c-5.1-4.6-10.7-10.3-16.7-16.9
		c-5.4-5.7-9.1-11.4-11.2-16.9c-2.1-5.6-3.1-10.9-3.1-16c0-10.5,2.8-19.9,8.3-28.4c5.6-8.4,13-15.5,22.2-21.2
		c9.2-5.7,19.7-10.2,31.5-13.4c11.8-3.2,24-4.8,36.7-4.8c7.6,0,14.5,0.5,20.5,1.4c6,1,11.3,1.9,15.7,2.9c5.1,1.3,9.5,2.6,13.4,3.8
		C1952.6,163,1955.3,165.7,1955.3,169.2z"/>
	<g>
		<path class="st0" d="M574.2,490.3v-68.1h13.1v56.6h22.1v11.5H574.2z"/>
		<path class="st0" d="M637.6,490.3v-68.1h13.1v68.1H637.6z"/>
		<path class="st0" d="M717.2,490.3H702l-23.7-68.1h14.3l13.2,39.9c1,3,1.9,5.7,2.6,8.1c0.7,2.4,1.2,4.2,1.5,5.2
			c1.1-4.3,2.6-9,4.2-14.1l13.4-39.1H741L717.2,490.3z"/>
		<path class="st0" d="M768.6,490.3v-68.1h37v11h-23.9v16.8h22.7v10.7h-22.7v18.5h23.9v11.2H768.6z"/>
		<path class="st0" d="M871.2,490.3l-19-28.2h-0.5v28.2h-13.1v-68.1c1.7,0,5.1-0.1,10-0.2c4.9-0.1,8.1-0.2,9.5-0.2
			c7.9,0,14,1.5,18.3,4.5c4.3,3,6.5,7.9,6.5,14.6c0,5-1.6,9.2-4.7,12.6c-3.2,3.4-7.4,5.5-12.6,6.3l5.5,7.5l16.4,22.9H871.2z
			 M856.8,432.5c-2.1,0-3.8,0.1-5.1,0.3v19.6l4.7,0.2c3.9,0,7-0.9,9.3-2.8c2.3-1.9,3.4-4.4,3.4-7.5
			C869.1,435.8,865,432.5,856.8,432.5z"/>
		<path class="st0" d="M933.5,466.4H932c-0.5,0-1,0-1.6,0c-0.6,0-1,0-1.4,0v23.8H916v-68.1c1.9,0,5.2-0.1,9.9-0.2
			c4.7-0.1,7.5-0.2,8.3-0.2c8.3,0,14.7,1.8,19.2,5.5c4.5,3.7,6.7,8.8,6.7,15.6c0,6.8-2.4,12.4-7.2,16.9
			C948.1,464.2,941.7,466.4,933.5,466.4z M933.7,432.5h-4.6v22.7l3.8,0.3c4.1,0,7.4-1.1,9.9-3.2c2.5-2.1,3.7-5,3.7-8.7
			c0-3.6-1-6.3-3.1-8.2C941.3,433.5,938.1,432.5,933.7,432.5z"/>
		<path class="st0" d="M1017,491.4c-10.2,0-17.9-3-23.2-9c-5.2-6-7.8-14.4-7.8-25.3c0-10.9,3.2-19.6,9.5-26.2
			c6.4-6.6,14.3-9.8,23.8-9.8c9.5,0,17,2.9,22.6,8.6c5.6,5.7,8.4,14.3,8.4,25.6c0,11-3.2,19.8-9.5,26.3
			C1034.5,488.1,1026.5,491.4,1017,491.4z M1018.1,432.8c-5,0-9.2,2-12.8,6c-3.5,4-5.3,9.6-5.3,16.9c0,7.5,1.5,13.3,4.4,17.5
			c3,4.2,7.4,6.3,13.4,6.3c5,0,9.3-1.9,12.9-5.9c3.6-3.9,5.5-9.7,5.5-17.4c0-7.6-1.6-13.4-4.7-17.4
			C1028.4,434.8,1024,432.8,1018.1,432.8z"/>
		<path class="st0" d="M1108.1,491.4c-10.2,0-17.9-3-23.2-9c-5.2-6-7.8-14.4-7.8-25.3c0-10.9,3.2-19.6,9.5-26.2
			c6.4-6.6,14.3-9.8,23.8-9.8c9.5,0,17,2.9,22.6,8.6c5.6,5.7,8.4,14.3,8.4,25.6c0,11-3.2,19.8-9.5,26.3
			C1125.6,488.1,1117.7,491.4,1108.1,491.4z M1109.2,432.8c-5,0-9.2,2-12.8,6c-3.5,4-5.3,9.6-5.3,16.9c0,7.5,1.5,13.3,4.4,17.5
			c3,4.2,7.4,6.3,13.4,6.3c5,0,9.3-1.9,12.9-5.9c3.6-3.9,5.5-9.7,5.5-17.4c0-7.6-1.6-13.4-4.7-17.4
			C1119.6,434.8,1115.1,432.8,1109.2,432.8z"/>
		<path class="st0" d="M1172,490.3v-68.1h13.1v56.6h22.1v11.5H1172z"/>
		<path class="st0" d="M1290.8,433.2v17.6h22v10.8h-22v28.7h-13.1v-68.1h36.4v11.1H1290.8z"/>
		<path class="st0" d="M1372,491.4c-10.2,0-17.9-3-23.2-9c-5.2-6-7.8-14.4-7.8-25.3c0-10.9,3.2-19.6,9.5-26.2
			c6.4-6.6,14.3-9.8,23.8-9.8c9.5,0,17,2.9,22.6,8.6c5.6,5.7,8.4,14.3,8.4,25.6c0,11-3.2,19.8-9.5,26.3
			C1389.5,488.1,1381.6,491.4,1372,491.4z M1373.1,432.8c-5,0-9.2,2-12.8,6c-3.5,4-5.3,9.6-5.3,16.9c0,7.5,1.5,13.3,4.4,17.5
			c3,4.2,7.4,6.3,13.4,6.3c5,0,9.3-1.9,12.9-5.9c3.6-3.9,5.5-9.7,5.5-17.4c0-7.6-1.6-13.4-4.7-17.4
			C1383.5,434.8,1379,432.8,1373.1,432.8z"/>
		<path class="st0" d="M1468.5,490.3l-19-28.2h-0.5v28.2h-13.1v-68.1c1.7,0,5.1-0.1,10-0.2c4.9-0.1,8.1-0.2,9.5-0.2
			c7.9,0,14,1.5,18.3,4.5c4.3,3,6.5,7.9,6.5,14.6c0,5-1.6,9.2-4.7,12.6c-3.2,3.4-7.4,5.5-12.6,6.3l5.5,7.5l16.3,22.9H1468.5z
			 M1454.2,432.5c-2.1,0-3.8,0.1-5.1,0.3v19.6l4.7,0.2c3.9,0,7-0.9,9.3-2.8c2.3-1.9,3.4-4.4,3.4-7.5
			C1466.5,435.8,1462.4,432.5,1454.2,432.5z"/>
		<path class="st0" d="M1555.5,490.3v-68.1h13.1v56.6h22.1v11.5H1555.5z"/>
		<path class="st0" d="M1619,490.3v-68.1h13.1v68.1H1619z"/>
		<path class="st0" d="M1679.5,433.2v17.6h22v10.8h-22v28.7h-13.1v-68.1h36.4v11.1H1679.5z"/>
		<path class="st0" d="M1733.5,490.3v-68.1h37v11h-23.9v16.8h22.7v10.7h-22.7v18.5h23.9v11.2H1733.5z"/>
	</g>
</g>
</svg>
