<?xml version="1.0" encoding="utf-8"?>
<!-- Generator: Adobe Illustrator 25.2.3, SVG Export Plug-In . SVG Version: 6.00 Build 0)  -->
<svg version="1.1" id="Lager_1" xmlns="http://www.w3.org/2000/svg" xmlns:xlink="http://www.w3.org/1999/xlink" x="0px" y="0px"
	 viewBox="0 0 522.9 272.3" style="enable-background:new 0 0 522.9 272.3;" xml:space="preserve">
<style type="text/css">
	.st0{fill:#006824;}
	.st1{fill:#FFFFFF;}
</style>
<g>
	<path class="st0" d="M510.9,18.9c-4.7-5.6-11.8-8.8-19.4-8.8H77.7c-14.8,0-28.3,11.5-30.9,26.2L11.9,234.5
		c-1.7,9.6-3.1,17.5-3.1,17.5l-2.2,12.3h443.9c14.8,0,28.3-11.5,30.9-26.2l34.9-198.2C517.6,32.2,515.7,24.5,510.9,18.9z"/>
	<g>
		<path class="st1" d="M449.4,256.5H14.7l0.6-3.2c0,0,1.4-7.9,3.1-17.5L53.3,37.6c1.9-10.9,12.4-19.8,23.3-19.8h413.8
			c5.4,0,10.2,2.1,13.5,6c3.3,4,4.6,9.2,3.6,14.7l-34.9,198.2C470.8,247.6,460.3,256.5,449.4,256.5z M21.2,251.1h428.1
			c8.3,0,16.5-7,17.9-15.3l34.9-198.2c0.7-3.9-0.2-7.5-2.4-10.2c-2.2-2.6-5.5-4.1-9.3-4.1H76.6c-8.3,0-16.5,7-17.9,15.3L23.8,236.8
			C22.7,242.6,21.8,247.9,21.2,251.1z"/>
	</g>
	<path class="st1" d="M104.6,63.8l1.4-7.6l-1.2-1.4h-9.2l-1.7,1.4l-2.8,15l1.2,1.4h16.9l4.8,5.9l-5.7,30.8l-7,5.9H76.8l-4.8-5.9
		l2.8-14.9h12.1l-1.4,7.7l1.2,1.4h9.2l1.7-1.4l3-16.4l-1.2-1.4H82.6l-4.8-5.9l5.5-29.6l7-5.9h24.5l4.8,5.9l-2.8,14.9L104.6,63.8
		L104.6,63.8z"/>
	<path class="st1" d="M152.2,109.3l-7,5.9h-24.3l-4.8-5.9l12.3-66.4h12.1l-11,59.2l1.1,1.3h9.3l1.6-1.3l11-59.2h12.1L152.2,109.3z"
		/>
	<path class="st1" d="M159.5,115.2l13.4-72.3h30.7l4.8,5.9l-6,32.3l-7,5.9h-18.6l-5.2,28.1h-12.1V115.2z M189.9,75.4l1.7-1.4
		l3.3-17.9l-1.2-1.3h-10.9L179,75.4L189.9,75.4L189.9,75.4z"/>
	<path class="st1" d="M203.1,115.2l13.4-72.3h30.7l4.8,5.9l-6,32.3l-7,5.9h-18.6l-5.2,28.1h-12.1V115.2z M233.5,75.4l1.7-1.4
		l3.3-17.9l-1.2-1.3h-10.9l-3.8,20.6L233.5,75.4L233.5,75.4z"/>
	<path class="st1" d="M295.2,48.8L284,109.3l-7,5.9h-24.3l-4.8-5.9l11.2-60.5l7-5.9h24.3L295.2,48.8z M280.5,54.7h-9.1l-1.6,1.3
		l-8.5,46.1l1.1,1.3h9.1l1.7-1.3l8.5-46.1L280.5,54.7z"/>
	<path class="st1" d="M291.3,115.2l13.4-72.3h31.2l4.8,5.9l-6,32.3l-7,5.9l0.7,28.1h-11.9L315.8,87h-7.2l-5.2,28.1h-12.1V115.2z
		 M322.3,75.4l1.6-1.4l3.3-17.9l-1.1-1.3h-11.6l-3.8,20.6L322.3,75.4L322.3,75.4z"/>
	<path class="st1" d="M382.6,54.6h-13l-11.2,60.6h-12.1l11.2-60.6h-13l2.2-11.7h38.1L382.6,54.6z"/>
	<path class="st1" d="M377,115.2l13.4-72.3H425l-2.2,11.7h-22.5l-3.3,18h16.7l-2.2,11.7h-16.7l-3.6,19.2h22.5l-2.2,11.7H377z"/>
	<path class="st1" d="M418.6,115.2L432,42.9h31.2l4.8,5.9l-6,32.3l-7,5.9l0.7,28.1h-11.9L443.1,87h-7.2l-5.2,28.1h-12.1V115.2z
		 M449.7,75.4l1.6-1.4l3.3-17.9l-1.1-1.3h-11.6l-3.8,20.6L449.7,75.4L449.7,75.4z"/>
	<path class="st1" d="M51.8,230.6l18.6-105.4h44.8l7.1,8.6l-8.3,47.1l-10.1,8.6H76.7l-7.2,41L51.8,230.6L51.8,230.6z M95.6,172.5
		l2.4-2.1l4.6-26.1l-1.7-1.9H85l-5.3,30.1H95.6z"/>
	<path class="st1" d="M115.4,230.6L134,125.2h45.5l7.1,8.6l-8.3,47.1l-10.1,8.6l1.4,41h-17.3l-1.4-41h-10.5l-7.2,41L115.4,230.6
		L115.4,230.6z M160.2,172.5l2.3-2.1l4.6-26.1l-1.6-1.9h-16.9l-5.3,30.1H160.2z"/>
	<path class="st1" d="M215.7,230.6h-17.5l6.5-36.7l-12-68.6h19.1l5.9,44.2l21.5-44.2h19.1l-36.2,68.6L215.7,230.6z"/>
	<path class="st1" d="M295,230.6h-48.4l18.6-105.4H283l-15.6,88.3H298L295,230.6z"/>
	<path class="st1" d="M348.1,207.9h-21.6l-8.7,22.7h-18l43.5-105.4h17.2l6.4,105.4h-18L348.1,207.9z M347.6,190.8l-1.1-35.5
		l-13.6,35.5H347.6z"/>
	<path class="st1" d="M374.6,230.6l18.6-105.4h45.5l7.1,8.6l-8.3,47.1l-10.1,8.6l1.4,41h-17.3l-1.4-41h-10.5l-7.2,41L374.6,230.6
		L374.6,230.6z M419.4,172.5l2.3-2.1l4.6-26.1l-1.6-1.9h-16.9l-5.3,30.1H419.4z"/>
</g>
</svg>
