<svg id="Lager_1" data-name="Lager 1" xmlns="http://www.w3.org/2000/svg" viewBox="0 0 600 600"><defs><style>.cls-1{fill:#b5001f;}.cls-2,.cls-3{fill:#fff;}.cls-3{fill-rule:evenodd;}</style></defs><rect class="cls-1" width="600" height="600"/><path class="cls-2" d="M374.93,116c-17.93,25.68-45.1,42-66.9,63.87-1.24,1.67-3.3,2.8-3.51,5.07.31.22.43.53.84.73a3.43,3.43,0,0,0,1.75-.1,221,221,0,0,1,19.82-15.26c5.48-4.05,10.86-7.78,16.44-11.62,19.21-14.43,37.27-31.43,48.92-53,5.34-8.8,8.85-21.65,2.92-31.14a13.51,13.51,0,0,0-2.18-3.1,1.25,1.25,0,0,0-1.56.52c0,1.76.34,3.62.35,5.38C390,91.62,383.28,104.57,374.93,116Z"/><path class="cls-2" d="M428.55,37.32c-.72-.62-1.36-1.45-2.39-1.55-.52.21-.62.83-.71,1.24.32,4.46-.83,8.18-1.23,12-.69,5.17-2.56,10-3.89,15a176.93,176.93,0,0,1-30.8,59.05c-17.24,23.31-40.67,40-64.32,56.32-3.62,2.49-7.24,5-10.95,7.48C307.85,192,301,197,297,204.38a124.19,124.19,0,0,0-6.79,16c-2,6.32-4.83,12.95-9.08,18.34a28.79,28.79,0,0,1-14,9.65c-1.22,0-3,.93-3.83-.4a2,2,0,0,1,.74-2,22.05,22.05,0,0,0,9.19-7.28,32.12,32.12,0,0,0,4.73-9.22c3.9-11.59,6.57-23.7,12.55-34.48a81.72,81.72,0,0,1,10.83-15.53c9.59-11.2,21.68-20.23,32.72-30,3-2.07,5.79-5,8.58-7.16,13.43-12,26.11-25.82,35.19-41.26,3.48-6.31,6.48-13,7.29-20.3,1.52-8.49.18-18.21-7-22.74-2.49-1.65-4.87-4-8-3.71a1,1,0,0,0-.74,1.35,24.68,24.68,0,0,1,3,20.16c-4.51,16.57-14.21,31.08-25.35,44.34-14.54,18.15-33.77,31.75-50.69,47.71-2.27,2.39-5.05,4.56-6.71,7.26a36.64,36.64,0,0,0-3.7,4.35,77.39,77.39,0,0,0-10.51,20.1c-3.19,9.62-5.24,19.57-7.81,29.29-.4,2.37-1.74,4.36-2.47,6.42-.92,1.25-1.86,2.8-3.31,3.43a3.63,3.63,0,0,1-1.85.2,2,2,0,0,0-.41-.21c-2.18-1.13-3.32-3.5-3.85-5.58C251.41,214,260.48,197,272.13,183c1-1.24,2-2.37,3-3.51,7.12-8.2,14.77-16,20.23-24.87,4-6.75,5.44-16.48.88-23.19-1.36-3.09-4.25-5.27-7-6.6a.67.67,0,0,1,0-1c2.48-.64,4.75.51,7.14.59a36.08,36.08,0,0,0,17.07-2.21c3.29-1.76,7-4.14,7.95-8,.19-1.35.92-3.32-.54-4.35-1.25-.52-.93,1.14-1.45,1.55-2.57,2.8-6.71,3.95-10.53,4-9.43-.91-17.91-3.9-26.61-6.66a165.06,165.06,0,0,0-18.72-5.24c-6.74-.71-16.06-2.35-20.49,4.09-1,1.64-.61,3.41.22,5-3.84.31-7.75.21-11.69.65-1-2.89-1.87-5.58-3.12-8.27-2.28.53-4.35,1.25-6.84,1a17.2,17.2,0,0,1,3.86,8.06c-5.37,1.67-11.48,3.64-14.78,8.62-.62,1.65-2.06,3.21-1.63,5.07,5.36-2.29,10.84-4.16,17-4.49l.31.2a29.59,29.59,0,0,1-1.75,9c-2.47.73-5,.43-7.54.65.22.4-.41.82-.2,1.23.42,2.91,3.92,2.58,5.38,3.93a33.81,33.81,0,0,1-5.77,8.59c-2.29-2.16-5.38-3.92-8.49-3.8-6.11-.52-10.76,4.16-16.12,5.72-1.35.41-2.68-.41-3.83-.61-.51,1.45.52,3,1.76,3.92,1,.41,2,1.45,3,1.23,1.54.84,3.71.72,5.58.62,4.24-.43,7.23-3.43,11.16-4.79,1.66-.2,3.42-1.35,5.07-.32-.31,1.15-1.65,1.76-2.49,2.59-5.37,3.95-11.87,5.83-15.37,11.83a10.78,10.78,0,0,0,.12,7.65,7.81,7.81,0,0,0,8,3.82,2.19,2.19,0,0,0-.41-1c-1.36-4.35,3.29-7.16,6-9.75,1.95-2.07,3.3-5.28,1.83-8.18,1.77-1.45,3.52-2.9,5.49-4.35a20.46,20.46,0,0,0,5.18,7.85c2.8,2.48,7.15,3.51,10.66,1.83,4.34-2,8.57-6.31,8.25-11.39a14,14,0,0,1-7.75,4.25,34.32,34.32,0,0,0-3.83-3.7,12,12,0,0,0-9.42-1.95,65.74,65.74,0,0,0,7-10.68,93.56,93.56,0,0,0,15-2.72c6.31-1.26,13.76-.95,17.81,4.41a12.62,12.62,0,0,1,2.07,3.51c2.71,7.65-2,14.7-7.2,20.21a208.14,208.14,0,0,1-18.89,16.58c-13.84,11.1-28.29,21.8-38.3,37a47.25,47.25,0,0,0-6.48,11.4,61.75,61.75,0,0,0-4.44,10.87,69.13,69.13,0,0,0-2.2,29.49,56.2,56.2,0,0,0,6.35,19.75,52.79,52.79,0,0,0,6,9.8c10.06,12.92,25.4,22.19,39.79,27.86A189.19,189.19,0,0,0,288.1,338.9l.32.3a59.82,59.82,0,0,1,4.07,17.69,43.84,43.84,0,0,1-2,16.88,3.58,3.58,0,0,0-.5,2.16,20.64,20.64,0,0,0,7.31-4.88c1.57-1,2.19-2.6,3.53-3.84.3-.09.4,0,.61.32a212.89,212.89,0,0,0,12.32,48.38c1.47,3.62,2.92,7.14,4.58,10.65.94,2.79,3.53,5,2.92,8-.62.62-1.45,1.64-2.47,1.55a20,20,0,0,1-3.64-.51c-3.21-.83-6.32-2.37-9.52-3.19-4.77-.81-11.59-3.49-15.51.87a4.77,4.77,0,0,0-.1,3.93c-1.44.41-3,0-4.55.11a8.78,8.78,0,0,0-7.85,5A5.45,5.45,0,0,0,278,447a3.17,3.17,0,0,0,2.57,1.66,1.87,1.87,0,0,0,.52-1.15c2.06-3.93,6.72-4.57,10.86-4.67.31.09.72.41.62.82-1.25.94-2.68,1.55-3.62,2.8-1.23,1.67-1.85,3.62-.81,5.68a5.09,5.09,0,0,0,4.55,2.9c.84.1.74.41,1,0-.2-1.45.72-3,1.85-4.24,5.07-3.95,11.49-4.79,18-5.43,12-1.06,26-1.31,37.56,1.16a8.81,8.81,0,0,1,3.94,1.34,7.11,7.11,0,0,1,4.14,4.11,3.62,3.62,0,0,0,2.48-.92c2.68-2.07,5.07-4.87,4.32-8.19a4.64,4.64,0,0,0-1.66-2.58c-4-3.2-9.84-3.08-14.7-2.65H349c-4,.2-8.16.12-11.37-2.15-4.36-3.29-5-8.79-7.16-13.22-.62-2.18-1.25-4.25-1.78-6.42a239.1,239.1,0,0,1-8-45.61c0-.4,0-.83.42-.72a27,27,0,0,0,12.63,5.36c2.27.3,5.06.3,6.61-1.48-2.19-1.95-5-3.71-7-5.77a48.41,48.41,0,0,1-7.7-10.84,53.67,53.67,0,0,1-4.73-34.55c-5-4-9.23-7.73-13.79-11.86-4.14-4-8.29-8.26-12.13-12.7-7.68-8.67-14-18.27-16.3-29.54-.22-1.05-.44-2-.64-3,.11-1.67-.62-3.94.71-5.38.21-.11.72-.11.83.1.93,2.79,2.08,5.58,3.22,8.27a100.65,100.65,0,0,0,4.79,9.51c4.16,7.53,9.76,13.94,16,20,9.94,9.7,21.17,18.48,29.25,29.31A62.79,62.79,0,0,1,340,340.24a63,63,0,0,1,3,16.53,41.24,41.24,0,0,1-.29,8.08c.32.41.62.82,1.13.62,1.46-.83,1.56-2.39,2.07-3.73a46.77,46.77,0,0,0,1.13-5c2.64-15.82-1.94-31.55-11.07-44.25a109.87,109.87,0,0,0-14.52-14.87c-10.78-9.49-22.39-17.74-30.68-29.51-1.15-1.68-2.29-3.42-3.34-5.19-.41-1.22-1.66-2.78-.31-3.91a1.35,1.35,0,0,1,1.13,0l4.16,4.43a54.62,54.62,0,0,0,5.18,4.66c11.7,9.79,25.48,16.49,41.64,16,9.39-1.38,17.87-6.15,24.68-12.89l.21-.92a1.35,1.35,0,0,0-.83-.73A103.71,103.71,0,0,1,340.6,268a109.64,109.64,0,0,1-16.45-4.12c-4.76-1.94-9.63-3.59-14-6.48a1.67,1.67,0,0,1,.1-1.24c9.21-.33,19.24-3.57,24.4-12.06,0-.52.4-1.44-.43-1.66A80.13,80.13,0,0,1,312,241.7c-.51,0-.61-.52-.61-.92s.41-.53.62-.73a67.35,67.35,0,0,0,10.43-1.48A40.44,40.44,0,0,0,338.05,231c1.45-1.15,1.86-2.9,3.19-4,.73-1.43,1.87-2.79,1-4.56-8.06,1.37-15.92,3.46-23.88,3.89a41.71,41.71,0,0,1-6.42-.19c-.41-.52,0-1,.31-1.35,4.55-1.24,9.19-2.08,13.55-3.86,6.2-2.28,12.41-4.68,16.84-10.07,1-2.27,3.19-4.36,2.25-6.93a1.53,1.53,0,0,0-1.44-.61,128.93,128.93,0,0,1-27.92,8.33c-1.24-.11-2.69.83-3.63-.3-.61-.51.63-.41.43-.93,10.22-3.55,20.35-6.88,28.73-14.45,2.87-3.11,5.46-7.36,4.63-11.7a1.68,1.68,0,0,0-1.58-1.23,182.67,182.67,0,0,1-21.8,9.24c-1,0-1.85,1-2.81.22a.93.93,0,0,1,.13-1.13c5.9-4.16,12-8.1,18-12,5.68-3.75,11.36-7.58,16.93-11.52,3.94-3,7.95-6.25,11.88-9.14a230.46,230.46,0,0,0,47.17-51.22c1.74-2.58,3.19-5.27,5.06-7.76,6.89-12.64,14.32-25.39,17-39.88A29.22,29.22,0,0,0,428.55,37.32Zm-198,94.59a35.72,35.72,0,0,0,1.33-5,19,19,0,0,0,.51-4c8,0,11.9.27,11.91,2.76C244.29,129.19,237,131,230.54,131.91Zm25.53-11.43a5.5,5.5,0,0,1-3.22-.83,4.49,4.49,0,0,1-.93-4.75c.51-.83,1.76-.22,2.58-.22a132.29,132.29,0,0,1,13.15,2.76c.3.11.1.53,0,.73C263.61,118.59,260.1,120.15,256.07,120.48Zm9.42,184.44a71.72,71.72,0,0,1-15.85-7.11,69,69,0,0,1-19.81-17.75,54.86,54.86,0,0,1-6.54-11.76,57.8,57.8,0,0,1-4-29.49,50.59,50.59,0,0,1,3.5-12.95,81,81,0,0,1,9.28-16.05c3.39-3.94,6.69-8,11.14-11,.41,0,.82,0,.93.3V200a85.92,85.92,0,0,0-6.59,12.13,71.91,71.91,0,0,0-6.55,26.7,33.8,33.8,0,0,0,.11,5.69,69.8,69.8,0,0,0,5.54,23.79A74.77,74.77,0,0,0,243.5,281c.92,1.05,1.55,2.49,2.69,3.42a75.43,75.43,0,0,0,13.48,13.42c2.79,2.18,5.6,4.13,8.5,6.07.62.53,2,1,1.77,1.88C268.48,306.67,266.94,305.22,265.49,304.92Z"/><path class="cls-2" d="M282.6,375.34a57.05,57.05,0,0,1-7.8-18.4,73,73,0,0,1-1.89-15c-2.18-.62-4.46-.71-6.63-1.33A108.65,108.65,0,0,1,242.89,332a104.43,104.43,0,0,1-4.08,25,92.84,92.84,0,0,1-4.63,12.53c7,0,12.72-4.79,17.67-8.85-1.84,7.87-4.52,13.88-8.23,22.58a228.71,228.71,0,0,1-17.09,32.83c-2.07,3.41-4.24,6.84-6.39,10.47-1.34,2.47-3.09,5.39-6.09,6.74-8.07,2.18-13.89-4.32-21.84-3.57-3.73.62-5,1.35-6.2,2.69a4.05,4.05,0,0,0-.2,3.63c-4.36-.4-9.22-.38-12.72,2.2a5.56,5.56,0,0,0-1.55,5.7,4.8,4.8,0,0,0,2.91,3.09c2-3.62,5.77-5.28,9.61-6.23,1.76-.21,3.41-.62,5.07.1.31.2.11.62-.31.93a15,15,0,0,0-4.54,3.1c-1.24,1.67-2.37,3.73-1.75,5.91,1.14,2.78,3.95,3.82,6.73,3.51.22-.32-.1-.73-.1-1-.31-3,2.57-4.55,5-5.8,7.53-2.71,16.23-2.73,24.51-3a174.49,174.49,0,0,1,20.69.58c4,.41,8.17,1.12,11.18,3.69a2.37,2.37,0,0,1,.42,2.79c1,.32,2-.31,2.89-.82a4.92,4.92,0,0,1,.62-.52c2.39-1.88,3.1-4.47,3.09-7.26s-2.59-4.54-4.67-5.37a4.49,4.49,0,0,1-1.13-.4c-5.3-1.54-11.09-.79-16.67-.79-1.55-.21-3.62.12-4.35-1.65a4.83,4.83,0,0,1,.62-3.11c3.6-5.29,7.43-10.46,11.15-15.64,6.18-8.39,12.46-16.89,18.14-25.49a44,44,0,0,0,7.59-23A34.23,34.23,0,0,0,279.3,375,6.06,6.06,0,0,0,282.6,375.34Z"/><path class="cls-2" d="M352.78,297.57c-11.59-5.65-24.33-9.14-36.24-14-2.28-.72-4.26-2.25-6.63-2.67a.67.67,0,0,0-.2.94c6.42,5.88,13.06,10.72,19.68,15.78,10.07,7.74,19.92,15.89,28.43,28.7,5.59,8.27,8.82,13.11,12.15,22.62.95,2.59,1.77,5.18,2.52,7.75,3.94,14.38,3.87,27,0,40.36,0,1.24-1,2.08-.4,3.21,1.66.41,2.27-1.56,3.2-2.59,4.33-7.15,8.53-14.72,10.9-22.9a67.1,67.1,0,0,0,3.27-18.1c.58-15.63-4.31-31.35-15-42.9C368.22,306.55,360.76,301.59,352.78,297.57Z"/><path class="cls-2" d="M364.91,263.61a77,77,0,0,0,8.25-10.25c.52-1.34,2.08-2.49,1.77-4-.11-.31-.53-.31-.74-.42-11.47,6.55-23.46,11.64-36.9,13.33-.1.21-.3.52,0,.73a62.54,62.54,0,0,0,7.74,1.22C351.76,264.58,358.4,264.77,364.91,263.61Z"/><path class="cls-2" d="M404.89,187.07c-3.73,2.49-6,5.71-9.73,8.09-4.72,3.63-9.49,6.75-14.34,9.86a176.81,176.81,0,0,1-33.5,15.59c.35,5.9-1.61,11.6-6.37,15.43.11.52-.71.33-.71.73a.79.79,0,0,0,.19.62c9.94-1.88,19.13-5.93,28.23-10.61,12.31-7.37,24.27-16.09,32.63-28.11,2.28-3.22,4.22-6.42,4.93-10.46A1.18,1.18,0,0,0,404.89,187.07Z"/><path class="cls-2" d="M392.33,219.06c-2.37,1-4.23,3.13-6.41,4.47a128.31,128.31,0,0,1-31.3,15,138.73,138.73,0,0,1-14.8,3.55l-.09.83c.83,7.23-5.78,12.84-11.55,15.85v.51l1,.12a99.31,99.31,0,0,0,13.86-2.63c11.89-4,23.46-9.14,33.58-17.45a7.35,7.35,0,0,1,1-.83,73.75,73.75,0,0,0,14-14.52c.42-1.34,1.87-2.59,1.65-4C393.15,219.58,392.86,219.06,392.33,219.06Z"/><path class="cls-2" d="M417.52,151.36A212.24,212.24,0,0,1,386,179.25a237.56,237.56,0,0,1-36.14,21.5,15.91,15.91,0,0,1-1.75,12.94c-.5.93-1.54,1.66-1.75,2.7.21.4.62,0,1,0,20.26-8.74,40.3-20.38,56.19-37.17,2.27-2.48,4.55-5.18,6.71-7.87,4.22-5.91,8.55-12,9.06-19.38C419.29,151,418.15,151,417.52,151.36Z"/><path class="cls-2" d="M443.11,74.21c-.42-2.27-.43-4.85-1.55-6.82a.85.85,0,0,0-1.35-.1c-1.45,3.53-2.57,7.15-4,10.56-6.59,13.67-13.93,27.35-23.7,39.37-7.12,10.06-16.31,18.35-24.27,27.47,0,.32-.19.93,0,1.24.41.42,1.14.32,1.55.33l3.83-3.13c16.71-14.32,32.72-29.26,45.08-47.79A31.46,31.46,0,0,0,443.11,74.21Z"/><path class="cls-2" d="M435.75,106.41c-22.61,30-53.38,54.12-84.58,72.93a13.51,13.51,0,0,0-1.33.72,9.34,9.34,0,0,0,1,2.69A13.67,13.67,0,0,1,349,195.06a.64.64,0,0,0,.1.83c9.1-5.2,18.1-10.7,26.77-16.61,16.12-11.11,31.18-23.77,44.08-38.6a106.61,106.61,0,0,0,16.59-26.93c.73-2.27,1.66-4.45,1.55-6.93A1.34,1.34,0,0,0,435.75,106.41Z"/><path class="cls-2" d="M386.07,470.89c2.18.51,3.74.82,5.5,1.34.41.52,1.9,17.27,1.9,18.1a6.2,6.2,0,0,1-1.45.93c-1-.83-1.66-1.75-2.8-2.79-5.8-5.26-10.05-7.94-17.82-9.48-8.19-1.62-13.87-1.31-21.31,2.64a24.48,24.48,0,0,0-7.72,5.7,42.16,42.16,0,0,0-2.8,3.33,31.1,31.1,0,0,0-2.89,5c-3.5,6.93-4.12,11.79-4,19.56a40.17,40.17,0,0,0,.32,4.85,35.64,35.64,0,0,0,1.55,6.93,29.35,29.35,0,0,0,2.52,6.42,28.54,28.54,0,0,0,3,5.15,30.36,30.36,0,0,0,5.09,5.89,23.77,23.77,0,0,0,10.25,5.37,26,26,0,0,0,7.33,1.32,26.38,26.38,0,0,0,7.55-.23c5.91-.74,9.42-1.57,14.48-4.68a33.57,33.57,0,0,0,6.42-5.1c.6-.61,1-1.25,1.54-1.66a6.28,6.28,0,0,1,1.34,1c-.31.4-1.72,16.14-1.82,16.35-2.48.92-5.06,2-8.37,2.9-1.66.53-2.49.83-4.14,1.26-2.48.52-3.82.84-6.3,1.16-11.19,1.37-18.22,1.08-28.56-3a42.5,42.5,0,0,1-11.4-6.48,37.77,37.77,0,0,1-9.65-10.13,31.53,31.53,0,0,1-3.73-7.14c-2-4.43-2.93-7.12-3.34-12a12.73,12.73,0,0,1-.13-1.77c-.31-5.58-.63-8.78.29-14.26a39.31,39.31,0,0,1,1.44-5.8c1.74-6,3.19-9.43,7-14.5a45.07,45.07,0,0,1,4.12-4.87c.61-.63,1.05-1,1.64-1.66a42.38,42.38,0,0,1,4.14-3.32,12.5,12.5,0,0,1,2.49-1.56c.81-.53,1.34-.82,2.16-1.35,8.69-4.47,14.58-5.52,24.2-6.07,8.58-.42,13.55.91,21.93,2.65Z"/><path class="cls-2" d="M186.61,469.9a8.24,8.24,0,0,1,1,1.65c0,.11-.11.2-.22.3s-.31.22-.52.32a15.38,15.38,0,0,0-5.88,8.91,19.43,19.43,0,0,0-1,5.18c0,2.49.15,64.54.15,64.54,6,0,12-.22,17.37-2.41a39.59,39.59,0,0,0,13.85-8c.21,0,.2-.32.42-.31l.09-.22.93.84c0,.3.31.21.42.5s-.1.43-.21.74c-.62,1.66-1.22,3.41-1.84,5.07-1.66,4.77-3.2,9.52-4.84,14.17-.31.64-.31.64-.82.65L157,562c-.12-.65-.43-1-.53-1.55.31-.63.82-.85,1.24-1.37.1-.1.21-.41.31-.41,3-3.41,4.42-7.34,5.36-11.59a33.8,33.8,0,0,0,.59-7.77l-.11-51.83a22.68,22.68,0,0,0-5.63-15.92c-.11-.52.42-1,.73-1.55l27.62-.06Z"/><path class="cls-2" d="M293.37,469.66c.22,1.33.11,2.69.32,3.92.43,3.94.85,8.18,1.38,12.1-.21.32.3.72-.22,1.05a5.42,5.42,0,0,0-1.22.71c-.21-.09-.63.22-.53-.3a16.18,16.18,0,0,0-5.7-3.61,22.16,22.16,0,0,0-3-1.12c-1.56-.42-2.59-.73-4.24-1a60.29,60.29,0,0,0-7.66-1c-2.58-.21-5.48-.21-6.83-.31-.21,0-.3.2-.52.2-.2,3.52,0,28.25,0,28.25,1.24,0,2.27.11,3.72,0a30.37,30.37,0,0,0,7.45-.64,19.88,19.88,0,0,0,6.42-2.29c2.26-1.26,4-2.29,5.15-4.05a4.44,4.44,0,0,1,1.45,1.23c0,3.32,0,16,.05,21.74,0,.2-1.87.94-1.87.94-.09-.32-.4-.53-.62-.73a13.26,13.26,0,0,0-4.76-3.09,9.85,9.85,0,0,0-1.55-.73,8.07,8.07,0,0,0-1.66-.4A41.16,41.16,0,0,0,265.45,519c0,3,.05,24.94.07,30.62,0,1.36,1.05,3.83,2.29,5.9a17.9,17.9,0,0,0,3.83,4.34,17.36,17.36,0,0,1-.72,2l-27.41.07c-.42-.54-.42-1.25-.73-1.66.31-.62,1-.94,1.25-1.46.61-.62,1.13-1.45,1.74-2.07,2.8-4.35,3.91-9.42,4-14.81-.11-.21-.12-50.89-.12-54.83a27,27,0,0,0-3-11.46,13.66,13.66,0,0,0-3.93-4.14,11,11,0,0,1,.93-1.66l49.75-.11Z"/><path class="cls-2" d="M284.26,555.34a6.58,6.58,0,0,1,6.6-6.63,6.62,6.62,0,1,1-6.6,6.63Z"/><path class="cls-2" d="M217.63,555.49a6.62,6.62,0,1,1,6.64,6.6,6.66,6.66,0,0,1-6.64-6.6Z"/><path class="cls-2" d="M403.55,555.07a6.63,6.63,0,1,1,6.63,6.6,6.66,6.66,0,0,1-6.63-6.6Z"/><path class="cls-3" d="M357.5,365.14a7.84,7.84,0,0,0-5.39,2.17,8.22,8.22,0,0,0-2.26,5.48,7.56,7.56,0,0,0,7.68,7.65,7.66,7.66,0,0,0,5.37-2.29,7.38,7.38,0,0,0,2.27-5.39,7.73,7.73,0,0,0-2.3-5.38,7.47,7.47,0,0,0-5.37-2.24Zm6.63,7.72a6.2,6.2,0,0,1-2,4.57,6.27,6.27,0,0,1-4.75,2,7,7,0,0,1-4.66-1.95,6.5,6.5,0,0,1-1.88-4.66,7.05,7.05,0,0,1,2-4.76,6.55,6.55,0,0,1,4.65-1.87,6.85,6.85,0,0,1,4.77,1.95,6.59,6.59,0,0,1,1.87,4.75Zm-6.44-4.54H354.4l0,8.69h1.65V373.3h1.56l1.87,3.72h1.76l-1.89-4a2.15,2.15,0,0,0,2-2.29c0-1.54-1.23-2.38-3.63-2.37Zm-.3,1c1.55,0,2.18.43,2.18,1.55s-.62,1.36-2.17,1.36h-1.35v-2.91Z"/></svg>