<?xml version="1.0" encoding="utf-8"?>
<!-- Generator: Adobe Illustrator 23.1.1, SVG Export Plug-In . SVG Version: 6.00 Build 0)  -->
<svg version="1.1" id="Lager_1" xmlns="http://www.w3.org/2000/svg" xmlns:xlink="http://www.w3.org/1999/xlink" x="0px" y="0px"
	 viewBox="0 0 226.6 54.8" style="enable-background:new 0 0 226.6 54.8;" xml:space="preserve">
<style type="text/css">
	.st0{fill:#002A32;}
	.st1{filter:url(#Adobe_OpacityMaskFilter);}
	.st2{fill-rule:evenodd;clip-rule:evenodd;fill:#FFFFFF;}
	.st3{mask:url(#b_2_);fill-rule:evenodd;clip-rule:evenodd;fill:#002A32;}
	.st4{fill-rule:evenodd;clip-rule:evenodd;fill:#0BB8DD;}
	.st5{fill-rule:evenodd;clip-rule:evenodd;fill:#FCE0CC;}
	.st6{fill-rule:evenodd;clip-rule:evenodd;fill:#EC6A18;}
	.st7{fill:#FFFFFF;}
</style>
<g>
	<path class="st0" d="M163.8,9.6H11.5c-0.3,0-0.6,0.1-0.8,0.3l-5.5,4.7c-0.3,0.2-0.5,0.6-0.5,1v22.7c0,0.4,0.2,0.8,0.5,1l5.5,4.7
		c0.2,0.2,0.5,0.3,0.8,0.3h148.2c0.7,0,1.3-0.6,1.3-1.3v-9c0-0.7-0.6-1.3-1.3-1.3h-1.6v-0.2l4.3-11.3h1.4c0.7,0,1.3-0.6,1.3-1.3v-9
		C165.1,10.1,164.5,9.6,163.8,9.6z"/>
	<path class="st0" d="M166.3,11.8H14c-0.3,0-0.6,0.1-0.8,0.3l-5.5,4.7c-0.3,0.2-0.5,0.6-0.5,1v22.7c0,0.4,0.2,0.8,0.5,1l5.5,4.7
		c0.2,0.2,0.5,0.3,0.8,0.3h148.2c0.7,0,1.3-0.6,1.3-1.3v-9c0-0.7-0.6-1.3-1.3-1.3h-1.6v-0.2l4.3-11.3h1.4c0.7,0,1.3-0.6,1.3-1.3v-9
		C167.6,12.4,167,11.8,166.3,11.8z"/>
	<g>
		<g transform="translate(137.75 .095)">
			<defs>
				<filter id="Adobe_OpacityMaskFilter" filterUnits="userSpaceOnUse" x="31.6" y="4.2" width="51.3" height="49.6">
					<feColorMatrix  type="matrix" values="1 0 0 0 0  0 1 0 0 0  0 0 1 0 0  0 0 0 1 0"/>
				</filter>
			</defs>
			<mask maskUnits="userSpaceOnUse" x="31.6" y="4.2" width="51.3" height="49.6" id="b_2_">
				<g class="st1">
					<path id="a_2_" class="st2" d="M27.2,7.5l51-7.1l6.5,47l-51,7.1L27.2,7.5z"/>
				</g>
			</mask>
			<path class="st3" d="M33.6,43.7l0.4,3.7l2.3-1.4l0.4,3.6l2.1-1.7l0.8,5.9c0,0,5.1-7,7.7-7.6c7-1.7,16.9,1,22.2-0.3
				c2.1-0.5,4-1.2,5.5-1.9c1.5-0.7,3.8-3.3,3.8-3.3c3-0.7,4.8-3.6,4.1-6.6c-0.6-2.6-4.2-3.9-4.6-4.1l0,0l0,0
				c-0.3-0.1-0.6-0.2-0.9-0.3c-1.1-0.4-2.6-0.8-4.7-1.6c-0.3-0.1-0.6-0.3-0.9-0.5c0.7,0,1.6-0.2,2.5-0.4c4.8-1.1,6.9-4.2,6.1-8.8
				c0-0.2-0.1-0.4-0.1-0.6l0,0l0,0c-0.6-2.7-2.3-5.3-3.5-6.3c-3.1-2.4-6.4-1.8-8.1-1.4c-0.3-0.3-0.9-1.1-2-2.5
				c-0.1-0.2-0.2-0.3-0.3-0.5C64.6,4.9,63,4.4,62,4.3c-1.7-0.2-11.1-0.2-13,0.2c-0.2,0-0.4,0.1-0.5,0.2c-1.5,0.6-6,4.2-8.4,6.9
				c-1.7,1.9-2.9,8.6-2.6,12.3c0.1,1.2,0.2,3.1-0.7,6.3l0,0.1c-0.1,0.1-0.3,0.2-0.8,0.6c-2.2,1.4-3.6,3.4-4.1,5.9
				c-0.5,2.4,0,4.9,0.8,7.3L33.6,43.7L33.6,43.7z"/>
		</g>
		<path class="st4" d="M205.7,14c-1,0.2-1,0-1.6-0.3c-0.6-0.3-3.9-4.6-4.2-4.8c-0.2-0.2-0.4-0.5-1-0.5c-0.7,0-9.3-0.1-10.5,0
			c-1.1,0.1-1.9,0.8-2.4,1.2c-0.2,0.2-4.1,3.5-4.7,4.3c-2.5,3.1-2.2,8.5-2.1,8.8c1.6-5.2,7.5-12.3,7.9-11.6c0.1,0.2,0.3,0.8,0.6,1.5
			c0.6,1.4,1.5,4.3,2,5.7c2.1-0.9,7.8-3.1,12.6-3.2c-3.1,0.7-3.5,0.8-8.7,3c0.8,0,1.3,0.1,1.7,0.1c0.3,0,0.8,0,1.2-0.1
			c2.5-0.5,9.7-4,12.3-4.4c0.8-0.1,1.7-0.1,2.6,0.1l0-0.1C209.7,12.9,206.7,13.8,205.7,14"/>
		<path class="st2" d="M184.5,22.2c0.1,0.7,0.5,0.4,0.6,0.3c0.1-0.2,1.2-1.2,3.4-2.7c0.4-0.3,0.1-0.7,0-1c-0.2-0.7-1.8-5.4-1.8-5.4
			c0,0,0-0.1,0-0.1c-0.1-0.3-0.4-0.5-0.7-0.3c-0.1,0.1-0.3,0.8-0.6,1.8C185.1,16.6,184.5,19.5,184.5,22.2 M195.7,30.4
			c0-0.1-0.1-0.2-0.1-0.3c-0.1-0.1-0.1-0.3-0.2-0.4c-0.7-1.2-2.8-4.9-5.3-4.5c-0.1,0-0.1,0-0.1,0c-1.8,0.4-2,2.4-2,3.1l0,0.1
			c0,0.2,0,0.4,0,0.4c0,0,0,0,0.1,0.1c0.1,0,0.6,0.1,1.2,0.3c0.1-1.1,0.7-2.1,1.6-2.3c1.2-0.3,2.5,0.8,2.9,2.5
			c0,0.1,0.1,0.4,0.1,0.6"/>
		<path class="st2" d="M189.7,28.9c0.1,0.3,0.4,0.6,0.8,0.5c0.3-0.1,0.6-0.4,0.5-0.8c0,0,0,0,0,0c-0.1-0.3-0.4-0.6-0.8-0.5
			C189.8,28.2,189.6,28.6,189.7,28.9C189.7,28.9,189.7,28.9,189.7,28.9"/>
		<path class="st2" d="M211.6,36.6c-0.4-1.6,0.3-3.1,1.5-4c-0.7-0.2-5.8-1.9-6.6-2.2c0,0-0.5-0.8-2.5-1.2c-1.8-0.4-3.7,1.6-7.6,2.6
			c-21.1,5.3-12.2-15.1-11.8-16.9c-1.7,2.3-3.1,4.9-4.1,7.5c0,0,0,0,0,0c-1.8,4.5-2.2,8.2-2.4,10.5c-4.2,1.9-4.7,4.7-4.7,5.4
			c0.8-0.6,3.7-0.9,3.9-0.9c0.2,0,1.4-0.1,0.1,0.8c-2,1.4-2.9,3.2-3.4,5.1c0.7-1.1,4.3-2.6,5.4-2.5c-0.7,0.6-2.1,3.2-2.5,5
			c0.3-0.7,2.7-3.1,4.6-3.4c-0.6,0.4-1.6,2.4-1.8,4.2c1-1.6,2.3-2.8,3-3.3c2.5-2.1,14.9-0.8,15.3-0.8c0.1,0,0.2,0,0.4,0
			c-4.7-0.9-9.3-3.8-10-4.1c-0.9-0.4-1.8-0.5-2.4,0.1c-0.6,0.6-0.4,1.8-0.1,2.6c0,0-3.4-7.4,0.2-5.4c2.8,1.5,8.6,6,15.6,7
			c0.6,0,1.2,0.1,1.8,0.1c3.6,0.1,9.2-2.5,9.9-3.1c0.1-0.1,0.4-0.3,0.1-0.6C212.6,38.6,211.8,37.7,211.6,36.6"/>
		<path class="st5" d="M184.7,14.8c-5,8.1-3.8,16.4-3.6,17.6c-0.6,0.1-1.2,0.2-1.7,0.5c0-0.4,0-0.8,0-1.1c0-3.3,0.8-7.6,1.2-9.4
			c0,0,0,0,0,0C181.6,19.7,183,17.2,184.7,14.8"/>
		<path class="st2" d="M213.6,37.3c-0.3-0.2-1.5-1.4-0.6-3.1c0.9-1.7,2.9-1.8,3.1-1.5c-1.3,0.8-1.6,1.2-2,1.9
			C213.8,35.2,213.6,36,213.6,37.3"/>
		<path class="st6" d="M197.2,25.9c-2.2-1.2-6.2-3-8.6-1.7c-0.1,0-0.2,0.1-0.1,0c0.4-0.5,2.7-2.6,3.7-3c0.9-0.3,3.9,2.8,5.5,4.5
			C197.5,25.7,197.3,25.8,197.2,25.9 M196.3,31.3c-0.3,0-8-1.4-8.7-1.6c-0.7-0.2-0.7-0.7-0.7-1.3c0-1.7,0.8-3.7,3-4.1
			c3.7-0.7,6.2,4.7,6.7,5.5C197.2,30.9,196.8,31.4,196.3,31.3 M204.8,24c-0.3,0.4-0.5,0.7-0.8,1.1c-0.2,0-0.4,0-0.6,0
			c0.1-0.5,0.3-1.1,0.5-1.7c-1.7-1-5.4-3.1-6.9-3.8c-1.7-0.6-3.7-1.1-5.8-0.4c-1.8,0.5-2.6,1.4-3.8,2.4c-1,0.9-3.1,2.8-3.1,2.8
			c-1.9-0.7-0.2-7.8,0.2-9.6c-5,8.1-3.8,16.4-3.6,17.6c1.8-0.3,4,0.1,6.4,0.6c3.1,0.7,5.7-0.1,5.7-0.1l10.5-2.9
			c1.5-0.2,2.7,0.2,2.9,0.3c0,0,0,0,0,0s-1.1-5.1-1.4-6.1C205,24.2,204.9,24.1,204.8,24"/>
		<path class="st5" d="M198.3,25.4c0.1,0,0.2-0.1,0.2-0.1c-1.2-1.2-3.3-3-6.2-4.8c-0.1,0-0.2-0.1-0.2,0c-1.3,0.4-2.4,1-3.2,1.5
			c0,0,0,0.1,0.1,0.1C193,22,196.4,24,198.3,25.4"/>
	</g>
	<g>
		<path class="st7" d="M8.6,37V16.7l3.9-3.3h9l3.9,3.3v4.8h-5.9v-2.9l-1.3-1.1h-2.3l-1.3,1.1v16.4l1.3,1.1h2.3l1.3-1.1V30h-2.9v-4.2
			h8.8V37l-3.9,3.3h-9L8.6,37z"/>
		<path class="st7" d="M28,36.5h1.2L33,17.2h-2.3v-3.7h14.6v3.7h-2.3l3.8,19.3h1.3v3.7h-8.7v-3.7h1.6l-0.6-4h-5.2l-0.6,4h1.7v3.7H28
			V36.5z M35.8,28.8h4L37.8,17h-0.1L35.8,28.8z"/>
		<path class="st7" d="M50,36.5h2V17.2h-2v-3.7h11l3.4,19.7l3.3-19.7h11v3.7h-2.1v19.3h2.1v3.7h-9.2v-3.7h1.7V17.7l-4.1,21H61
			l-4.1-20.9v18.7h2.1v3.7H50V36.5z"/>
		<path class="st7" d="M80.4,36.5h2V17.2h-2v-3.7h16.8v7.2h-4.9v-3.5h-3.9v7.2h6.8v4.4h-6.8v7.7h4v-3.6h4.9v7.3H80.4V36.5z"/>
		<path class="st7" d="M99.4,36.5h2V17.2h-2v-3.7h14.7l3.9,3.3V37l-3.9,3.3H99.4V36.5z M110.8,36.1l1.3-1.1V18.7l-1.3-1.1h-3.4v18.5
			H110.8z"/>
		<path class="st7" d="M120.6,36.5h1.2l3.8-19.3h-2.3v-3.7H138v3.7h-2.3l3.8,19.3h1.3v3.7h-8.7v-3.7h1.6l-0.6-4h-5.2l-0.6,4h1.7v3.7
			h-8.2V36.5z M128.4,28.8h4L130.4,17h-0.1L128.4,28.8z"/>
		<path class="st7" d="M145.3,36.5h2.9v-4.8l-5.6-14.5h-1.4v-3.7h9.4v3.7h-2.1l2.9,9.2l3.1-9.2h-2.2v-3.7h8.7v3.7h-1.4l-5.6,14.5
			v4.8h2.9v3.7h-11.8V36.5z"/>
	</g>
</g>
</svg>
