<?xml version="1.0" encoding="utf-8"?>
<!-- Generator: Adobe Illustrator 26.5.0, SVG Export Plug-In . SVG Version: 6.00 Build 0)  -->
<svg version="1.1" id="Lager_1" xmlns="http://www.w3.org/2000/svg" xmlns:xlink="http://www.w3.org/1999/xlink" x="0px" y="0px"
	 viewBox="0 0 460 172" style="enable-background:new 0 0 460 172;" xml:space="preserve">
<style type="text/css">
	.st0{fill:#EE9E27;}
	.st1{fill:none;}
	.st2{filter:url(#Adobe_OpacityMaskFilter);}
	.st3{fill-rule:evenodd;clip-rule:evenodd;fill:#FFFFFF;}
	.st4{mask:url(#b_00000129911047665320572450000007111315022330696080_);fill-rule:evenodd;clip-rule:evenodd;fill:#00242E;}
	.st5{fill-rule:evenodd;clip-rule:evenodd;fill:#49A6E1;}
	.st6{fill-rule:evenodd;clip-rule:evenodd;fill:#F8AF8B;}
	.st7{fill-rule:evenodd;clip-rule:evenodd;fill:#F75200;}
	.st8{fill:#FFFFFF;}
</style>
<ellipse transform="matrix(0.9991 -4.277622e-02 4.277622e-02 0.9991 -3.5347 3.6443)" class="st0" cx="83.4" cy="84.4" rx="79.1" ry="79.1"/>
<g>
	<path class="st1" d="M153.7,89.9c-2.4-7.4-12.2-10.3-14.1-10.9l-0.1,0c-0.8-0.2-1.6-0.4-2.5-0.6c-2.1-0.5-4.3-1-7-1.7
		c12.2-4.4,17.2-13.8,13.9-26c-0.1-0.5-0.3-1-0.4-1.5l-0.1-0.3c-2.3-7.2-7.5-14.1-11.2-16.5c-8.6-5.6-17.4-3.8-21.5-2.6
		c-1-0.9-2.4-2.5-4.5-4.9c-0.3-0.4-0.7-0.8-1-1.2c-5.1-5.8-10-7.1-13.1-7.1c-4.7,0-28.9,1.9-33.8,3.4c-0.6,0.2-1.1,0.4-1.7,0.7
		c-4.4,2.3-15.3,12.9-20.8,20.2c-4.4,5.8-6.1,23.7-4.3,33.7c0.5,2.8,1,7.3-0.4,15c-0.2,0.2-0.6,0.5-1.2,1c-5.9,4.5-9.2,10.3-10,17.4
		c-0.6,5.9,0.6,12.5,3.6,19.6l0.9,2.1l2-0.9l1.9,10.1l5.6-4.2l1.9,9.6l5-4.9l2.8,11.8l3.8-0.2c4.3-7,12.6-18.7,16.8-20.1
		c9.1-3,20.5-3.1,31.6-3.2c9.5-0.1,18.5-0.1,24.9-2.2c4.8-1.5,9.5-3.6,14-6.2c3-1.7,6.6-6,9.2-9.4c3.9-1.4,7-4.2,8.9-7.9
		C154.7,98.3,155.1,94,153.7,89.9z"/>
	<g>
		<g transform="translate(137.75 .095)">
			<defs>
				<filter id="Adobe_OpacityMaskFilter" filterUnits="userSpaceOnUse" x="-115.8" y="18.4" width="130.4" height="130.9">
					<feColorMatrix  type="matrix" values="1 0 0 0 0  0 1 0 0 0  0 0 1 0 0  0 0 0 1 0"/>
				</filter>
			</defs>
			
				<mask maskUnits="userSpaceOnUse" x="-115.8" y="18.4" width="130.4" height="130.9" id="b_00000129911047665320572450000007111315022330696080_">
				<g class="st2">
					<path id="a_00000152242253430091958820000002136123204530462620_" class="st3" d="M-133.8,34L-5.1,5.2l26.6,118.6l-128.7,28.9
						L-133.8,34z"/>
				</g>
			</mask>
			<path class="st4" d="M-109.6,125.1l1.7,9.4l5.6-4.2l1.8,9l4.9-4.8l3.4,14.8c0,0,11.4-18.9,18-21c17.6-5.8,43.3-1.1,56.5-5.4
				c5.3-1.7,9.9-3.9,13.6-6c3.7-2.1,8.9-9.3,8.9-9.3c7.4-2.4,11.5-10.3,9.1-17.6c-2.1-6.5-11.5-9.1-12.6-9.4l0,0l0,0
				c-0.8-0.2-1.6-0.4-2.5-0.6c-3-0.7-6.7-1.5-12.3-3c-0.8-0.2-1.7-0.5-2.4-1c1.8-0.3,4-0.7,6.3-1.5C2.3,70.6,7.2,62.2,4.1,50.8
				c-0.2-0.6-0.3-1.1-0.4-1.5l0-0.1l0-0.1C1.5,42.5-3.4,36-6.7,33.9c-8.3-5.4-16.7-3.3-20.9-2c-0.9-0.8-2.6-2.5-5.6-6
				c-0.3-0.4-0.7-0.8-1-1.2c-4.6-5.2-8.8-6.3-11.5-6.4c-4.5,0-28.5,1.9-33,3.3c-0.5,0.1-0.9,0.3-1.3,0.6c-3.8,2-14.4,12-20.1,19.5
				c-4,5.3-5.6,22.5-3.9,32c0.5,3,1.1,8-0.5,16.2l0,0.2c-0.1,0.2-0.6,0.7-2,1.7c-5.4,4.1-8.4,9.4-9.1,15.8c-0.7,6.2,1,12.6,3.5,18.5
				L-109.6,125.1L-109.6,125.1z"/>
		</g>
		<path class="st5" d="M109.4,41.7c-2.5,0.6-2.4,0.3-4.1-0.4c-1.7-0.7-11-10.9-11.8-11.2c-0.6-0.4-1-1.1-2.7-1
			C89,29.2,67,30.7,63.9,31.2c-2.7,0.4-4.8,2.4-5.9,3.5c-0.6,0.6-9.8,9.9-11.1,11.9c-5.7,8.5-3.9,22.1-3.6,22.8
			c2.8-13.7,16.5-33,17.6-31.2c0.3,0.5,1,1.9,2,3.8c1.8,3.6,4.8,10.7,6.3,14.1c5.2-2.7,19.3-9.6,31.4-10.8
			c-7.8,2.5-8.9,2.7-21.6,9.4c2.2-0.1,3.5,0.1,4.3,0c0.8-0.1,1.9-0.2,3.1-0.5c6.2-1.7,23.8-12.4,30.6-13.8c2-0.4,4.3-0.6,6.5-0.3
			l0-0.1C119.4,38.2,111.9,41.1,109.4,41.7"/>
		<path class="st3" d="M57.1,67.2c0.3,1.7,1.3,1,1.6,0.5c0.3-0.5,2.9-3.3,8.1-7.6c1-0.9,0.1-1.9-0.1-2.5c-0.7-1.7-5.9-13.4-5.9-13.4
			c0-0.1-0.1-0.2-0.1-0.3c-0.4-0.8-1.2-1.2-1.7-0.5c-0.2,0.3-0.6,2-1,4.7C57.3,52.8,56.5,60.3,57.1,67.2 M87.4,85.8
			c-0.1-0.2-0.3-0.5-0.4-0.7c-0.2-0.3-0.4-0.6-0.6-0.9c-2-3-8.1-12-14.6-10.2c-0.1,0-0.2,0.1-0.4,0.1c-4.5,1.5-4.6,6.6-4.5,8.3
			l0,0.2c0.1,0.4,0.1,1,0.2,1.1c0,0,0.1,0.1,0.3,0.1c0.3,0.1,1.5,0.2,3.1,0.4c0.1-2.8,1.4-5.5,3.5-6.1c3-1,6.6,1.6,8,5.8
			c0.1,0.3,0.3,1,0.5,1.5"/>
		<path class="st3" d="M71.7,83.2c0.3,0.9,1.2,1.3,2.1,1c0.9-0.3,1.3-1.2,1.1-2c0,0,0,0,0,0c-0.3-0.9-1.2-1.3-2.1-1
			C71.9,81.5,71.4,82.4,71.7,83.2C71.6,83.2,71.7,83.2,71.7,83.2"/>
		<path class="st3" d="M129.2,98.2c-1.3-3.9,0.1-8,3.1-10.6c-1.7-0.3-15.2-3.7-17.3-4.3c0,0-1.3-1.9-6.7-2.6
			c-4.7-0.6-9.2,4.9-18.8,8.2c-52.8,18-34.4-35.8-33.6-40.6c-3.8,6.3-6.8,13.1-8.9,20.1c0,0,0,0,0,0c-3.6,11.9-3.8,21.4-4,27.4
			c-10.2,5.6-11.1,13.1-10.8,14.7c1.9-1.8,9.3-3.1,9.8-3.2c0.5,0,3.6-0.5,0.5,2c-4.8,3.9-6.7,8.7-7.6,13.8c1.6-3,10.4-7.5,13.3-7.5
			c-1.5,1.7-4.7,8.7-5.4,13.4c0.7-1.8,6.2-8.4,10.9-9.6c-1.5,1.1-3.6,6.6-3.8,11.2c2.1-4.2,5.4-7.7,6.9-9c6-5.9,37.9-5.1,38.9-5.3
			c0.1,0,0.5-0.1,1-0.1c-12.1-1.3-24.4-7.7-26.3-8.4c-2.4-0.9-4.7-0.9-6.1,0.7c-1.5,1.6-0.6,4.8,0.2,6.8c0,0-10.3-18.3-0.5-13.9
			c7.4,3.3,23.1,13.4,41.4,14.4c1.6-0.1,3.1-0.1,4.7-0.2c9.2-0.5,22.9-8.4,24.7-9.9c0.3-0.2,0.9-0.9,0.2-1.5
			C132.3,103.2,130.1,101.1,129.2,98.2"/>
		<path class="st6" d="M55.9,48.3C44.8,69.9,49.6,91.1,50.4,94c-1.5,0.3-2.9,0.8-4.3,1.6c-0.2-0.9-0.3-1.9-0.4-2.9
			c-0.8-8.5,0.3-19.5,1.2-24.2c0,0,0,0,0,0C49.1,61.4,52.1,54.7,55.9,48.3"/>
		<path class="st3" d="M134.6,99.7c-0.7-0.4-4.1-3.2-2.1-7.8c2-4.7,7.1-5.2,7.7-4.6c-3.1,2.3-3.7,3.4-4.6,5.2
			C134.7,94.2,134.3,96.2,134.6,99.7"/>
		<path class="st7" d="M90.1,73.9c-5.8-2.6-16.4-6.4-22.2-2.5c-0.2,0.1-0.4,0.2-0.2-0.1c1-1.3,6.3-7.3,8.8-8.5
			c2.2-1,10.5,6.3,14.9,10.4C91,73.4,90.6,73.7,90.1,73.9 M89,88c-0.9,0-20.7-1.9-22.5-2.3c-1.8-0.5-1.8-1.6-2-3.2
			c-0.2-4.3,1.2-9.6,6.7-11c9.2-2.5,16.8,10.6,18.4,12.7C91.4,86.7,90.3,88,89,88 M109.3,67.6c-0.6,1-1.2,2-1.8,3
			c-0.5,0.1-1,0.1-1.4,0.2c0.2-1.3,0.5-2.9,0.9-4.5c-4.4-2.1-14.5-6.8-18.4-8.1c-4.4-1.3-9.7-1.9-14.8,0.1c-4.6,1.8-6.5,4.1-9.2,7
			c-2.3,2.5-7.2,7.7-7.2,7.7c-4.9-1.5-2.2-19.9-1.4-24.7C44.8,69.9,49.6,91.1,50.4,94c4.6-1,10.4-0.6,16.4,0.3
			c8.1,1.2,14.5-1.4,14.5-1.4l26.2-9.7c3.9-0.9,7,0,7.4,0.1c0,0,0,0,0,0s-4-12.9-4.8-15.3C109.9,67.9,109.6,67.7,109.3,67.6"/>
		<path class="st6" d="M92.9,72.4c0.2-0.1,0.4-0.2,0.6-0.3c-3.4-2.8-9.1-7-16.8-11c-0.2-0.1-0.4-0.1-0.6,0c-3.2,1.2-5.9,3-7.8,4.6
			c-0.1,0.1,0,0.2,0.2,0.2C78.6,65,87.8,69.4,92.9,72.4"/>
	</g>
</g>
<g>
	<path class="st8" d="M203.5,81.6c6,0,12-3.9,12-13.7c0-7.2-3.8-14.3-8.5-21.3c-4.7-7.1-7-10.4-7-17.4c0-2.9,1.7-4.5,4-4.5
		c2.4,0,3.8,1.9,3.8,5v7.4h7.4V30c0-7.9-4.4-12.8-11.2-12.8c-8.2,0-12,6-12,13.9c0,7.2,5,15.7,9,21.4c4.3,6.4,6.6,11.1,6.6,16.9
		c0,3.1-1.4,5-4.3,5c-2.7,0-4.1-2-4.1-5.3v-7h-7.5v6.8C191.5,76.8,196.1,81.6,203.5,81.6z"/>
	<path class="st8" d="M230.8,81.6c6.8,0,11.7-5,11.7-12.4V18.1h-7.9v51.5c0,2.6-1.3,4.1-3.9,4.1c-2.3,0-3.7-1.5-3.7-4.1V18.1h-8.3
		v51.1C218.9,76.7,224,81.6,230.8,81.6z"/>
	<path class="st8" d="M255.5,55.3h4.5c5.4,0,10.2-3,10.2-11.3V29.4c0-8.4-4.9-11.3-10.2-11.3h-12.7v62.6h8.2V55.3z M255.5,25.8h4
		c1.8,0,2.6,1.1,2.6,3.6v15.3c0,2.3-0.8,3.6-2.6,3.6h-4V25.8z"/>
	<path class="st8" d="M282.1,55.3h4.5c5.4,0,10.2-3,10.2-11.3V29.4c0-8.4-4.9-11.3-10.2-11.3h-12.7v62.6h8.2V55.3z M282.1,25.8h4
		c1.8,0,2.6,1.1,2.6,3.6v15.3c0,2.3-0.8,3.6-2.6,3.6h-4V25.8z"/>
	<path class="st8" d="M337,53.9h3.7c2.2,0,3.3,1.7,3.3,3.9v14.9c0,4.5,1.2,8.3,4.2,8.3h5.2v-2.3c-0.9-1.6-1.4-3.6-1.4-6.4V58.4
		c0-3.7-1.8-6.5-5-8c3.2-1.5,4.8-4.2,4.8-8V29.2c0-8.2-5-11.1-10.3-11.1h-12.7v62.6h8.3V53.9z M337,25.8h3.9c1.8,0,2.6,1.1,2.6,3.6
		v13.6c0,2.6-1,3.9-3,3.9H337V25.8z"/>
	<polygon class="st8" points="361.8,80.7 370,80.7 370,26.1 377.5,26.1 377.5,18.1 354,18.1 354,26.1 361.8,26.1 	"/>
	<polygon class="st8" points="400.3,72.9 388.5,72.9 388.5,52.2 396.8,52.2 396.8,44.7 388.5,44.7 388.5,25.8 400.3,25.8 
		400.3,18.1 380.3,18.1 380.3,80.7 400.3,80.7 	"/>
	<path class="st8" d="M412.3,53.9h3.7c2.2,0,3.3,1.7,3.3,3.9v14.9c0,4.5,1.2,8.3,4.2,8.3h5.2v-2.3c-0.9-1.6-1.4-3.6-1.4-6.4V58.4
		c0-3.7-1.8-6.5-5-8c3.2-1.5,4.8-4.2,4.8-8V29.2c0-8.2-5-11.1-10.3-11.1H404v62.6h8.3V53.9z M412.3,25.8h3.9c1.8,0,2.6,1.1,2.6,3.6
		v13.6c0,2.6-1,3.9-3,3.9h-3.6V25.8z"/>
	<path class="st8" d="M442.2,81.6c6,0,12-3.9,12-13.7c0-7.2-3.8-14.3-8.5-21.3c-4.7-7.1-7-10.4-7-17.4c0-2.9,1.7-4.5,4-4.5
		c2.4,0,3.8,1.9,3.8,5v7.4h7.4V30c0-7.9-4.4-12.8-11.2-12.8c-8.2,0-12,6-12,13.9c0,7.2,5,15.7,9,21.4c4.3,6.4,6.6,11.1,6.6,16.9
		c0,3.1-1.4,5-4.3,5c-2.7,0-4.1-2-4.1-5.3v-7h-7.5v6.8C430.3,76.8,434.8,81.6,442.2,81.6z"/>
	<path class="st8" d="M219.7,91.5h-27.6v2.9h0.7c1.3,0,2.6,0.1,3.6,1c1.3,1.1,1.4,3.2,1.4,4.5v38.7c0,2.8,0.1,5-2.1,7.2
		c-1.1,1.1-2.6,1.3-3.3,1.3h-0.5v2.7h30.4V147h-0.6c-0.3,0-2.5-0.5-3.6-1.3c-1.7-1.3-1.8-4.4-1.8-7.2v-13.1h0.8
		c0.9,0,4.7,0.9,8.9,0.7c10.1-0.3,20.3-6.5,19.3-18C244.1,94.3,231.4,91.5,219.7,91.5z M218.4,121.7h-2.1V95.2h0.8
		c7.2,0,10.1,4.1,10.3,12.9C227.4,115.3,226,121.7,218.4,121.7z"/>
	<path class="st8" d="M342.6,146.3c-0.5-0.2-1-0.9-1.5-1.6l-22.7-64.8c3.5-2.1,5.7-6.1,5.7-11V30c0-7.4-5.1-12.8-12.1-12.8
		c-6.2,0-10.9,4.2-11.9,10.3l-3.3-9.5l-0.6,0.2l24.6,70.3l-17.4,9.1l2.4,5l-10,27.5l0,0l-0.1,0.4l-0.4,1.2
		c-1.6,3.2-8.9,13.5-18.2,13.9c-4.3,0.1-6.1-3.4-6.1-7V99.9c0-1.3,0.4-3.3,1.8-4.5c1-1,2-1,4.1-1h0.6v-2.9h-32v2.8l0.7,0.1
		c2.1,0.2,3.2,0.1,4.1,1c1.3,1.2,1.8,3.2,1.8,4.5v38.7c0,2.8,0.4,5.3-1.9,7.2c-1.3,1-3.5,1.3-4.2,1.3h-0.6v2.7h38.1h9.8h8.9V147
		l-0.4,0.1c-1.5,0.2-3.9-1.3-4.5-2.6c-1.1-2.7-0.6-6.3-0.1-7.5l2.4-6.3h16l3.5,9.5c0.7,2,0.8,3.8-0.4,5.5c-0.8,1.2-2.2,1.3-3.7,1.3
		h-1.2v2.7h28.5l0,0.1l0.3-0.1h3.9V147h-0.9C344.5,147,343.6,146.8,342.6,146.3z M308.3,50.8V29.2c0-2.3,1.3-4,3.8-4
		c2.4,0,3.9,1.7,3.9,4v40.4c0,0.7-0.1,1.3-0.4,1.8L308.3,50.8z M300.9,126.8l6.9-19.3l6.7,19.3H300.9z"/>
	<path class="st8" d="M392.9,127.1l-0.2,1.8c-1,8.6-8.7,18.2-17.3,18.4c-12.7,0.4-13.1-15.5-12.9-27.1c0.1-11.3,0.2-26.2,13-26.2
		c8.1,0,14.6,8.1,16,16.5l0.4,1.8h2.8V93.1l-1.3,0.1c-0.7,0.1-1.6,0.1-2.7,0.1c-2.3,0-7.2-2.6-16.5-2.4
		c-17.4,0.4-31.6,13.2-31.9,29.3c-0.3,17.2,12.6,30.3,32,30.5c4.9,0.1,12.9-1.9,17.5-2.6c2.3-0.4,2.1-0.4,3.5-0.4h1l-0.1-20.6H392.9
		z"/>
	<path class="st8" d="M450.6,133.2c-0.9,1.9-7.8,13.3-18.6,12.4c-5.5-0.5-7-3.3-7-7v-20.2c1.3-0.3,6.2,0.1,8.9,2.4
		c2.1,1.6,2.9,3,3.2,6.1h3v-18.8h-2.8c-0.2,2.1-1,4.2-2.9,5.5c-3.1,1.8-8.6,1.8-9.5,1.5V95h2.1c6.8,0,9,1.3,11.3,2.2
		c3.4,1.5,7.4,5.6,9,8.5l2.5-1.3c-1-2.6-1.7-4.4-2.5-7c-1-3.1-1.5-5.2-2.1-8.3c-1.3,0.9-2.2,1.5-3.8,1.9c-1.8,0.6-4.3,0.6-5.2,0.5
		h-37.1v2.8l0.7,0.1c2.1,0.2,3.1,0.1,4.1,1c1.3,1.2,1.7,3.2,1.7,4.5v38.7c0,2.8,0.5,5.3-1.8,7.2c-1.3,1-3.6,1.3-4.3,1.3h-0.5v2.7
		h50.4l4.6-16.9l-2.7-1.4L450.6,133.2z"/>
</g>
</svg>
