<?xml version="1.0" encoding="utf-8"?>
<!-- Generator: Adobe Illustrator 24.3.0, SVG Export Plug-In . SVG Version: 6.00 Build 0)  -->
<svg version="1.1" id="Lager_1" xmlns="http://www.w3.org/2000/svg" xmlns:xlink="http://www.w3.org/1999/xlink" x="0px" y="0px"
	 viewBox="0 0 460 172" style="enable-background:new 0 0 460 172;" xml:space="preserve">
<style type="text/css">
	.st0{fill:#EFEFEF;}
</style>
<g>
	<path class="st0" d="M205.2,82.9c6,0,12.2-3.9,12.2-13.9c0-7.3-3.8-14.4-8.7-21.5c-4.7-7.2-7.1-10.6-7.1-17.5
		c0-2.9,1.7-4.5,4.1-4.5c2.5,0,3.8,1.9,3.8,5V38h7.5v-7.2c0-7.9-4.4-12.9-11.3-12.9c-8.2,0-12.2,6-12.2,14.1c0,7.3,5,15.8,9.2,21.6
		c4.3,6.4,6.6,11.2,6.6,17.1c0,3.1-1.4,5-4.3,5c-2.7,0-4.1-2-4.1-5.3v-7.1h-7.5v6.8C193.1,77.9,197.7,82.9,205.2,82.9z"/>
	<path class="st0" d="M232.7,82.9c6.8,0,11.9-5,11.9-12.5V18.8h-7.9v52c0,2.6-1.3,4.1-3.9,4.1c-2.4,0-3.7-1.5-3.7-4.1v-52h-8.3v51.6
		C220.8,77.8,226,82.9,232.7,82.9z"/>
	<path class="st0" d="M257.7,56.3h4.5c5.4,0,10.4-3,10.4-11.4V30.2c0-8.4-4.9-11.4-10.4-11.4h-12.8V82h8.2V56.3z M257.7,26.4h4.1
		c1.8,0,2.6,1.1,2.6,3.6v15.5c0,2.4-0.8,3.6-2.6,3.6h-4.1V26.4z"/>
	<path class="st0" d="M284.5,56.3h4.5c5.4,0,10.4-3,10.4-11.4V30.2c0-8.4-4.9-11.4-10.4-11.4h-12.8V82h8.2V56.3z M284.5,26.4h4.1
		c1.8,0,2.6,1.1,2.6,3.6v15.5c0,2.4-0.8,3.6-2.6,3.6h-4.1V26.4z"/>
	<path class="st0" d="M340.1,54.9h3.7c2.2,0,3.3,1.7,3.3,3.9v15.1c0,4.5,1.2,8.3,4.2,8.3h5.2v-2.4c-0.9-1.6-1.4-3.6-1.4-6.4V59.3
		c0-3.7-1.8-6.5-5-8c3.2-1.5,4.8-4.2,4.8-8V30c0-8.2-5-11.2-10.5-11.2h-12.8V82h8.3L340.1,54.9L340.1,54.9z M340.1,26.4h4
		c1.8,0,2.6,1.1,2.6,3.6v13.8c0,2.6-1,3.9-3,3.9h-3.6V26.4z"/>
	<polygon class="st0" points="365.1,82 373.4,82 373.4,26.8 380.9,26.8 380.9,18.8 357.3,18.8 357.3,26.8 365.1,26.8 	"/>
	<polygon class="st0" points="403.9,74.1 392.1,74.1 392.1,53.1 400.4,53.1 400.4,45.6 392.1,45.6 392.1,26.5 403.9,26.5 
		403.9,18.8 383.8,18.8 383.8,82 403.9,82 	"/>
	<path class="st0" d="M416,54.9h3.7c2.2,0,3.3,1.7,3.3,3.9v15.1c0,4.5,1.2,8.3,4.2,8.3h5.2v-2.4c-0.9-1.6-1.4-3.6-1.4-6.4V59.3
		c0-3.7-1.8-6.5-5-8c3.2-1.5,4.8-4.2,4.8-8V30c0-8.2-5-11.2-10.5-11.2h-12.8V82h8.3V54.9z M416,26.4h4c1.8,0,2.6,1.1,2.6,3.6v13.8
		c0,2.6-1,3.9-3,3.9H416V26.4z"/>
	<path class="st0" d="M446.3,82.9c6,0,12.2-3.9,12.2-13.9c0-7.3-3.8-14.4-8.7-21.5c-4.7-7.2-7.1-10.6-7.1-17.5
		c0-2.9,1.7-4.5,4.1-4.5c2.5,0,3.8,1.9,3.8,5V38h7.5v-7.2c0-7.9-4.4-12.9-11.3-12.9c-8.2,0-12.2,6-12.2,14.1c0,7.3,5,15.8,9.2,21.6
		c4.3,6.4,6.6,11.2,6.6,17.1c0,3.1-1.4,5-4.3,5c-2.7,0-4.2-2-4.2-5.3v-7.1h-7.5v6.8C434.2,77.9,438.7,82.9,446.3,82.9z"/>
	<path class="st0" d="M221.6,92.8h-27.9v2.9h0.7c1.3,0,2.6,0.1,3.6,1c1.3,1.1,1.4,3.2,1.4,4.5v39c0,2.8,0.1,5-2.1,7.2
		c-1.1,1.1-2.6,1.3-3.3,1.3h-0.5v2.7h30.7v-2.7h-0.6c-0.3,0-2.5-0.5-3.6-1.3c-1.7-1.3-1.8-4.4-1.8-7.2v-13.2h0.8
		c0.9,0,4.8,0.9,9,0.7c10.2-0.3,20.4-6.5,19.5-18.1C246.2,95.7,233.4,92.8,221.6,92.8z M220.1,123.3h-2.2V96.5h0.8
		c7.3,0,10.3,4.1,10.4,13.1C229.3,116.9,228,123.3,220.1,123.3z"/>
	<path class="st0" d="M345.7,148.2c-0.5-0.2-1-0.9-1.5-1.6l-22.9-65.4C324.8,79,327,75,327,70V30.8c0-7.5-5.1-12.9-12.3-12.9
		c-6.2,0-11,4.2-12,10.4l-3.3-9.6l-0.6,0.2l24.8,71l-17.5,9.2l2.4,5l-10.1,27.8l0,0l-0.1,0.4l-0.4,1.2c-1.6,3.2-9,13.6-18.4,14.1
		c-4.3,0.1-6.2-3.4-6.2-7v-39c0-1.3,0.4-3.3,1.8-4.5c1-1,2-1,4.2-1h0.6V93h-32.3v2.8l0.7,0.1c2.2,0.2,3.2,0.1,4.2,1
		c1.3,1.2,1.8,3.2,1.8,4.5v39c0,2.8,0.4,5.3-1.9,7.2c-1.3,1-3.6,1.3-4.2,1.3h-0.6v2.7h38.2h9.9h9v-2.7l-0.4,0.1
		c-1.5,0.2-3.9-1.3-4.5-2.6c-1.1-2.7-0.6-6.3-0.1-7.6l2.4-6.3h16.2l3.5,9.7c0.7,2,0.8,3.9-0.4,5.6c-0.8,1.2-2.2,1.3-3.7,1.3h-1.2
		v2.7h28.8v0.1l0.3-0.1h4v-2.7h-0.9C347.5,149,346.7,148.8,345.7,148.2z M311,51.7V30c0-2.4,1.3-4.1,3.8-4.1s3.9,1.7,3.9,4.1v40.7
		c0,0.7-0.2,1.3-0.4,1.9L311,51.7z M303.5,128.4l6.9-19.5l6.8,19.5H303.5z"/>
	<path class="st0" d="M396.5,128.7l-0.2,1.9c-1,8.7-8.8,18.4-17.5,18.6c-12.9,0.4-13.2-15.6-13.1-27.4c0.1-11.5,0.2-26.5,13.2-26.5
		c8.1,0,14.7,8.1,16.2,16.7l0.4,1.8h2.8V94.6l-1.3,0.1c-0.7,0.1-1.6,0.1-2.7,0.1c-2.3,0-7.2-2.6-16.7-2.4
		c-17.5,0.4-31.9,13.3-32.3,29.6c-0.3,17.3,12.8,30.6,32.3,30.9c4.9,0.1,13.1-1.9,17.6-2.6c2.3-0.4,2.2-0.4,3.5-0.4h1l-0.1-20.8
		h-3.1V128.7z"/>
	<path class="st0" d="M454.7,135c-0.9,1.9-7.8,13.5-18.7,12.6c-5.6-0.5-7-3.3-7-7.1V120c1.3-0.3,6.2,0.1,9.1,2.4
		c2.1,1.6,2.9,3,3.2,6.1h3v-19h-2.8c-0.2,2.1-1,4.2-2.9,5.5c-3.1,1.9-8.7,1.8-9.6,1.5V96.4h2.1c6.8,0,9.2,1.3,11.5,2.2
		c3.4,1.5,7.4,5.6,9.2,8.6l2.5-1.3c-1-2.6-1.7-4.4-2.5-7.1c-1-3.1-1.5-5.2-2.2-8.3c-1.3,0.9-2.2,1.5-3.8,1.9
		c-1.8,0.6-4.3,0.6-5.2,0.5h-37.5v2.8l0.7,0.1c2.1,0.2,3.1,0.1,4.2,1c1.3,1.2,1.7,3.2,1.7,4.5v39c0,2.8,0.5,5.3-1.9,7.2
		c-1.3,1-3.6,1.3-4.3,1.3h-0.5v2.7h50.9l4.6-17.1l-2.7-1.4L454.7,135z"/>
	<path class="st0" d="M158.4,42.8c-3.6-6.1-13.5-7.6-18.5-12.6c-5-5-6.4-14.9-12.6-18.5C121.2,8.2,112,11.8,105,10
		c-6.7-1.8-12.9-9.7-20.2-9.7c-7.2,0-13.5,7.8-20.2,9.7c-6.9,1.8-16.2-1.8-22.3,1.7c-6.1,3.6-7.6,13.5-12.6,18.5
		c-5,5-14.9,6.4-18.5,12.6C7.6,49,11.2,58.2,9.4,65.2C7.6,71.9-0.2,78-0.2,85.4c0,7.2,7.8,13.5,9.7,20.2c1.8,6.9-1.8,16.2,1.7,22.3
		c3.6,6.1,13.5,7.6,18.5,12.6c5,5,6.4,14.9,12.6,18.5c6.1,3.5,15.3-0.1,22.3,1.7c6.7,1.8,12.9,9.7,20.2,9.7c7.2,0,13.5-7.8,20.2-9.7
		c6.9-1.8,16.2,1.8,22.3-1.7c6.1-3.6,7.6-13.5,12.6-18.5c5-5,14.9-6.4,18.5-12.6c3.5-6.1-0.1-15.3,1.7-22.3
		c1.8-6.7,9.7-12.9,9.7-20.2c0-7.2-7.8-13.5-9.7-20.2C158.2,58.1,161.9,48.9,158.4,42.8z M84.9,156.8c-39.5,0-71.5-32-71.5-71.5
		s32-71.5,71.5-71.5s71.5,32,71.5,71.5C156.4,124.7,124.3,156.8,84.9,156.8z"/>
	<path class="st0" d="M84.9,17.1c-37.6,0-68.1,30.5-68.1,68.1s30.5,68.1,68.1,68.1S153,122.8,153,85.2
		C153,47.7,122.5,17.1,84.9,17.1z M84.9,151.6c-36.6,0-66.4-29.7-66.4-66.4c0-36.6,29.7-66.4,66.4-66.4c36.6,0,66.4,29.7,66.4,66.4
		C151.1,121.9,121.5,151.6,84.9,151.6z"/>
	<path class="st0" d="M113.9,58.1l-12,12c-1.1-0.2-2.3-0.2-3.7-0.3l0,0l0,0h-0.1L111.9,56c-15.6-14.5-40-14.2-55.2,1
		s-15.5,39.6-1,55.2l11-11c1,0.4,2,0.7,3.1,1l-12.1,12.1c15.6,14.5,40,14.2,55.2-1C128.2,98.2,128.5,73.8,113.9,58.1z M109.9,97.8
		c-1.3,2.4-3.5,4.2-6.1,4.9c-1.7,0.5-3.1,0.7-5.9,0.7h-1h-4.9v2v0.9c0.1,2.2,0.6,3,2.3,3.5v7.2H79.4v-7.2c1.8-0.5,2.3-1.3,2.3-3.5
		v-0.9v-5.6c-1.6,0.4-3.3,0.6-5.1,0.6c-5.3,0-10.3-1.7-15.1-5V84.2h10.2v0.5c0,2.3,0.1,3.4,0.6,4.3c0.7,1.5,2.4,2.4,4.4,2.4
		c2.8,0,4.8-1.9,4.8-4.6c0-2.8-1.3-4-7.3-6.3c-4.2-1.6-5-2-6.5-2.8c-4-2.1-5.9-5.4-5.9-10.3c0-8.2,5.6-13.1,15.2-13.1
		c5.2,0,10.7,1.9,14.3,5v10.5h-9.9v-0.5v-0.2l-0.1-1.2c0.1-3-1.8-4.8-4.8-4.8c-2.7,0-4.7,1.7-4.7,4c0,2,1.5,3.2,5.2,4.7l2.4,0.9l0,0
		h17.5h1.5c5.1,0.1,7.9,1.1,10.3,3.6c1.1,1.3,2.1,3.4,2.5,5.2c0.3,1.2,0.4,3.3,0.4,6.2C111.4,93.4,111.1,95.4,109.9,97.8z"/>
	<path class="st0" d="M45.2,121.9c-1.3,1.3-1.4,3.5,0.2,4.9c1.5,1.5,3.7,1.2,5-0.1c1.3-1.3,1.3-3.5-0.2-4.9
		C48.6,120.4,46.5,120.6,45.2,121.9z M49.1,125.5c-0.8,0.8-1.8,1-2.6,0.2c-0.8-0.8-0.7-1.8,0.1-2.6c0.8-0.8,1.8-0.9,2.6-0.2
		C49.9,123.7,49.8,124.7,49.1,125.5z"/>
	<path class="st0" d="M45.5,102.2c-1.3-2.9-4.2-4-7-2.8c-2.4,1-3.3,3.2-4,6c-0.6,2.6-1,3.8-2.5,4.4c-1,0.4-1.9,0.1-2.3-0.9
		c-0.5-1.1,0.1-2,1.2-2.5l1.1-0.5l-1.3-3l-1.1,0.5c-2.6,1.1-3.7,3.8-2.5,6.6c1.4,3.2,4.3,3.9,6.8,2.8c2.5-1.1,3.4-3.8,3.9-6.2
		c0.5-2.3,1.1-3.6,2.5-4.2c1.1-0.5,2-0.2,2.5,1c0.5,1.2,0.1,2.1-1.2,2.7l-1,0.4l1.3,3l1.2-0.5C45.8,107.9,46.8,105.3,45.5,102.2z"/>
	<path class="st0" d="M42.3,90.5c-0.4-3.1-2.6-5-5.5-4.7L22,87.6l0.4,3.5l14.8-1.8c1.1-0.1,1.8,0.4,2,1.6c0.1,1.1-0.4,1.9-1.5,2
		l-14.8,1.8l0.4,3.6l14.8-1.8C41,96.1,42.7,93.6,42.3,90.5z"/>
	<path class="st0" d="M41.9,79.4l-7.3-1.2l0.4-2.3c0.4-2.7-0.8-4.6-3.5-5l-3.2-0.5c-2.7-0.4-4.5,0.9-5,3.6l-1,5.9l19.1,3.1
		L41.9,79.4z M32.1,75.8l-0.3,1.9l-6.1-1l0.3-1.9c0.1-0.9,0.7-1.2,1.6-1l3.2,0.5C31.9,74.5,32.3,75,32.1,75.8z"/>
	<path class="st0" d="M45.1,68l-6.7-3.1l1-2.1c1.2-2.5,0.5-4.6-2-5.8l-2.9-1.4c-2.5-1.2-4.6-0.4-5.8,2.1L26.1,63l17.5,8.2L45.1,68z
		 M36.8,61.8L36,63.7L30.3,61l0.8-1.8c0.4-0.8,1-0.9,1.9-0.5l3,1.4C36.9,60.4,37.2,61,36.8,61.8z"/>
	<path class="st0" d="M45.1,57.5c2.3,2,5.3,1.9,7.6-0.6c2.2-2.5,2-5.6-0.3-7.6l-7.2-6.4c-2.3-2-5.3-1.9-7.5,0.6
		c-2.2,2.5-2,5.6,0.3,7.6L45.1,57.5z M40,45.5c0.8-0.9,1.8-0.9,2.6-0.1l7.5,6.7c0.8,0.7,1,1.7,0.2,2.6s-1.8,0.9-2.6,0.1l-7.5-6.7
		C39.4,47.5,39.2,46.5,40,45.5z"/>
	<path class="st0" d="M60.7,49.4l-4.2-6.8l1.6-1c0.9-0.5,1.7-0.1,2.1,0.6l1.9,3.1c0.9,1.4,2,2.1,3.2,1.4l1.8-1.1l-0.6-0.9
		c-0.6-0.2-1.2-0.5-1.6-1.3l-1.9-3c-0.7-1.1-1.9-1.8-3.4-1.3c1-1.2,1-2.4,0.3-3.7L58.5,33c-1.4-2.3-3.7-2.6-6-1.2l-5,3.1l10.3,16.5
		L60.7,49.4z M52.1,35.4l1.7-1c0.8-0.5,1.4-0.2,1.8,0.5l1.5,2.3c0.6,0.9,0.4,1.6-0.4,2.1l-1.5,1L52.1,35.4z"/>
	<polygon class="st0" points="66.4,28.7 71,44.2 74.5,43.2 70,27.6 73.4,26.7 72.5,23.6 62.1,26.6 63,29.8 	"/>
	<polygon class="st0" points="88.5,41.9 88.4,38.7 82.7,38.8 82.6,33.5 86.5,33.4 86.5,30.5 82.5,30.6 82.3,25.8 88.1,25.6 88,22.5 
		78.7,22.8 79.2,42.1 	"/>
	<path class="st0" d="M95.6,35.1l1.8,0.4c1,0.2,1.3,1.1,1,2L97.5,41c-0.4,1.6-0.1,2.9,1.2,3.2l2.1,0.5l0.3-1
		c-0.3-0.6-0.4-1.2-0.2-2.1l0.8-3.4c0.3-1.2-0.1-2.6-1.5-3.4c1.6-0.1,2.5-1,2.8-2.4l0.6-2.6c0.6-2.6-0.7-4.5-3.3-5.1l-5.8-1.4
		L89.9,42l3.5,0.9L95.6,35.1z M97.6,26.9l1.9,0.5c0.9,0.2,1.1,0.8,0.9,1.7l-0.7,2.7c-0.2,1-0.8,1.4-1.7,1.2l-1.8-0.4L97.6,26.9z"/>
	<path class="st0" d="M106.2,48.2c2.8,1.6,5.7,0.7,7.3-2c1.3-2.3,0.8-4.6-0.4-7.2c-1.1-2.4-1.5-3.6-0.7-5c0.5-0.9,1.5-1.2,2.4-0.6
		c1.1,0.6,1.1,1.7,0.6,2.7l-0.6,1l2.8,1.6l0.6-1.1c1.4-2.5,0.7-5.3-1.9-6.8c-3-1.7-5.8-0.5-7.1,1.9c-1.3,2.3-0.4,5.1,0.6,7.3
		c0.9,2.2,1.3,3.6,0.5,4.9c-0.6,1-1.5,1.4-2.6,0.7c-1.1-0.6-1.3-1.7-0.6-2.9l0.6-1l-2.9-1.6l-0.7,1.2
		C102.6,43.7,103.3,46.5,106.2,48.2z"/>
	<path class="st0" d="M115.9,54.9l2.2,2.8l5.8-4.5l1.4,1.8c1.7,2.1,3.9,2.5,6.1,0.8l2.6-2c2.2-1.7,2.4-4,0.7-6.1l-3.6-4.7
		L115.9,54.9z M132,51.1l-2.6,2c-0.8,0.6-1.4,0.6-1.9-0.1l-1.2-1.6l4.9-3.8l1.2,1.6C132.9,50,132.7,50.6,132,51.1z"/>
	<polygon class="st0" points="126.6,72.9 129.5,71.7 127.4,66.7 142.3,60.4 140.9,57.1 123.1,64.7 	"/>
	<path class="st0" d="M127.4,77.1l3.8,0.2l0.4,3.4l-3.7,1.1l0.5,3.6l18.7-6.3l-0.5-4l-19.7-1.4L127.4,77.1z M141.7,77.8l-7.2,2.1
		l-0.3-2.4L141.7,77.8z"/>
	<path class="st0" d="M142.7,88.3l-9.6-1.4c-3-0.4-5.5,1.3-6,4.7c-0.5,3.4,1.4,5.5,4.2,5.9l2.3,0.3l0.5-3.2l-2.3-0.3
		c-1.1-0.2-1.8-0.9-1.6-2.2c0.2-1.3,1.1-1.8,2.1-1.7l10.1,1.4c1.1,0.2,1.7,0.9,1.6,2.2c-0.2,1.3-1,1.8-2.2,1.6l-2.3-0.3l-0.5,3.2
		l2.3,0.3c2.9,0.4,5.2-1.1,5.7-4.4C147.7,91.1,145.7,88.7,142.7,88.3z"/>
	<polygon class="st0" points="122.5,107.1 125.4,108.4 127.7,103.2 132.6,105.4 131,108.9 133.6,110.1 135.2,106.5 139.7,108.4 
		137.4,113.6 140.3,114.9 143.9,106.4 126.2,98.7 	"/>
	<path class="st0" d="M119.6,121.7c-1.5,1.5-1.4,3.6-0.2,4.9c1.3,1.3,3.4,1.5,5,0.1c1.5-1.5,1.4-3.7,0.2-5
		C123.3,120.4,121.2,120.2,119.6,121.7z M123.3,125.5c-0.8,0.8-1.8,0.6-2.6-0.2c-0.8-0.8-0.9-1.8-0.1-2.6c0.8-0.8,1.8-0.6,2.6,0.2
		C124,123.8,124.1,124.8,123.3,125.5z"/>
	<path class="st0" d="M67.7,125.4c-0.3,0.7-1,1.3-2,0.8l-6.9,16.4l3.1,1.3l7.5-17.8L67.7,125.4z"/>
	<path class="st0" d="M76.7,127.7c-3.1-0.6-5.3,1.1-5.9,4l-0.7,3.7c-0.4,2.1,0.7,3.9,3,4.4c1.6,0.3,2.5-0.2,3.3-0.9l-0.8,4.2
		c-0.2,1.1-0.9,1.8-2.2,1.5c-1.3-0.2-1.8-1-1.6-2.3l0.2-0.9l-2.9-0.5l-0.2,1.3c-0.4,2.3,0.9,4.8,4,5.3c3.1,0.6,5.5-1,6-4l1.9-10
		C81.4,130.7,79.9,128.3,76.7,127.7z M77.6,132.8l-0.7,3.6c-0.2,0.9-0.9,1.5-2.1,1.3c-1.2-0.2-1.6-1-1.4-1.9l0.7-3.7
		c0.2-0.9,0.9-1.5,2-1.3C77.4,130.9,77.8,131.9,77.6,132.8z"/>
	<path class="st0" d="M88.2,128.4c-3.1,0.2-4.9,2.4-4.6,5.4l0.3,3.7c0.2,2.1,1.6,3.6,4,3.4c1.6-0.1,2.4-0.9,3-1.7l0.3,4.3
		c0.1,1.1-0.4,1.9-1.7,2.1c-1.3,0.1-2-0.5-2.1-1.8l-0.1-0.9l-2.9,0.2l0.1,1.3c0.2,2.4,2.1,4.4,5.2,4.1c3.1-0.2,5-2.4,4.8-5.4
		l-0.8-10.2C93.5,130,91.5,128.1,88.2,128.4z M89,138.5c-1.2,0.1-1.8-0.6-1.9-1.5l-0.3-3.8c-0.1-0.9,0.5-1.7,1.6-1.8
		c1.2-0.1,1.9,0.7,1.9,1.6l0.3,3.7C90.7,137.6,90.1,138.4,89,138.5z"/>
	<path class="st0" d="M108.1,135.3c-0.7-2-2.4-3-4.6-2.2c-1.5,0.5-2.2,1.5-2.5,2.5l-1.5-4.3c-0.4-1.1-0.1-2.1,1-2.5
		c1.2-0.4,2,0,2.4,1.2l0.4,1.1l2.8-1l-0.5-1.5c-0.8-2.2-3.1-3.8-6-2.7c-3,1.1-4.1,3.7-3.1,6.5l3.4,9.6c1,2.8,3.5,4.1,6.4,3
		c3-1.1,4.1-3.6,3.1-6.4L108.1,135.3z M105.2,142.2c-1,0.4-1.9-0.1-2.3-1.1l-1.1-3.2c-0.3-0.9,0.1-1.7,1.2-2.1s1.9,0,2.2,0.9
		l1.2,3.3C106.7,141,106.3,141.8,105.2,142.2z"/>
	<path class="st0" d="M96.4,82.3h-0.6h-3.9v11.7h3.9h0.6c3.6,0,4.8-1.5,4.8-5.7C101.2,83.8,100,82.3,96.4,82.3z"/>
</g>
</svg>
