<?xml version="1.0" encoding="utf-8"?>
<!-- Generator: Adobe Illustrator 23.0.6, SVG Export Plug-In . SVG Version: 6.00 Build 0)  -->
<svg version="1.0" id="Lager_1" xmlns="http://www.w3.org/2000/svg" xmlns:xlink="http://www.w3.org/1999/xlink" x="0px" y="0px"
	 viewBox="0 0 299.9 307.8" style="enable-background:new 0 0 299.9 307.8;" xml:space="preserve">
<style type="text/css">
	.st0{fill-rule:evenodd;clip-rule:evenodd;fill:#012A32;}
	.st1{fill-rule:evenodd;clip-rule:evenodd;fill:#FFFFFF;}
	.st2{fill-rule:evenodd;clip-rule:evenodd;fill:#12B9DE;}
	.st3{fill-rule:evenodd;clip-rule:evenodd;fill:#FDE1CD;}
	.st4{fill-rule:evenodd;clip-rule:evenodd;fill:#ED6A19;}
</style>
<path class="st0" d="M51.4,257.6l-10.9,9.7l-3-19.7l-12.1,8.2l-2.8-20.5l-4.9,2l-0.8-2.3c-5.6-14.9-7.5-28.5-5.7-40.3
	c2.1-14,9.4-25.4,21.5-33.8c1.2-0.8,2.1-1.5,2.8-2.1l0.6-0.5l0.2-0.8c3.7-16.2,3-26,2.3-32C36,105,41.2,68.2,50.3,57.2
	c12-14.6,35.4-35.3,44.6-39.6c1-0.5,2.1-0.9,3.2-1.2c8.6-2.4,48-4.1,65.2-4.1c2.2,0,3.9,0,5,0.1c6.2,0.3,15.5,3.3,25.1,15.3
	c0.7,0.9,1.3,1.7,2,2.6c3.6,4.6,6.6,8.2,9,10.8l0.9,1l1.3-0.3c5.1-1.2,9.9-1.8,14.6-1.8c10.5,0,20.1,3,28.4,8.9
	c7.2,5.1,17.1,19.3,21.1,34.2l0.1,0.6c0.2,0.9,0.4,1.9,0.7,3.1c5.6,24.6-5.1,42.5-30,50.3l-7.1,2.2l7.1,2.1c5.7,1.7,10.5,3,14.5,4.1
	c1.8,0.5,3.5,0.9,5.1,1.4l0.2,0.1c3.8,1.2,22.9,7.8,27,22.4c2.2,8,1.2,16.5-2.9,23.8c-4,7-10.4,12.2-18,14.7l-0.6,0.2l-0.4,0.5
	c-7.8,9.4-14.5,15.7-19.3,18.2c-9.6,4.9-19.5,8.7-29.4,11.5c-7,1.9-16,2.8-28.4,2.8l0,0c-7.4,0-15.1-0.3-23.2-0.6
	c-8.6-0.3-17.4-0.7-26.1-0.7c-17.2,0-30.2,1.4-40.9,4.5c-10.7,3-31.2,30.9-38.2,41.3l-3.2,4.9L51.4,257.6z"/>
<g>
	<path class="st1" d="M24.5,231.6L24.5,231.6L24.5,231.6z"/>
	<path class="st1" d="M290.5,169.5c-4.4-15.8-24.5-22.8-28.5-24l-0.2-0.1c-1.7-0.5-3.4-0.9-5.1-1.4c-4.3-1.2-8.9-2.5-14.4-4.1
		c25.9-8.1,37.3-27.3,31.5-53c-0.3-1.1-0.5-2.1-0.7-3.1l-0.2-0.7c-4.1-15.4-14.4-30.1-22-35.4c-17.6-12.5-36.1-9.5-44.8-7.5
		c-1.9-2.1-4.8-5.4-8.9-10.7c-0.7-0.9-1.3-1.7-2-2.6c-10.1-12.6-20.2-15.7-26.8-16.1c-9.7-0.5-60.6,1.2-70.9,4.1
		c-1.2,0.3-2.4,0.8-3.6,1.3c-9.4,4.5-33.2,25.5-45.4,40.2c-9.7,11.7-14.9,48.9-12.2,70c0.8,5.9,1.4,15.5-2.2,31.2
		c-0.5,0.4-1.4,1.1-2.7,2c-12.7,8.8-20.2,20.7-22.5,35.4C7,207.2,9,221.1,14.7,236.4l1.7,4.4l4.4-1.7l2.9,21.2l12.2-8.2l3.1,20.3
		l11-9.8l6.3,34.4l6.4-9.5c9.5-14.3,28-37.9,36.9-40.4c19.4-5.5,43.2-4.6,66.3-3.7c19.9,0.8,38.7,1.5,52.3-2.3
		c10.1-2.8,20.1-6.7,29.8-11.6c6.4-3.2,14.3-11.8,20.1-18.7c8.2-2.7,15.1-8.2,19.3-15.8C291.8,187.1,292.9,178.1,290.5,169.5z
		 M265.3,205.6c-0.1,0-11.6,14.7-19.5,18.7s-17.7,8.2-29,11.3c-28.1,7.8-81.3-4.6-118.7,6c-13.9,3.9-39.5,42.3-39.5,42.3l-5.7-31.2
		l-10.8,9.6l-2.7-19.2l-12.1,8.2l-2.8-19.7l-5.4,2.2c-4.7-12.6-7.5-26.3-5.6-39.1c2-13.3,9-24.2,20.5-32.3c2.9-2,3.9-3,4.3-3.4
		l0.1-0.3c4-17.1,3.4-27.6,2.5-33.9c-2.6-20,2.4-55.8,11.2-66.5c12.6-15.2,35.7-35.2,43.8-39c0.9-0.4,1.9-0.8,2.8-1
		c9.7-2.7,60-4.4,69.4-3.9c5.7,0.3,14.3,3.1,23.4,14.4c0.7,0.8,1.3,1.7,2,2.5c5.8,7.5,9.2,11.2,11.1,13c8.9-2.3,26.6-5.9,43.5,6.1
		c6.8,4.8,16.4,18.8,20.2,32.9v0.1v0.1c0.2,1,0.4,2.1,0.7,3.2c5.5,24.1-5.5,41.3-30.8,48.3c-4.9,1.4-9.6,2.1-13.3,2.5
		c1.5,1,3.2,1.8,4.9,2.3c11.4,3.6,19.2,5.7,25.4,7.5c1.8,0.5,3.4,0.9,5.1,1.4h0.1h0.1c2.2,0.7,21.6,7,25.4,20.8
		C290.3,185.1,281.1,201.2,265.3,205.6z"/>
</g>
<path class="st2" d="M202.2,64.6c-5.3,1.1-5.1,0.4-8.6-1.2c-3.4-1.7-22.1-23.7-23.6-24.6c-1.3-0.9-2-2.4-5.6-2.3
	c-3.6,0.1-49.7,1.2-56.4,2c-5.7,0.6-10.3,4.6-12.6,6.8c-1.3,1.2-21.3,19.8-24.2,23.8c-12.6,17.3-10.3,45.8-9.7,47.3
	C68.7,88,98.9,49,101.2,52.7c0.6,1,2,4.1,3.7,8c3.3,7.6,9,22.7,11.9,30.1c11.1-5.2,41.3-18.2,66.6-19.8
	c-16.5,4.5-18.8,4.8-46.1,17.7c4.5,0,7.2,0.5,8.9,0.4s4.1-0.2,6.6-0.8c13.2-3,50.9-23.6,65.2-26c4.2-0.7,9-0.9,13.7,0l0.1-0.3
	C223.4,58.1,207.5,63.5,202.2,64.6"/>
<path class="st1" d="M90.5,113.1c0.4,3.6,2.7,2.2,3.4,1.2c0.7-1,6.4-6.7,17.7-15.2c2.1-1.8,0.4-3.9,0-5.2c-1.2-3.6-11-28.5-11-28.5
	c-0.1-0.2-0.1-0.4-0.2-0.6c-0.8-1.8-2.5-2.7-3.5-1.3c-0.4,0.5-1.5,4.2-2.6,9.6C92.2,82.8,89.9,98.5,90.5,113.1 M152.2,154.6
	c-0.2-0.5-0.5-1-0.8-1.5c-0.4-0.7-0.8-1.3-1.2-2c-3.9-6.4-15.9-25.8-29.6-22.8c-0.3,0.1-0.5,0.1-0.8,0.2
	c-9.5,2.6-10.2,13.5-10.2,16.9v0.3c0.1,0.9,0.1,2.1,0.3,2.4c0,0,0.2,0.1,0.6,0.3c0.7,0.2,3.1,0.6,6.4,1.1c0.5-5.8,3.4-11.3,7.9-12.5
	c6.5-1.8,13.7,4,16.2,12.9c0.2,0.7,0.6,2.1,0.9,3.3"/>
<path class="st1" d="M119.4,147.9c0.5,1.8,2.4,2.9,4.2,2.4c1.8-0.5,2.9-2.4,2.4-4.2l0,0c-0.5-1.8-2.4-2.9-4.2-2.4
	C120,144.2,119,146.1,119.4,147.9L119.4,147.9"/>
<path class="st1" d="M238.3,184.6c-2.3-8.3,0.9-16.8,7.4-21.8c-3.5-0.7-31.4-9.2-35.7-10.7c0,0-2.6-4.1-13.7-6
	c-9.8-1.7-19.7,9.5-40,15.4c-112.1,32.6-68.7-78.2-66.6-88c-8.4,12.9-15.3,26.8-20.6,41.3c0,0,0,0,0,0.1
	c-8.7,24.5-9.9,44.4-10.9,56.9c-22,10.9-24.3,26.3-24,29.7c4.1-3.5,19.7-5.7,20.7-5.7c1.1,0,7.6-0.8,0.9,4.2
	c-10.5,7.7-14.7,17.6-17.2,28.1c3.7-6.1,22.5-14.7,28.5-14.5c-3.4,3.3-10.6,17.8-12.5,27.6c1.7-3.7,13.8-17.1,23.7-19
	c-3.2,2.2-8.1,13.4-8.9,23.1c4.9-8.6,11.9-15.5,15.4-18.2c13.1-11.8,79.6-7.2,81.7-7.5c0.3,0,1.1-0.1,2.2-0.1
	c-25.1-3.8-50.4-18.3-54.3-20c-5-2.2-9.7-2.3-12.9,1c-3.2,3.3-1.7,10-0.1,14.2c0,0-19.9-39.2,0.2-29.1c15.2,7.6,47.1,30.2,85.3,34
	c3.3,0,6.5,0,9.8,0c19.3-0.2,48.6-15.5,52.6-18.4c0.7-0.4,2-1.8,0.5-3.2C244.5,195.3,240.1,190.7,238.3,184.6"/>
<path class="st3" d="M89.7,73.5c-25.2,44.2-17,88.8-15.7,95c-3.2,0.5-6.2,1.5-9.1,2.9c-0.3-1.9-0.4-4-0.5-6.1
	c-0.9-17.9,2.5-40.7,4.7-50.4c0-0.1,0-0.1,0-0.1C74.4,100.2,81.3,86.4,89.7,73.5"/>
<path class="st1" d="M249.5,188.1c-1.4-0.8-8.2-7-3.6-16.5c4.6-9.5,15.3-10.3,16.5-8.9c-6.6,4.5-8.1,6.8-10.1,10.4
	C250.3,176.7,249.3,180.8,249.5,188.1"/>
<path class="st4" d="M158.9,130.1c-11.9-6-33.7-14.8-46.2-7.3c-0.4,0.2-0.8,0.4-0.3-0.2c2.1-2.6,13.8-14.7,19.1-16.9
	c4.8-1.9,21.4,14.1,30.1,23.1C160.8,129.2,159.9,129.6,158.9,130.1 M155.3,159.6c-1.8-0.2-43.1-5.8-46.8-6.9
	c-3.6-1.1-3.6-3.5-3.9-6.8c-0.1-9,3.5-19.9,15-22.4c19.4-4.3,34.2,23.6,37.3,28.2C160.5,157,158,159.6,155.3,159.6 M199.7,118.6
	c-1.4,2-2.8,4-4.1,6.1c-1.1,0.1-2,0.2-3,0.3c0.6-2.7,1.4-5.9,2.3-9.3c-9.1-4.8-29.7-15.6-37.6-18.7c-9-3.1-20-4.9-31.1-1.2
	c-9.7,3.3-13.9,7.9-19.9,13.8c-5,5-15.8,15.5-15.8,15.5c-10.2-3.5-2.8-41.8-0.7-51.7c-25.2,44.2-17,88.8-15.7,95
	c9.7-1.7,21.7-0.3,34.2,2.1c16.8,3.3,30.5-1.5,30.5-1.5l55.8-17.8c8.2-1.5,14.7,0.6,15.5,0.8h0.1c0,0-7.2-27.3-8.6-32.4
	C200.8,119.4,200.2,119,199.7,118.6"/>
<path class="st3" d="M164.8,127.3c0.4-0.2,0.9-0.4,1.3-0.5c-6.8-6.1-18.4-15.5-34.2-24.6c-0.4-0.2-0.9-0.3-1.3-0.1
	c-6.9,2.2-12.7,5.7-16.8,8.8c-0.2,0.1,0.1,0.4,0.4,0.4C135.8,110.4,154.6,120.4,164.8,127.3"/>
</svg>
