<svg xmlns="http://www.w3.org/2000/svg" xmlns:xlink="http://www.w3.org/1999/xlink" width="190" height="48" viewBox="0 0 190 48">
    <defs>
        <path id="a" d="M.384.076h50.701V46.83H.384z"/>
        <path id="c" d="M0 46.924h188.836V.171H0z"/>
    </defs>
    <g fill="none" fill-rule="evenodd">
        <g transform="translate(137.75 .095)">
            <mask id="b" fill="#fff">
                <use xlink:href="#a"/>
            </mask>
            <path fill="#002A32" d="M1.77 36.276L1.63 39.93l2.45-1.086-.093 3.541 2.256-1.388.029 5.832s5.872-6.116 8.508-6.378c7.098-.71 16.327 3.238 21.654 2.74 2.137-.2 4.05-.64 5.605-1.11 1.555-.469 4.115-2.745 4.126-2.745 2.983-.28 5.18-2.897 4.897-5.837-.25-2.616-3.554-4.39-3.93-4.584l-.01-.004-.01-.006c-.286-.14-.572-.276-.877-.421-1.07-.51-2.4-1.148-4.353-2.168a3.393 3.393 0 0 1-.82-.578c.68.046 1.552.064 2.491-.024 4.806-.449 7.337-3.197 7.128-7.739-.01-.219-.017-.42-.022-.61v-.025l-.003-.025c-.232-2.69-1.526-5.525-2.593-6.61-2.67-2.717-6.001-2.632-7.678-2.506-.278-.383-.78-1.164-1.589-2.707a38.1 38.1 0 0 0-.273-.517c-1.277-2.339-2.756-3.114-3.773-3.354-1.679-.395-10.846-1.7-12.681-1.53a3.42 3.42 0 0 0-.545.095c-1.58.424-6.407 3.289-9.178 5.637-1.935 1.64-3.985 7.961-4.164 11.663-.055 1.178-.277 3.086-1.554 6.053l-.024.06c-.071.056-.288.204-.88.477-2.358 1.088-3.958 2.828-4.756 5.171-.766 2.255-.698 4.814-.253 7.248l1.056-.219z" mask="url(#b)"/>
        </g>
        <path fill="#00BBE0" d="M177.034 11.9c-.99.034-.943-.086-1.51-.495-.566-.409-3.232-5.005-3.483-5.212-.197-.211-.286-.505-.936-.605-.652-.1-9.032-1.38-10.265-1.464-1.042-.07-2.002.5-2.504.825-.267.173-4.498 2.897-5.152 3.524-2.84 2.731-3.34 7.956-3.28 8.251 2.221-4.9 8.947-10.988 9.235-10.236.077.199.231.797.418 1.575.357 1.484.894 4.403 1.173 5.834 2.182-.58 8.058-1.962 12.688-1.428-3.122.28-3.565.268-8.901 1.723.818.155 1.293.326 1.603.363.309.036.742.098 1.22.074 2.487-.12 9.97-2.636 12.632-2.6.786.009 1.652.125 2.477.45l.02-.049c-1.385-1.024-4.443-.566-5.435-.53"/>
        <path fill="#FFF" d="M155.271 17.063c-.041.673.409.489.57.332.166-.156 1.372-1.011 3.696-2.181.443-.253.197-.688.163-.933-.101-.698-1.07-5.518-1.07-5.518a.899.899 0 0 0-.02-.12c-.082-.35-.361-.565-.598-.35-.096.085-.402.703-.785 1.657-.675 1.7-1.589 4.453-1.956 7.113M165.098 26.574a1.644 1.644 0 0 0-.102-.29 9.795 9.795 0 0 1-.161-.4c-.505-1.28-2.043-5.175-4.613-5.07-.05.001-.097.005-.143.008-1.809.17-2.286 2.103-2.392 2.727l-.007.063c-.016.162-.04.38-.017.441.001 0 .026.026.104.066.12.06.54.21 1.117.41.277-1.036.983-1.93 1.84-2.01 1.225-.115 2.35 1.164 2.512 2.856.014.137.042.396.055.617"/>
        <path fill="#FFF" d="M159.385 24.3a.63.63 0 0 0 .69.563.627.627 0 0 0 .572-.68.633.633 0 0 0-.691-.563.627.627 0 0 0-.571.68"/>
        <path fill="#FFF" d="M179.707 34.761c-.152-1.579.702-3.014 2.042-3.703-.618-.245-5.382-2.668-6.113-3.08 0 0-.334-.82-2.288-1.535-1.723-.63-3.861 1.076-7.731 1.493-21.335 2.297-9.904-16.342-9.205-18.06a36.44 36.44 0 0 0-5.05 6.799c0 .007 0 .007-.007.015-2.366 4.147-3.226 7.71-3.8 9.934-4.32 1.255-5.253 3.979-5.293 4.59.861-.502 3.742-.393 3.932-.368.198.034 1.401.107.033.798-2.146 1.052-3.228 2.702-4.007 4.522.86-.976 4.54-1.934 5.615-1.702-.72.49-2.497 2.87-3.143 4.582.421-.608 3.043-2.647 4.904-2.68-.641.298-1.896 2.163-2.354 3.893 1.158-1.395 2.652-2.424 3.367-2.803 2.743-1.722 14.638 1.261 15.024 1.278.057.002.199.022.4.056-4.417-1.488-8.519-4.929-9.173-5.363-.83-.552-1.677-.733-2.366-.241-.688.49-.625 1.749-.48 2.567 0 0-2.342-7.731.972-5.258 2.51 1.872 7.54 6.978 14.325 8.904a88.22 88.22 0 0 0 1.766.315c3.489.585 9.288-1.232 10.115-1.634.145-.051.424-.269.192-.565-.915-.612-1.565-1.586-1.677-2.754"/>
        <path fill="#FEE1CC" d="M156.412 9.877c-5.983 7.174-5.941 15.504-5.903 16.678a5.479 5.479 0 0 0-1.736.236c.017-.358.057-.738.109-1.128.414-3.269 1.756-7.283 2.473-8.973.008-.008.008-.008.006-.015a36.44 36.44 0 0 1 5.05-6.798"/>
        <path fill="#FFF" d="M181.617 35.757c-.236-.192-1.26-1.528-.122-3.106 1.137-1.579 3.098-1.373 3.276-1.07-1.34.595-1.685.961-2.17 1.555-.487.595-.787 1.291-.984 2.621"/>
        <path fill="#FA6900" d="M167.1 22.346c-1.953-1.46-5.612-3.77-8.12-2.809-.077.03-.164.04-.053-.054.471-.403 2.964-2.215 4-2.437.928-.198 3.41 3.244 4.707 5.15-.174.051-.345.1-.535.15m-1.608 5.216c-.318-.089-7.614-2.444-8.246-2.763-.624-.32-.545-.749-.485-1.362.272-1.632 1.267-3.48 3.43-3.572 3.652-.149 5.422 5.375 5.834 6.308.49 1.101-.043 1.484-.533 1.39m9.35-5.97a26.57 26.57 0 0 0-.94.974c-.196-.012-.373-.03-.55-.047.201-.472.447-1.03.719-1.61-1.49-1.155-4.86-3.785-6.205-4.6-1.526-.857-3.469-1.527-5.579-1.212-1.86.278-2.768.984-4.052 1.861-1.07.736-3.357 2.291-3.357 2.291-1.723-.965.835-7.656 1.535-9.374-5.983 7.174-5.941 15.504-5.903 16.678 1.802-.004 3.937.64 6.115 1.481 2.927 1.142 5.561.711 5.561.711l10.66-1.426c1.532-.01 2.649.575 2.776.652.007.006.014.006.014.006s-.416-5.176-.52-6.137a5.705 5.705 0 0 1-.275-.248"/>
        <path fill="#FEE1CC" d="M168.262 22.03a9.93 9.93 0 0 1 .25-.053c-1.032-1.32-2.831-3.394-5.392-5.55a.313.313 0 0 0-.238-.067c-1.31.169-2.477.627-3.32 1.055-.04.02 0 .076.058.083 3.923.545 7.006 2.96 8.642 4.532"/>
        <path fill="#002A32" d="M3.79 9.329h17.683V16.8l1.264-7.471H36.63l1.264 7.471V9.33h13.895l.631 3.735.63-3.735h49.26V16.8l1.265-7.471h21.471l1.265 3.735 1.262-3.735h11.368v12.453h-3.788l-2.527 5.603v3.113h1.262v9.962h-22.735l-.632-3.736-.63 3.736H30.313l-.63-3.736-.633 3.736H3.79L0 36.724v-23.66z"/>
        <path fill="#FFF" d="M135.152 13.065v3.734h-1.264l-5.054 10.586v5.605h1.265v3.734h-7.579V32.99h1.264v-5.605L118.73 16.8h-1.265v-3.734h5.054l3.79 8.093 3.79-8.093z"/>
        <mask id="d" fill="#fff">
            <use xlink:href="#c"/>
        </mask>
        <path fill="#FFF" d="M89.68 32.989h5.053v-16.19H89.68v16.19zm10.104-17.435v18.68l-2.527 2.49H83.365v-3.735h1.262v-16.19h-1.262v-3.734h13.892l2.527 2.49zM82.101 29.253v7.471H65.679V32.99h1.266v-16.19h-1.266v-3.734h16.422v7.47h-5.054V16.8h-5.05v6.227h5.05v3.736h-5.05v6.226h5.05v-3.736zM18.946 24.272v9.962l-2.525 2.49H6.316l-2.526-2.49v-18.68l2.526-2.49H16.42l2.525 2.49v4.982h-5.052V16.8H8.842v16.19h5.052v-4.982h-2.527v-3.735zM40.42 36.724h7.577v-3.735h-1.262V16.8l3.788 19.924h3.79l3.79-19.924v16.19h-1.264v3.734h7.579v-3.735h-1.263V16.8h1.263v-3.736h-9.473L52.419 26.14l-2.527-13.075H40.42V16.8h1.262v16.19H40.42M28.04 25.516l1.643-8.717 1.643 8.717H28.04zm3.538 11.208h7.56l.017-3.735h-1.262l-3.79-19.924h-8.841l-3.79 19.924H20.21v3.735h7.579v-3.735h-1.263l.879-3.737h4.64l.796 3.737h-1.262v3.735zM108.878 25.516l1.642-8.717 1.644 8.717h-3.286zm3.539 11.208h7.576v-3.735h-1.261l-3.79-19.924h-8.844l-3.723 19.9-1.326.024v3.735h7.578v-3.735h-1.264l.878-3.737h4.642l.795 3.737h-1.261v3.735z" mask="url(#d)"/>
    </g>
</svg>
