<?xml version="1.0" encoding="utf-8"?>
<!-- Generator: Adobe Illustrator 25.2.1, SVG Export Plug-In . SVG Version: 6.00 Build 0)  -->
<svg version="1.1" id="Lager_1" xmlns="http://www.w3.org/2000/svg" xmlns:xlink="http://www.w3.org/1999/xlink" x="0px" y="0px"
	 viewBox="0 0 173.1 150.5" style="enable-background:new 0 0 173.1 150.5;" xml:space="preserve">
<style type="text/css">
	.st0{clip-path:url(#SVGID_2_);fill:url(#SVGID_3_);}
	.st1{clip-path:url(#SVGID_5_);fill:url(#SVGID_6_);}
	.st2{fill:#020203;}
	.st3{clip-path:url(#SVGID_8_);fill:url(#SVGID_9_);}
	.st4{clip-path:url(#SVGID_11_);fill:url(#SVGID_12_);}
</style>
<g>
	<g>
		<defs>
			<path id="SVGID_1_" d="M83,60.6c19.9-1.3,29.7,6.3,37.7,14c8,7.7,16.3,21.8,31.6,28.6c0.9-27.5,11.3-44.1,17.1-52.6
				c-17.5-3.9-23.5-18.8-26.3-23.8c-2.8-5-8-19.5-28.4-21.5C107.6,21.1,91.7,49.7,83,60.6"/>
		</defs>
		<clipPath id="SVGID_2_">
			<use xlink:href="#SVGID_1_"  style="overflow:visible;"/>
		</clipPath>
		
			<linearGradient id="SVGID_3_" gradientUnits="userSpaceOnUse" x1="-861.1331" y1="1476.4824" x2="-860.3976" y2="1476.4824" gradientTransform="matrix(-81.7613 -34.4954 34.4954 -81.7613 -121182.1875 91081.3281)">
			<stop  offset="0" style="stop-color:#FFFFFF"/>
			<stop  offset="0.1121" style="stop-color:#FAFAFA"/>
			<stop  offset="0.2438" style="stop-color:#ECECEC"/>
			<stop  offset="0.3847" style="stop-color:#D4D4D4"/>
			<stop  offset="0.3866" style="stop-color:#D4D4D4"/>
			<stop  offset="0.561" style="stop-color:#EEEEEE"/>
			<stop  offset="0.7042" style="stop-color:#FFFFFF"/>
			<stop  offset="0.7764" style="stop-color:#FCFCFC"/>
			<stop  offset="0.8365" style="stop-color:#F1F1F1"/>
			<stop  offset="0.8923" style="stop-color:#E0E0E0"/>
			<stop  offset="0.9455" style="stop-color:#C8C8C8"/>
			<stop  offset="0.9964" style="stop-color:#A9A9A9"/>
			<stop  offset="1" style="stop-color:#A6A6A6"/>
		</linearGradient>
		<polygon class="st0" points="204.4,20.2 96,-25.5 47.9,88.5 156.3,134.2 		"/>
	</g>
	<g>
		<defs>
			<path id="SVGID_4_" d="M114.6,3.2L48,118.8c-0.4,0.6-0.1,1.4,0.5,1.8c0.2,0.1,0.4,0.2,0.6,0.2c0.4,0,0.9-0.2,1.1-0.6L116.8,4.5
				c0.4-0.6,0.1-1.4-0.5-1.8c-0.2-0.1-0.4-0.2-0.6-0.2C115.3,2.6,114.8,2.8,114.6,3.2"/>
		</defs>
		<clipPath id="SVGID_5_">
			<use xlink:href="#SVGID_4_"  style="overflow:visible;"/>
		</clipPath>
		
			<linearGradient id="SVGID_6_" gradientUnits="userSpaceOnUse" x1="-725.9929" y1="1293.892" x2="-725.2573" y2="1293.892" gradientTransform="matrix(-2.5321 -1.5413 1.5413 -2.5321 -3747.9656 2220.26)">
			<stop  offset="0" style="stop-color:#747474"/>
			<stop  offset="1" style="stop-color:#000000"/>
		</linearGradient>
		<polygon class="st1" points="169.7,34.5 66.5,-28.3 -4.8,88.8 98.4,151.6 		"/>
	</g>
	<path class="st2" d="M142.5,46.4c0.9-2.4,1.8-4.8,2.6-7.1c1.7,2.5,3.4,4.6,5.2,6.4c-0.9,2.3-1.8,4.5-2.6,6.7
		C146,50.7,144.3,48.7,142.5,46.4"/>
	<path class="st2" d="M132.5,34.4c1-2.7,2.1-5.6,3.2-8.4c1.7,1.8,3.4,4,5,6.4c-1,2.6-2,5.3-2.9,7.9
		C136.1,38.1,134.3,36.1,132.5,34.4"/>
	<path class="st2" d="M144.7,60.4c0.9-2.3,1.9-5.1,3-7.9c2.2,2.3,4.3,4.2,6.5,5.8c-0.8,1.9-1.6,3.8-2.3,5.8
		c-0.3,0.7-0.5,1.4-0.8,2.2C148.9,64.6,146.8,62.7,144.7,60.4"/>
	<path class="st2" d="M131.5,58c1.6,1.9,3.2,3.7,4.7,5.4c-1.4,3.5-2.8,6.6-4.2,9.5c-1.5-1.7-3.1-3.4-4.7-5.4
		c-0.3-0.3-0.5-0.6-0.8-0.9c1.6-2.6,3.2-5.6,4.7-8.9C131.3,57.7,131.4,57.8,131.5,58"/>
	<path class="st2" d="M125,51.6c-1.9,3.7-3.5,6.6-5,8.9c-2.5-1.9-5.1-3.5-7.7-4.7c1.5-2.4,3.3-5.3,5.2-8.9
		C120.1,48.2,122.6,49.7,125,51.6"/>
	<path class="st2" d="M148,75c-1.1,3.3-2.2,6.8-3.2,10.3c-2.1-1.7-4.4-3.8-6.9-6.3c1.2-3.2,2.4-6.7,3.6-10.1
		C143.8,71.3,146,73.3,148,75"/>
	<path class="st2" d="M135.2,48.8c-0.1-0.1-0.2-0.3-0.3-0.4c0.9-2.4,1.9-5.2,2.9-8c0,0,0,0.1,0.1,0.1c1.7,2.2,3.2,4.2,4.6,6
		c-1,2.8-2,5.5-2.9,8C138.2,52.7,136.7,50.8,135.2,48.8"/>
	<path class="st2" d="M117,25.2c1.3-2.7,2.8-5.8,4.2-8.8c2.8,0.9,5.6,2.3,8.5,4.3c-1.2,2.9-2.5,5.8-3.7,8.5
		C122.9,27.4,119.9,26.1,117,25.2"/>
	<path class="st2" d="M122.2,37.7c0.9-1.9,2.3-4.9,3.8-8.4c2.2,1.4,4.3,3,6.5,5.1c-1.2,3.2-2.3,6.1-3.2,8.2
		C127,40.6,124.6,39,122.2,37.7"/>
	<path class="st2" d="M139.5,54.4c1.8,2.3,3.5,4.3,5.1,6c-0.3,0.9-0.7,1.8-1,2.6c-0.7,1.9-1.5,4-2.2,6c-1.7-1.7-3.4-3.6-5.3-5.6
		c0.3-0.7,0.6-1.5,0.9-2.3C137.8,59.2,138.6,56.9,139.5,54.4"/>
	<path class="st2" d="M121.6,39c-1.5,3-2.8,5.6-4,7.9c-3.4-1.8-6.8-3-10-3.9c2.1-3.7,4-7,5.1-9.1c3.1,0.9,6.3,2.1,9.5,3.8
		C122,38.3,121.8,38.7,121.6,39"/>
	<path class="st2" d="M129.3,42.6c1.9,1.7,3.8,3.6,5.5,5.8c-0.6,1.7-1.2,3.3-1.8,4.7c-0.6,1.6-1.2,3.1-1.9,4.6c-2-2.3-4.1-4.3-6.2-6
		c0.9-1.8,1.9-3.8,3-6C128.3,45,128.7,43.9,129.3,42.6"/>
	<path class="st2" d="M153.4,91.1c-0.6,3.8-0.9,7.8-1.1,12.1c-4-1.8-7.6-4.1-10.7-6.6c1-3.7,2-7.5,3.2-11.3
		C148,88,150.9,89.8,153.4,91.1"/>
	<path class="st2" d="M151,66.2c2.4,1.8,4.8,3.2,7.7,4.4c-1.2,3-2.3,6.3-3.2,9.9c-2.3-1.3-4.7-3.1-7.5-5.5C149,72,150,69,151,66.2"
		/>
	<path class="st2" d="M102.1,52.1c-4.9-1.2-9.2-1.6-12.1-1.6c1.8-2.9,3.8-6.1,5.7-9.4c3,0.2,7.2,0.6,11.8,1.9
		C105.9,46,104,49.1,102.1,52.1"/>
	<path class="st2" d="M126.4,66.5c-2,3.2-4,5.9-5.9,8c-2.1-2-4.2-3.9-6.7-5.7c1.9-2.1,3.8-4.4,6.2-8.3
		C122.2,62.2,124.4,64.2,126.4,66.5"/>
	<path class="st2" d="M112.4,55.8c-2.5,3.9-4.6,6.3-6.5,8.3c-2.9-1.3-6.1-2.3-9.8-2.9c1.7-2.1,3.9-5.4,6.1-9.1
		C105.4,52.9,108.8,54.1,112.4,55.8"/>
	<path class="st2" d="M157.2,51.6c2.7,1.8,5.6,3.3,8.7,4.5c-1.2,1.9-2.4,4.1-3.6,6.5c-3-1.2-5.7-2.6-8.1-4.4
		C155.1,55.9,156.2,53.7,157.2,51.6"/>
	<path class="st2" d="M137.9,79c-1.4,3.8-2.9,7.3-4.4,10c-2.4-2.6-4.6-5.2-6.7-7.6c1.7-2.4,3.4-5.2,5.1-8.6
		C134,75.1,136,77.2,137.9,79"/>
	<path class="st2" d="M110.4,14.5c1.7-3.3,3.1-6.4,4.4-9.1c4,0.4,7.4,1.3,10.3,2.5c-1,2.4-2.4,5.5-3.8,8.6
		C117.2,15.1,113.4,14.6,110.4,14.5"/>
	<path class="st2" d="M113.5,32.3c-0.2,0.4-0.5,0.9-0.8,1.6c-4.4-1.2-8.5-1.7-11.7-1.9c1.6-2.8,3.1-5.7,4.6-8.5
		c3.2,0.1,7.1,0.5,11.3,1.7C115.5,28.4,114.2,31,113.5,32.3"/>
	<path class="st2" d="M150.3,45.7c0.6-1.7,1.3-3.3,1.9-4.9c2,2.2,4.5,4.2,7.4,5.9c-0.8,1.5-1.6,3.2-2.4,4.8
		C154.8,50,152.5,48.1,150.3,45.7"/>
	<path class="st2" d="M141.7,34c-0.3-0.5-0.7-1.1-1-1.6c0.8-2.1,1.5-4.1,2.2-5.9c0.1,0.1,0.1,0.3,0.2,0.4c0.9,1.6,2.1,4.2,4,7.2
		c-0.6,1.6-1.3,3.4-2,5.2C144,37.7,142.8,35.9,141.7,34"/>
	<path class="st2" d="M129.7,20.8c1.2-2.9,2.4-5.7,3.4-8c2.3,1.9,4,4,5.4,6.1c-0.9,2.2-1.8,4.7-2.8,7.2
		C133.8,23.9,131.7,22.2,129.7,20.8"/>
	<g>
		<defs>
			<path id="SVGID_7_" d="M29.6,52.6c-2.8,5-8.7,19.9-26.3,23.8c5.8,8.5,16.2,25,17.1,52.6C35.7,122.1,44,108,52,100.3
				c8-7.7,17.8-15.2,37.7-14C81,75.4,65.1,46.8,58,31.1C37.6,33.1,32.4,47.6,29.6,52.6"/>
		</defs>
		<clipPath id="SVGID_8_">
			<use xlink:href="#SVGID_7_"  style="overflow:visible;"/>
		</clipPath>
		
			<linearGradient id="SVGID_9_" gradientUnits="userSpaceOnUse" x1="-874.5407" y1="1482.2521" x2="-873.8053" y2="1482.2521" gradientTransform="matrix(81.7613 -34.4954 -34.4954 -81.7613 122650.125 91116.2578)">
			<stop  offset="0" style="stop-color:#FFFFFF"/>
			<stop  offset="0.1121" style="stop-color:#FAFAFA"/>
			<stop  offset="0.2438" style="stop-color:#ECECEC"/>
			<stop  offset="0.3847" style="stop-color:#D4D4D4"/>
			<stop  offset="0.3866" style="stop-color:#D4D4D4"/>
			<stop  offset="0.561" style="stop-color:#EEEEEE"/>
			<stop  offset="0.7042" style="stop-color:#FFFFFF"/>
			<stop  offset="0.7764" style="stop-color:#FCFCFC"/>
			<stop  offset="0.8365" style="stop-color:#F1F1F1"/>
			<stop  offset="0.8923" style="stop-color:#E0E0E0"/>
			<stop  offset="0.9455" style="stop-color:#C8C8C8"/>
			<stop  offset="0.9964" style="stop-color:#A9A9A9"/>
			<stop  offset="1" style="stop-color:#A6A6A6"/>
		</linearGradient>
		<polygon class="st3" points="-31.8,45.9 76.6,0.2 124.7,114.2 16.3,159.9 		"/>
	</g>
	<g>
		<defs>
			<path id="SVGID_10_" d="M56.3,28.4c-0.6,0.4-0.8,1.1-0.5,1.8l66.6,115.6c0.2,0.4,0.7,0.6,1.1,0.6c0.2,0,0.4-0.1,0.6-0.2
				c0.6-0.4,0.8-1.1,0.5-1.8L58.1,28.9c-0.2-0.4-0.7-0.6-1.1-0.6C56.7,28.3,56.5,28.3,56.3,28.4"/>
		</defs>
		<clipPath id="SVGID_11_">
			<use xlink:href="#SVGID_10_"  style="overflow:visible;"/>
		</clipPath>
		
			<linearGradient id="SVGID_12_" gradientUnits="userSpaceOnUse" x1="-1097.6201" y1="1523.7518" x2="-1096.8845" y2="1523.7518" gradientTransform="matrix(2.5321 -1.5413 -1.5413 -2.5321 5215.9287 2255.1897)">
			<stop  offset="0" style="stop-color:#747474"/>
			<stop  offset="1" style="stop-color:#000000"/>
		</linearGradient>
		<polygon class="st4" points="3,60.2 106.2,-2.6 177.5,114.5 74.3,177.3 		"/>
	</g>
	<path class="st2" d="M30.2,72.1c-0.9-2.4-1.8-4.8-2.6-7.1c-1.7,2.5-3.4,4.6-5.2,6.4c0.9,2.3,1.8,4.5,2.6,6.7
		C26.6,76.4,28.4,74.4,30.2,72.1"/>
	<path class="st2" d="M40.2,60.1c-1-2.7-2.1-5.6-3.2-8.4c-1.7,1.8-3.4,4-5,6.4c1,2.6,1.9,5.3,2.9,7.9C36.6,63.8,38.4,61.8,40.2,60.1
		"/>
	<path class="st2" d="M28,86.1c-0.9-2.4-1.9-5.1-3-7.9c-2.2,2.3-4.3,4.2-6.5,5.8c0.8,1.9,1.6,3.8,2.3,5.8c0.3,0.7,0.5,1.4,0.8,2.2
		C23.8,90.3,25.9,88.4,28,86.1"/>
	<path class="st2" d="M41.2,83.6c-1.6,1.9-3.2,3.7-4.7,5.4c1.4,3.5,2.8,6.6,4.2,9.5c1.5-1.7,3.1-3.4,4.7-5.4
		c0.3-0.3,0.5-0.6,0.8-0.9c-1.6-2.6-3.2-5.6-4.7-8.9C41.4,83.4,41.3,83.5,41.2,83.6"/>
	<path class="st2" d="M47.7,77.3c1.9,3.7,3.5,6.6,5,8.9c2.5-1.9,5.1-3.5,7.7-4.7c-1.5-2.4-3.3-5.3-5.2-8.9
		C52.6,73.8,50.1,75.4,47.7,77.3"/>
	<path class="st2" d="M24.7,100.7c1.1,3.3,2.2,6.8,3.2,10.3c2.1-1.7,4.4-3.8,6.9-6.3c-1.2-3.2-2.4-6.7-3.6-10.1
		C28.9,97,26.7,99,24.7,100.7"/>
	<path class="st2" d="M37.5,74.5c0.1-0.1,0.2-0.3,0.3-0.4c-0.9-2.4-1.9-5.2-2.9-8c0,0,0,0.1-0.1,0.1c-1.7,2.2-3.2,4.2-4.6,6
		c1,2.8,2,5.5,2.9,8C34.5,78.4,35.9,76.5,37.5,74.5"/>
	<path class="st2" d="M55.7,50.9c-1.3-2.7-2.8-5.8-4.2-8.8c-2.7,0.9-5.6,2.3-8.5,4.3c1.2,2.9,2.5,5.8,3.7,8.5
		C49.7,53.1,52.8,51.8,55.7,50.9"/>
	<path class="st2" d="M50.5,63.4c-0.9-1.9-2.3-4.9-3.8-8.4c-2.2,1.4-4.3,3-6.5,5.1c1.2,3.2,2.3,6.1,3.2,8.2
		C45.7,66.3,48,64.7,50.5,63.4"/>
	<path class="st2" d="M33.1,80.1c-1.8,2.3-3.5,4.3-5.1,6c0.3,0.9,0.7,1.8,1,2.6c0.7,1.9,1.5,4,2.2,6c1.7-1.7,3.4-3.6,5.3-5.6
		c-0.3-0.8-0.6-1.5-0.9-2.3C34.9,84.9,34.1,82.6,33.1,80.1"/>
	<path class="st2" d="M51,64.7c1.5,3,2.8,5.6,4,7.9c3.4-1.8,6.8-3,10-3.9c-2.1-3.7-4-7-5.1-9.1c-3.1,0.9-6.3,2.1-9.5,3.8
		C50.7,63.9,50.9,64.4,51,64.7"/>
	<path class="st2" d="M43.4,68.3c-1.9,1.7-3.8,3.6-5.5,5.8c0.6,1.7,1.2,3.3,1.8,4.7c0.6,1.6,1.2,3.1,1.9,4.6c2-2.3,4.1-4.3,6.2-6
		c-0.9-1.8-1.9-3.8-3-6C44.4,70.7,43.9,69.6,43.4,68.3"/>
	<path class="st2" d="M19.3,116.8c0.6,3.8,0.9,7.8,1.1,12.1c4-1.8,7.6-4.1,10.7-6.6c-1-3.7-2-7.5-3.2-11.3
		C24.7,113.7,21.8,115.5,19.3,116.8"/>
	<path class="st2" d="M21.6,91.9c-2.4,1.8-4.8,3.2-7.7,4.4c1.2,3,2.3,6.3,3.2,9.9c2.3-1.3,4.7-3.1,7.5-5.5
		C23.7,97.6,22.6,94.7,21.6,91.9"/>
	<path class="st2" d="M70.5,77.8c4.9-1.2,9.2-1.6,12.1-1.6c-1.8-2.9-3.8-6.1-5.7-9.4c-3,0.2-7.2,0.6-11.8,1.9
		C66.8,71.6,68.7,74.8,70.5,77.8"/>
	<path class="st2" d="M46.2,92.2c2,3.2,4,5.9,5.9,8c2.1-2,4.2-3.9,6.7-5.7c-1.9-2.1-3.8-4.4-6.2-8.3C50.5,87.9,48.3,89.9,46.2,92.2"
		/>
	<path class="st2" d="M60.3,81.5c2.5,3.9,4.6,6.3,6.5,8.3c2.9-1.3,6.1-2.3,9.8-2.9c-1.7-2.1-3.9-5.4-6.1-9.1
		C67.3,78.6,63.8,79.8,60.3,81.5"/>
	<path class="st2" d="M15.5,77.3c-2.7,1.8-5.6,3.3-8.7,4.5c1.2,1.9,2.4,4.1,3.6,6.5c3-1.2,5.7-2.6,8.1-4.4
		C17.5,81.6,16.5,79.4,15.5,77.3"/>
	<path class="st2" d="M34.8,104.7c1.4,3.8,2.9,7.3,4.4,10c2.4-2.6,4.6-5.2,6.7-7.6c-1.7-2.4-3.4-5.2-5.1-8.6
		C38.7,100.8,36.7,102.8,34.8,104.7"/>
	<path class="st2" d="M62.3,40.2c-1.7-3.3-3.1-6.4-4.4-9.1c-4,0.4-7.4,1.3-10.3,2.5c1,2.4,2.4,5.5,3.8,8.6
		C55.5,40.8,59.3,40.3,62.3,40.2"/>
	<path class="st2" d="M59.1,58c0.2,0.4,0.5,0.9,0.8,1.6c4.4-1.2,8.5-1.7,11.7-1.9c-1.6-2.8-3.1-5.7-4.6-8.5
		c-3.2,0.1-7.1,0.5-11.3,1.7C57.2,54.1,58.5,56.7,59.1,58"/>
	<path class="st2" d="M22.4,71.4c-0.6-1.7-1.3-3.3-1.9-4.9c-2,2.2-4.5,4.2-7.4,5.9c0.8,1.5,1.6,3.2,2.4,4.8
		C17.9,75.7,20.2,73.8,22.4,71.4"/>
	<path class="st2" d="M31,59.7c0.3-0.5,0.7-1.1,1-1.6c-0.8-2.1-1.5-4.1-2.2-5.9c-0.1,0.1-0.1,0.3-0.2,0.4c-0.9,1.6-2.1,4.2-4,7.2
		c0.6,1.6,1.3,3.4,2,5.2C28.7,63.4,29.8,61.6,31,59.7"/>
	<path class="st2" d="M43,46.5c-1.2-2.9-2.4-5.7-3.4-8c-2.3,1.9-4,4-5.4,6.1c0.9,2.2,1.8,4.7,2.8,7.2C38.9,49.6,40.9,47.9,43,46.5"
		/>
</g>
</svg>
