<?xml version="1.0" encoding="utf-8"?>
<!-- Generator: Adobe Illustrator 25.2.1, SVG Export Plug-In . SVG Version: 6.00 Build 0)  -->
<svg version="1.1" id="Lager_1" xmlns="http://www.w3.org/2000/svg" xmlns:xlink="http://www.w3.org/1999/xlink" x="0px" y="0px"
	 viewBox="0 0 575 302" style="enable-background:new 0 0 575 302;" xml:space="preserve">
<style type="text/css">
	.st0{fill:#F6E5C2;}
	.st1{fill:#E1001E;}
	.st2{clip-path:url(#SVGID_2_);fill:url(#SVGID_3_);}
	.st3{clip-path:url(#SVGID_5_);fill:url(#SVGID_6_);}
	.st4{fill:#070707;}
	.st5{clip-path:url(#SVGID_8_);fill:url(#SVGID_9_);}
	.st6{clip-path:url(#SVGID_11_);fill:url(#SVGID_12_);}
	.st7{fill:#FF8F00;}
</style>
<path d="M564.1,99c-3.1-2.7-6.9-3.9-11.6-3.9c-82.4,0-164.8,0-247.2,0c-84.3,0-168.5,0-252.8,0c0,0,0,0,0,0
	c-10.4,0-19.5,7.8-20.7,17.8c-0.5,4.4-1.2,8.8-1.8,13.1c-0.3,1.8-0.5,3.6-0.8,5.5l-1.6,10.9c-0.7,5-1.5,10.1-2.2,15.1
	c-0.6,4.1-1.2,8.3-1.8,12.4c-0.6,4.1-1.2,8.2-1.7,12.2c-0.6,4.1-1.2,8.2-1.8,12.3c-0.6,4.1-1.2,8.2-1.8,12.3
	c-0.6,3.9-1.1,7.9-1.7,11.8c-0.5,3.8-1.1,7.6-1.6,11.5c-0.6,3.9-1.1,7.7-1.7,11.6c-0.5,3.4-1,6.9-1.5,10.3l-0.9,6
	c-0.8,5.7-1.7,11.6-2.5,17.5c-0.8,5.8,1.2,10.9,5.8,14.8c3.1,2.6,6.9,3.9,11.7,3.9c56,0,112.1,0,168.1,0c13.7,0,27.4,0,41.1,0h290.2
	c6.9,0,12.5-2.7,16.8-7.9c2.2-2.7,3.5-5.4,3.9-8.3c0.5-3.3,1-6.7,1.5-9.9c0.2-1.5,0.4-3,0.6-4.5l1.2-8.4c0.9-5.9,1.7-11.8,2.5-17.6
	c0.6-4.1,1.2-8.2,1.8-12.4c0.6-4.1,1.2-8.2,1.8-12.3c0.6-4.3,1.2-8.5,1.8-12.8c0.6-4.4,1.3-8.9,1.9-13.3c0.6-4.1,1.2-8.2,1.8-12.4
	c0.6-4.1,1.2-8.2,1.8-12.3c0.6-4.2,1.2-8.4,1.8-12.6c0.5-3.6,1-7.1,1.5-10.7c0.3-2.2,0.6-4.4,0.9-6.5c0.9-6,1.8-12.3,2.6-18.5
	C570.6,108,568.7,102.9,564.1,99z"/>
<g>
	<path class="st0" d="M558.9,90.5c-3.1-2.7-6.9-3.9-11.6-3.9c-82.4,0-164.8,0-247.2,0c-84.3,0-168.5,0-252.8,0c0,0,0,0,0,0
		c-10.4,0-19.5,7.8-20.7,17.8c-0.5,4.4-1.2,8.8-1.8,13.1c-0.3,1.8-0.5,3.6-0.8,5.5l-1.6,10.9c-0.7,5-1.5,10.1-2.2,15.1
		c-0.6,4.1-1.2,8.3-1.8,12.4c-0.6,4.1-1.2,8.2-1.7,12.2c-0.6,4.1-1.2,8.2-1.8,12.3c-0.6,4.1-1.2,8.2-1.8,12.3
		c-0.6,3.9-1.1,7.9-1.7,11.8c-0.5,3.8-1.1,7.6-1.6,11.5c-0.6,3.9-1.1,7.7-1.7,11.6c-0.5,3.4-1,6.9-1.5,10.3l-0.9,6
		C4.9,255.2,4,261.2,3.3,267c-0.8,5.8,1.2,10.9,5.8,14.8c3.1,2.6,6.9,3.9,11.7,3.9c56,0,112.1,0,168.1,0c13.7,0,27.4,0,41.1,0h290.2
		c6.9,0,12.5-2.7,16.8-7.9c2.2-2.7,3.5-5.4,3.9-8.3c0.5-3.3,1-6.7,1.5-9.9c0.2-1.5,0.4-3,0.6-4.5l1.2-8.4c0.9-5.9,1.7-11.8,2.5-17.6
		c0.6-4.1,1.2-8.2,1.8-12.4c0.6-4.1,1.2-8.2,1.8-12.3c0.6-4.3,1.2-8.5,1.8-12.8c0.6-4.4,1.3-8.9,1.9-13.3c0.6-4.1,1.2-8.2,1.8-12.4
		c0.6-4.1,1.2-8.2,1.8-12.3c0.6-4.2,1.2-8.4,1.8-12.6c0.5-3.6,1-7.1,1.5-10.7c0.3-2.2,0.6-4.4,0.9-6.5c0.9-6,1.8-12.3,2.6-18.5
		C565.4,99.6,563.4,94.4,558.9,90.5z"/>
	<g>
		<path class="st1" d="M297.3,92.7c83.3,0,166.5,0,249.7,0c1.7,0,3.5,0.3,5.1,0.9c4.1,1.6,6.6,6.1,5.9,10.6c-1.6,11-3.2,22-4.7,33
			c-1.6,11-3.1,22.1-4.7,33.1c-1.4,10.1-2.9,20.2-4.4,30.3c-1.2,8.7-2.5,17.4-3.7,26.1c-1.3,9.2-2.6,18.3-4,27.5
			c-0.6,4.3-1.2,8.5-1.8,12.8c-1,6.5-6.9,11.6-13.5,11.8c-0.3,0-0.6,0-0.9,0c-166.5,0-332.9,0-499.4,0c-1.7,0-3.6-0.3-5.2-0.9
			c-4.1-1.6-6.5-6.1-5.9-10.6c1.7-11.7,3.3-23.4,5-35.1c1.7-12,3.5-23.9,5.2-35.9c1.5-10.6,3-21.1,4.5-31.7
			c1.2-8.7,2.5-17.4,3.8-26.1c1.2-8.7,2.5-17.3,3.7-26c0.5-3.2,0.8-6.4,1.5-9.5c1.5-6,7.2-10.2,13.4-10.3c0.4,0,0.8,0,1.2,0H297.3z"
			/>
		<path d="M520.8,281.1c-0.1,0-0.2,0-0.3,0l-0.2,0h-31.5c-155.9,0-311.9,0-467.9,0c-2.2,0-4.3-0.4-6.1-1.1c-5.1-2-8.2-7.5-7.4-13.3
			l2.1-14.5c1-6.9,2-13.8,3-20.6c0.8-5.9,1.7-11.7,2.5-17.6c0.9-6.1,1.8-12.2,2.6-18.3c0.8-5.4,1.5-10.8,2.3-16.1
			c0.7-5.2,1.5-10.4,2.2-15.5c0.7-4.6,1.3-9.1,2-13.7c0.6-4.1,1.2-8.3,1.8-12.4c0.5-3.7,1.1-7.4,1.6-11.1c0.7-4.9,1.4-9.9,2.1-14.8
			c0.1-0.7,0.2-1.5,0.3-2.2c0.3-2.4,0.7-5,1.3-7.5c1.8-7,8.4-12.1,15.7-12.1c0.3,0,0.6,0,0.9,0l0.4,0h274.4c74.8,0,149.7,0,224.5,0
			c2.1,0,4.2,0.4,6,1.1c5.2,2,8.3,7.5,7.5,13.2c-0.8,5.5-1.6,11-2.4,16.5c-0.8,5.5-1.6,11-2.4,16.4c-0.8,5.4-1.5,10.8-2.3,16.2
			c-0.8,5.6-1.6,11.3-2.4,16.9c-0.7,5.1-1.5,10.3-2.2,15.4c-0.7,5-1.4,9.9-2.1,14.9c-0.6,4.4-1.2,8.7-1.9,13.1
			c-0.6,4.3-1.2,8.7-1.9,13c-0.9,6.1-1.8,12.2-2.6,18.3l-1.3,9.1c-0.2,1.4-0.4,2.7-0.6,4.1c-0.4,2.9-0.8,5.8-1.3,8.7
			c-1.2,7.7-8,13.7-15.9,13.9C521.1,281.1,521,281.1,520.8,281.1z M488.8,276.2l31.8,0c0.2,0,0.4,0,0.6,0c5.4-0.1,10.3-4.4,11.1-9.7
			c0.4-2.9,0.9-5.8,1.3-8.6c0.2-1.4,0.4-2.7,0.6-4.1l1.3-9.1c0.9-6.1,1.8-12.2,2.6-18.3c0.6-4.3,1.2-8.7,1.9-13
			c0.6-4.4,1.2-8.7,1.9-13.1c0.7-5,1.4-9.9,2.1-14.9c0.7-5.1,1.5-10.3,2.2-15.4c0.8-5.6,1.6-11.3,2.4-16.9
			c0.8-5.4,1.5-10.8,2.3-16.2c0.8-5.5,1.6-11,2.4-16.4c0.8-5.5,1.6-11,2.4-16.5c0.5-3.4-1.4-6.8-4.4-7.9c-1.2-0.5-2.8-0.7-4.2-0.7
			c-74.8,0-149.7,0-224.5,0l-275.5,0c-5.2,0-9.8,3.6-11,8.4c-0.6,2.2-0.9,4.5-1.2,6.9c-0.1,0.8-0.2,1.5-0.3,2.3
			c-0.7,4.9-1.4,9.9-2.1,14.8c-0.5,3.7-1.1,7.4-1.6,11.2c-0.6,4.1-1.2,8.3-1.8,12.4c-0.7,4.5-1.3,9.1-2,13.6
			c-0.7,5.2-1.5,10.4-2.2,15.5c-0.8,5.4-1.5,10.8-2.3,16.1c-0.9,6.1-1.8,12.2-2.6,18.3c-0.8,5.9-1.7,11.7-2.5,17.6
			c-1,6.9-2,13.7-3,20.6l-2.1,14.5c-0.5,3.4,1.4,6.8,4.3,7.9c1.3,0.5,2.8,0.8,4.3,0.8C176.9,276.2,332.8,276.2,488.8,276.2z"/>
	</g>
	<path class="st0" d="M525.9,266c0,1.9-1.5,3.4-3.5,3.4c-1.9,0-3.5-1.5-3.5-3.4c0-1.9,1.6-3.4,3.5-3.4
		C524.4,262.6,525.9,264.1,525.9,266 M519.8,266c0,1.5,1.1,2.7,2.6,2.7c1.5,0,2.6-1.2,2.6-2.7c0-1.5-1.1-2.7-2.6-2.7
		C521,263.3,519.8,264.5,519.8,266 M521.9,267.8h-0.8v-3.4c0.3,0,0.7-0.1,1.3-0.1c0.6,0,0.9,0.1,1.2,0.3c0.2,0.1,0.4,0.4,0.4,0.7
		c0,0.4-0.3,0.7-0.7,0.8v0c0.3,0.1,0.5,0.4,0.6,0.8c0.1,0.5,0.2,0.7,0.2,0.8h-0.8c-0.1-0.1-0.2-0.4-0.3-0.8
		c-0.1-0.4-0.3-0.5-0.7-0.5h-0.4V267.8z M521.9,265.9h0.4c0.4,0,0.8-0.1,0.8-0.5c0-0.3-0.2-0.5-0.7-0.5c-0.2,0-0.4,0-0.4,0V265.9z"
		/>
	<path d="M53.6,101.6h484.2c0.2,0.1,0.4,0.2,0.6,0.2c5.1,0.8,8.7,4.9,8.4,10c-0.2,4.1-1,8.1-1.6,12.2c-1,6.6-2,13.2-2.9,19.9
		c-1,6.6-1.9,13.2-2.9,19.9c-1,6.7-2,13.4-3,20.1c-0.4,2.4-0.6,4.8-1.4,7.1c-2,5.7-7.4,9.3-13.5,9.3c-160.2,0-320.3,0-480.5,0
		c-0.4,0-0.9,0-1.3,0c-1.7-0.1-3.4-0.6-4.9-1.5c-3.7-2.3-5.2-6.3-4.5-11.2c1.2-8,2.4-16,3.6-24c1.2-8,2.3-16,3.5-24
		c1.2-8.5,2.5-16.9,3.8-25.4c0.9-6.1,4.4-10.1,10.2-12.1C52,102,52.8,101.8,53.6,101.6"/>
	<g>
		<path class="st0" d="M49.7,164.4h19.9c0.4,0,0.8,0.4,1.2,1.1c0.5,1,0.8,1.5,1,1.7c0.8,0.7,2.4,1,4.7,1c1,0,1.9-0.3,2.8-0.8
			c1.2-0.7,1.9-1.7,2.2-3c0.4-1.9-0.6-3-2.8-3.3c-3-0.4-6.1-0.8-9.1-1.1c-4.1-0.7-7.4-1.6-9.8-2.8c-3.3-1.6-5.4-3.9-6.3-6.8
			c-0.6-1.8-0.8-3.4-0.6-4.8c0.1-0.8,0.3-1.8,0.6-3.2c0.8-3.8,1.8-6.9,3.2-9.2c4.9-8.6,14.1-12.9,27.6-12.9c11.4,0,18.1,4,20,12.1
			c0.5,2.5,0.7,4.3,0.4,5.6c-0.1,0.3-0.5,0.7-1.2,1.1h-6.2c-0.3,0-3.6-0.1-9.9-0.4c-1.1,0-1.9-0.1-2.5-0.1c-0.5-0.2-1.3-0.9-2.4-2.2
			c-0.9-1-2.1-1.6-3.8-1.6c-3.3,0-5.1,1.1-5.6,3.4c-0.3,1.6,0.5,2.6,2.5,3.2c5.1,1.2,9.1,1.9,11.9,2.3c4.7,0.9,7.8,1.8,9.3,2.9
			c4.3,3,5.6,8.3,4.1,15.9c-1.5,7.3-4.6,12.5-9.4,15.8c-3.1,2.1-7.6,3.7-13.5,4.7c-3,0.5-5.6,0.8-7.8,0.8c-6.1,0-10.4-0.6-13.1-1.7
			c-4.4-1.8-7.2-5.5-8.4-11.1c-0.5-2-0.6-3.6-0.3-4.8C48.5,165.4,48.9,164.8,49.7,164.4"/>
		<path class="st0" d="M113.6,122.1c3.6-0.3,5.7-0.5,6.3-0.5h28c1.9,0,5.6,0.2,10.9,0.5l0.4,1l-2.9,14.3h-14
			c-0.3,0.2-0.7,0.6-1.2,1.2c0.2-0.8-1.1,4.8-3.8,16.9c-2.5,11.5-4.4,20.1-5.6,25.9l-0.5,0.9h-14.3c-0.6,0-0.8-0.5-0.7-1.4l8.2-40.4
			c0.4-1.9,0.3-2.8-0.4-2.8c-0.7,0-2.1,0-4.1,0.1c-2,0.1-3.5,0.1-4.5,0.1c-1.6,0-2.9-0.1-3.9-0.2c-1.2-0.1-1.7-0.6-1.6-1.4l2.7-13.2
			L113.6,122.1z"/>
		<path class="st0" d="M151.6,180.5c0.2-1,0.4-1.9,0.5-2.8l0.7-4.1c0.7-4,1.1-6.1,1.2-6.4l1.9-9.1c0.9-4.5,2-9.8,3.4-16l2.9-13.7
			c0.6-2.6,1-4.5,1.2-5.8c0.1-0.4,0.4-0.6,0.9-0.8c2.3-0.3,4-0.4,5.2-0.4c0.5,0,2.2,0,5.1-0.2c2.1-0.1,3.8-0.2,5.2-0.2h21
			c4.1,0,7.1,1.8,9,5.5c2,3.8,2.5,8.7,1.2,14.7c-0.9,4.5-2.3,7.8-4.1,10c-0.8,1.1-3.2,3.1-7,6c-0.5,0.4-0.9,0.9-1.2,1.4
			c0,0.6,0.1,1.2,0.2,1.9l3.9,18.8l-0.5,2.4h-16.8c-0.8-1.7-1.6-4.3-2.4-7.9c-0.6-2.9-1.2-5.7-1.7-8.6c-0.1-0.3-0.2-1.2-0.4-2.6
			c-0.1-1.1-0.3-1.8-0.5-2.3c-0.2-0.5-0.5-0.8-0.8-0.8h-7.2c-0.4,0.4-0.7,0.7-0.8,0.9c-0.3,0.5-0.5,0.8-0.6,1l-4,19.7l-0.6,0.5
			c-3.5,0.3-5.8,0.5-6.8,0.5h-7.6C151.7,182.3,151.5,181.7,151.6,180.5 M177.7,144.2c1.4,0,3.5-0.1,6.3-0.3c2.8-0.2,4.9-0.3,6.3-0.3
			c0.7,0,1.4-0.3,2-0.9c0.6-0.6,1-1.4,1.3-2.5c0.5-2.4-0.3-3.6-2.4-3.6h-13.7c-0.6,0-1.2,1.2-1.7,3.5c-0.2,0.9-0.3,1.9-0.3,3.1
			C175.9,143.9,176.7,144.2,177.7,144.2"/>
		<path class="st0" d="M206.8,181.3c0.2-0.8,0.4-2,0.7-3.5c0.3-1.6,0.5-2.7,0.7-3.5l2.2-10.8c2.2-10.7,4.1-19.6,5.6-26.7
			c1.6-7.1,2.7-11.8,3.4-14.2c0.2-0.3,0.4-0.5,0.6-0.6c0.8-0.6,4-0.8,9.4-0.8h7c3.5,0,7.6,0.1,12.3,0.2c9.2,0.2,14.2,0.3,15,0.4
			c0.7,0.1,1,0.4,1.1,0.9c0,1-0.2,2.7-0.7,5.3c-0.7,3.5-1.4,6.2-2.1,8.3l-0.4,0.5c-4.6,0.4-8.9,0.5-13.1,0.5h-10.5
			c-3.6,0-5.4,0.1-5.6,0.2c-0.3,0.4-0.6,1.2-0.8,2.3c-0.5,2.3-0.5,3.6-0.2,3.8c0.6,0.5,1.5,0.7,2.7,0.7c9.3,0,16.1,0.2,20.5,0.5
			l0.4,0.9l-0.3,1.3c-1,5.1-1.9,8.9-2.6,11.3c-0.3,0.9-0.7,1.4-1.2,1.4h-22.4c-0.8,0-1.5,1.4-2.1,4.1c-0.4,1.9,0.4,2.9,2.5,3
			c0.5,0.1,4.6,0.1,12.5,0.1c1.8,0,4.4,0.1,7.9,0.2c3.5,0.1,6.1,0.2,7.9,0.2c0.4,0.4,0.4,1,0.3,1.9l-2.2,10.9
			c-0.1,0.4-0.3,0.8-0.6,1.4c-0.3,0.6-0.6,0.9-0.8,0.9h-46.7L206.8,181.3z"/>
		<path class="st0" d="M258.9,181.3c0.2-0.8,0.4-2,0.7-3.5c0.3-1.6,0.5-2.7,0.7-3.5l2.2-10.8c2.2-10.7,4.1-19.6,5.6-26.7
			c1.6-7.1,2.7-11.8,3.4-14.2c0.2-0.3,0.4-0.5,0.6-0.6c0.8-0.6,4-0.8,9.4-0.8h7c3.5,0,7.6,0.1,12.3,0.2c9.2,0.2,14.2,0.3,15,0.4
			c0.7,0.1,1,0.4,1.1,0.9c0,1-0.2,2.7-0.7,5.3c-0.7,3.5-1.4,6.2-2.1,8.3l-0.4,0.5c-4.6,0.4-8.9,0.5-13.1,0.5h-10.5
			c-3.6,0-5.4,0.1-5.6,0.2c-0.3,0.4-0.6,1.2-0.8,2.3c-0.5,2.3-0.5,3.6-0.2,3.8c0.6,0.5,1.5,0.7,2.7,0.7c9.3,0,16.1,0.2,20.5,0.5
			l0.4,0.9l-0.3,1.3c-1,5.1-1.9,8.9-2.6,11.3c-0.3,0.9-0.7,1.4-1.2,1.4h-22.4c-0.8,0-1.5,1.4-2.1,4.1c-0.4,1.9,0.4,2.9,2.5,3
			c0.5,0.1,4.6,0.1,12.5,0.1c1.8,0,4.4,0.1,7.9,0.2c3.5,0.1,6.1,0.2,7.9,0.2c0.4,0.4,0.4,1,0.3,1.9l-2.2,10.9
			c-0.1,0.4-0.3,0.8-0.6,1.4c-0.3,0.6-0.6,0.9-0.8,0.9h-46.7L258.9,181.3z"/>
		<path class="st0" d="M323.8,122.1c3.6-0.3,5.7-0.5,6.3-0.5h28c1.9,0,5.6,0.2,10.9,0.5l0.4,1l-2.9,14.3h-14
			c-0.3,0.2-0.7,0.6-1.2,1.2c0.2-0.8-1.1,4.8-3.8,16.9c-2.5,11.5-4.4,20.1-5.6,25.9l-0.5,0.9h-14.3c-0.6,0-0.8-0.5-0.7-1.4l8.2-40.4
			c0.4-1.9,0.3-2.8-0.4-2.8c-0.7,0-2.1,0-4.1,0.1c-2,0.1-3.5,0.1-4.5,0.1c-1.6,0-2.9-0.1-3.9-0.2c-1.2-0.1-1.7-0.6-1.6-1.4l2.7-13.2
			L323.8,122.1z"/>
		<path class="st0" d="M372.9,138.2h9.6c0.2,0,0.4,0.2,0.5,0.7l0.4,18.3c0,0,0.1,0.1,0.1,0.1c0.3,0,0.6-0.3,0.8-1l7.6-17.8
			c0.2-0.4,0.5-0.6,1.1-0.6c0.9,0,2.2,0.1,4,0.2c1.7,0.1,3.1,0.2,4,0.2c0.2,0,0.4,0.2,0.4,0.6c0.4,5.3,0.6,9.3,0.7,12.1
			c0.2,3.1,0.3,4.9,0.4,5.3c0.1,0.5,0.2,0.8,0.4,0.8h0.1l0.6-1.3l6.9-16.8c0.1-0.3,0.2-0.6,0.3-0.7c0.2-0.2,1.3-0.4,3.4-0.4h3.7
			c2,0,3,0.2,3.1,0.6l-0.1,0.4c0,0.2-0.1,0.3-0.1,0.3l-9.1,22.1c-0.6,1.3-1,2.2-1.3,2.8l-5.5,13c-0.4,1-0.9,1.6-1.3,1.6H394
			c-0.2,0-0.4-0.6-0.4-1.9l-0.6-13.3c0.1-0.1,0.1-0.2,0.1-0.4c0.1-0.4,0.1-0.9-0.1-1.4c-0.1-0.5-0.3-0.8-0.6-0.8
			c-0.2,0-0.5,0.3-0.8,1l-6.9,16.1l-0.9,0.7c-5.7,0.2-8.5,0.3-8.5,0.3c-0.9,0-1.3-0.5-1.4-1.6l-1.3-37.3L372.9,138.2z"/>
		<path class="st0" d="M417,178.3c0.1-0.5,0.3-1.3,0.5-2.4c0.2-1,0.3-1.8,0.4-2.4l1.4-7.2c1.4-7.2,2.6-13.2,3.6-18
			c1-4.8,1.7-8,2.2-9.6c0.1-0.2,0.3-0.3,0.4-0.4c0.5-0.4,2.6-0.6,6-0.6h4.5c2.3,0,4.9,0,7.9,0.1c5.9,0.1,9.1,0.2,9.6,0.3
			c0.4,0,0.7,0.2,0.7,0.6c0,0.6-0.1,1.8-0.5,3.5c-0.5,2.3-0.9,4.2-1.3,5.6l-0.3,0.4c-2.9,0.2-5.7,0.4-8.4,0.4h-6.7
			c-2.3,0-3.5,0.1-3.6,0.2c-0.2,0.3-0.4,0.8-0.5,1.5c-0.3,1.6-0.3,2.4-0.1,2.6c0.4,0.3,0.9,0.5,1.7,0.5c6,0,10.3,0.1,13.1,0.3
			l0.3,0.6l-0.2,0.9c-0.7,3.5-1.2,6-1.7,7.6c-0.2,0.6-0.4,1-0.8,1H431c-0.5,0-1,0.9-1.3,2.8c-0.2,1.3,0.3,1.9,1.6,2
			c0.3,0,3,0.1,8,0.1c1.1,0,2.8,0,5,0.1c2.2,0.1,3.9,0.1,5,0.1c0.2,0.2,0.3,0.7,0.2,1.3l-1.4,7.3c0,0.2-0.2,0.6-0.4,1
			c-0.2,0.4-0.4,0.6-0.5,0.6h-29.9L417,178.3z"/>
		<path class="st0" d="M451.7,178.3c0.1-0.5,0.3-1.3,0.5-2.4c0.2-1,0.3-1.8,0.4-2.4l1.4-7.2c1.4-7.2,2.6-13.2,3.6-18
			c1-4.8,1.7-8,2.2-9.6c0.1-0.2,0.3-0.3,0.4-0.4c0.5-0.4,2.6-0.6,6-0.6h4.5c2.3,0,4.9,0,7.9,0.1c5.9,0.1,9.1,0.2,9.6,0.3
			c0.4,0,0.7,0.2,0.7,0.6c0,0.6-0.1,1.8-0.5,3.5c-0.5,2.3-0.9,4.2-1.3,5.6l-0.3,0.4c-2.9,0.2-5.7,0.4-8.4,0.4h-6.7
			c-2.3,0-3.5,0.1-3.6,0.2c-0.2,0.3-0.4,0.8-0.5,1.5c-0.3,1.6-0.3,2.4-0.1,2.6c0.4,0.3,0.9,0.5,1.7,0.5c6,0,10.3,0.1,13.1,0.3
			l0.3,0.6l-0.2,0.9c-0.7,3.5-1.2,6-1.7,7.6c-0.2,0.6-0.4,1-0.8,1h-14.4c-0.5,0-1,0.9-1.3,2.8c-0.2,1.3,0.3,1.9,1.6,2
			c0.3,0,3,0.1,8,0.1c1.1,0,2.8,0,5,0.1c2.2,0.1,3.9,0.1,5,0.1c0.2,0.2,0.3,0.7,0.2,1.3l-1.4,7.3c0,0.2-0.2,0.6-0.4,1
			c-0.2,0.4-0.4,0.6-0.5,0.6H452L451.7,178.3z"/>
		<path class="st0" d="M490.4,158.8c1.2-5.6,2-9.8,2.6-12.6c0-0.1,0.1-0.6,0.2-1.4s0.3-1.5,0.4-2.1c0.6-3,1.2-4.5,1.7-4.5h9l0.3,0.6
			l-2,12.7c0,0,0,0.1,0.1,0.1c0.3-0.1,0.4-0.2,0.5-0.4l10.5-11.7c0.8-0.8,1.3-1.3,1.6-1.3h12.4l0.1,0.1l0,0.2c0,0.2-0.2,0.5-0.4,0.7
			c-1.5,1.7-2.6,2.9-3.3,3.6c-4.5,4.9-7.4,8.1-8.6,9.6c-0.3,1.4-0.1,3.1,0.6,5.4c0.1,0.7,0.2,1.2,0.3,1.6l4.3,18c0,0.2,0,0.3,0,0.4
			c-0.1,0.6-0.3,0.9-0.4,0.9h-11.5l-0.4-0.3c-1.1-3.9-2-7.5-2.7-10.8c0-0.1-0.1-0.8-0.3-2c-0.1-0.8-0.3-1.4-0.5-1.8
			c-0.2-0.4-0.4-0.6-0.6-0.6c-0.4,0-1.1,0.5-2,1.5c-0.6,0.8-1.2,1.5-1.9,2.3c-0.7,0.8-1.2,1.4-1.3,1.6c-1,5.2-1.7,8.3-2.2,9.4
			c-0.2,0.5-0.5,0.7-0.9,0.7H487l-0.3-0.7c0.2-1.8,0.6-4,1.1-6.6C488.3,168.6,489.2,164.4,490.4,158.8"/>
	</g>
	<g>
		<g>
			<defs>
				<path id="SVGID_1_" d="M492.9,204.8c11.6-0.7,17.4,3.7,22.1,8.2c4.7,4.5,9.6,12.8,18.5,16.8c0.5-16.1,6.6-25.8,10-30.8
					c-10.3-2.3-13.8-11-15.4-13.9c-1.6-2.9-4.7-11.4-16.6-12.6C507.3,181.6,498,198.4,492.9,204.8"/>
			</defs>
			<clipPath id="SVGID_2_">
				<use xlink:href="#SVGID_1_"  style="overflow:visible;"/>
			</clipPath>
			
				<linearGradient id="SVGID_3_" gradientUnits="userSpaceOnUse" x1="-780.8555" y1="1559.5687" x2="-780.4245" y2="1559.5687" gradientTransform="matrix(-81.7613 -34.4954 34.4954 -81.7613 -117105.4141 100785.2031)">
				<stop  offset="0" style="stop-color:#FFFFFF"/>
				<stop  offset="0.1121" style="stop-color:#FAFAFA"/>
				<stop  offset="0.2438" style="stop-color:#ECECEC"/>
				<stop  offset="0.3847" style="stop-color:#D4D4D4"/>
				<stop  offset="0.3866" style="stop-color:#D4D4D4"/>
				<stop  offset="0.561" style="stop-color:#EEEEEE"/>
				<stop  offset="0.7042" style="stop-color:#FFFFFF"/>
				<stop  offset="0.7764" style="stop-color:#FCFCFC"/>
				<stop  offset="0.8365" style="stop-color:#F1F1F1"/>
				<stop  offset="0.8923" style="stop-color:#E0E0E0"/>
				<stop  offset="0.9455" style="stop-color:#C8C8C8"/>
				<stop  offset="0.9964" style="stop-color:#A9A9A9"/>
				<stop  offset="1" style="stop-color:#A6A6A6"/>
			</linearGradient>
			<polygon class="st2" points="564.1,181.1 500.6,154.3 472.4,221.1 535.9,247.9 			"/>
		</g>
		<g>
			<defs>
				<path id="SVGID_4_" d="M511.4,171.2l-39,67.7c-0.2,0.4-0.1,0.8,0.3,1c0.1,0.1,0.2,0.1,0.4,0.1c0.3,0,0.5-0.1,0.7-0.4l39-67.7
					c0.2-0.4,0.1-0.8-0.3-1c-0.1-0.1-0.3-0.1-0.4-0.1C511.8,170.8,511.6,170.9,511.4,171.2"/>
			</defs>
			<clipPath id="SVGID_5_">
				<use xlink:href="#SVGID_4_"  style="overflow:visible;"/>
			</clipPath>
			
				<linearGradient id="SVGID_6_" gradientUnits="userSpaceOnUse" x1="-746.8915" y1="1415.889" x2="-746.4604" y2="1415.889" gradientTransform="matrix(-2.5321 -1.5413 1.5413 -2.5321 -3579.6707 2640.1804)">
				<stop  offset="0" style="stop-color:#747474"/>
				<stop  offset="1" style="stop-color:#000000"/>
			</linearGradient>
			<polygon class="st3" points="543.7,189.5 483.2,152.7 441.5,221.3 501.9,258.1 			"/>
		</g>
		<path class="st4" d="M527.8,196.5c0.5-1.4,1-2.8,1.5-4.2c1,1.4,2,2.7,3,3.8c-0.5,1.3-1,2.7-1.5,4
			C529.9,199,528.9,197.8,527.8,196.5"/>
		<path class="st4" d="M521.9,189.5c0.6-1.6,1.3-3.3,1.9-4.9c1,1.1,2,2.3,2.9,3.8c-0.6,1.5-1.1,3.1-1.7,4.6
			C524,191.6,523,190.5,521.9,189.5"/>
		<path class="st4" d="M529.1,204.7c0.5-1.4,1.1-3,1.8-4.6c1.3,1.4,2.5,2.5,3.8,3.4c-0.5,1.1-0.9,2.2-1.4,3.4
			c-0.2,0.4-0.3,0.8-0.5,1.3C531.5,207.2,530.3,206,529.1,204.7"/>
		<path class="st4" d="M521.3,203.3c1,1.1,1.9,2.2,2.7,3.1c-0.8,2-1.6,3.9-2.5,5.5c-0.9-1-1.8-2-2.7-3.1c-0.2-0.2-0.3-0.4-0.5-0.5
			c1-1.5,1.9-3.3,2.8-5.2C521.2,203.1,521.3,203.2,521.3,203.3"/>
		<path class="st4" d="M517.5,199.5c-1.1,2.2-2.1,3.9-2.9,5.2c-1.5-1.1-3-2-4.5-2.8c0.9-1.4,1.9-3.1,3.1-5.2
			C514.6,197.5,516.1,198.4,517.5,199.5"/>
		<path class="st4" d="M531,213.3c-0.6,2-1.3,4-1.9,6c-1.2-1-2.6-2.2-4-3.7c0.7-1.9,1.4-3.9,2.1-5.9
			C528.6,211.1,529.8,212.3,531,213.3"/>
		<path class="st4" d="M523.5,197.9c-0.1-0.1-0.1-0.2-0.2-0.3c0.5-1.4,1.1-3,1.7-4.7c0,0,0,0,0,0c1,1.3,1.9,2.4,2.7,3.5
			c-0.6,1.6-1.2,3.2-1.7,4.7C525.3,200.2,524.4,199.1,523.5,197.9"/>
		<path class="st4" d="M512.8,184.1c0.8-1.6,1.6-3.4,2.5-5.1c1.6,0.6,3.3,1.4,5,2.5c-0.7,1.7-1.5,3.4-2.2,5
			C516.3,185.4,514.5,184.6,512.8,184.1"/>
		<path class="st4" d="M515.9,191.4c0.5-1.1,1.3-2.9,2.2-4.9c1.3,0.8,2.5,1.8,3.8,3c-0.7,1.9-1.4,3.5-1.9,4.8
			C518.7,193.1,517.3,192.2,515.9,191.4"/>
		<path class="st4" d="M526.1,201.2c1.1,1.3,2.1,2.5,3,3.5c-0.2,0.5-0.4,1-0.6,1.5c-0.4,1.1-0.9,2.3-1.3,3.5c-1-1-2-2.1-3.1-3.3
			c0.2-0.4,0.3-0.9,0.5-1.3C525,204,525.5,202.6,526.1,201.2"/>
		<path class="st4" d="M515.6,192.1c-0.9,1.7-1.6,3.3-2.4,4.6c-2-1-4-1.8-5.9-2.3c1.3-2.2,2.3-4.1,3-5.3c1.8,0.5,3.7,1.2,5.6,2.2
			C515.8,191.7,515.6,192,515.6,192.1"/>
		<path class="st4" d="M520,194.2c1.1,1,2.2,2.1,3.2,3.4c-0.4,1-0.7,2-1,2.7c-0.4,0.9-0.7,1.8-1.1,2.7c-1.2-1.3-2.4-2.5-3.6-3.5
			c0.6-1.1,1.1-2.2,1.8-3.5C519.5,195.7,519.7,195,520,194.2"/>
		<path class="st4" d="M534.2,222.7c-0.3,2.2-0.6,4.6-0.6,7.1c-2.4-1-4.4-2.4-6.3-3.9c0.6-2.2,1.2-4.4,1.9-6.6
			C531,220.8,532.7,221.9,534.2,222.7"/>
		<path class="st4" d="M532.8,208.1c1.4,1,2.8,1.9,4.5,2.6c-0.7,1.8-1.3,3.7-1.9,5.8c-1.3-0.8-2.8-1.8-4.4-3.2
			C531.6,211.5,532.2,209.7,532.8,208.1"/>
		<path class="st4" d="M504.1,199.8c-2.9-0.7-5.4-0.9-7.1-1c1.1-1.7,2.2-3.5,3.4-5.5c1.8,0.1,4.2,0.4,6.9,1.1
			C506.3,196.2,505.2,198.1,504.1,199.8"/>
		<path class="st4" d="M518.4,208.2c-1.2,1.9-2.4,3.5-3.5,4.7c-1.2-1.2-2.5-2.3-3.9-3.4c1.1-1.2,2.2-2.6,3.6-4.8
			C515.9,205.7,517.2,206.9,518.4,208.2"/>
		<path class="st4" d="M510.1,202c-1.5,2.3-2.7,3.7-3.8,4.9c-1.7-0.7-3.6-1.3-5.7-1.7c1-1.2,2.3-3.2,3.6-5.3
			C506,200.3,508.1,201,510.1,202"/>
		<path class="st4" d="M536.4,199.5c1.6,1.1,3.3,1.9,5.1,2.6c-0.7,1.1-1.4,2.4-2.1,3.8c-1.8-0.7-3.3-1.5-4.8-2.6
			C535.2,202.1,535.8,200.8,536.4,199.5"/>
		<path class="st4" d="M525.1,215.6c-0.8,2.3-1.7,4.3-2.6,5.9c-1.4-1.5-2.7-3-3.9-4.5c1-1.4,2-3.1,3-5
			C522.8,213.3,524,214.5,525.1,215.6"/>
		<path class="st4" d="M508.9,177.8c1-1.9,1.8-3.7,2.6-5.3c2.3,0.2,4.3,0.7,6.1,1.4c-0.6,1.4-1.4,3.2-2.2,5
			C512.9,178.1,510.7,177.9,508.9,177.8"/>
		<path class="st4" d="M510.8,188.2c-0.1,0.2-0.3,0.5-0.5,0.9c-2.6-0.7-5-1-6.8-1.1c0.9-1.7,1.8-3.3,2.7-5c1.9,0.1,4.2,0.3,6.6,1
			C512,185.9,511.2,187.4,510.8,188.2"/>
		<path class="st4" d="M532.4,196.1c0.4-1,0.8-1.9,1.1-2.9c1.2,1.3,2.6,2.5,4.3,3.5c-0.5,0.9-0.9,1.8-1.4,2.8
			C535,198.6,533.7,197.5,532.4,196.1"/>
		<path class="st4" d="M527.3,189.2c-0.2-0.3-0.4-0.6-0.6-0.9c0.4-1.2,0.9-2.4,1.3-3.5c0,0.1,0.1,0.2,0.1,0.2
			c0.5,0.9,1.2,2.5,2.3,4.2c-0.4,1-0.8,2-1.2,3.1C528.6,191.4,528,190.4,527.3,189.2"/>
		<path class="st4" d="M520.3,181.5c0.7-1.7,1.4-3.4,2-4.7c1.3,1.1,2.4,2.4,3.2,3.6c-0.5,1.3-1.1,2.7-1.6,4.2
			C522.7,183.3,521.5,182.3,520.3,181.5"/>
		<g>
			<defs>
				<path id="SVGID_7_" d="M461.6,200.1c-1.6,2.9-5.1,11.6-15.4,13.9c3.4,5,9.5,14.7,10,30.8c9-4,13.9-12.3,18.5-16.8
					c4.7-4.5,10.4-8.9,22.1-8.2c-5.1-6.4-14.4-23.2-18.6-32.4C466.3,188.7,463.2,197.2,461.6,200.1"/>
			</defs>
			<clipPath id="SVGID_8_">
				<use xlink:href="#SVGID_7_"  style="overflow:visible;"/>
			</clipPath>
			
				<linearGradient id="SVGID_9_" gradientUnits="userSpaceOnUse" x1="-787.4697" y1="1562.6023" x2="-787.0386" y2="1562.6023" gradientTransform="matrix(81.7613 -34.4954 -34.4954 -81.7613 118740.5703 100820.125)">
				<stop  offset="0" style="stop-color:#FFFFFF"/>
				<stop  offset="0.1121" style="stop-color:#FAFAFA"/>
				<stop  offset="0.2438" style="stop-color:#ECECEC"/>
				<stop  offset="0.3847" style="stop-color:#D4D4D4"/>
				<stop  offset="0.3866" style="stop-color:#D4D4D4"/>
				<stop  offset="0.561" style="stop-color:#EEEEEE"/>
				<stop  offset="0.7042" style="stop-color:#FFFFFF"/>
				<stop  offset="0.7764" style="stop-color:#FCFCFC"/>
				<stop  offset="0.8365" style="stop-color:#F1F1F1"/>
				<stop  offset="0.8923" style="stop-color:#E0E0E0"/>
				<stop  offset="0.9455" style="stop-color:#C8C8C8"/>
				<stop  offset="0.9964" style="stop-color:#A9A9A9"/>
				<stop  offset="1" style="stop-color:#A6A6A6"/>
			</linearGradient>
			<polygon class="st5" points="425.6,196.2 489.2,169.4 517.4,236.2 453.8,263 			"/>
		</g>
		<g>
			<defs>
				<path id="SVGID_10_" d="M477.3,186c-0.4,0.2-0.5,0.7-0.3,1l39,67.7c0.1,0.2,0.4,0.4,0.7,0.4c0.1,0,0.3,0,0.4-0.1
					c0.4-0.2,0.5-0.7,0.3-1l-39-67.7c-0.1-0.2-0.4-0.4-0.7-0.4C477.5,185.9,477.4,185.9,477.3,186"/>
			</defs>
			<clipPath id="SVGID_11_">
				<use xlink:href="#SVGID_10_"  style="overflow:visible;"/>
			</clipPath>
			
				<linearGradient id="SVGID_12_" gradientUnits="userSpaceOnUse" x1="-929.397" y1="1534.8284" x2="-928.9658" y2="1534.8284" gradientTransform="matrix(2.5321 -1.5413 -1.5413 -2.5321 5214.8457 2675.1101)">
				<stop  offset="0" style="stop-color:#747474"/>
				<stop  offset="1" style="stop-color:#000000"/>
			</linearGradient>
			<polygon class="st6" points="446,204.6 506.5,167.8 548.3,236.4 487.8,273.2 			"/>
		</g>
		<path class="st4" d="M462,211.5c-0.5-1.4-1-2.8-1.5-4.2c-1,1.4-2,2.7-3,3.8c0.5,1.3,1,2.7,1.5,4
			C459.9,214.1,460.9,212.9,462,211.5"/>
		<path class="st4" d="M467.8,204.5c-0.6-1.6-1.3-3.3-1.9-4.9c-1,1.1-2,2.3-2.9,3.8c0.6,1.5,1.1,3.1,1.7,4.6
			C465.7,206.7,466.8,205.5,467.8,204.5"/>
		<path class="st4" d="M460.7,219.7c-0.5-1.4-1.1-3-1.8-4.6c-1.3,1.4-2.5,2.5-3.8,3.4c0.5,1.1,0.9,2.2,1.4,3.4
			c0.2,0.4,0.3,0.8,0.5,1.3C458.2,222.2,459.4,221.1,460.7,219.7"/>
		<path class="st4" d="M468.4,218.3c-1,1.1-1.9,2.2-2.7,3.1c0.8,2,1.6,3.9,2.5,5.5c0.9-1,1.8-2,2.7-3.1c0.2-0.2,0.3-0.4,0.5-0.5
			c-1-1.5-1.9-3.3-2.8-5.2C468.5,218.2,468.5,218.2,468.4,218.3"/>
		<path class="st4" d="M472.2,214.6c1.1,2.2,2.1,3.9,2.9,5.2c1.5-1.1,3-2,4.5-2.8c-0.9-1.4-1.9-3.1-3.1-5.2
			C475.1,212.6,473.6,213.5,472.2,214.6"/>
		<path class="st4" d="M458.7,228.3c0.6,2,1.3,4,1.9,6c1.2-1,2.6-2.2,4-3.7c-0.7-1.9-1.4-3.9-2.1-5.9
			C461.2,226.1,459.9,227.3,458.7,228.3"/>
		<path class="st4" d="M466.2,212.9c0.1-0.1,0.1-0.2,0.2-0.3c-0.5-1.4-1.1-3-1.7-4.7c0,0,0,0,0,0c-1,1.3-1.9,2.4-2.7,3.5
			c0.6,1.6,1.2,3.2,1.7,4.7C464.5,215.2,465.3,214.1,466.2,212.9"/>
		<path class="st4" d="M476.9,199.1c-0.8-1.6-1.6-3.4-2.5-5.1c-1.6,0.6-3.3,1.4-5,2.5c0.7,1.7,1.5,3.4,2.2,5
			C473.4,200.4,475.2,199.6,476.9,199.1"/>
		<path class="st4" d="M473.8,206.5c-0.5-1.1-1.3-2.9-2.2-4.9c-1.3,0.8-2.5,1.8-3.8,3c0.7,1.9,1.4,3.5,1.9,4.8
			C471,208.2,472.4,207.2,473.8,206.5"/>
		<path class="st4" d="M463.7,216.2c-1.1,1.3-2,2.5-3,3.5c0.2,0.5,0.4,1,0.6,1.5c0.4,1.1,0.9,2.3,1.3,3.5c1-1,2-2.1,3.1-3.3
			c-0.2-0.4-0.4-0.9-0.5-1.3C464.7,219,464.2,217.7,463.7,216.2"/>
		<path class="st4" d="M474.2,207.2c0.9,1.7,1.6,3.3,2.4,4.6c2-1,4-1.8,5.9-2.3c-1.3-2.2-2.3-4.1-3-5.3c-1.8,0.5-3.7,1.2-5.6,2.2
			C474,206.8,474.1,207,474.2,207.2"/>
		<path class="st4" d="M469.7,209.3c-1.1,1-2.2,2.1-3.2,3.4c0.4,1,0.7,2,1,2.7c0.4,0.9,0.7,1.8,1.1,2.7c1.2-1.3,2.4-2.5,3.6-3.5
			c-0.6-1.1-1.1-2.2-1.8-3.5C470.3,210.7,470,210.1,469.7,209.3"/>
		<path class="st4" d="M455.6,237.7c0.3,2.2,0.6,4.6,0.6,7.1c2.4-1,4.4-2.4,6.3-3.9c-0.6-2.2-1.2-4.4-1.9-6.6
			C458.7,235.9,457.1,237,455.6,237.7"/>
		<path class="st4" d="M456.9,223.2c-1.4,1-2.8,1.9-4.5,2.6c0.7,1.8,1.3,3.7,1.9,5.8c1.3-0.8,2.8-1.8,4.4-3.2
			C458.1,226.5,457.5,224.8,456.9,223.2"/>
		<path class="st4" d="M485.6,214.9c2.9-0.7,5.4-0.9,7.1-1c-1.1-1.7-2.2-3.5-3.4-5.5c-1.8,0.1-4.2,0.4-6.9,1.1
			C483.4,211.3,484.5,213.1,485.6,214.9"/>
		<path class="st4" d="M471.4,223.3c1.2,1.9,2.4,3.5,3.5,4.7c1.2-1.2,2.5-2.3,3.9-3.4c-1.1-1.2-2.2-2.6-3.6-4.8
			C473.8,220.8,472.6,222,471.4,223.3"/>
		<path class="st4" d="M479.6,217.1c1.5,2.3,2.7,3.7,3.8,4.9c1.7-0.7,3.6-1.3,5.7-1.7c-1-1.2-2.3-3.2-3.6-5.3
			C483.7,215.4,481.7,216,479.6,217.1"/>
		<path class="st4" d="M453.3,214.6c-1.6,1.1-3.3,1.9-5.1,2.6c0.7,1.1,1.4,2.4,2.1,3.8c1.8-0.7,3.3-1.5,4.8-2.6
			C454.5,217.1,453.9,215.8,453.3,214.6"/>
		<path class="st4" d="M464.7,230.6c0.8,2.3,1.7,4.3,2.6,5.9c1.4-1.5,2.7-3,3.9-4.5c-1-1.4-2-3.1-3-5
			C466.9,228.4,465.8,229.6,464.7,230.6"/>
		<path class="st4" d="M480.8,192.8c-1-1.9-1.8-3.7-2.6-5.3c-2.3,0.2-4.3,0.8-6.1,1.4c0.6,1.4,1.4,3.2,2.2,5
			C476.8,193.2,479,192.9,480.8,192.8"/>
		<path class="st4" d="M478.9,203.3c0.1,0.2,0.3,0.5,0.5,0.9c2.6-0.7,5-1,6.8-1.1c-0.9-1.7-1.8-3.3-2.7-5c-1.9,0.1-4.2,0.3-6.6,1
			C477.8,201,478.5,202.5,478.9,203.3"/>
		<path class="st4" d="M457.4,211.1c-0.4-1-0.8-1.9-1.1-2.9c-1.2,1.3-2.6,2.5-4.3,3.5c0.5,0.9,0.9,1.8,1.4,2.8
			C454.7,213.7,456.1,212.5,457.4,211.1"/>
		<path class="st4" d="M462.4,204.3c0.2-0.3,0.4-0.6,0.6-0.9c-0.4-1.2-0.9-2.4-1.3-3.5c0,0.1-0.1,0.2-0.1,0.2
			c-0.5,0.9-1.2,2.5-2.3,4.2c0.4,1,0.8,2,1.2,3.1C461.1,206.4,461.8,205.4,462.4,204.3"/>
		<path class="st4" d="M469.4,196.5c-0.7-1.7-1.4-3.4-2-4.7c-1.3,1.1-2.4,2.4-3.2,3.6c0.5,1.3,1.1,2.7,1.6,4.2
			C467.1,198.4,468.3,197.4,469.4,196.5"/>
	</g>
</g>
<g>
	<g>
		<path d="M160.7,158.4c-2.3,0-4.5-1-6.2-2.7c-4.2-4.2-4.7-12.6-1.2-17c5.2-6.4,10.6-12.9,15.9-19.1l0.8-0.9
			c3.1-3.7,6.3-7.5,9.4-11.2c-3.6,3-7.7,6-12.2,8.5c-2.4,1.3-4.9,2.2-7.2,3c-1.1,0.4-2.3,0.6-3.4,0.6c-2,0-5.1-0.6-7.9-3.7
			c-1.2-1.3-2.2-2.5-2.9-3.7c-1.9,1.5-3.9,3-5.8,4.5c-0.9,0.7-1.8,1.1-2.5,1.5l-0.2,0.1c-2.3,1.2-4.1,1.8-6,1.8c-3.8,0-6.3-2.3-8-4
			c-2.1-2.3-3.5-4.7-4.2-7.3c-1.5,1.5-8.6,8.5-8.6,8.5c-1.5,2.3-3.8,3.7-6.2,3.7c-1.3,0-3.3-0.4-5.3-2.3c-0.9-0.9-2.5-2.8-2.9-5.4
			c-0.3-2-1.3-8.2,2.9-13.4c3.7-4.6,12.9-16.1,12.9-16.1c-0.2-0.4-0.3-0.8-0.5-1.2c-0.8-3.2,1.4-5.5,2.1-6.2c2.2-2.3,4-4.1,5.8-5.6
			c19.1-16.4,36-32.1,51.7-47.8c1.1-1.1,2.3-2.1,3.7-3.2c1.6-1.2,3-1.4,4-1.4c2.3,0,4.4,1.3,5.6,3.6c0.1,0.1,0.3,0.4,0.5,0.5
			l0.4,0.4c4.8,5.1,2.9,9.9,1.3,12.3c-1.1,1.7-2.5,3.4-4.3,5.1c-6.6,6.3-13.2,12.6-19.8,18.9c-1,1-2,1.9-3,2.9
			c1.6,0.6,3,1.7,4.2,3.3c1.1,1.5,2.4,3.6,2.8,6c0.5-0.4,1-0.9,1.5-1.3c0.8-0.7,1.6-1.4,2.4-2.1c1.6-1.4,3.3-2.9,5-4.3
			c3.5-3,7.3-4.5,11.2-4.5c3.7,0,7.2,1.3,10.5,4c3.9,3.2,5.8,7.3,5.5,11.7c3-2.8,6-5.7,8.9-8.5c1.8-1.7,3.5-3.4,5.3-5.1
			c2.5-2.4,5-2.9,6.6-2.9c3.4,0,6.5,2.1,8.3,5.8c0,0.1,0.1,0.2,0.1,0.3c0.6-0.4,1.2-0.8,1.8-1.3c1.7-1.2,4.1-2.6,6.9-2.6
			c4.7,0,7.4,3.9,8.9,5.9c3.8,5.4,3.9,11.2,0.3,16.7c-9.5,14.6-19.7,25.7-31.2,34.1c-2.1,1.6-4.7,2.9-7.5,3.8
			c-1.5,0.5-3,0.8-4.5,0.8c-3.9,0-7.3-1.8-9.6-4.9c-9.4,10.6-20.1,23.4-29.2,37.8C166.2,156.9,163.6,158.4,160.7,158.4z"/>
		<path d="M41.9,124.8c-3.7,0-7.2-0.5-10.6-1.4c-6.1-1.7-11.5-7.1-14.2-14.2c-2.5-6.7-2-13.6,1.5-18.9c5.7-8.6,12.6-14.5,21-18
			c1.6-0.7,3.3-1,4.9-1c2.5,0,4.8,0.8,6.9,2.4c2.5,1.9,3.6,4.1,3.3,6.5c-0.3,2.4-1.9,4.3-4.7,5.5c-4.6,2-8.4,5.2-11.5,9.7
			c-0.5,0.7-0.9,1.5-1.3,2.4c-0.4,1.1-0.5,2.1-0.1,2.8c0.4,0.7,1.3,1,2,1.2c1.4,0.3,2.9,0.4,4.5,0.4c1.1,0,2.2-0.1,3.2-0.2
			c14.8-1.8,28-8.6,39.3-20c1.6-1.6,3.1-3.6,4.4-5.9c0.2-0.4,0.4-0.7,0.5-0.9c-0.2-0.1-0.4-0.2-0.8-0.3c-3.3-1.2-6.8-2.1-10.6-2.9
			l-1.7-0.4c-1.4-0.3-2.9-0.6-4.5-0.8c-1.3-0.2-2.7-0.4-4.1-0.7c-4.7-0.9-8.5-3.8-11.1-8.4c-0.2-0.4-0.5-0.8-0.7-1.3
			c-0.4-0.8-0.9-1.6-1.3-2.1c-3.5-4.6-3.5-10.1,0.1-14.7c2.3-2.9,4.7-5.4,7.3-7.3c8-6.1,17.1-10,25.8-13.3
			c13.7-5.2,26.5-8.7,39.1-10.6c3-0.5,6.4-1,9.8-1c2.6,0,5,0.3,7.3,0.9c6.3,1.6,10,6.5,9.7,12.6c-0.1,2.6-0.5,10.5-8.9,14.2
			c-6.8,3-13.3,4.8-19.8,5.7c-0.6,0.1-1.1,0.1-1.7,0.1c-3.5,0-6.3-1.7-7.9-4.9c-0.5-1-0.8-2-0.9-2.9c-12,3.1-25,8.3-33,12.7
			c4.9,0.9,10.2,2,15.1,4.3c12.6,5.9,17.2,18.4,11.5,31.1c-3.1,6.9-8,12.9-15.4,18.8c-12.7,10.2-27,16.8-42.7,19.7
			C48.4,124.5,45,124.8,41.9,124.8z"/>
		<g>
			<path d="M159.7,154.8c-2.3,0-4.5-1-6.2-2.7c-4.2-4.2-4.7-12.6-1.2-17c5.2-6.4,10.6-12.9,15.9-19.1l0.8-0.9
				c3.1-3.7,6.3-7.5,9.4-11.2c-3.6,3-7.7,6-12.2,8.5c-2.4,1.3-4.9,2.2-7.2,3c-1.1,0.4-2.3,0.6-3.4,0.6c-2,0-5.1-0.6-7.9-3.7
				c-1.2-1.3-2.2-2.5-2.9-3.7c-1.9,1.5-3.9,3-5.8,4.5c-0.9,0.7-1.8,1.1-2.5,1.5l-0.2,0.1c-2.3,1.2-4.1,1.8-6,1.8c-3.8,0-6.3-2.3-8-4
				c-2.1-2.3-3.5-4.7-4.2-7.3c-1.5,1.5-8.6,8.5-8.6,8.5c-1.5,2.3-3.8,3.7-6.2,3.7c-1.3,0-3.3-0.4-5.3-2.3c-0.9-0.9-2.5-2.8-2.9-5.4
				c-0.3-2-1.3-8.2,2.9-13.4c3.7-4.6,12.9-16.1,12.9-16.1c-0.2-0.4-0.3-0.8-0.5-1.2c-0.8-3.2,1.4-5.5,2.1-6.2c2.2-2.3,4-4.1,5.8-5.6
				c19.1-16.4,36-32.1,51.7-47.8c1.1-1.1,2.3-2.1,3.7-3.2c1.6-1.2,3-1.4,4-1.4c2.3,0,4.4,1.3,5.6,3.6c0.1,0.1,0.3,0.4,0.5,0.5
				l0.4,0.4c4.8,5.1,2.9,9.9,1.3,12.3c-1.1,1.7-2.5,3.4-4.3,5.1c-6.6,6.3-13.2,12.6-19.8,18.9c-1,1-2,1.9-3,2.9
				c1.6,0.6,3,1.7,4.2,3.3c1.1,1.5,2.4,3.6,2.8,6c0.5-0.4,1-0.9,1.5-1.3c0.8-0.7,1.6-1.4,2.4-2.1c1.6-1.4,3.3-2.9,5-4.3
				c3.5-3,7.3-4.5,11.2-4.5c3.7,0,7.2,1.3,10.5,4c3.9,3.2,5.8,7.3,5.5,11.7c3-2.8,6-5.7,8.9-8.5c1.8-1.7,3.5-3.4,5.3-5.1
				c2.5-2.4,5-2.9,6.6-2.9c3.4,0,6.5,2.1,8.3,5.8c0,0.1,0.1,0.2,0.1,0.3c0.6-0.4,1.2-0.8,1.8-1.3c1.7-1.2,4.1-2.6,6.9-2.6
				c4.7,0,7.4,3.9,8.9,5.9c3.8,5.4,3.9,11.2,0.3,16.7c-9.5,14.6-19.7,25.7-31.2,34.1c-2.1,1.6-4.7,2.9-7.5,3.8
				c-1.5,0.5-3,0.8-4.5,0.8c-3.9,0-7.3-1.8-9.6-4.9c-9.4,10.6-20.1,23.4-29.2,37.8C165.2,153.3,162.6,154.8,159.7,154.8z"/>
			<path d="M118.4,79c-0.5-0.2-0.9-0.5-1.3-0.6c-1.8-0.6-2-1-0.6-2.4c1.7-1.8,3.5-3.6,5.4-5.3c17.9-15.4,35.3-31.4,52-48.1
				c1-1,2-1.9,3.1-2.7c0.8-0.6,1.5-0.5,2,0.5c0.4,0.8,1.1,1.4,1.7,2c1.9,2,2.2,3.7,0.7,5.9c-1,1.5-2.2,2.9-3.5,4.1
				c-14.4,13.8-28.9,27.6-43.4,41.4c-3.4,3.3-6.6,6.7-9.9,10.1c-0.4,0.4-0.7,0.8-0.8,1.3c3.2-2.5,6.3-5.1,9.6-7.4
				c6.6-4.8,13.3-9.5,20.1-14.1c2.5-1.7,3.8-1.5,5.4,0.6c0.9,1.2,1.8,2.8,1.8,4.2c0,1.2-1.2,2.5-2.2,3.4
				c-8.8,7.9-17.3,16.1-24.9,25.1c-1,1.1-1.7,2.5-2.5,3.7c0.1,0.2,0.3,0.4,0.4,0.6c0.8-0.4,1.8-0.6,2.5-1.1c3.7-2.6,7.5-5.2,11-8.1
				c8.7-7.4,17.2-14.9,25.7-22.4c2.4-2.1,4.8-4.3,7.3-6.4c5-4.2,10.3-4.3,15.1-0.4c3.2,2.6,4.4,5.8,3.1,9.7c-1.1,3.1-2.8,6-4.3,9
				c-0.2,0.5-0.6,0.9-0.9,1.3c0.1,0.2,0.2,0.3,0.3,0.5c2.1-0.9,4.4-1.6,6.4-2.8c2.1-1.2,4.1-2.8,5.9-4.5
				c5.4-5.1,10.7-10.3,16.1-15.4c2.6-2.5,5.1-1.7,6.7,1.5c1,2,0.6,3.3-0.8,4.8c-2.5,2.7-4.9,5.6-7.4,8.4c-0.3,0.4-0.6,0.8-0.7,1.5
				c1.3-1,2.6-2.1,3.9-3.1c4.8-3.6,9.5-7.3,14.4-10.6c4.1-2.8,5.7-2,8.6,2c2.6,3.8,2.6,7.3,0.2,11c-8.2,12.6-17.7,23.9-29.9,32.7
				c-1.8,1.3-4,2.4-6.1,3.1c-4.2,1.4-7.8-0.3-9.5-4.4c-0.5-1.3-0.9-2.7-1.3-4.2c-1.6,1.8-3.2,3.4-4.7,5.1
				c-11,12.5-21.6,25.3-30.5,39.4c-1.3,2-3.5,2.2-5.2,0.5c-2.2-2.2-2.8-7.7-0.8-10.1c5.5-6.7,11-13.4,16.6-20
				c7.8-9.3,15.6-18.6,23.4-27.9c0.3-0.4,0.6-0.8,1-1.3c-2.4,0.9-4.6,1.9-6.9,2.5c-1.9,0.5-4,0.5-6,0.8c-0.8,0.1-1.7,0.4-2.2,0.9
				c-5.7,5.5-11.6,10.6-18.5,14.4c-2,1.1-4.2,1.9-6.4,2.6c-2.2,0.8-4.2,0-5.8-1.7c-2.8-3-3.4-4.6-3.7-9.1c-0.5,0.4-0.9,0.7-1.3,1
				c-3.5,2.8-7.1,5.5-10.7,8.3c-0.6,0.5-1.3,0.8-2,1.2c-3.4,1.8-5.1,1.5-7.7-1.2c-3.2-3.5-4.3-7.4-2.1-11.8c1.5-3.1,3.4-6,5.2-9.1
				c-1.7,1.4-3.5,2.5-5,4c-6.2,5.9-12.2,12-18.3,18c-0.3,0.3-0.5,0.6-0.7,0.9c-1,1.5-2.2,1.8-3.5,0.5c-0.7-0.7-1.3-1.6-1.4-2.5
				c-0.5-3.3-0.4-6.6,1.8-9.4c5-6.3,10.1-12.6,15.1-18.9C117.6,80,117.9,79.6,118.4,79z M234.8,72.5c-0.1-0.1-0.3-0.3-0.4-0.4
				c-1.5,1-3.1,1.9-4.5,2.9c-9.3,6.7-17.8,14.5-26.2,22.3c-0.4,0.4-0.6,1.3-0.5,1.8c0.6,2.5,2.2,3.2,4.5,2c1.9-1,3.8-2.3,5.4-3.7
				c7.2-6.1,13.3-13.2,18.9-20.8C233,75.4,233.9,73.9,234.8,72.5z M171.2,80.6c-5.4,5.9-10.9,11.8-14.8,18.9
				c0.2,0.2,0.4,0.4,0.6,0.7c6.8-2.9,12.1-8.1,17.5-12.7C173.4,85.2,172.3,83,171.2,80.6z M188.7,69.9c-4,0-9.3,4.3-9.8,7.9
				c-0.2,1.5,0,3,1.5,4.1C183.8,78.3,187.5,75.1,188.7,69.9z"/>
			<path d="M40.9,121.2c-3.7,0-7.2-0.5-10.6-1.4c-6.1-1.7-11.5-7.1-14.2-14.2c-2.5-6.7-2-13.6,1.5-18.9c5.7-8.6,12.6-14.5,21-18
				c1.6-0.7,3.3-1,4.9-1c2.5,0,4.8,0.8,6.9,2.4c2.5,1.9,3.6,4.1,3.3,6.5c-0.3,2.4-1.9,4.3-4.7,5.5c-4.6,2-8.4,5.2-11.5,9.7
				c-0.5,0.7-0.9,1.5-1.3,2.4c-0.4,1.1-0.5,2.1-0.1,2.8c0.4,0.7,1.3,1,2,1.2c1.4,0.3,2.9,0.4,4.5,0.4c1.1,0,2.2-0.1,3.2-0.2
				c14.8-1.8,28-8.6,39.3-20c1.6-1.6,3.1-3.6,4.4-5.9c0.2-0.4,0.4-0.7,0.5-0.9c-0.2-0.1-0.4-0.2-0.8-0.3c-3.3-1.2-6.8-2.1-10.6-2.9
				l-1.7-0.4c-1.4-0.3-2.9-0.6-4.5-0.8c-1.3-0.2-2.7-0.4-4.1-0.7c-4.7-0.9-8.5-3.8-11.1-8.4c-0.2-0.4-0.5-0.8-0.7-1.3
				c-0.4-0.8-0.9-1.6-1.3-2.1c-3.5-4.6-3.5-10.1,0.1-14.7c2.3-2.9,4.7-5.4,7.3-7.3c8-6.1,17.1-10,25.8-13.3
				c13.7-5.2,26.5-8.7,39.1-10.6c3-0.5,6.4-1,9.8-1c2.6,0,5,0.3,7.3,0.9c6.3,1.6,10,6.5,9.7,12.6c-0.1,2.6-0.5,10.5-8.9,14.2
				c-6.8,3-13.3,4.8-19.8,5.7c-0.6,0.1-1.1,0.1-1.7,0.1c-3.5,0-6.3-1.7-7.9-4.9c-0.5-1-0.8-2-0.9-2.9c-12,3.1-25,8.3-33,12.7
				c4.9,0.9,10.2,2,15.1,4.3c12.6,5.9,17.2,18.4,11.5,31.1c-3.1,6.9-8,12.9-15.4,18.8c-12.7,10.2-27,16.8-42.7,19.7
				C47.3,120.8,44,121.2,40.9,121.2z"/>
			<path d="M70.2,49.5c3.7,0.6,7.4,1.1,11,1.8c4.8,0.8,9.6,1.9,14.1,4c10,4.7,13.5,14.2,9,24.3c-3.1,6.9-8.1,12.2-13.9,16.9
				c-11.9,9.6-25.4,15.9-40.4,18.7c-6.1,1.1-12.3,1.4-18.4-0.3c-8.7-2.4-15.7-16.3-9.7-25.3c4.7-7.2,10.7-12.7,18.7-16
				c2.3-1,4.6-0.9,6.7,0.7c1.8,1.4,1.8,2.2-0.3,3.1c-5.7,2.5-10.2,6.5-13.7,11.5c-0.7,1.1-1.4,2.3-1.8,3.5c-2,5.1,0.3,9.8,5.6,10.9
				c3.1,0.6,6.4,0.7,9.5,0.3c16.7-2.1,30.6-9.6,42.3-21.5c2-2,3.8-4.5,5.2-7c2.5-4.3,1.7-7-2.9-8.7c-4.2-1.6-8.6-2.5-13-3.5
				c-2.9-0.7-5.8-0.9-8.7-1.5c-3.4-0.7-5.9-2.8-7.6-5.8c-0.8-1.3-1.4-2.8-2.3-4c-2.2-2.8-2-5.8,0.1-8.3c1.8-2.3,4-4.6,6.3-6.4
				c7.4-5.6,15.9-9.3,24.5-12.6c12.3-4.7,25-8.4,38-10.4c5-0.8,10-1.5,15.1-0.2c3.8,1,6,3.6,5.8,7.3c-0.2,4.2-1.4,7.8-5.8,9.7
				c-5.9,2.6-12,4.5-18.4,5.3c-1.9,0.3-3.3-0.1-4.2-2c-0.6-1.2-0.5-2,0.7-2.7c2.6-1.5,5.3-3,7.9-4.5c0.5-0.3,1-0.6,1.7-1.2
				C112.1,26.4,75,40.9,70.2,49.5z"/>
		</g>
	</g>
	<g>
		<path class="st7" d="M118.2,78c-0.5-0.2-0.9-0.5-1.3-0.6c-1.8-0.6-2-1-0.6-2.4c1.7-1.8,3.5-3.6,5.4-5.3
			c17.9-15.4,35.3-31.4,52-48.1c1-1,2-1.9,3.1-2.7c0.8-0.6,1.5-0.5,2,0.5c0.4,0.8,1.1,1.4,1.7,2c1.9,2,2.2,3.7,0.7,5.9
			c-1,1.5-2.2,2.9-3.5,4.1c-14.4,13.8-28.9,27.6-43.4,41.4c-3.4,3.3-6.6,6.7-9.9,10.1c-0.4,0.4-0.7,0.8-0.8,1.3
			c3.2-2.5,6.3-5.1,9.6-7.4c6.6-4.8,13.3-9.5,20.1-14.1c2.5-1.7,3.8-1.5,5.4,0.6c0.9,1.2,1.8,2.8,1.8,4.2c0,1.2-1.2,2.5-2.2,3.4
			c-8.8,7.9-17.3,16.1-24.9,25.1c-1,1.1-1.7,2.5-2.5,3.7c0.1,0.2,0.3,0.4,0.4,0.6c0.8-0.4,1.8-0.6,2.5-1.1c3.7-2.6,7.5-5.2,11-8.1
			c8.7-7.4,17.2-14.9,25.7-22.4c2.4-2.1,4.8-4.3,7.3-6.4c5-4.2,10.3-4.3,15.1-0.4c3.2,2.6,4.4,5.8,3.1,9.7c-1.1,3.1-2.8,6-4.3,9
			c-0.2,0.5-0.6,0.9-0.9,1.3c0.1,0.2,0.2,0.3,0.3,0.5c2.1-0.9,4.4-1.6,6.4-2.8c2.1-1.2,4.1-2.8,5.9-4.5c5.4-5.1,10.7-10.3,16.1-15.4
			c2.6-2.5,5.1-1.7,6.7,1.5c1,2,0.6,3.3-0.8,4.8c-2.5,2.7-4.9,5.6-7.4,8.4c-0.3,0.4-0.6,0.8-0.7,1.5c1.3-1,2.6-2.1,3.9-3.1
			c4.8-3.6,9.5-7.3,14.4-10.6c4.1-2.8,5.7-2,8.6,2c2.6,3.8,2.6,7.3,0.2,11c-8.2,12.6-17.7,23.9-29.9,32.7c-1.8,1.3-4,2.4-6.1,3.1
			c-4.2,1.4-7.8-0.3-9.5-4.4c-0.5-1.3-0.9-2.7-1.3-4.2c-1.6,1.8-3.2,3.4-4.7,5.1c-11,12.5-21.6,25.3-30.5,39.4
			c-1.3,2-3.5,2.2-5.2,0.5c-2.2-2.2-2.8-7.7-0.8-10.1c5.5-6.7,11-13.4,16.6-20c7.8-9.3,15.6-18.6,23.4-27.9c0.3-0.4,0.6-0.8,1-1.3
			c-2.4,0.9-4.6,1.9-6.9,2.5c-1.9,0.5-4,0.5-6,0.8c-0.8,0.1-1.7,0.4-2.2,0.9c-5.7,5.5-11.6,10.6-18.5,14.4c-2,1.1-4.2,1.9-6.4,2.6
			c-2.2,0.8-4.2,0-5.8-1.7c-2.8-3-3.4-4.6-3.7-9.1c-0.5,0.4-0.9,0.7-1.3,1c-3.5,2.8-7.1,5.5-10.7,8.3c-0.6,0.5-1.3,0.8-2,1.2
			c-3.4,1.8-5.1,1.5-7.7-1.2c-3.2-3.5-4.3-7.4-2.1-11.8c1.5-3.1,3.4-6,5.2-9.1c-1.7,1.4-3.5,2.5-5,4c-6.2,5.9-12.2,12-18.3,18
			c-0.3,0.3-0.5,0.6-0.7,0.9c-1,1.5-2.2,1.8-3.5,0.5c-0.7-0.7-1.3-1.6-1.4-2.5c-0.5-3.3-0.4-6.6,1.8-9.4c5-6.3,10.1-12.6,15.1-18.9
			C117.5,79,117.8,78.5,118.2,78z M234.7,71.5c-0.1-0.1-0.3-0.3-0.4-0.4c-1.5,1-3.1,1.9-4.5,2.9c-9.3,6.7-17.8,14.5-26.2,22.3
			c-0.4,0.4-0.6,1.3-0.5,1.8c0.6,2.5,2.2,3.2,4.5,2c1.9-1,3.8-2.3,5.4-3.7c7.2-6.1,13.3-13.2,18.9-20.8
			C232.9,74.4,233.7,72.9,234.7,71.5z M171.1,79.6c-5.4,5.9-10.9,11.8-14.8,18.9c0.2,0.2,0.4,0.4,0.6,0.7
			c6.8-2.9,12.1-8.1,17.5-12.7C173.2,84.2,172.2,82,171.1,79.6z M188.6,68.9c-4,0-9.3,4.3-9.8,7.9c-0.2,1.5,0,3,1.5,4.1
			C183.7,77.3,187.4,74.1,188.6,68.9z"/>
		<path class="st7" d="M70.1,48.5c3.7,0.6,7.4,1.1,11,1.8c4.8,0.8,9.6,1.9,14.1,4c10,4.7,13.5,14.2,9,24.3
			c-3.1,6.9-8.1,12.2-13.9,16.9c-11.9,9.6-25.4,15.9-40.4,18.7c-6.1,1.1-12.3,1.4-18.4-0.3c-8.7-2.4-15.7-16.3-9.7-25.3
			c4.7-7.2,10.7-12.7,18.7-16c2.3-1,4.6-0.9,6.7,0.7c1.8,1.4,1.8,2.2-0.3,3.1c-5.7,2.5-10.2,6.5-13.7,11.5c-0.7,1.1-1.4,2.3-1.8,3.5
			c-2,5.1,0.3,9.8,5.6,10.9c3.1,0.6,6.4,0.7,9.5,0.3C63,100.5,77,92.9,88.7,81.1c2-2,3.8-4.5,5.2-7c2.5-4.3,1.7-7-2.9-8.7
			c-4.2-1.6-8.6-2.5-13-3.5c-2.9-0.7-5.8-0.9-8.7-1.5c-3.4-0.7-5.9-2.8-7.6-5.8c-0.8-1.3-1.4-2.8-2.3-4c-2.2-2.8-2-5.8,0.1-8.3
			c1.8-2.3,4-4.6,6.3-6.4c7.4-5.6,15.9-9.3,24.5-12.6c12.3-4.7,25-8.4,38-10.4c5-0.8,10-1.5,15.1-0.2c3.8,1,6,3.6,5.8,7.3
			c-0.2,4.2-1.4,7.8-5.8,9.7c-5.9,2.6-12,4.5-18.4,5.3c-1.9,0.3-3.3-0.1-4.2-2c-0.6-1.2-0.5-2,0.7-2.7c2.6-1.5,5.3-3,7.9-4.5
			c0.5-0.3,1-0.6,1.7-1.2C111.9,25.4,74.8,39.9,70.1,48.5z"/>
	</g>
</g>
<g>
	<path d="M54,219.5c12.1,0,19.5,5.7,19.5,18.8c0,14.4-9.5,26.1-24.1,26.1c-12.1,0-19.5-6.4-19.5-18.8
		C29.9,231.2,39.4,219.5,54,219.5z M49.8,253.7c7.9,0,10.5-9.4,10.5-15.7c0-3.9-1.5-7.8-6.7-7.8c-7.9,0-10.5,9.4-10.5,15.7
		C43.1,249.8,44.6,253.7,49.8,253.7z"/>
	<path d="M81.3,220.5h21.2c7.9,0,13,4.3,13,13.8c0,8.6-7.3,16.1-18.5,16.1h-8.9l-2.7,13h-13L81.3,220.5z M90.3,240.2h5
		c5.3,0,7-2,7-4.9c0-3.3-2.9-3.8-5.7-3.8h-4.5L90.3,240.2z"/>
	<path d="M121.2,220.5h35.4l-2.2,11h-22.2l-1.1,5.3h20.6l-2.1,10.2h-20.6l-1.1,5.3h22.7l-2.3,11h-35.9L121.2,220.5z"/>
	<path d="M160.8,220.5h13.1l8,23.4h0.1l4.8-23.4h12.5l-9,42.8h-13l-7.9-24h-0.1l-5,24h-12.5L160.8,220.5z"/>
	<path class="st0" d="M214,237.8c1.3-11.2,8.5-16.6,18.7-16.6c8.2,0,15.9,3.7,15.9,13.1c0,12.2-13.6,14.7-22.3,18.8v0.1H246
		l-2.2,10.2h-35.5c1.7-12.8,10.4-16,19.4-20.4c6.1-2.9,8.9-4.3,8.9-8.2c0-1.9-1.3-4.2-4.8-4.2c-4.5,0-6.7,3.4-6.7,7.1H214z"/>
	<path class="st0" d="M266.4,255.1h-19.1l2.3-11.2l23.8-22.3h11.9l-4.8,23.3h5.4l-1.9,10.2h-5.5l-1.9,8.3h-11.9L266.4,255.1z
		 M268.8,244.9l2.6-11.9h-0.1l-12,11.9H268.8z"/>
	<path class="st7" d="M308,239.5c0-1.4-0.4-2.3-1.2-2.8c-0.8-0.6-1.9-0.8-3.1-0.8c-1.8,0-4.1,0.5-4.1,2.8c0,2.6,5.1,2.7,8.5,3.9
		c6,2.1,8,5.4,8,9.5c0,8.3-8,12.1-15.5,12.1c-7.9,0-15-3.6-14.5-12.3h10.2c0,1.9,0.4,3,1.3,3.9c0.9,0.8,2.2,0.9,3.9,0.9
		c2.1,0,4.6-1.1,4.6-3.3c0-2.5-3.5-2.8-8.3-4.4c-4.2-1.4-8.2-3.6-8.2-9.3c0-7.7,7.5-11.3,14.4-11.3c7.3,0,13.9,2.7,13.7,11.2H308z"
		/>
	<path class="st7" d="M323,229.1h28.3l-1.8,8.8h-17.8l-0.9,4.3h16.5l-1.7,8.2h-16.5l-0.9,4.3h18.1l-1.8,8.8h-28.7L323,229.1z"/>
	<path class="st7" d="M366.3,263.4h-11.9l-2.9-34.3h10.3l1.6,20.1h0.1l9-20.1h10.9L366.3,263.4z"/>
	<path class="st7" d="M384.1,229.1h28.3l-1.8,8.8h-17.8l-0.9,4.3h16.5l-1.7,8.2h-16.5l-0.9,4.3h18.1l-1.8,8.8h-28.7L384.1,229.1z"/>
	<path class="st7" d="M415.8,229.1h10.5l6.4,18.7h0.1l3.8-18.7h10l-7.2,34.3h-10.4l-6.3-19.2h-0.1l-4,19.2h-10L415.8,229.1z"/>
</g>
</svg>
