<?xml version="1.0" encoding="utf-8"?>
<!-- Generator: Adobe Illustrator 25.2.1, SVG Export Plug-In . SVG Version: 6.00 Build 0)  -->
<svg version="1.1" id="Lager_1" xmlns="http://www.w3.org/2000/svg" xmlns:xlink="http://www.w3.org/1999/xlink" x="0px" y="0px"
	 viewBox="0 0 841.9 595.3" style="enable-background:new 0 0 841.9 595.3;" xml:space="preserve">
<style type="text/css">
	.st0{fill:#F6E5C2;}
	.st1{fill:#E1001E;}
	.st2{clip-path:url(#SVGID_2_);fill:url(#SVGID_3_);}
	.st3{clip-path:url(#SVGID_5_);fill:url(#SVGID_6_);}
	.st4{fill:#070707;}
	.st5{clip-path:url(#SVGID_8_);fill:url(#SVGID_9_);}
	.st6{clip-path:url(#SVGID_11_);fill:url(#SVGID_12_);}
	.st7{fill:#FF8F00;}
</style>
<path d="M700.5,232.4c-3.1-2.7-6.9-3.9-11.6-3.9c-82.4,0-164.8,0-247.2,0c-84.3,0-168.5,0-252.8,0c0,0,0,0,0,0
	c-10.4,0-19.5,7.8-20.7,17.8c-0.5,4.4-1.2,8.8-1.8,13.1c-0.3,1.8-0.5,3.6-0.8,5.5l-1.6,10.9c-0.7,5-1.5,10.1-2.2,15.1
	c-0.6,4.1-1.2,8.3-1.8,12.4c-0.6,4.1-1.2,8.2-1.7,12.2c-0.6,4.1-1.2,8.2-1.8,12.3c-0.6,4.1-1.2,8.2-1.8,12.3
	c-0.6,3.9-1.1,7.9-1.7,11.8c-0.5,3.8-1.1,7.6-1.6,11.5c-0.6,3.9-1.1,7.7-1.7,11.6c-0.5,3.4-1,6.9-1.5,10.3l-0.9,6
	c-0.8,5.7-1.7,11.6-2.5,17.5c-0.8,5.8,1.2,10.9,5.8,14.8c3.1,2.6,6.9,3.9,11.7,3.9c56,0,112.1,0,168.1,0c13.7,0,27.4,0,41.1,0h290.2
	c6.9,0,12.5-2.7,16.8-7.9c2.2-2.7,3.5-5.4,3.9-8.3c0.5-3.3,1-6.7,1.5-9.9c0.2-1.5,0.4-3,0.6-4.5l1.2-8.4c0.9-5.9,1.7-11.8,2.5-17.6
	c0.6-4.1,1.2-8.2,1.8-12.4c0.6-4.1,1.2-8.2,1.8-12.3c0.6-4.3,1.2-8.5,1.8-12.8c0.6-4.4,1.3-8.9,1.9-13.3c0.6-4.1,1.2-8.2,1.8-12.4
	c0.6-4.1,1.2-8.2,1.8-12.3c0.6-4.2,1.2-8.4,1.8-12.6c0.5-3.6,1-7.1,1.5-10.7c0.3-2.2,0.6-4.4,0.9-6.5c0.9-6,1.8-12.3,2.6-18.5
	C707,241.4,705.1,236.3,700.5,232.4z"/>
<g>
	<path class="st0" d="M695.3,224c-3.1-2.7-6.9-3.9-11.6-3.9c-82.4,0-164.8,0-247.2,0c-84.3,0-168.5,0-252.8,0c0,0,0,0,0,0
		c-10.4,0-19.5,7.8-20.7,17.8c-0.5,4.4-1.2,8.8-1.8,13.1c-0.3,1.8-0.5,3.6-0.8,5.5l-1.6,10.9c-0.7,5-1.5,10.1-2.2,15.1
		c-0.6,4.1-1.2,8.3-1.8,12.4c-0.6,4.1-1.2,8.2-1.7,12.2c-0.6,4.1-1.2,8.2-1.8,12.3c-0.6,4.1-1.2,8.2-1.8,12.3
		c-0.6,3.9-1.1,7.9-1.7,11.8c-0.5,3.8-1.1,7.6-1.6,11.5c-0.6,3.9-1.1,7.7-1.7,11.6c-0.5,3.4-1,6.9-1.5,10.3l-0.9,6
		c-0.8,5.7-1.7,11.6-2.5,17.5c-0.8,5.8,1.2,10.9,5.8,14.8c3.1,2.6,6.9,3.9,11.7,3.9c56,0,112.1,0,168.1,0c13.7,0,27.4,0,41.1,0
		h290.2c6.9,0,12.5-2.7,16.8-7.9c2.2-2.7,3.5-5.4,3.9-8.3c0.5-3.3,1-6.7,1.5-9.9c0.2-1.5,0.4-3,0.6-4.5l1.2-8.4
		c0.9-5.9,1.7-11.8,2.5-17.6c0.6-4.1,1.2-8.2,1.8-12.4c0.6-4.1,1.2-8.2,1.8-12.3c0.6-4.3,1.2-8.5,1.8-12.8c0.6-4.4,1.3-8.9,1.9-13.3
		c0.6-4.1,1.2-8.2,1.8-12.4c0.6-4.1,1.2-8.2,1.8-12.3c0.6-4.2,1.2-8.4,1.8-12.6c0.5-3.6,1-7.1,1.5-10.7c0.3-2.2,0.6-4.4,0.9-6.5
		c0.9-6,1.8-12.3,2.6-18.5C701.8,233,699.8,227.9,695.3,224z"/>
	<g>
		<path class="st1" d="M433.7,226.1c83.3,0,166.5,0,249.7,0c1.7,0,3.5,0.3,5.1,0.9c4.1,1.6,6.6,6.1,5.9,10.6c-1.6,11-3.2,22-4.7,33
			c-1.6,11-3.1,22.1-4.7,33.1c-1.4,10.1-2.9,20.2-4.4,30.3c-1.2,8.7-2.5,17.4-3.7,26.1c-1.3,9.2-2.6,18.3-4,27.5
			c-0.6,4.3-1.2,8.5-1.8,12.8c-1,6.5-6.9,11.6-13.5,11.8c-0.3,0-0.6,0-0.9,0c-166.5,0-332.9,0-499.4,0c-1.7,0-3.6-0.3-5.2-0.9
			c-4.1-1.6-6.5-6.1-5.9-10.6c1.7-11.7,3.3-23.4,5-35.1c1.7-12,3.5-23.9,5.2-35.9c1.5-10.6,3-21.1,4.5-31.7
			c1.2-8.7,2.5-17.4,3.8-26.1c1.2-8.7,2.5-17.3,3.7-26c0.5-3.2,0.8-6.4,1.5-9.5c1.5-6,7.2-10.2,13.4-10.3c0.4,0,0.8,0,1.2,0H433.7z"
			/>
		<path d="M657.2,414.5c-0.1,0-0.2,0-0.3,0l-0.2,0h-31.5c-155.9,0-311.9,0-467.9,0c-2.2,0-4.3-0.4-6.1-1.1c-5.1-2-8.2-7.5-7.4-13.3
			l2.1-14.5c1-6.9,2-13.8,3-20.6c0.8-5.9,1.7-11.7,2.5-17.6c0.9-6.1,1.8-12.2,2.6-18.3c0.8-5.4,1.5-10.8,2.3-16.1
			c0.7-5.2,1.5-10.4,2.2-15.5c0.7-4.6,1.3-9.1,2-13.7c0.6-4.1,1.2-8.3,1.8-12.4c0.5-3.7,1.1-7.4,1.6-11.1c0.7-4.9,1.4-9.9,2.1-14.8
			c0.1-0.7,0.2-1.5,0.3-2.2c0.3-2.4,0.7-5,1.3-7.5c1.8-7,8.4-12.1,15.7-12.1c0.3,0,0.6,0,0.9,0l0.4,0h274.4c74.8,0,149.7,0,224.5,0
			c2.1,0,4.2,0.4,6,1.1c5.2,2,8.3,7.5,7.5,13.2c-0.8,5.5-1.6,11-2.4,16.5c-0.8,5.5-1.6,11-2.4,16.4c-0.8,5.4-1.5,10.8-2.3,16.2
			c-0.8,5.6-1.6,11.3-2.4,16.9c-0.7,5.1-1.5,10.3-2.2,15.4c-0.7,5-1.4,9.9-2.1,14.9c-0.6,4.4-1.2,8.7-1.9,13.1
			c-0.6,4.3-1.2,8.7-1.9,13c-0.9,6.1-1.8,12.2-2.6,18.3l-1.3,9.1c-0.2,1.4-0.4,2.7-0.6,4.1c-0.4,2.9-0.8,5.8-1.3,8.7
			c-1.2,7.7-8,13.7-15.9,13.9C657.5,414.5,657.3,414.5,657.2,414.5z M625.2,409.6l31.8,0c0.2,0,0.4,0,0.6,0
			c5.4-0.1,10.3-4.4,11.1-9.7c0.4-2.9,0.9-5.8,1.3-8.6c0.2-1.4,0.4-2.7,0.6-4.1l1.3-9.1c0.9-6.1,1.8-12.2,2.6-18.3
			c0.6-4.3,1.2-8.7,1.9-13c0.6-4.4,1.2-8.7,1.9-13.1c0.7-5,1.4-9.9,2.1-14.9c0.7-5.1,1.5-10.3,2.2-15.4c0.8-5.6,1.6-11.3,2.4-16.9
			c0.8-5.4,1.5-10.8,2.3-16.2c0.8-5.5,1.6-11,2.4-16.4c0.8-5.5,1.6-11,2.4-16.5c0.5-3.4-1.4-6.8-4.4-7.9c-1.2-0.5-2.8-0.7-4.2-0.7
			c-74.8,0-149.7,0-224.5,0l-275.5,0c-5.2,0-9.8,3.6-11,8.4c-0.6,2.2-0.9,4.5-1.2,6.9c-0.1,0.8-0.2,1.5-0.3,2.3
			c-0.7,4.9-1.4,9.9-2.1,14.8c-0.5,3.7-1.1,7.4-1.6,11.2c-0.6,4.1-1.2,8.3-1.8,12.4c-0.7,4.5-1.3,9.1-2,13.6
			c-0.7,5.2-1.5,10.4-2.2,15.5c-0.8,5.4-1.5,10.8-2.3,16.1c-0.9,6.1-1.8,12.2-2.6,18.3c-0.8,5.9-1.7,11.7-2.5,17.6
			c-1,6.9-2,13.7-3,20.6l-2.1,14.5c-0.5,3.4,1.4,6.8,4.3,7.9c1.3,0.5,2.8,0.8,4.3,0.8C313.2,409.6,469.2,409.6,625.2,409.6z"/>
	</g>
	<path class="st0" d="M662.3,399.5c0,1.9-1.5,3.4-3.5,3.4c-1.9,0-3.5-1.5-3.5-3.4c0-1.9,1.6-3.4,3.5-3.4
		C660.8,396.1,662.3,397.5,662.3,399.5 M656.2,399.5c0,1.5,1.1,2.7,2.6,2.7c1.5,0,2.6-1.2,2.6-2.7c0-1.5-1.1-2.7-2.6-2.7
		C657.4,396.7,656.2,398,656.2,399.5 M658.3,401.2h-0.8v-3.4c0.3,0,0.7-0.1,1.3-0.1c0.6,0,0.9,0.1,1.2,0.3c0.2,0.1,0.4,0.4,0.4,0.7
		c0,0.4-0.3,0.7-0.7,0.8v0c0.3,0.1,0.5,0.4,0.6,0.8c0.1,0.5,0.2,0.7,0.2,0.8h-0.8c-0.1-0.1-0.2-0.4-0.3-0.8
		c-0.1-0.4-0.3-0.5-0.7-0.5h-0.4V401.2z M658.3,399.3h0.4c0.4,0,0.8-0.1,0.8-0.5c0-0.3-0.2-0.5-0.7-0.5c-0.2,0-0.4,0-0.4,0V399.3z"
		/>
	<path d="M190,235.1h484.2c0.2,0.1,0.4,0.2,0.6,0.2c5.1,0.8,8.7,4.9,8.4,10c-0.2,4.1-1,8.1-1.6,12.2c-1,6.6-2,13.2-2.9,19.9
		c-1,6.6-1.9,13.2-2.9,19.9c-1,6.7-2,13.4-3,20.1c-0.4,2.4-0.6,4.8-1.4,7.1c-2,5.7-7.4,9.3-13.5,9.3c-160.2,0-320.3,0-480.5,0
		c-0.4,0-0.9,0-1.3,0c-1.7-0.1-3.4-0.6-4.9-1.5c-3.7-2.3-5.2-6.3-4.5-11.2c1.2-8,2.4-16,3.6-24c1.2-8,2.3-16,3.5-24
		c1.2-8.5,2.5-16.9,3.8-25.4c0.9-6.1,4.4-10.1,10.2-12.1C188.4,235.4,189.2,235.3,190,235.1"/>
	<g>
		<path class="st0" d="M186.1,297.8H206c0.4,0,0.8,0.4,1.2,1.1c0.5,1,0.8,1.5,1,1.7c0.8,0.7,2.4,1,4.7,1c1,0,1.9-0.3,2.8-0.8
			c1.2-0.7,1.9-1.7,2.2-3c0.4-1.9-0.6-3-2.8-3.3c-3-0.4-6.1-0.8-9.1-1.1c-4.1-0.7-7.4-1.6-9.8-2.8c-3.3-1.6-5.4-3.9-6.3-6.8
			c-0.6-1.8-0.8-3.4-0.6-4.8c0.1-0.8,0.3-1.8,0.6-3.2c0.8-3.8,1.8-6.9,3.2-9.2c4.9-8.6,14.1-12.9,27.6-12.9c11.4,0,18.1,4,20,12.1
			c0.5,2.5,0.7,4.3,0.4,5.6c-0.1,0.3-0.5,0.7-1.2,1.1h-6.2c-0.3,0-3.6-0.1-9.9-0.4c-1.1,0-1.9-0.1-2.5-0.1c-0.5-0.2-1.3-0.9-2.4-2.2
			c-0.9-1-2.1-1.6-3.8-1.6c-3.3,0-5.1,1.1-5.6,3.4c-0.3,1.6,0.5,2.6,2.5,3.2c5.1,1.2,9.1,1.9,11.9,2.3c4.7,0.9,7.8,1.8,9.3,2.9
			c4.3,3,5.6,8.3,4.1,15.9c-1.5,7.3-4.6,12.5-9.4,15.8c-3.1,2.1-7.6,3.7-13.5,4.7c-3,0.5-5.6,0.8-7.8,0.8c-6.1,0-10.4-0.6-13.1-1.7
			c-4.4-1.8-7.2-5.5-8.4-11.1c-0.5-2-0.6-3.6-0.3-4.8C184.9,298.8,185.3,298.2,186.1,297.8"/>
		<path class="st0" d="M250,255.6c3.6-0.3,5.7-0.5,6.3-0.5h28c1.9,0,5.6,0.2,10.9,0.5l0.4,1l-2.9,14.3h-14c-0.3,0.2-0.7,0.6-1.2,1.2
			c0.2-0.8-1.1,4.8-3.8,16.9c-2.5,11.5-4.4,20.1-5.6,25.9l-0.5,0.9h-14.3c-0.6,0-0.8-0.5-0.7-1.4l8.2-40.4c0.4-1.9,0.3-2.8-0.4-2.8
			c-0.7,0-2.1,0-4.1,0.1c-2,0.1-3.5,0.1-4.5,0.1c-1.6,0-2.9-0.1-3.9-0.2c-1.2-0.1-1.7-0.6-1.6-1.4l2.7-13.2L250,255.6z"/>
		<path class="st0" d="M288,313.9c0.2-1,0.4-1.9,0.5-2.8l0.7-4.1c0.7-4,1.1-6.1,1.2-6.4l1.9-9.1c0.9-4.5,2-9.8,3.4-16l2.9-13.7
			c0.6-2.6,1-4.5,1.2-5.8c0.1-0.4,0.4-0.6,0.9-0.8c2.3-0.3,4-0.4,5.2-0.4c0.5,0,2.2,0,5.1-0.2c2.1-0.1,3.8-0.2,5.2-0.2h21
			c4.1,0,7.1,1.8,9,5.5c2,3.8,2.5,8.7,1.2,14.7c-0.9,4.5-2.3,7.8-4.1,10c-0.8,1.1-3.2,3.1-7,6c-0.5,0.4-0.9,0.9-1.2,1.4
			c0,0.6,0.1,1.2,0.2,1.9l3.9,18.8l-0.5,2.4H322c-0.8-1.7-1.6-4.3-2.4-7.9c-0.6-2.9-1.2-5.7-1.7-8.6c-0.1-0.3-0.2-1.2-0.4-2.6
			c-0.1-1.1-0.3-1.8-0.5-2.3c-0.2-0.5-0.5-0.8-0.8-0.8h-7.2c-0.4,0.4-0.7,0.7-0.8,0.9c-0.3,0.5-0.5,0.8-0.6,1l-4,19.7l-0.6,0.5
			c-3.5,0.3-5.8,0.5-6.8,0.5h-7.6C288.1,315.7,287.9,315.1,288,313.9 M314.1,277.7c1.4,0,3.5-0.1,6.3-0.3c2.8-0.2,4.9-0.3,6.3-0.3
			c0.7,0,1.4-0.3,2-0.9c0.6-0.6,1-1.4,1.3-2.5c0.5-2.4-0.3-3.6-2.4-3.6h-13.7c-0.6,0-1.2,1.2-1.7,3.5c-0.2,0.9-0.3,1.9-0.3,3.1
			C312.3,277.3,313.1,277.7,314.1,277.7"/>
		<path class="st0" d="M343.2,314.7c0.2-0.8,0.4-2,0.7-3.5c0.3-1.6,0.5-2.7,0.7-3.5l2.2-10.8c2.2-10.7,4.1-19.6,5.6-26.7
			c1.6-7.1,2.7-11.8,3.4-14.2c0.2-0.3,0.4-0.5,0.6-0.6c0.8-0.6,4-0.8,9.4-0.8h7c3.5,0,7.6,0.1,12.3,0.2c9.2,0.2,14.2,0.3,15,0.4
			c0.7,0.1,1,0.4,1.1,0.9c0,1-0.2,2.7-0.7,5.3c-0.7,3.5-1.4,6.2-2.1,8.3l-0.4,0.5c-4.6,0.4-8.9,0.5-13.1,0.5h-10.5
			c-3.6,0-5.4,0.1-5.6,0.2c-0.3,0.4-0.6,1.2-0.8,2.3c-0.5,2.3-0.5,3.6-0.2,3.8c0.6,0.5,1.5,0.7,2.7,0.7c9.3,0,16.1,0.2,20.5,0.5
			l0.4,0.9l-0.3,1.3c-1,5.1-1.9,8.9-2.6,11.3c-0.3,0.9-0.7,1.4-1.2,1.4H365c-0.8,0-1.5,1.4-2.1,4.1c-0.4,1.9,0.4,2.9,2.5,3
			c0.5,0.1,4.6,0.1,12.5,0.1c1.8,0,4.4,0.1,7.9,0.2c3.5,0.1,6.1,0.2,7.9,0.2c0.4,0.4,0.4,1,0.3,1.9l-2.2,10.9
			c-0.1,0.4-0.3,0.8-0.6,1.4c-0.3,0.6-0.6,0.9-0.8,0.9h-46.7L343.2,314.7z"/>
		<path class="st0" d="M395.3,314.7c0.2-0.8,0.4-2,0.7-3.5c0.3-1.6,0.5-2.7,0.7-3.5l2.2-10.8c2.2-10.7,4.1-19.6,5.6-26.7
			c1.6-7.1,2.7-11.8,3.4-14.2c0.2-0.3,0.4-0.5,0.6-0.6c0.8-0.6,4-0.8,9.4-0.8h7c3.5,0,7.6,0.1,12.3,0.2c9.2,0.2,14.2,0.3,15,0.4
			c0.7,0.1,1,0.4,1.1,0.9c0,1-0.2,2.7-0.7,5.3c-0.7,3.5-1.4,6.2-2.1,8.3l-0.4,0.5c-4.6,0.4-8.9,0.5-13.1,0.5h-10.5
			c-3.6,0-5.4,0.1-5.6,0.2c-0.3,0.4-0.6,1.2-0.8,2.3c-0.5,2.3-0.5,3.6-0.2,3.8c0.6,0.5,1.5,0.7,2.7,0.7c9.3,0,16.1,0.2,20.5,0.5
			l0.4,0.9l-0.3,1.3c-1,5.1-1.9,8.9-2.6,11.3c-0.3,0.9-0.7,1.4-1.2,1.4h-22.4c-0.8,0-1.5,1.4-2.1,4.1c-0.4,1.9,0.4,2.9,2.5,3
			c0.5,0.1,4.6,0.1,12.5,0.1c1.8,0,4.4,0.1,7.9,0.2c3.5,0.1,6.1,0.2,7.9,0.2c0.4,0.4,0.4,1,0.3,1.9l-2.2,10.9
			c-0.1,0.4-0.3,0.8-0.6,1.4c-0.3,0.6-0.6,0.9-0.8,0.9h-46.7L395.3,314.7z"/>
		<path class="st0" d="M460.2,255.6c3.6-0.3,5.7-0.5,6.3-0.5h28c1.9,0,5.6,0.2,10.9,0.5l0.4,1l-2.9,14.3h-14
			c-0.3,0.2-0.7,0.6-1.2,1.2c0.2-0.8-1.1,4.8-3.8,16.9c-2.5,11.5-4.4,20.1-5.6,25.9l-0.5,0.9h-14.3c-0.6,0-0.8-0.5-0.7-1.4l8.2-40.4
			c0.4-1.9,0.3-2.8-0.4-2.8c-0.7,0-2.1,0-4.1,0.1c-2,0.1-3.5,0.1-4.5,0.1c-1.6,0-2.9-0.1-3.9-0.2c-1.2-0.1-1.7-0.6-1.6-1.4l2.7-13.2
			L460.2,255.6z"/>
		<path class="st0" d="M509.3,271.6h9.6c0.2,0,0.4,0.2,0.5,0.7l0.4,18.3c0,0,0.1,0,0.1,0c0.3,0,0.6-0.3,0.8-1l7.6-17.8
			c0.2-0.4,0.5-0.6,1.1-0.6c0.9,0,2.2,0.1,4,0.2c1.7,0.1,3.1,0.2,4,0.2c0.2,0,0.4,0.2,0.4,0.6c0.4,5.3,0.6,9.3,0.7,12.1
			c0.2,3.1,0.3,4.9,0.4,5.3c0.1,0.5,0.2,0.8,0.4,0.8h0.1l0.6-1.3l6.9-16.8c0.1-0.3,0.2-0.6,0.3-0.7c0.2-0.2,1.3-0.4,3.4-0.4h3.7
			c2,0,3,0.2,3.1,0.6l-0.1,0.4c0,0.2-0.1,0.3-0.1,0.3l-9.1,22.1c-0.6,1.3-1,2.2-1.3,2.8l-5.5,13c-0.4,1-0.9,1.6-1.3,1.6h-9.6
			c-0.2,0-0.4-0.6-0.4-1.9l-0.6-13.3c0.1-0.1,0.1-0.2,0.1-0.4c0.1-0.4,0.1-0.9-0.1-1.4c-0.1-0.5-0.3-0.8-0.6-0.8s-0.5,0.3-0.8,1
			l-6.9,16.1l-0.9,0.7c-5.7,0.2-8.5,0.3-8.5,0.3c-0.9,0-1.3-0.5-1.4-1.6l-1.3-37.3L509.3,271.6z"/>
		<path class="st0" d="M553.4,311.8c0.1-0.5,0.3-1.3,0.5-2.4c0.2-1,0.3-1.8,0.4-2.4l1.4-7.2c1.4-7.2,2.6-13.2,3.6-18
			c1-4.8,1.7-8,2.2-9.6c0.1-0.2,0.3-0.3,0.4-0.4c0.5-0.4,2.6-0.6,6-0.6h4.5c2.3,0,4.9,0,7.9,0.1c5.9,0.1,9.1,0.2,9.6,0.3
			c0.4,0,0.7,0.2,0.7,0.6c0,0.6-0.1,1.8-0.5,3.5c-0.5,2.3-0.9,4.2-1.3,5.6l-0.3,0.4c-2.9,0.2-5.7,0.4-8.4,0.4h-6.7
			c-2.3,0-3.5,0.1-3.6,0.2c-0.2,0.3-0.4,0.8-0.5,1.5c-0.3,1.6-0.3,2.4-0.1,2.6c0.4,0.3,0.9,0.5,1.7,0.5c6,0,10.3,0.1,13.1,0.3
			l0.3,0.6l-0.2,0.9c-0.7,3.5-1.2,6-1.7,7.6c-0.2,0.6-0.4,1-0.8,1h-14.4c-0.5,0-1,0.9-1.3,2.8c-0.2,1.3,0.3,1.9,1.6,2
			c0.3,0,3,0.1,8,0.1c1.1,0,2.8,0,5,0.1c2.2,0.1,3.9,0.1,5,0.1c0.2,0.2,0.3,0.7,0.2,1.3l-1.4,7.3c0,0.2-0.2,0.6-0.4,1
			c-0.2,0.4-0.4,0.6-0.5,0.6h-29.9L553.4,311.8z"/>
		<path class="st0" d="M588.1,311.8c0.1-0.5,0.3-1.3,0.5-2.4c0.2-1,0.3-1.8,0.4-2.4l1.4-7.2c1.4-7.2,2.6-13.2,3.6-18
			c1-4.8,1.7-8,2.2-9.6c0.1-0.2,0.3-0.3,0.4-0.4c0.5-0.4,2.6-0.6,6-0.6h4.5c2.3,0,4.9,0,7.9,0.1c5.9,0.1,9.1,0.2,9.6,0.3
			c0.4,0,0.7,0.2,0.7,0.6c0,0.6-0.1,1.8-0.5,3.5c-0.5,2.3-0.9,4.2-1.3,5.6l-0.3,0.4c-2.9,0.2-5.7,0.4-8.4,0.4h-6.7
			c-2.3,0-3.5,0.1-3.6,0.2c-0.2,0.3-0.4,0.8-0.5,1.5c-0.3,1.6-0.3,2.4-0.1,2.6c0.4,0.3,0.9,0.5,1.7,0.5c6,0,10.3,0.1,13.1,0.3
			l0.3,0.6l-0.2,0.9c-0.7,3.5-1.2,6-1.7,7.6c-0.2,0.6-0.4,1-0.8,1h-14.4c-0.5,0-1,0.9-1.3,2.8c-0.2,1.3,0.3,1.9,1.6,2
			c0.3,0,3,0.1,8,0.1c1.1,0,2.8,0,5,0.1c2.2,0.1,3.9,0.1,5,0.1c0.2,0.2,0.3,0.7,0.2,1.3l-1.4,7.3c0,0.2-0.2,0.6-0.4,1
			c-0.2,0.4-0.4,0.6-0.5,0.6h-29.9L588.1,311.8z"/>
		<path class="st0" d="M626.8,292.2c1.2-5.6,2-9.8,2.6-12.6c0-0.1,0.1-0.6,0.2-1.4c0.1-0.8,0.3-1.5,0.4-2.1c0.6-3,1.2-4.5,1.7-4.5h9
			l0.3,0.6l-2,12.7c0,0,0,0.1,0.1,0.1c0.3-0.1,0.4-0.2,0.5-0.4l10.5-11.7c0.8-0.8,1.3-1.3,1.6-1.3h12.4l0.1,0.1l0,0.2
			c0,0.2-0.2,0.5-0.4,0.7c-1.5,1.7-2.6,2.9-3.3,3.6c-4.5,4.9-7.4,8.1-8.6,9.6c-0.3,1.4-0.1,3.1,0.6,5.4c0.1,0.7,0.2,1.2,0.3,1.6
			l4.3,18c0,0.2,0,0.3,0,0.4c-0.1,0.6-0.3,0.9-0.4,0.9h-11.5l-0.4-0.3c-1.1-3.9-2-7.5-2.7-10.8c0-0.1-0.1-0.8-0.3-2
			c-0.1-0.8-0.3-1.4-0.5-1.8c-0.2-0.4-0.4-0.6-0.6-0.6c-0.4,0-1.1,0.5-2,1.5c-0.6,0.8-1.2,1.5-1.9,2.3c-0.7,0.8-1.2,1.4-1.3,1.6
			c-1,5.2-1.7,8.3-2.2,9.4c-0.2,0.5-0.5,0.7-0.9,0.7h-8.8l-0.3-0.7c0.2-1.8,0.6-4,1.1-6.6C624.7,302,625.6,297.8,626.8,292.2"/>
	</g>
	<g>
		<g>
			<defs>
				<path id="SVGID_1_" d="M629.3,338.3c11.6-0.7,17.4,3.7,22.1,8.2c4.7,4.5,9.6,12.8,18.5,16.8c0.5-16.1,6.6-25.8,10-30.8
					c-10.3-2.3-13.8-11-15.4-13.9c-1.6-2.9-4.7-11.4-16.6-12.6C643.7,315.1,634.4,331.8,629.3,338.3"/>
			</defs>
			<clipPath id="SVGID_2_">
				<use xlink:href="#SVGID_1_"  style="overflow:visible;"/>
			</clipPath>
			
				<linearGradient id="SVGID_3_" gradientUnits="userSpaceOnUse" x1="-643.4509" y1="1692.9954" x2="-643.0199" y2="1692.9954" gradientTransform="matrix(-81.7613 -34.4954 34.4954 -81.7613 -110337.2422 116567.5859)">
				<stop  offset="0" style="stop-color:#FFFFFF"/>
				<stop  offset="0.1161" style="stop-color:#FAFAF9"/>
				<stop  offset="0.2522" style="stop-color:#EBEAEA"/>
				<stop  offset="0.3866" style="stop-color:#D4D4D4"/>
				<stop  offset="0.5533" style="stop-color:#EDEDEC"/>
				<stop  offset="0.7042" style="stop-color:#FFFFFF"/>
				<stop  offset="0.7797" style="stop-color:#FBFBFB"/>
				<stop  offset="0.8426" style="stop-color:#EFEEED"/>
				<stop  offset="0.901" style="stop-color:#DBDAD8"/>
				<stop  offset="0.9563" style="stop-color:#C1C0BE"/>
				<stop  offset="1" style="stop-color:#A6A6A6"/>
			</linearGradient>
			<polygon class="st2" points="700.5,314.6 636.9,287.8 608.8,354.6 672.3,381.4 			"/>
		</g>
		<g>
			<defs>
				<path id="SVGID_4_" d="M647.8,304.6l-39,67.7c-0.2,0.4-0.1,0.8,0.3,1c0.1,0.1,0.2,0.1,0.4,0.1c0.3,0,0.5-0.1,0.7-0.4l39-67.7
					c0.2-0.4,0.1-0.8-0.3-1c-0.1-0.1-0.3-0.1-0.4-0.1C648.2,304.2,648,304.4,647.8,304.6"/>
			</defs>
			<clipPath id="SVGID_5_">
				<use xlink:href="#SVGID_4_"  style="overflow:visible;"/>
			</clipPath>
			
				<linearGradient id="SVGID_6_" gradientUnits="userSpaceOnUse" x1="-609.2091" y1="1549.1445" x2="-608.778" y2="1549.1445" gradientTransform="matrix(-2.5321 -1.5413 1.5413 -2.5321 -3300.0376 3323.2375)">
				<stop  offset="0" style="stop-color:#747474"/>
				<stop  offset="1" style="stop-color:#000000"/>
			</linearGradient>
			<polygon class="st3" points="680.1,323 619.6,286.1 577.8,354.8 638.3,391.6 			"/>
		</g>
		<path class="st4" d="M664.2,329.9c0.5-1.4,1-2.8,1.5-4.2c1,1.4,2,2.7,3,3.8c-0.5,1.3-1,2.7-1.5,4
			C666.3,332.4,665.2,331.3,664.2,329.9"/>
		<path class="st4" d="M658.3,322.9c0.6-1.6,1.3-3.3,1.9-4.9c1,1.1,2,2.3,2.9,3.8c-0.6,1.5-1.1,3.1-1.7,4.6
			C660.4,325,659.4,323.9,658.3,322.9"/>
		<path class="st4" d="M665.4,338.1c0.5-1.4,1.1-3,1.8-4.6c1.3,1.4,2.5,2.5,3.8,3.4c-0.5,1.1-0.9,2.2-1.4,3.4
			c-0.2,0.4-0.3,0.8-0.5,1.3C667.9,340.6,666.7,339.5,665.4,338.1"/>
		<path class="st4" d="M657.7,336.7c1,1.1,1.9,2.2,2.7,3.1c-0.8,2-1.6,3.9-2.5,5.5c-0.9-1-1.8-2-2.7-3.1c-0.2-0.2-0.3-0.4-0.5-0.5
			c1-1.5,1.9-3.3,2.8-5.2C657.6,336.5,657.7,336.6,657.7,336.7"/>
		<path class="st4" d="M653.9,333c-1.1,2.2-2.1,3.9-2.9,5.2c-1.5-1.1-3-2-4.5-2.8c0.9-1.4,1.9-3.1,3.1-5.2
			C651,330.9,652.5,331.9,653.9,333"/>
		<path class="st4" d="M667.4,346.7c-0.6,2-1.3,4-1.9,6c-1.2-1-2.6-2.2-4-3.7c0.7-1.9,1.4-3.9,2.1-5.9
			C665,344.5,666.2,345.7,667.4,346.7"/>
		<path class="st4" d="M659.9,331.3c-0.1-0.1-0.1-0.2-0.2-0.3c0.5-1.4,1.1-3,1.7-4.7c0,0,0,0,0,0c1,1.3,1.9,2.4,2.7,3.5
			c-0.6,1.6-1.2,3.2-1.7,4.7C661.6,333.6,660.8,332.5,659.9,331.3"/>
		<path class="st4" d="M649.2,317.5c0.8-1.6,1.6-3.4,2.5-5.1c1.6,0.6,3.3,1.4,5,2.5c-0.7,1.7-1.5,3.4-2.2,5
			C652.7,318.8,650.9,318,649.2,317.5"/>
		<path class="st4" d="M652.3,324.8c0.5-1.1,1.3-2.9,2.2-4.9c1.3,0.8,2.5,1.8,3.8,3c-0.7,1.9-1.4,3.5-1.9,4.8
			C655.1,326.5,653.7,325.6,652.3,324.8"/>
		<path class="st4" d="M662.4,334.6c1.1,1.3,2.1,2.5,3,3.5c-0.2,0.5-0.4,1-0.6,1.5c-0.4,1.1-0.9,2.3-1.3,3.5c-1-1-2-2.1-3.1-3.3
			c0.2-0.4,0.3-0.9,0.5-1.3C661.4,337.4,661.9,336.1,662.4,334.6"/>
		<path class="st4" d="M651.9,325.6c-0.9,1.7-1.6,3.3-2.4,4.6c-2-1-4-1.8-5.9-2.3c1.3-2.2,2.3-4.1,3-5.3c1.8,0.5,3.7,1.2,5.6,2.2
			C652.2,325.1,652,325.4,651.9,325.6"/>
		<path class="st4" d="M656.4,327.7c1.1,1,2.2,2.1,3.2,3.4c-0.4,1-0.7,2-1,2.7c-0.4,0.9-0.7,1.8-1.1,2.7c-1.2-1.3-2.4-2.5-3.6-3.5
			c0.6-1.1,1.1-2.2,1.8-3.5C655.9,329.1,656.1,328.5,656.4,327.7"/>
		<path class="st4" d="M670.6,356.1c-0.3,2.2-0.6,4.6-0.6,7.1c-2.4-1-4.4-2.4-6.3-3.9c0.6-2.2,1.2-4.4,1.9-6.6
			C667.4,354.3,669.1,355.4,670.6,356.1"/>
		<path class="st4" d="M669.2,341.5c1.4,1,2.8,1.9,4.5,2.6c-0.7,1.8-1.3,3.7-1.9,5.8c-1.3-0.8-2.8-1.8-4.4-3.2
			C668,344.9,668.6,343.2,669.2,341.5"/>
		<path class="st4" d="M640.5,333.3c-2.9-0.7-5.4-0.9-7.1-1c1.1-1.7,2.2-3.5,3.4-5.5c1.8,0.1,4.2,0.4,6.9,1.1
			C642.7,329.6,641.6,331.5,640.5,333.3"/>
		<path class="st4" d="M654.8,341.7c-1.2,1.9-2.4,3.5-3.5,4.7c-1.2-1.2-2.5-2.3-3.9-3.4c1.1-1.2,2.2-2.6,3.6-4.8
			C652.3,339.2,653.6,340.3,654.8,341.7"/>
		<path class="st4" d="M646.5,335.4c-1.5,2.3-2.7,3.7-3.8,4.9c-1.7-0.7-3.6-1.3-5.7-1.7c1-1.2,2.3-3.2,3.6-5.3
			C642.4,333.7,644.4,334.4,646.5,335.4"/>
		<path class="st4" d="M672.8,333c1.6,1.1,3.3,1.9,5.1,2.6c-0.7,1.1-1.4,2.4-2.1,3.8c-1.8-0.7-3.3-1.5-4.8-2.6
			C671.6,335.5,672.2,334.2,672.8,333"/>
		<path class="st4" d="M661.5,349c-0.8,2.3-1.7,4.3-2.6,5.9c-1.4-1.5-2.7-3-3.9-4.5c1-1.4,2-3.1,3-5
			C659.2,346.7,660.4,347.9,661.5,349"/>
		<path class="st4" d="M645.3,311.2c1-1.9,1.8-3.7,2.6-5.3c2.3,0.2,4.3,0.7,6.1,1.4c-0.6,1.4-1.4,3.2-2.2,5
			C649.3,311.6,647.1,311.3,645.3,311.2"/>
		<path class="st4" d="M647.2,321.7c-0.1,0.2-0.3,0.5-0.5,0.9c-2.6-0.7-5-1-6.8-1.1c0.9-1.7,1.8-3.3,2.7-5c1.9,0.1,4.2,0.3,6.6,1
			C648.3,319.3,647.6,320.9,647.2,321.7"/>
		<path class="st4" d="M668.7,329.5c0.4-1,0.8-1.9,1.1-2.9c1.2,1.3,2.6,2.5,4.3,3.5c-0.5,0.9-0.9,1.8-1.4,2.8
			C671.4,332,670.1,330.9,668.7,329.5"/>
		<path class="st4" d="M663.7,322.7c-0.2-0.3-0.4-0.6-0.6-0.9c0.4-1.2,0.9-2.4,1.3-3.5c0,0.1,0.1,0.2,0.1,0.2
			c0.5,0.9,1.2,2.5,2.3,4.2c-0.4,1-0.8,2-1.2,3.1C665,324.8,664.4,323.8,663.7,322.7"/>
		<path class="st4" d="M656.7,314.9c0.7-1.7,1.4-3.4,2-4.7c1.3,1.1,2.4,2.4,3.2,3.6c-0.5,1.3-1.1,2.7-1.6,4.2
			C659.1,316.7,657.9,315.7,656.7,314.9"/>
		<g>
			<defs>
				<path id="SVGID_7_" d="M598,333.5c-1.6,2.9-5.1,11.6-15.4,13.9c3.4,5,9.5,14.7,10,30.8c9-4,13.9-12.3,18.5-16.8
					c4.7-4.5,10.4-8.9,22.1-8.2c-5.1-6.4-14.4-23.2-18.6-32.4C602.7,322.1,599.6,330.6,598,333.5"/>
			</defs>
			<clipPath id="SVGID_8_">
				<use xlink:href="#SVGID_7_"  style="overflow:visible;"/>
			</clipPath>
			
				<linearGradient id="SVGID_9_" gradientUnits="userSpaceOnUse" x1="-650.0859" y1="1696.0376" x2="-649.6548" y2="1696.0376" gradientTransform="matrix(81.7613 -34.4954 -34.4954 -81.7613 112247.1875 116602.5156)">
				<stop  offset="0" style="stop-color:#FFFFFF"/>
				<stop  offset="0.1161" style="stop-color:#FAFAF9"/>
				<stop  offset="0.2522" style="stop-color:#EBEAEA"/>
				<stop  offset="0.3866" style="stop-color:#D4D4D4"/>
				<stop  offset="0.5533" style="stop-color:#EDEDEC"/>
				<stop  offset="0.7042" style="stop-color:#FFFFFF"/>
				<stop  offset="0.7797" style="stop-color:#FBFBFB"/>
				<stop  offset="0.8426" style="stop-color:#EFEEED"/>
				<stop  offset="0.901" style="stop-color:#DBDAD8"/>
				<stop  offset="0.9563" style="stop-color:#C1C0BE"/>
				<stop  offset="1" style="stop-color:#A6A6A6"/>
			</linearGradient>
			<polygon class="st5" points="562,329.6 625.6,302.8 653.8,369.6 590.2,396.4 			"/>
		</g>
		<g>
			<defs>
				<path id="SVGID_10_" d="M613.7,319.4c-0.4,0.2-0.5,0.7-0.3,1l39,67.7c0.1,0.2,0.4,0.4,0.7,0.4c0.1,0,0.3,0,0.4-0.1
					c0.4-0.2,0.5-0.7,0.3-1l-39-67.7c-0.1-0.2-0.4-0.4-0.7-0.4C613.9,319.3,613.8,319.3,613.7,319.4"/>
			</defs>
			<clipPath id="SVGID_11_">
				<use xlink:href="#SVGID_10_"  style="overflow:visible;"/>
			</clipPath>
			
				<linearGradient id="SVGID_12_" gradientUnits="userSpaceOnUse" x1="-792.291" y1="1668.4347" x2="-791.8598" y2="1668.4347" gradientTransform="matrix(2.5321 -1.5413 -1.5413 -2.5321 5210.001 3358.1672)">
				<stop  offset="0" style="stop-color:#747474"/>
				<stop  offset="1" style="stop-color:#000000"/>
			</linearGradient>
			<polygon class="st6" points="582.4,338 642.9,301.2 684.7,369.8 624.2,406.6 			"/>
		</g>
		<path class="st4" d="M598.4,345c-0.5-1.4-1-2.8-1.5-4.2c-1,1.4-2,2.7-3,3.8c0.5,1.3,1,2.7,1.5,4
			C596.3,347.5,597.3,346.3,598.4,345"/>
		<path class="st4" d="M604.2,337.9c-0.6-1.6-1.3-3.3-1.9-4.9c-1,1.1-2,2.3-2.9,3.8c0.6,1.5,1.1,3.1,1.7,4.6
			C602.1,340.1,603.2,338.9,604.2,337.9"/>
		<path class="st4" d="M597.1,353.2c-0.5-1.4-1.1-3-1.8-4.6c-1.3,1.4-2.5,2.5-3.8,3.4c0.5,1.1,0.9,2.2,1.4,3.4
			c0.2,0.4,0.3,0.8,0.5,1.3C594.6,355.6,595.8,354.5,597.1,353.2"/>
		<path class="st4" d="M604.8,351.7c-1,1.1-1.9,2.2-2.7,3.1c0.8,2,1.6,3.9,2.5,5.5c0.9-1,1.8-2,2.7-3.1c0.2-0.2,0.3-0.4,0.5-0.5
			c-1-1.5-1.9-3.3-2.8-5.2C604.9,351.6,604.8,351.7,604.8,351.7"/>
		<path class="st4" d="M608.6,348c1.1,2.2,2.1,3.9,2.9,5.2c1.5-1.1,3-2,4.5-2.8c-0.9-1.4-1.9-3.1-3.1-5.2
			C611.5,346,610,346.9,608.6,348"/>
		<path class="st4" d="M595.1,361.7c0.6,2,1.3,4,1.9,6c1.2-1,2.6-2.2,4-3.7c-0.7-1.9-1.4-3.9-2.1-5.9
			C597.6,359.6,596.3,360.7,595.1,361.7"/>
		<path class="st4" d="M602.6,346.4c0.1-0.1,0.1-0.2,0.2-0.3c-0.5-1.4-1.1-3-1.7-4.7c0,0,0,0,0,0c-1,1.3-1.9,2.4-2.7,3.5
			c0.6,1.6,1.2,3.2,1.7,4.7C600.9,348.6,601.7,347.6,602.6,346.4"/>
		<path class="st4" d="M613.3,332.6c-0.8-1.6-1.6-3.4-2.5-5.1c-1.6,0.6-3.3,1.4-5,2.5c0.7,1.7,1.5,3.4,2.2,5
			C609.8,333.8,611.6,333.1,613.3,332.6"/>
		<path class="st4" d="M610.2,339.9c-0.5-1.1-1.3-2.9-2.2-4.9c-1.3,0.8-2.5,1.8-3.8,3c0.7,1.9,1.4,3.5,1.9,4.8
			C607.4,341.6,608.8,340.7,610.2,339.9"/>
		<path class="st4" d="M600.1,349.6c-1.1,1.3-2,2.5-3,3.5c0.2,0.5,0.4,1,0.6,1.5c0.4,1.1,0.9,2.3,1.3,3.5c1-1,2-2.1,3.1-3.3
			c-0.2-0.4-0.4-0.9-0.5-1.3C601.1,352.5,600.6,351.1,600.1,349.6"/>
		<path class="st4" d="M610.6,340.6c0.9,1.7,1.6,3.3,2.4,4.6c2-1,4-1.8,5.9-2.3c-1.3-2.2-2.3-4.1-3-5.3c-1.8,0.5-3.7,1.2-5.6,2.2
			C610.4,340.2,610.5,340.4,610.6,340.6"/>
		<path class="st4" d="M606.1,342.7c-1.1,1-2.2,2.1-3.2,3.4c0.4,1,0.7,2,1,2.7c0.4,0.9,0.7,1.8,1.1,2.7c1.2-1.3,2.4-2.5,3.6-3.5
			c-0.6-1.1-1.1-2.2-1.8-3.5C606.7,344.1,606.4,343.5,606.1,342.7"/>
		<path class="st4" d="M592,371.2c0.3,2.2,0.6,4.6,0.6,7.1c2.4-1,4.4-2.4,6.3-3.9c-0.6-2.2-1.2-4.4-1.9-6.6
			C595.1,369.3,593.4,370.4,592,371.2"/>
		<path class="st4" d="M593.3,356.6c-1.4,1-2.8,1.9-4.5,2.6c0.7,1.8,1.3,3.7,1.9,5.8c1.3-0.8,2.8-1.8,4.4-3.2
			C594.5,359.9,593.9,358.2,593.3,356.6"/>
		<path class="st4" d="M622,348.3c2.9-0.7,5.4-0.9,7.1-1c-1.1-1.7-2.2-3.5-3.4-5.5c-1.8,0.1-4.2,0.4-6.9,1.1
			C619.8,344.7,620.9,346.6,622,348.3"/>
		<path class="st4" d="M607.8,356.7c1.2,1.9,2.4,3.5,3.5,4.7c1.2-1.2,2.5-2.3,3.9-3.4c-1.1-1.2-2.2-2.6-3.6-4.8
			C610.2,354.2,609,355.4,607.8,356.7"/>
		<path class="st4" d="M616,350.5c1.5,2.3,2.7,3.7,3.8,4.9c1.7-0.7,3.6-1.3,5.7-1.7c-1-1.2-2.3-3.2-3.6-5.3
			C620.1,348.8,618.1,349.5,616,350.5"/>
		<path class="st4" d="M589.7,348c-1.6,1.1-3.3,1.9-5.1,2.6c0.7,1.1,1.4,2.4,2.1,3.8c1.8-0.7,3.3-1.5,4.8-2.6
			C590.9,350.6,590.3,349.3,589.7,348"/>
		<path class="st4" d="M601.1,364.1c0.8,2.3,1.7,4.3,2.6,5.9c1.4-1.5,2.7-3,3.9-4.5c-1-1.4-2-3.1-3-5
			C603.3,361.8,602.2,363,601.1,364.1"/>
		<path class="st4" d="M617.2,326.3c-1-1.9-1.8-3.7-2.6-5.3c-2.3,0.2-4.3,0.8-6.1,1.4c0.6,1.4,1.4,3.2,2.2,5
			C613.2,326.6,615.4,326.4,617.2,326.3"/>
		<path class="st4" d="M615.3,336.7c0.1,0.2,0.3,0.5,0.5,0.9c2.6-0.7,5-1,6.8-1.1c-0.9-1.7-1.8-3.3-2.7-5c-1.9,0.1-4.2,0.3-6.6,1
			C614.2,334.4,614.9,335.9,615.3,336.7"/>
		<path class="st4" d="M593.8,344.6c-0.4-1-0.8-1.9-1.1-2.9c-1.2,1.3-2.6,2.5-4.3,3.5c0.5,0.9,0.9,1.8,1.4,2.8
			C591.1,347.1,592.5,346,593.8,344.6"/>
		<path class="st4" d="M598.8,337.7c0.2-0.3,0.4-0.6,0.6-0.9c-0.4-1.2-0.9-2.4-1.3-3.5c0,0.1-0.1,0.2-0.1,0.2
			c-0.5,0.9-1.2,2.5-2.3,4.2c0.4,1,0.8,2,1.2,3.1C597.5,339.9,598.1,338.8,598.8,337.7"/>
		<path class="st4" d="M605.8,330c-0.7-1.7-1.4-3.4-2-4.7c-1.3,1.1-2.4,2.4-3.2,3.6c0.5,1.3,1.1,2.7,1.6,4.2
			C603.5,331.8,604.6,330.8,605.8,330"/>
	</g>
</g>
<g>
	<g>
		<path d="M297.1,291.9c-2.3,0-4.5-1-6.2-2.7c-4.2-4.2-4.7-12.6-1.2-17c5.2-6.4,10.6-12.9,15.9-19.1l0.8-0.9
			c3.1-3.7,6.3-7.5,9.4-11.2c-3.6,3-7.7,6-12.2,8.5c-2.4,1.3-4.9,2.2-7.2,3c-1.1,0.4-2.3,0.6-3.4,0.6c-2,0-5.1-0.6-7.9-3.7
			c-1.2-1.3-2.2-2.5-2.9-3.7c-1.9,1.5-3.9,3-5.8,4.5c-0.9,0.7-1.8,1.1-2.5,1.5l-0.2,0.1c-2.3,1.2-4.1,1.8-6,1.8c-3.8,0-6.3-2.3-8-4
			c-2.1-2.3-3.5-4.7-4.2-7.3c-1.5,1.5-8.6,8.5-8.6,8.5c-1.5,2.3-3.8,3.7-6.2,3.7c-1.3,0-3.3-0.4-5.3-2.3c-0.9-0.9-2.5-2.8-2.9-5.4
			c-0.3-2-1.3-8.2,2.9-13.4c3.7-4.6,12.9-16.1,12.9-16.1c-0.2-0.4-0.3-0.8-0.5-1.2c-0.8-3.2,1.4-5.5,2.1-6.2c2.2-2.3,4-4.1,5.8-5.6
			c19.1-16.4,36-32.1,51.7-47.8c1.1-1.1,2.3-2.1,3.7-3.2c1.6-1.2,3-1.4,4-1.4c2.3,0,4.4,1.3,5.6,3.6c0.1,0.1,0.3,0.4,0.5,0.5
			l0.4,0.4c4.8,5.1,2.9,9.9,1.3,12.3c-1.1,1.7-2.5,3.4-4.3,5.1c-6.6,6.3-13.2,12.6-19.8,18.9c-1,1-2,1.9-3,2.9
			c1.6,0.6,3,1.7,4.2,3.3c1.1,1.5,2.4,3.6,2.8,6c0.5-0.4,1-0.9,1.5-1.3c0.8-0.7,1.6-1.4,2.4-2.1c1.6-1.4,3.3-2.9,5-4.3
			c3.5-3,7.3-4.5,11.2-4.5c3.7,0,7.2,1.3,10.5,4c3.9,3.2,5.8,7.3,5.5,11.7c3-2.8,6-5.7,8.9-8.5c1.8-1.7,3.5-3.4,5.3-5.1
			c2.5-2.4,5-2.9,6.6-2.9c3.4,0,6.5,2.1,8.3,5.8c0,0.1,0.1,0.2,0.1,0.3c0.6-0.4,1.2-0.8,1.8-1.3c1.7-1.2,4.1-2.6,6.9-2.6
			c4.7,0,7.4,3.9,8.9,5.9c3.8,5.4,3.9,11.2,0.3,16.7c-9.5,14.6-19.7,25.7-31.2,34.1c-2.1,1.6-4.7,2.9-7.5,3.8
			c-1.5,0.5-3,0.8-4.5,0.8c-3.9,0-7.3-1.8-9.6-4.9c-9.4,10.6-20.1,23.4-29.2,37.8C302.6,290.4,300,291.9,297.1,291.9z"/>
		<path d="M178.3,258.3c-3.7,0-7.2-0.5-10.6-1.4c-6.1-1.7-11.5-7.1-14.2-14.2c-2.5-6.7-2-13.6,1.5-18.9c5.7-8.6,12.6-14.5,21-18
			c1.6-0.7,3.3-1,4.9-1c2.5,0,4.8,0.8,6.9,2.4c2.5,1.9,3.6,4.1,3.3,6.5c-0.3,2.4-1.9,4.3-4.7,5.5c-4.6,2-8.4,5.2-11.5,9.7
			c-0.5,0.7-0.9,1.5-1.3,2.4c-0.4,1.1-0.5,2.1-0.1,2.8c0.4,0.7,1.3,1,2,1.2c1.4,0.3,2.9,0.4,4.5,0.4c1.1,0,2.2-0.1,3.2-0.2
			c14.8-1.8,28-8.6,39.3-20c1.6-1.6,3.1-3.6,4.4-5.9c0.2-0.4,0.4-0.7,0.5-0.9c-0.2-0.1-0.4-0.2-0.8-0.3c-3.3-1.2-6.8-2.1-10.6-2.9
			l-1.7-0.4c-1.4-0.3-2.9-0.6-4.5-0.8c-1.3-0.2-2.7-0.4-4.1-0.7c-4.7-0.9-8.5-3.8-11.1-8.4c-0.2-0.4-0.5-0.8-0.7-1.3
			c-0.4-0.8-0.9-1.6-1.3-2.1c-3.5-4.6-3.5-10.1,0.1-14.7c2.3-2.9,4.7-5.4,7.3-7.3c8-6.1,17.1-10,25.8-13.3
			c13.7-5.2,26.5-8.7,39.1-10.6c3-0.5,6.4-1,9.8-1c2.6,0,5,0.3,7.3,0.9c6.3,1.6,10,6.5,9.7,12.6c-0.1,2.6-0.5,10.5-8.9,14.2
			c-6.8,3-13.3,4.8-19.8,5.7c-0.6,0.1-1.1,0.1-1.7,0.1c-3.5,0-6.3-1.7-7.9-4.9c-0.5-1-0.8-2-0.9-2.9c-12,3.1-25,8.3-33,12.7
			c4.9,0.9,10.2,2,15.1,4.3c12.6,5.9,17.2,18.4,11.5,31.1c-3.1,6.9-8,12.9-15.4,18.8c-12.7,10.2-27,16.8-42.7,19.7
			C184.7,257.9,181.4,258.3,178.3,258.3z"/>
		<g>
			<path d="M296.1,288.2c-2.3,0-4.5-1-6.2-2.7c-4.2-4.2-4.7-12.6-1.2-17c5.2-6.4,10.6-12.9,15.9-19.1l0.8-0.9
				c3.1-3.7,6.3-7.5,9.4-11.2c-3.6,3-7.7,6-12.2,8.5c-2.4,1.3-4.9,2.2-7.2,3c-1.1,0.4-2.3,0.6-3.4,0.6c-2,0-5.1-0.6-7.9-3.7
				c-1.2-1.3-2.2-2.5-2.9-3.7c-1.9,1.5-3.9,3-5.8,4.5c-0.9,0.7-1.8,1.1-2.5,1.5l-0.2,0.1c-2.3,1.2-4.1,1.8-6,1.8c-3.8,0-6.3-2.3-8-4
				c-2.1-2.3-3.5-4.7-4.2-7.3c-1.5,1.5-8.6,8.5-8.6,8.5c-1.5,2.3-3.8,3.7-6.2,3.7c-1.3,0-3.3-0.4-5.3-2.3c-0.9-0.9-2.5-2.8-2.9-5.4
				c-0.3-2-1.3-8.2,2.9-13.4c3.7-4.6,12.9-16.1,12.9-16.1c-0.2-0.4-0.3-0.8-0.5-1.2c-0.8-3.2,1.4-5.5,2.1-6.2c2.2-2.3,4-4.1,5.8-5.6
				c19.1-16.4,36-32.1,51.7-47.8c1.1-1.1,2.3-2.1,3.7-3.2c1.6-1.2,3-1.4,4-1.4c2.3,0,4.4,1.3,5.6,3.6c0.1,0.1,0.3,0.4,0.5,0.5
				l0.4,0.4c4.8,5.1,2.9,9.9,1.3,12.3c-1.1,1.7-2.5,3.4-4.3,5.1c-6.6,6.3-13.2,12.6-19.8,18.9c-1,1-2,1.9-3,2.9
				c1.6,0.6,3,1.7,4.2,3.3c1.1,1.5,2.4,3.6,2.8,6c0.5-0.4,1-0.9,1.5-1.3c0.8-0.7,1.6-1.4,2.4-2.1c1.6-1.4,3.3-2.9,5-4.3
				c3.5-3,7.3-4.5,11.2-4.5c3.7,0,7.2,1.3,10.5,4c3.9,3.2,5.8,7.3,5.5,11.7c3-2.8,6-5.7,8.9-8.5c1.8-1.7,3.5-3.4,5.3-5.1
				c2.5-2.4,5-2.9,6.6-2.9c3.4,0,6.5,2.1,8.3,5.8c0,0.1,0.1,0.2,0.1,0.3c0.6-0.4,1.2-0.8,1.8-1.3c1.7-1.2,4.1-2.6,6.9-2.6
				c4.7,0,7.4,3.9,8.9,5.9c3.8,5.4,3.9,11.2,0.3,16.7c-9.5,14.6-19.7,25.7-31.2,34.1c-2.1,1.6-4.7,2.9-7.5,3.8
				c-1.5,0.5-3,0.8-4.5,0.8c-3.9,0-7.3-1.8-9.6-4.9c-9.4,10.6-20.1,23.4-29.2,37.8C301.5,286.7,299,288.2,296.1,288.2z"/>
			<path d="M254.8,212.5c-0.5-0.2-0.9-0.5-1.3-0.6c-1.8-0.6-2-1-0.6-2.4c1.7-1.8,3.5-3.6,5.4-5.3c17.9-15.4,35.3-31.4,52-48.1
				c1-1,2-1.9,3.1-2.7c0.8-0.6,1.5-0.5,2,0.5c0.4,0.8,1.1,1.4,1.7,2c1.9,2,2.2,3.7,0.7,5.9c-1,1.5-2.2,2.9-3.5,4.1
				c-14.4,13.8-28.9,27.6-43.4,41.4c-3.4,3.3-6.6,6.7-9.9,10.1c-0.4,0.4-0.7,0.8-0.8,1.3c3.2-2.5,6.3-5.1,9.6-7.4
				c6.6-4.8,13.3-9.5,20.1-14.1c2.5-1.7,3.8-1.5,5.4,0.6c0.9,1.2,1.8,2.8,1.8,4.2c0,1.2-1.2,2.5-2.2,3.4
				c-8.8,7.9-17.3,16.1-24.9,25.1c-1,1.1-1.7,2.5-2.5,3.7c0.1,0.2,0.3,0.4,0.4,0.6c0.8-0.4,1.8-0.6,2.5-1.1c3.7-2.6,7.5-5.2,11-8.1
				c8.7-7.4,17.2-14.9,25.7-22.4c2.4-2.1,4.8-4.3,7.3-6.4c5-4.2,10.3-4.3,15.1-0.4c3.2,2.6,4.4,5.8,3.1,9.7c-1.1,3.1-2.8,6-4.3,9
				c-0.2,0.5-0.6,0.9-0.9,1.3c0.1,0.2,0.2,0.3,0.3,0.5c2.1-0.9,4.4-1.6,6.4-2.8c2.1-1.2,4.1-2.8,5.9-4.5
				c5.4-5.1,10.7-10.3,16.1-15.4c2.6-2.5,5.1-1.7,6.7,1.5c1,2,0.6,3.3-0.8,4.8c-2.5,2.7-4.9,5.6-7.4,8.4c-0.3,0.4-0.6,0.8-0.7,1.5
				c1.3-1,2.6-2.1,3.9-3.1c4.8-3.6,9.5-7.3,14.4-10.6c4.1-2.8,5.7-2,8.6,2c2.6,3.8,2.6,7.3,0.2,11c-8.2,12.6-17.7,23.9-29.9,32.7
				c-1.8,1.3-4,2.4-6.1,3.1c-4.2,1.4-7.8-0.3-9.5-4.4c-0.5-1.3-0.9-2.7-1.3-4.2c-1.6,1.8-3.2,3.4-4.7,5.1
				c-11,12.5-21.6,25.3-30.5,39.4c-1.3,2-3.5,2.2-5.2,0.5c-2.2-2.2-2.8-7.7-0.8-10.1c5.5-6.7,11-13.4,16.6-20
				c7.8-9.3,15.6-18.6,23.4-27.9c0.3-0.4,0.6-0.8,1-1.3c-2.4,0.9-4.6,1.9-6.9,2.5c-1.9,0.5-4,0.5-6,0.8c-0.8,0.1-1.7,0.4-2.2,0.9
				c-5.7,5.5-11.6,10.6-18.5,14.4c-2,1.1-4.2,1.9-6.4,2.6c-2.2,0.8-4.2,0-5.8-1.7c-2.8-3-3.4-4.6-3.7-9.1c-0.5,0.4-0.9,0.7-1.3,1
				c-3.5,2.8-7.1,5.5-10.7,8.3c-0.6,0.5-1.3,0.8-2,1.2c-3.4,1.8-5.1,1.5-7.7-1.2c-3.2-3.5-4.3-7.4-2.1-11.8c1.5-3.1,3.4-6,5.2-9.1
				c-1.7,1.4-3.5,2.5-5,4c-6.2,5.9-12.2,12-18.3,18c-0.3,0.3-0.5,0.6-0.7,0.9c-1,1.5-2.2,1.8-3.5,0.5c-0.7-0.7-1.3-1.6-1.4-2.5
				c-0.5-3.3-0.4-6.6,1.8-9.4c5-6.3,10.1-12.6,15.1-18.9C254,213.4,254.3,213,254.8,212.5z M371.2,206c-0.1-0.1-0.3-0.3-0.4-0.4
				c-1.5,1-3.1,1.9-4.5,2.9c-9.3,6.7-17.8,14.5-26.2,22.3c-0.4,0.4-0.6,1.3-0.5,1.8c0.6,2.5,2.2,3.2,4.5,2c1.9-1,3.8-2.3,5.4-3.7
				c7.2-6.1,13.3-13.2,18.9-20.8C369.4,208.8,370.3,207.4,371.2,206z M307.6,214.1c-5.4,5.9-10.9,11.8-14.8,18.9
				c0.2,0.2,0.4,0.4,0.6,0.7c6.8-2.9,12.1-8.1,17.5-12.7C309.8,218.6,308.7,216.4,307.6,214.1z M325.1,203.4c-4,0-9.3,4.3-9.8,7.9
				c-0.2,1.5,0,3,1.5,4.1C320.2,211.8,323.9,208.5,325.1,203.4z"/>
			<path d="M177.2,254.6c-3.7,0-7.2-0.5-10.6-1.4c-6.1-1.7-11.5-7.1-14.2-14.2c-2.5-6.7-2-13.6,1.5-18.9c5.7-8.6,12.6-14.5,21-18
				c1.6-0.7,3.3-1,4.9-1c2.5,0,4.8,0.8,6.9,2.4c2.5,1.9,3.6,4.1,3.3,6.5c-0.3,2.4-1.9,4.3-4.7,5.5c-4.6,2-8.4,5.2-11.5,9.7
				c-0.5,0.7-0.9,1.5-1.3,2.4c-0.4,1.1-0.5,2.1-0.1,2.8c0.4,0.7,1.3,1,2,1.2c1.4,0.3,2.9,0.4,4.5,0.4c1.1,0,2.2-0.1,3.2-0.2
				c14.8-1.8,28-8.6,39.3-20c1.6-1.6,3.1-3.6,4.4-5.9c0.2-0.4,0.4-0.7,0.5-0.9c-0.2-0.1-0.4-0.2-0.8-0.3c-3.3-1.2-6.8-2.1-10.6-2.9
				l-1.7-0.4c-1.4-0.3-2.9-0.6-4.5-0.8c-1.3-0.2-2.7-0.4-4.1-0.7c-4.7-0.9-8.5-3.8-11.1-8.4c-0.2-0.4-0.5-0.8-0.7-1.3
				c-0.4-0.8-0.9-1.6-1.3-2.1c-3.5-4.6-3.5-10.1,0.1-14.7c2.3-2.9,4.7-5.4,7.3-7.3c8-6.1,17.1-10,25.8-13.3
				c13.7-5.2,26.5-8.7,39.1-10.6c3-0.5,6.4-1,9.8-1c2.6,0,5,0.3,7.3,0.9c6.3,1.6,10,6.5,9.7,12.6c-0.1,2.6-0.5,10.5-8.9,14.2
				c-6.8,3-13.3,4.8-19.8,5.7c-0.6,0.1-1.1,0.1-1.7,0.1c-3.5,0-6.3-1.7-7.9-4.9c-0.5-1-0.8-2-0.9-2.9c-12,3.1-25,8.3-33,12.7
				c4.9,0.9,10.2,2,15.1,4.3c12.6,5.9,17.2,18.4,11.5,31.1c-3.1,6.9-8,12.9-15.4,18.8c-12.7,10.2-27,16.8-42.7,19.7
				C183.7,254.3,180.4,254.6,177.2,254.6z"/>
			<path d="M206.6,182.9c3.7,0.6,7.4,1.1,11,1.8c4.8,0.8,9.6,1.9,14.1,4c10,4.7,13.5,14.2,9,24.3c-3.1,6.9-8.1,12.2-13.9,16.9
				c-11.9,9.6-25.4,15.9-40.4,18.7c-6.1,1.1-12.3,1.4-18.4-0.3c-8.7-2.4-15.7-16.3-9.7-25.3c4.7-7.2,10.7-12.7,18.7-16
				c2.3-1,4.6-0.9,6.7,0.7c1.8,1.4,1.8,2.2-0.3,3.1c-5.7,2.5-10.2,6.5-13.7,11.5c-0.7,1.1-1.4,2.3-1.8,3.5c-2,5.1,0.3,9.8,5.6,10.9
				c3.1,0.6,6.4,0.7,9.5,0.3c16.7-2.1,30.6-9.6,42.3-21.5c2-2,3.8-4.5,5.2-7c2.5-4.3,1.7-7-2.9-8.7c-4.2-1.6-8.6-2.5-13-3.5
				c-2.9-0.7-5.8-0.9-8.7-1.5c-3.4-0.7-5.9-2.8-7.6-5.8c-0.8-1.3-1.4-2.8-2.3-4c-2.2-2.8-2-5.8,0.1-8.3c1.8-2.3,4-4.6,6.3-6.4
				c7.4-5.6,15.9-9.3,24.5-12.6c12.3-4.7,25-8.4,38-10.4c5-0.8,10-1.5,15.1-0.2c3.8,1,6,3.6,5.8,7.3c-0.2,4.2-1.4,7.8-5.8,9.7
				c-5.9,2.6-12,4.5-18.4,5.3c-1.9,0.3-3.3-0.1-4.2-2c-0.6-1.2-0.5-2,0.7-2.7c2.6-1.5,5.3-3,7.9-4.5c0.5-0.3,1-0.6,1.7-1.2
				C248.5,159.8,211.4,174.3,206.6,182.9z"/>
		</g>
	</g>
	<g>
		<path class="st7" d="M254.6,211.4c-0.5-0.2-0.9-0.5-1.3-0.6c-1.8-0.6-2-1-0.6-2.4c1.7-1.8,3.5-3.6,5.4-5.3
			c17.9-15.4,35.3-31.4,52-48.1c1-1,2-1.9,3.1-2.7c0.8-0.6,1.5-0.5,2,0.5c0.4,0.8,1.1,1.4,1.7,2c1.9,2,2.2,3.7,0.7,5.9
			c-1,1.5-2.2,2.9-3.5,4.1c-14.4,13.8-28.9,27.6-43.4,41.4c-3.4,3.3-6.6,6.7-9.9,10.1c-0.4,0.4-0.7,0.8-0.9,1.3
			c3.2-2.5,6.3-5.1,9.6-7.4c6.6-4.8,13.3-9.5,20.1-14.1c2.5-1.7,3.8-1.5,5.4,0.6c0.9,1.2,1.8,2.8,1.8,4.2c0,1.2-1.2,2.5-2.2,3.4
			c-8.8,7.9-17.3,16.1-24.9,25.1c-1,1.1-1.7,2.5-2.5,3.7c0.1,0.2,0.3,0.4,0.4,0.6c0.8-0.4,1.8-0.6,2.5-1.1c3.7-2.6,7.5-5.2,11-8.1
			c8.7-7.4,17.2-14.9,25.7-22.4c2.4-2.1,4.8-4.3,7.3-6.4c5-4.2,10.3-4.3,15.1-0.4c3.2,2.6,4.4,5.8,3.1,9.7c-1.1,3.1-2.8,6-4.3,9
			c-0.2,0.5-0.6,0.9-0.9,1.3c0.1,0.2,0.2,0.3,0.3,0.5c2.1-0.9,4.4-1.6,6.4-2.8c2.1-1.2,4.1-2.8,5.9-4.5c5.4-5.1,10.7-10.3,16.1-15.4
			c2.6-2.5,5.1-1.7,6.7,1.5c1,2,0.6,3.3-0.8,4.8c-2.5,2.7-4.9,5.6-7.4,8.4c-0.3,0.4-0.6,0.8-0.7,1.5c1.3-1,2.6-2.1,3.9-3.1
			c4.8-3.6,9.5-7.3,14.4-10.6c4.1-2.8,5.7-2,8.6,2c2.6,3.8,2.6,7.3,0.2,11c-8.2,12.6-17.7,23.9-29.9,32.7c-1.8,1.3-4,2.4-6.1,3.1
			c-4.2,1.4-7.8-0.3-9.5-4.4c-0.5-1.3-0.9-2.7-1.3-4.2c-1.6,1.8-3.2,3.4-4.7,5.1c-11,12.5-21.6,25.3-30.5,39.4
			c-1.3,2-3.5,2.2-5.2,0.5c-2.2-2.2-2.8-7.7-0.8-10.1c5.5-6.7,11-13.4,16.6-20c7.8-9.3,15.6-18.6,23.4-27.9c0.3-0.4,0.6-0.8,1-1.3
			c-2.4,0.9-4.6,1.9-6.9,2.5c-1.9,0.5-4,0.5-6,0.8c-0.8,0.1-1.7,0.4-2.2,0.9c-5.7,5.5-11.6,10.6-18.5,14.4c-2,1.1-4.2,1.9-6.4,2.6
			c-2.2,0.8-4.2,0-5.8-1.7c-2.8-3-3.4-4.6-3.7-9.1c-0.5,0.4-0.9,0.7-1.3,1c-3.5,2.8-7.1,5.5-10.7,8.3c-0.6,0.5-1.3,0.8-2,1.2
			c-3.4,1.8-5.1,1.5-7.7-1.2c-3.2-3.5-4.3-7.4-2.1-11.8c1.5-3.1,3.4-6,5.2-9.1c-1.7,1.4-3.5,2.5-5,4c-6.2,5.9-12.2,12-18.3,18
			c-0.3,0.3-0.5,0.6-0.7,0.9c-1,1.5-2.2,1.8-3.5,0.5c-0.7-0.7-1.3-1.6-1.4-2.5c-0.5-3.3-0.4-6.6,1.8-9.4c5-6.3,10.1-12.6,15.1-18.9
			C253.8,212.4,254.2,212,254.6,211.4z M371.1,204.9c-0.1-0.1-0.3-0.3-0.4-0.4c-1.5,1-3.1,1.9-4.5,2.9c-9.3,6.7-17.8,14.5-26.2,22.3
			c-0.4,0.4-0.6,1.3-0.5,1.8c0.6,2.5,2.2,3.2,4.5,2c1.9-1,3.8-2.3,5.4-3.7c7.2-6.1,13.3-13.2,18.9-20.8
			C369.3,207.8,370.1,206.3,371.1,204.9z M307.4,213.1c-5.4,5.9-10.9,11.8-14.8,18.9c0.2,0.2,0.4,0.4,0.6,0.7
			c6.8-2.9,12.1-8.1,17.5-12.7C309.6,217.6,308.6,215.4,307.4,213.1z M325,202.4c-4,0-9.3,4.3-9.8,7.9c-0.2,1.5,0,3,1.5,4.1
			C320.1,210.8,323.8,207.5,325,202.4z"/>
		<path class="st7" d="M206.5,181.9c3.7,0.6,7.4,1.1,11,1.8c4.8,0.8,9.6,1.9,14.1,4c10,4.7,13.5,14.2,9,24.3
			c-3.1,6.9-8.1,12.2-13.9,16.9c-11.9,9.6-25.4,15.9-40.4,18.7c-6.1,1.1-12.3,1.4-18.4-0.3c-8.7-2.4-15.7-16.3-9.7-25.3
			c4.7-7.2,10.7-12.7,18.7-16c2.3-1,4.6-0.9,6.7,0.7c1.8,1.4,1.8,2.2-0.3,3.1c-5.7,2.5-10.2,6.5-13.7,11.5c-0.7,1.1-1.4,2.3-1.8,3.5
			c-2,5.1,0.3,9.8,5.6,10.9c3.1,0.6,6.4,0.7,9.5,0.3c16.7-2.1,30.6-9.6,42.3-21.5c2-2,3.8-4.5,5.2-7c2.5-4.3,1.7-7-2.9-8.7
			c-4.2-1.6-8.6-2.5-13-3.5c-2.9-0.7-5.8-0.9-8.7-1.5c-3.4-0.7-5.9-2.8-7.6-5.8c-0.8-1.3-1.4-2.8-2.3-4c-2.2-2.8-2-5.8,0.1-8.3
			c1.8-2.3,4-4.6,6.3-6.4c7.4-5.6,15.9-9.3,24.5-12.6c12.3-4.7,25-8.4,38-10.4c5-0.8,10-1.5,15.1-0.2c3.8,1,6,3.6,5.8,7.3
			c-0.2,4.2-1.4,7.8-5.8,9.7c-5.9,2.6-12,4.5-18.4,5.3c-1.9,0.3-3.3-0.1-4.2-2c-0.6-1.2-0.5-2,0.7-2.7c2.6-1.5,5.3-3,7.9-4.5
			c0.5-0.3,1-0.6,1.7-1.2C248.3,158.8,211.2,173.3,206.5,181.9z"/>
	</g>
</g>
<g>
	<path d="M190.4,352.9c12.1,0,19.5,5.7,19.5,18.8c0,14.4-9.5,26.1-24.1,26.1c-12.1,0-19.5-6.4-19.5-18.8
		C166.3,364.6,175.8,352.9,190.4,352.9z M186.2,387.1c7.9,0,10.5-9.4,10.5-15.7c0-3.9-1.5-7.8-6.7-7.8c-7.9,0-10.5,9.4-10.5,15.7
		C179.5,383.2,181,387.1,186.2,387.1z"/>
	<path d="M217.7,354H239c7.9,0,13,4.3,13,13.8c0,8.6-7.3,16.1-18.5,16.1h-8.9l-2.7,13h-13L217.7,354z M226.7,373.6h5
		c5.3,0,7-2,7-4.9c0-3.3-2.9-3.8-5.7-3.8h-4.5L226.7,373.6z"/>
	<path d="M257.6,354H293l-2.2,11h-22.2l-1.1,5.3H288l-2.1,10.2h-20.6l-1.1,5.3h22.7l-2.3,11h-35.9L257.6,354z"/>
	<path d="M297.2,354h13.1l8,23.4h0.1l4.8-23.4h12.5l-9,42.8h-13l-7.9-24h-0.1l-5,24h-12.5L297.2,354z"/>
	<path class="st0" d="M350.4,371.2c1.3-11.2,8.5-16.6,18.7-16.6c8.2,0,15.9,3.7,15.9,13.1c0,12.2-13.6,14.7-22.3,18.8v0.1h19.7
		l-2.2,10.2h-35.5c1.7-12.8,10.4-16,19.4-20.4c6.1-2.9,8.9-4.3,8.9-8.2c0-1.9-1.3-4.2-4.8-4.2c-4.5,0-6.7,3.4-6.7,7.1H350.4z"/>
	<path class="st0" d="M402.8,388.5h-19.1l2.3-11.2l23.8-22.3h11.9l-4.8,23.3h5.4l-1.9,10.2h-5.5l-1.9,8.3H401L402.8,388.5z
		 M405.2,378.3l2.6-11.9h-0.1l-12,11.9H405.2z"/>
	<path class="st7" d="M444.4,372.9c0-1.4-0.4-2.3-1.2-2.8c-0.8-0.6-1.9-0.8-3.1-0.8c-1.8,0-4.1,0.5-4.1,2.8c0,2.6,5.1,2.7,8.5,3.9
		c6,2.1,8,5.4,8,9.5c0,8.3-8,12.1-15.5,12.1c-7.9,0-15-3.6-14.5-12.3h10.2c0,1.9,0.4,3,1.3,3.9c0.9,0.8,2.2,0.9,3.9,0.9
		c2.1,0,4.6-1.1,4.6-3.3c0-2.5-3.5-2.8-8.3-4.4c-4.2-1.4-8.2-3.6-8.2-9.3c0-7.7,7.5-11.3,14.4-11.3c7.3,0,13.9,2.7,13.7,11.2H444.4z
		"/>
	<path class="st7" d="M459.4,362.5h28.3l-1.8,8.8h-17.8l-0.9,4.3h16.5l-1.7,8.2h-16.5l-0.9,4.3h18.1l-1.8,8.8h-28.7L459.4,362.5z"/>
	<path class="st7" d="M502.7,396.8h-11.9l-2.9-34.3h10.3l1.6,20.1h0.1l9-20.1h10.9L502.7,396.8z"/>
	<path class="st7" d="M520.5,362.5h28.3l-1.8,8.8h-17.8l-0.9,4.3h16.5l-1.7,8.2h-16.5l-0.9,4.3h18.1l-1.8,8.8h-28.7L520.5,362.5z"/>
	<path class="st7" d="M552.2,362.5h10.5l6.4,18.7h0.1l3.8-18.7h10l-7.2,34.3h-10.4l-6.3-19.2h-0.1l-4,19.2h-10L552.2,362.5z"/>
</g>
</svg>
