<?xml version="1.0" encoding="utf-8"?>
<!-- Generator: Adobe Illustrator 27.9.1, SVG Export Plug-In . SVG Version: 6.00 Build 0)  -->
<svg version="1.1" id="Lager_1" xmlns="http://www.w3.org/2000/svg" xmlns:xlink="http://www.w3.org/1999/xlink" x="0px" y="0px"
	 viewBox="0 0 141.7 78.8" style="enable-background:new 0 0 141.7 78.8;" xml:space="preserve">
<style type="text/css">
	.st0{fill:#030303;}
	.st1{fill:#FFFFFF;}
	.st2{fill:url(#SVGID_1_);}
	.st3{fill:#FEF5DB;}
	
		.st4{clip-path:url(#SVGID_00000135692141383561219300000016149390866931655570_);fill:url(#SVGID_00000137107725420623564970000005707119849345347717_);}
	.st5{clip-path:url(#SVGID_00000148652330197847035890000007585871469249762726_);fill:#030303;}
	
		.st6{clip-path:url(#SVGID_00000025402824282858054530000004415292913539611304_);fill:url(#SVGID_00000100370429634433274660000017487344243804137104_);}
	.st7{clip-path:url(#SVGID_00000114774739962643523460000008551895936735234440_);fill:#030303;}
	.st8{fill:#E77F07;}
</style>
<g>
	<g>
		<path class="st0" d="M138.4,27.1c-0.7-0.6-1.7-1-2.8-1c-20.1,0-40.2,0-60.2,0c-20.5,0-41.1,0-61.6,0c0,0,0,0,0,0
			c-2.5,0-4.8,1.9-5,4.3c-0.1,1.1-0.3,2.1-0.4,3.2C8.2,34.1,8.1,34.5,8,35l-0.4,2.7c-0.2,1.2-0.4,2.5-0.5,3.7c-0.1,1-0.3,2-0.4,3
			c-0.1,1-0.3,2-0.4,3c-0.1,1-0.3,2-0.4,3c-0.1,1-0.3,2-0.4,3c-0.1,1-0.3,1.9-0.4,2.9c-0.1,0.9-0.3,1.9-0.4,2.8
			c-0.1,0.9-0.3,1.9-0.4,2.8c-0.1,0.8-0.2,1.7-0.4,2.5l-0.2,1.5c-0.2,1.4-0.4,2.8-0.6,4.3c-0.2,1.4,0.3,2.7,1.4,3.6
			c0.7,0.6,1.7,1,2.8,1c13.7,0,27.3,0,41,0c3.3,0,6.7,0,10,0H129c1.7,0,3.1-0.6,4.1-1.9c0.5-0.7,0.8-1.3,1-2
			c0.1-0.8,0.2-1.6,0.4-2.4c0.1-0.4,0.1-0.7,0.2-1.1l0.3-2.1c0.2-1.4,0.4-2.9,0.6-4.3c0.1-1,0.3-2,0.4-3c0.1-1,0.3-2,0.4-3
			c0.1-1,0.3-2.1,0.5-3.1c0.2-1.1,0.3-2.2,0.5-3.2c0.1-1,0.3-2,0.4-3c0.1-1,0.3-2,0.4-3c0.1-1,0.3-2,0.4-3.1
			c0.1-0.9,0.3-1.7,0.4-2.6c0.1-0.5,0.2-1.1,0.2-1.6c0.2-1.5,0.4-3,0.6-4.5C140,29.3,139.5,28,138.4,27.1z"/>
		<g>
			<path class="st1" d="M137.1,25c-0.7-0.6-1.7-1-2.8-1c-20.1,0-40.2,0-60.2,0c-20.5,0-41.1,0-61.6,0c0,0,0,0,0,0
				c-2.5,0-4.8,1.9-5,4.3c-0.1,1.1-0.3,2.1-0.4,3.2c-0.1,0.4-0.1,0.9-0.2,1.3l-0.4,2.7C6.2,36.8,6,38,5.8,39.3c-0.1,1-0.3,2-0.4,3
				c-0.1,1-0.3,2-0.4,3c-0.1,1-0.3,2-0.4,3c-0.1,1-0.3,2-0.4,3c-0.1,1-0.3,1.9-0.4,2.9C3.6,55.1,3.4,56,3.3,57
				c-0.1,0.9-0.3,1.9-0.4,2.8c-0.1,0.8-0.2,1.7-0.4,2.5l-0.2,1.5c-0.2,1.4-0.4,2.8-0.6,4.3c-0.2,1.4,0.3,2.7,1.4,3.6
				c0.7,0.6,1.7,1,2.8,1c13.7,0,27.3,0,41,0c3.3,0,6.7,0,10,0h70.7c1.7,0,3.1-0.6,4.1-1.9c0.5-0.7,0.8-1.3,1-2
				c0.1-0.8,0.2-1.6,0.4-2.4c0.1-0.4,0.1-0.7,0.2-1.1l0.3-2.1c0.2-1.4,0.4-2.9,0.6-4.3c0.1-1,0.3-2,0.4-3c0.1-1,0.3-2,0.4-3
				c0.1-1,0.3-2.1,0.5-3.1c0.2-1.1,0.3-2.2,0.5-3.2c0.1-1,0.3-2,0.4-3c0.1-1,0.3-2,0.4-3c0.1-1,0.3-2,0.4-3.1
				c0.1-0.9,0.3-1.7,0.4-2.6c0.1-0.5,0.2-1.1,0.2-1.6c0.2-1.5,0.4-3,0.6-4.5C138.7,27.2,138.2,26,137.1,25z"/>
			<g>
				<linearGradient id="SVGID_1_" gradientUnits="userSpaceOnUse" x1="3.2791" y1="48.2108" x2="136.9409" y2="48.2108">
					<stop  offset="7.300856e-08" style="stop-color:#9857A0"/>
					<stop  offset="3.808887e-02" style="stop-color:#97549E"/>
					<stop  offset="0.6874" style="stop-color:#842886"/>
					<stop  offset="1" style="stop-color:#7E127E"/>
				</linearGradient>
				<path class="st2" d="M73.4,25.5c20.3,0,40.6,0,60.9,0c0.4,0,0.9,0.1,1.2,0.2c1,0.4,1.6,1.5,1.4,2.6c-0.4,2.7-0.8,5.4-1.2,8
					c-0.4,2.7-0.8,5.4-1.2,8.1c-0.4,2.5-0.7,4.9-1.1,7.4c-0.3,2.1-0.6,4.2-0.9,6.4c-0.3,2.2-0.6,4.5-1,6.7c-0.1,1-0.3,2.1-0.5,3.1
					c-0.2,1.6-1.7,2.8-3.3,2.9c-0.1,0-0.1,0-0.2,0c-40.6,0-81.1,0-121.7,0c-0.4,0-0.9-0.1-1.3-0.2c-1-0.4-1.6-1.5-1.4-2.6
					c0.4-2.8,0.8-5.7,1.2-8.5c0.4-2.9,0.8-5.8,1.3-8.7c0.4-2.6,0.7-5.1,1.1-7.7c0.3-2.1,0.6-4.2,0.9-6.4c0.3-2.1,0.6-4.2,0.9-6.3
					c0.1-0.8,0.2-1.6,0.4-2.3c0.4-1.5,1.8-2.5,3.3-2.5c0.1,0,0.2,0,0.3,0H73.4z"/>
				<path class="st0" d="M127.8,71.5C127.8,71.5,127.8,71.5,127.8,71.5l-0.1,0H120c-38,0-76,0-114,0c-0.5,0-1-0.1-1.5-0.3
					c-1.2-0.5-2-1.8-1.8-3.2l0.5-3.5c0.2-1.7,0.5-3.4,0.7-5c0.2-1.4,0.4-2.9,0.6-4.3c0.2-1.5,0.4-3,0.6-4.5c0.2-1.3,0.4-2.6,0.6-3.9
					c0.2-1.3,0.4-2.5,0.5-3.8c0.2-1.1,0.3-2.2,0.5-3.3c0.1-1,0.3-2,0.4-3c0.1-0.9,0.3-1.8,0.4-2.7c0.2-1.2,0.3-2.4,0.5-3.6
					c0-0.2,0.1-0.4,0.1-0.5c0.1-0.6,0.2-1.2,0.3-1.8c0.4-1.7,2-2.9,3.8-3c0.1,0,0.1,0,0.2,0l0.1,0h66.9c18.2,0,36.5,0,54.7,0
					c0.5,0,1,0.1,1.5,0.3c1.3,0.5,2,1.8,1.8,3.2c-0.2,1.3-0.4,2.7-0.6,4c-0.2,1.3-0.4,2.7-0.6,4c-0.2,1.3-0.4,2.6-0.6,3.9
					c-0.2,1.4-0.4,2.7-0.6,4.1c-0.2,1.3-0.4,2.5-0.5,3.8c-0.2,1.2-0.3,2.4-0.5,3.6c-0.2,1.1-0.3,2.1-0.5,3.2
					c-0.2,1.1-0.3,2.1-0.5,3.2c-0.2,1.5-0.4,3-0.6,4.5l-0.3,2.2c0,0.3-0.1,0.7-0.1,1c-0.1,0.7-0.2,1.4-0.3,2.1
					c-0.3,1.9-2,3.3-3.9,3.4C127.9,71.5,127.9,71.5,127.8,71.5z M120,70.3l7.8,0c0,0,0.1,0,0.1,0c1.3,0,2.5-1.1,2.7-2.4
					c0.1-0.7,0.2-1.4,0.3-2.1c0-0.3,0.1-0.7,0.1-1l0.3-2.2c0.2-1.5,0.4-3,0.6-4.5c0.2-1.1,0.3-2.1,0.5-3.2c0.2-1.1,0.3-2.1,0.5-3.2
					c0.2-1.2,0.3-2.4,0.5-3.6c0.2-1.3,0.4-2.5,0.5-3.8c0.2-1.4,0.4-2.7,0.6-4.1c0.2-1.3,0.4-2.6,0.6-3.9c0.2-1.3,0.4-2.7,0.6-4
					c0.2-1.3,0.4-2.7,0.6-4c0.1-0.8-0.3-1.7-1.1-1.9c-0.3-0.1-0.7-0.2-1-0.2c-18.2,0-36.5,0-54.7,0l-67.2,0c-1.3,0-2.4,0.9-2.7,2
					c-0.1,0.5-0.2,1.1-0.3,1.7c0,0.2,0,0.4-0.1,0.6c-0.2,1.2-0.3,2.4-0.5,3.6c-0.1,0.9-0.3,1.8-0.4,2.7c-0.1,1-0.3,2-0.4,3
					c-0.2,1.1-0.3,2.2-0.5,3.3c-0.2,1.3-0.4,2.5-0.5,3.8c-0.2,1.3-0.4,2.6-0.6,3.9c-0.2,1.5-0.4,3-0.6,4.5c-0.2,1.4-0.4,2.9-0.6,4.3
					c-0.2,1.7-0.5,3.4-0.7,5l-0.5,3.5C3.8,69,4.2,69.8,5,70.1c0.3,0.1,0.7,0.2,1.1,0.2C44,70.3,82,70.3,120,70.3z"/>
			</g>
			<path class="st3" d="M129.1,67.8c0,0.5-0.4,0.8-0.8,0.8c-0.5,0-0.9-0.4-0.9-0.8c0-0.5,0.4-0.8,0.9-0.8
				C128.7,67,129.1,67.3,129.1,67.8 M127.6,67.8c0,0.4,0.3,0.7,0.6,0.7c0.4,0,0.6-0.3,0.6-0.7c0-0.4-0.3-0.7-0.6-0.7
				C127.9,67.1,127.6,67.4,127.6,67.8 M128.1,68.2h-0.2v-0.8c0.1,0,0.2,0,0.3,0c0.2,0,0.2,0,0.3,0.1c0.1,0,0.1,0.1,0.1,0.2
				c0,0.1-0.1,0.2-0.2,0.2v0c0.1,0,0.1,0.1,0.1,0.2c0,0.1,0,0.2,0.1,0.2h-0.2c0,0,0-0.1-0.1-0.2c0-0.1-0.1-0.1-0.2-0.1h-0.1V68.2z
				 M128.1,67.8L128.1,67.8c0.2,0,0.3,0,0.3-0.1c0-0.1-0.1-0.1-0.2-0.1c-0.1,0-0.1,0-0.1,0V67.8z"/>
			<path class="st0" d="M14,27.7h118c0,0,0.1,0,0.1,0c1.2,0.2,2.1,1.2,2.1,2.4c-0.1,1-0.2,2-0.4,3c-0.2,1.6-0.5,3.2-0.7,4.8
				c-0.2,1.6-0.5,3.2-0.7,4.8c-0.2,1.6-0.5,3.3-0.7,4.9c-0.1,0.6-0.1,1.2-0.3,1.7c-0.5,1.4-1.8,2.3-3.3,2.3c-39,0-78.1,0-117.1,0
				c-0.1,0-0.2,0-0.3,0c-0.4,0-0.8-0.1-1.2-0.4c-0.9-0.6-1.3-1.5-1.1-2.7c0.3-1.9,0.6-3.9,0.9-5.8C9.4,40.9,9.7,39,10,37
				c0.3-2.1,0.6-4.1,0.9-6.2c0.2-1.5,1.1-2.5,2.5-2.9C13.6,27.8,13.8,27.8,14,27.7"/>
			<g>
				<path class="st3" d="M13,43h4.9c0.1,0,0.2,0.1,0.3,0.3c0.1,0.2,0.2,0.4,0.2,0.4c0.2,0.2,0.6,0.2,1.1,0.2c0.2,0,0.5-0.1,0.7-0.2
					c0.3-0.2,0.5-0.4,0.5-0.7c0.1-0.5-0.1-0.7-0.7-0.8c-0.7-0.1-1.5-0.2-2.2-0.3c-1-0.2-1.8-0.4-2.4-0.7c-0.8-0.4-1.3-0.9-1.5-1.6
					c-0.2-0.4-0.2-0.8-0.1-1.2c0-0.2,0.1-0.4,0.1-0.8c0.2-0.9,0.4-1.7,0.8-2.3c1.2-2.1,3.4-3.2,6.7-3.2c2.8,0,4.4,1,4.9,3
					c0.1,0.6,0.2,1.1,0.1,1.4c0,0.1-0.1,0.2-0.3,0.3h-1.5c-0.1,0-0.9,0-2.4-0.1c-0.3,0-0.5,0-0.6,0c-0.1,0-0.3-0.2-0.6-0.5
					c-0.2-0.3-0.5-0.4-0.9-0.4c-0.8,0-1.2,0.3-1.4,0.8c-0.1,0.4,0.1,0.6,0.6,0.8c1.3,0.3,2.2,0.5,2.9,0.6c1.1,0.2,1.9,0.4,2.3,0.7
					c1,0.7,1.4,2,1,3.9c-0.4,1.8-1.1,3.1-2.3,3.9c-0.7,0.5-1.8,0.9-3.3,1.1c-0.7,0.1-1.4,0.2-1.9,0.2c-1.5,0-2.5-0.1-3.2-0.4
					c-1.1-0.4-1.8-1.3-2.1-2.7c-0.1-0.5-0.1-0.9-0.1-1.2C12.7,43.3,12.8,43.1,13,43"/>
				<path class="st3" d="M28.6,32.7c0.9-0.1,1.4-0.1,1.5-0.1h6.8c0.5,0,1.4,0,2.7,0.1l0.1,0.2L39,36.5h-3.4c-0.1,0-0.2,0.1-0.3,0.3
					c0-0.2-0.3,1.2-0.9,4.1c-0.6,2.8-1.1,4.9-1.4,6.3l-0.1,0.2h-3.5c-0.2,0-0.2-0.1-0.2-0.3l2-9.8c0.1-0.5,0.1-0.7-0.1-0.7
					c-0.2,0-0.5,0-1,0c-0.5,0-0.8,0-1.1,0c-0.4,0-0.7,0-1-0.1c-0.3,0-0.4-0.1-0.4-0.3l0.7-3.2L28.6,32.7z"/>
				<path class="st3" d="M37.9,47c0-0.2,0.1-0.5,0.1-0.7l0.2-1c0.2-1,0.3-1.5,0.3-1.6l0.5-2.2c0.2-1.1,0.5-2.4,0.8-3.9l0.7-3.3
					c0.1-0.6,0.2-1.1,0.3-1.4c0-0.1,0.1-0.1,0.2-0.2c0.6-0.1,1-0.1,1.3-0.1c0.1,0,0.5,0,1.2,0c0.5,0,0.9,0,1.3,0h5.1
					c1,0,1.7,0.4,2.2,1.3c0.5,0.9,0.6,2.1,0.3,3.6c-0.2,1.1-0.6,1.9-1,2.4c-0.2,0.3-0.8,0.7-1.7,1.5c-0.1,0.1-0.2,0.2-0.3,0.3
					c0,0.1,0,0.3,0.1,0.5l1,4.6l-0.1,0.6h-4.1c-0.2-0.4-0.4-1-0.6-1.9c-0.1-0.7-0.3-1.4-0.4-2.1c0-0.1,0-0.3-0.1-0.6
					c0-0.3-0.1-0.4-0.1-0.6c-0.1-0.1-0.1-0.2-0.2-0.2H43c-0.1,0.1-0.2,0.2-0.2,0.2c-0.1,0.1-0.1,0.2-0.2,0.2l-1,4.8l-0.1,0.1
					c-0.8,0.1-1.4,0.1-1.7,0.1H38C37.9,47.4,37.8,47.2,37.9,47 M44.2,38.1c0.3,0,0.9,0,1.5-0.1c0.7,0,1.2-0.1,1.5-0.1
					c0.2,0,0.3-0.1,0.5-0.2c0.2-0.1,0.3-0.3,0.3-0.6c0.1-0.6-0.1-0.9-0.6-0.9h-3.3c-0.2,0-0.3,0.3-0.4,0.8c0,0.2-0.1,0.5-0.1,0.8
					C43.8,38,44,38.1,44.2,38.1"/>
				<path class="st3" d="M51.3,47.2c0-0.2,0.1-0.5,0.2-0.9c0.1-0.4,0.1-0.7,0.2-0.9l0.5-2.6c0.5-2.6,1-4.8,1.4-6.5
					c0.4-1.7,0.7-2.9,0.8-3.5c0.1-0.1,0.1-0.1,0.1-0.1c0.2-0.1,1-0.2,2.3-0.2h1.7c0.9,0,1.9,0,3,0c2.2,0,3.5,0.1,3.7,0.1
					c0.2,0,0.3,0.1,0.3,0.2c0,0.2,0,0.7-0.2,1.3c-0.2,0.8-0.3,1.5-0.5,2l-0.1,0.1c-1.1,0.1-2.2,0.1-3.2,0.1h-2.6
					c-0.9,0-1.3,0-1.4,0.1c-0.1,0.1-0.1,0.3-0.2,0.5c-0.1,0.6-0.1,0.9,0,0.9c0.1,0.1,0.4,0.2,0.7,0.2c2.3,0,3.9,0,5,0.1l0.1,0.2
					L63,38.8c-0.3,1.3-0.5,2.2-0.6,2.8c-0.1,0.2-0.2,0.3-0.3,0.3h-5.5c-0.2,0-0.4,0.3-0.5,1c-0.1,0.5,0.1,0.7,0.6,0.7
					c0.1,0,1.1,0,3,0c0.4,0,1.1,0,1.9,0c0.9,0,1.5,0,1.9,0c0.1,0.1,0.1,0.2,0.1,0.5l-0.5,2.7c0,0.1-0.1,0.2-0.2,0.3
					c-0.1,0.1-0.1,0.2-0.2,0.2H51.4L51.3,47.2z"/>
				<path class="st3" d="M64,47.2c0-0.2,0.1-0.5,0.2-0.9c0.1-0.4,0.1-0.7,0.2-0.9l0.5-2.6c0.5-2.6,1-4.8,1.4-6.5
					c0.4-1.7,0.7-2.9,0.8-3.5c0.1-0.1,0.1-0.1,0.1-0.1c0.2-0.1,1-0.2,2.3-0.2h1.7c0.9,0,1.9,0,3,0c2.2,0,3.5,0.1,3.7,0.1
					c0.2,0,0.3,0.1,0.3,0.2c0,0.2,0,0.7-0.2,1.3c-0.2,0.8-0.3,1.5-0.5,2l-0.1,0.1c-1.1,0.1-2.2,0.1-3.2,0.1h-2.6
					c-0.9,0-1.3,0-1.4,0.1c-0.1,0.1-0.1,0.3-0.2,0.5c-0.1,0.6-0.1,0.9,0,0.9c0.1,0.1,0.4,0.2,0.7,0.2c2.3,0,3.9,0,5,0.1l0.1,0.2
					l-0.1,0.3c-0.3,1.3-0.5,2.2-0.6,2.8c-0.1,0.2-0.2,0.3-0.3,0.3h-5.5c-0.2,0-0.4,0.3-0.5,1c-0.1,0.5,0.1,0.7,0.6,0.7
					c0.1,0,1.1,0,3,0c0.4,0,1.1,0,1.9,0c0.9,0,1.5,0,1.9,0c0.1,0.1,0.1,0.2,0.1,0.5l-0.5,2.7c0,0.1-0.1,0.2-0.2,0.3
					c-0.1,0.1-0.1,0.2-0.2,0.2H64.1L64,47.2z"/>
				<path class="st3" d="M79.8,32.7c0.9-0.1,1.4-0.1,1.5-0.1h6.8c0.5,0,1.4,0,2.7,0.1l0.1,0.2l-0.7,3.5h-3.4c-0.1,0-0.2,0.1-0.3,0.3
					c0-0.2-0.3,1.2-0.9,4.1c-0.6,2.8-1.1,4.9-1.4,6.3l-0.1,0.2h-3.5c-0.2,0-0.2-0.1-0.2-0.3l2-9.8c0.1-0.5,0.1-0.7-0.1-0.7
					c-0.2,0-0.5,0-1,0c-0.5,0-0.8,0-1.1,0c-0.4,0-0.7,0-1-0.1c-0.3,0-0.4-0.1-0.4-0.3l0.7-3.2L79.8,32.7z"/>
				<path class="st3" d="M91.8,36.6h2.3c0,0,0.1,0.1,0.1,0.2l0.1,4.5c0,0,0,0,0,0c0.1,0,0.1-0.1,0.2-0.2l1.9-4.3
					c0-0.1,0.1-0.1,0.3-0.1c0.2,0,0.5,0,1,0c0.4,0,0.7,0,1,0c0.1,0,0.1,0,0.1,0.1c0.1,1.3,0.1,2.3,0.2,2.9c0,0.8,0.1,1.2,0.1,1.3
					c0,0.1,0.1,0.2,0.1,0.2h0l0.2-0.3l1.7-4.1c0-0.1,0.1-0.1,0.1-0.2c0-0.1,0.3-0.1,0.8-0.1h0.9c0.5,0,0.7,0,0.7,0.1l0,0.1
					c0,0,0,0.1,0,0.1l-2.2,5.4c-0.1,0.3-0.3,0.5-0.3,0.7l-1.3,3.2c-0.1,0.3-0.2,0.4-0.3,0.4h-2.3c-0.1,0-0.1-0.2-0.1-0.5l-0.1-3.2
					c0,0,0-0.1,0-0.1c0-0.1,0-0.2,0-0.3c0-0.1-0.1-0.2-0.1-0.2s-0.1,0.1-0.2,0.2l-1.7,3.9l-0.2,0.2c-1.4,0-2.1,0.1-2.1,0.1
					c-0.2,0-0.3-0.1-0.3-0.4l-0.3-9.1L91.8,36.6z"/>
				<path class="st3" d="M102.5,46.4c0-0.1,0.1-0.3,0.1-0.6c0-0.3,0.1-0.4,0.1-0.6l0.3-1.8c0.3-1.8,0.6-3.2,0.9-4.4
					c0.2-1.2,0.4-1.9,0.5-2.3c0,0,0.1-0.1,0.1-0.1c0.1-0.1,0.6-0.1,1.5-0.1h1.1c0.5,0,1.2,0,1.9,0c1.4,0,2.2,0.1,2.3,0.1
					c0.1,0,0.2,0.1,0.2,0.1c0,0.2,0,0.4-0.1,0.9c-0.1,0.6-0.2,1-0.3,1.4l-0.1,0.1c-0.7,0.1-1.4,0.1-2,0.1h-1.6c-0.6,0-0.8,0-0.9,0
					c0,0.1-0.1,0.2-0.1,0.4c-0.1,0.4-0.1,0.6,0,0.6c0.1,0.1,0.2,0.1,0.4,0.1c1.5,0,2.5,0,3.2,0.1l0.1,0.1l0,0.2
					c-0.2,0.8-0.3,1.5-0.4,1.9c0,0.2-0.1,0.2-0.2,0.2h-3.5c-0.1,0-0.2,0.2-0.3,0.7c-0.1,0.3,0.1,0.5,0.4,0.5c0.1,0,0.7,0,1.9,0
					c0.3,0,0.7,0,1.2,0c0.5,0,1,0,1.2,0c0.1,0.1,0.1,0.2,0,0.3l-0.3,1.8c0,0.1,0,0.1-0.1,0.2c-0.1,0.1-0.1,0.1-0.1,0.1h-7.3
					L102.5,46.4z"/>
				<path class="st3" d="M111,46.4c0-0.1,0.1-0.3,0.1-0.6c0-0.3,0.1-0.4,0.1-0.6l0.3-1.8c0.3-1.8,0.6-3.2,0.9-4.4
					c0.2-1.2,0.4-1.9,0.5-2.3c0,0,0.1-0.1,0.1-0.1c0.1-0.1,0.6-0.1,1.5-0.1h1.1c0.5,0,1.2,0,1.9,0c1.4,0,2.2,0.1,2.3,0.1
					c0.1,0,0.2,0.1,0.2,0.1c0,0.2,0,0.4-0.1,0.9c-0.1,0.6-0.2,1-0.3,1.4l-0.1,0.1c-0.7,0.1-1.4,0.1-2,0.1h-1.6c-0.6,0-0.8,0-0.9,0
					c0,0.1-0.1,0.2-0.1,0.4c-0.1,0.4-0.1,0.6,0,0.6c0.1,0.1,0.2,0.1,0.4,0.1c1.5,0,2.5,0,3.2,0.1l0.1,0.1l0,0.2
					c-0.2,0.8-0.3,1.5-0.4,1.9c0,0.2-0.1,0.2-0.2,0.2h-3.5c-0.1,0-0.2,0.2-0.3,0.7c-0.1,0.3,0.1,0.5,0.4,0.5c0.1,0,0.7,0,1.9,0
					c0.3,0,0.7,0,1.2,0c0.5,0,1,0,1.2,0c0.1,0.1,0.1,0.2,0,0.3l-0.3,1.8c0,0.1,0,0.1-0.1,0.2c-0.1,0.1-0.1,0.1-0.1,0.1h-7.3
					L111,46.4z"/>
				<path class="st3" d="M120.4,41.7c0.3-1.4,0.5-2.4,0.6-3.1c0,0,0-0.1,0.1-0.3c0-0.2,0.1-0.4,0.1-0.5c0.1-0.7,0.3-1.1,0.4-1.1h2.2
					l0.1,0.1l-0.5,3.1c0,0,0,0,0,0c0.1,0,0.1-0.1,0.1-0.1l2.6-2.9c0.2-0.2,0.3-0.3,0.4-0.3h3l0,0l0,0c0,0.1,0,0.1-0.1,0.2
					c-0.4,0.4-0.6,0.7-0.8,0.9c-1.1,1.2-1.8,2-2.1,2.3c-0.1,0.3,0,0.8,0.1,1.3c0,0.2,0.1,0.3,0.1,0.4l1,4.4c0,0,0,0.1,0,0.1
					c0,0.1-0.1,0.2-0.1,0.2h-2.8l-0.1-0.1c-0.3-1-0.5-1.8-0.7-2.6c0,0,0-0.2-0.1-0.5c0-0.2-0.1-0.3-0.1-0.4c0-0.1-0.1-0.1-0.1-0.1
					c-0.1,0-0.3,0.1-0.5,0.4c-0.2,0.2-0.3,0.4-0.5,0.6c-0.2,0.2-0.3,0.3-0.3,0.4c-0.2,1.3-0.4,2-0.5,2.3c0,0.1-0.1,0.2-0.2,0.2h-2.1
					l-0.1-0.2c0.1-0.4,0.1-1,0.3-1.6C119.9,44.1,120.1,43,120.4,41.7"/>
			</g>
			<g>
				<g>
					<defs>
						<path id="SVGID_00000158025333589725314410000007325374474104001980_" d="M121,52.9c2.8-0.2,4.2,0.9,5.4,2
							c1.1,1.1,2.3,3.1,4.5,4.1c0.1-3.9,1.6-6.3,2.4-7.5c-2.5-0.6-3.4-2.7-3.8-3.4c-0.4-0.7-1.1-2.8-4.1-3.1
							C124.5,47.2,122.3,51.3,121,52.9"/>
					</defs>
					<clipPath id="SVGID_00000039114193552669434140000006951096739641524899_">
						<use xlink:href="#SVGID_00000158025333589725314410000007325374474104001980_"  style="overflow:visible;"/>
					</clipPath>
					
						<linearGradient id="SVGID_00000122698796871070493220000017224477926917023122_" gradientUnits="userSpaceOnUse" x1="-991.3353" y1="1434.2046" x2="-991.2302" y2="1434.2046" gradientTransform="matrix(-81.7613 -34.4954 34.4954 -81.7613 -130394.7109 83119.7656)">
						<stop  offset="0" style="stop-color:#FFFFFF"/>
						<stop  offset="0.1124" style="stop-color:#F5F5F6"/>
						<stop  offset="0.2443" style="stop-color:#E3E3E6"/>
						<stop  offset="0.3856" style="stop-color:#C8C9D1"/>
						<stop  offset="0.3866" style="stop-color:#C7C9D1"/>
						<stop  offset="0.5605" style="stop-color:#E6E5E9"/>
						<stop  offset="0.7042" style="stop-color:#FFFFFF"/>
						<stop  offset="0.7758" style="stop-color:#F8F8F8"/>
						<stop  offset="0.8355" style="stop-color:#EAE9EB"/>
						<stop  offset="0.8908" style="stop-color:#D5D6D9"/>
						<stop  offset="0.9436" style="stop-color:#BBBDC3"/>
						<stop  offset="0.9941" style="stop-color:#9CA1AA"/>
						<stop  offset="1" style="stop-color:#989DA7"/>
					</linearGradient>
					
						<polygon style="clip-path:url(#SVGID_00000039114193552669434140000006951096739641524899_);fill:url(#SVGID_00000122698796871070493220000017224477926917023122_);" points="
						138.4,47.1 122.9,40.6 116,56.9 131.5,63.4 					"/>
				</g>
				<g>
					<defs>
						<path id="SVGID_00000164491092918240170860000003404849363116760449_" d="M125.5,44.7L116,61.2c-0.1,0.1,0,0.2,0.1,0.3
							c0,0,0.1,0,0.1,0c0.1,0,0.1,0,0.2-0.1l9.5-16.5c0.1-0.1,0-0.2-0.1-0.3c0,0-0.1,0-0.1,0C125.6,44.6,125.6,44.6,125.5,44.7"/>
					</defs>
					<use xlink:href="#SVGID_00000164491092918240170860000003404849363116760449_"  style="overflow:visible;fill:#030303;"/>
					<clipPath id="SVGID_00000090265268147794833110000010298588971846625958_">
						<use xlink:href="#SVGID_00000164491092918240170860000003404849363116760449_"  style="overflow:visible;"/>
					</clipPath>
					
						<rect x="111.2" y="44.4" transform="matrix(0.5199 -0.8542 0.8542 0.5199 12.7681 128.7771)" style="clip-path:url(#SVGID_00000090265268147794833110000010298588971846625958_);fill:#030303;" width="19.6" height="17.3"/>
				</g>
				<path class="st0" d="M129.5,50.8c0.1-0.3,0.3-0.7,0.4-1c0.2,0.4,0.5,0.7,0.7,0.9c-0.1,0.3-0.3,0.6-0.4,1
					C130,51.5,129.8,51.2,129.5,50.8"/>
				<path class="st0" d="M128.1,49.1c0.1-0.4,0.3-0.8,0.5-1.2c0.2,0.3,0.5,0.6,0.7,0.9c-0.1,0.4-0.3,0.8-0.4,1.1
					C128.6,49.7,128.4,49.4,128.1,49.1"/>
				<path class="st0" d="M129.8,52.8c0.1-0.3,0.3-0.7,0.4-1.1c0.3,0.3,0.6,0.6,0.9,0.8c-0.1,0.3-0.2,0.5-0.3,0.8
					c0,0.1-0.1,0.2-0.1,0.3C130.4,53.5,130.2,53.2,129.8,52.8"/>
				<path class="st0" d="M128,52.5c0.2,0.3,0.5,0.5,0.7,0.8c-0.2,0.5-0.4,0.9-0.6,1.4c-0.2-0.2-0.4-0.5-0.7-0.8c0,0-0.1-0.1-0.1-0.1
					C127.5,53.3,127.7,52.9,128,52.5C127.9,52.5,127.9,52.5,128,52.5"/>
				<path class="st0" d="M127,51.6c-0.3,0.5-0.5,0.9-0.7,1.3c-0.4-0.3-0.7-0.5-1.1-0.7c0.2-0.3,0.5-0.8,0.7-1.3
					C126.3,51.1,126.7,51.3,127,51.6"/>
				<path class="st0" d="M130.3,54.9c-0.2,0.5-0.3,1-0.5,1.5c-0.3-0.2-0.6-0.5-1-0.9c0.2-0.5,0.3-1,0.5-1.4
					C129.7,54.4,130,54.7,130.3,54.9"/>
				<path class="st0" d="M128.5,51.2C128.5,51.2,128.5,51.1,128.5,51.2c0.1-0.4,0.2-0.8,0.4-1.2c0,0,0,0,0,0
					c0.2,0.3,0.5,0.6,0.7,0.9c-0.1,0.4-0.3,0.8-0.4,1.1C128.9,51.7,128.7,51.5,128.5,51.2"/>
				<path class="st0" d="M125.9,47.8c0.2-0.4,0.4-0.8,0.6-1.3c0.4,0.1,0.8,0.3,1.2,0.6c-0.2,0.4-0.4,0.8-0.5,1.2
					C126.7,48.1,126.3,48,125.9,47.8"/>
				<path class="st0" d="M126.6,49.6c0.1-0.3,0.3-0.7,0.5-1.2c0.3,0.2,0.6,0.4,0.9,0.7c-0.2,0.5-0.3,0.9-0.5,1.2
					C127.3,50,127,49.8,126.6,49.6"/>
				<path class="st0" d="M129.1,52c0.3,0.3,0.5,0.6,0.7,0.9c0,0.1-0.1,0.3-0.1,0.4c-0.1,0.3-0.2,0.6-0.3,0.9
					c-0.2-0.2-0.5-0.5-0.8-0.8c0-0.1,0.1-0.2,0.1-0.3C128.9,52.7,129,52.3,129.1,52"/>
				<path class="st0" d="M126.6,49.8c-0.2,0.4-0.4,0.8-0.6,1.1c-0.5-0.3-1-0.4-1.4-0.6c0.3-0.5,0.6-1,0.7-1.3
					c0.4,0.1,0.9,0.3,1.4,0.5C126.6,49.7,126.6,49.7,126.6,49.8"/>
				<path class="st0" d="M127.6,50.3c0.3,0.2,0.5,0.5,0.8,0.8c-0.1,0.2-0.2,0.5-0.3,0.7c-0.1,0.2-0.2,0.4-0.3,0.7
					c-0.3-0.3-0.6-0.6-0.9-0.9c0.1-0.3,0.3-0.5,0.4-0.9C127.5,50.6,127.6,50.5,127.6,50.3"/>
				<path class="st0" d="M131.1,57.2c-0.1,0.5-0.1,1.1-0.2,1.7c-0.6-0.3-1.1-0.6-1.5-0.9c0.1-0.5,0.3-1.1,0.5-1.6
					C130.3,56.8,130.7,57.1,131.1,57.2"/>
				<path class="st0" d="M130.8,53.7c0.3,0.3,0.7,0.5,1.1,0.6c-0.2,0.4-0.3,0.9-0.5,1.4c-0.3-0.2-0.7-0.4-1.1-0.8
					C130.5,54.5,130.6,54.1,130.8,53.7"/>
				<path class="st0" d="M123.8,51.7c-0.7-0.2-1.3-0.2-1.7-0.2c0.3-0.4,0.5-0.9,0.8-1.3c0.4,0,1,0.1,1.7,0.3
					C124.3,50.8,124,51.2,123.8,51.7"/>
				<path class="st0" d="M127.2,53.7c-0.3,0.5-0.6,0.8-0.8,1.1c-0.3-0.3-0.6-0.6-1-0.8c0.3-0.3,0.5-0.6,0.9-1.2
					C126.6,53.1,126.9,53.4,127.2,53.7"/>
				<path class="st0" d="M125.2,52.2c-0.4,0.6-0.7,0.9-0.9,1.2c-0.4-0.2-0.9-0.3-1.4-0.4c0.2-0.3,0.6-0.8,0.9-1.3
					C124.2,51.8,124.7,51.9,125.2,52.2"/>
				<path class="st0" d="M131.6,51.6c0.4,0.3,0.8,0.5,1.2,0.6c-0.2,0.3-0.3,0.6-0.5,0.9c-0.4-0.2-0.8-0.4-1.2-0.6
					C131.3,52.2,131.5,51.9,131.6,51.6"/>
				<path class="st0" d="M128.9,55.5c-0.2,0.5-0.4,1-0.6,1.4c-0.3-0.4-0.7-0.7-1-1.1c0.2-0.3,0.5-0.7,0.7-1.2
					C128.3,54.9,128.6,55.2,128.9,55.5"/>
				<path class="st0" d="M124.9,46.3c0.2-0.5,0.4-0.9,0.6-1.3c0.6,0.1,1.1,0.2,1.5,0.4c-0.1,0.3-0.3,0.8-0.5,1.2
					C125.9,46.4,125.4,46.3,124.9,46.3"/>
				<path class="st0" d="M125.4,48.8c0,0.1-0.1,0.1-0.1,0.2c-0.6-0.2-1.2-0.2-1.7-0.3c0.2-0.4,0.4-0.8,0.7-1.2c0.5,0,1,0.1,1.6,0.2
					C125.7,48.3,125.5,48.6,125.4,48.8"/>
				<path class="st0" d="M130.6,50.8c0.1-0.2,0.2-0.5,0.3-0.7c0.3,0.3,0.6,0.6,1.1,0.8c-0.1,0.2-0.2,0.5-0.3,0.7
					C131.3,51.4,131,51.1,130.6,50.8"/>
				<path class="st0" d="M129.4,49.1c0-0.1-0.1-0.2-0.1-0.2c0.1-0.3,0.2-0.6,0.3-0.8c0,0,0,0,0,0.1c0.1,0.2,0.3,0.6,0.6,1
					c-0.1,0.2-0.2,0.5-0.3,0.7C129.7,49.6,129.6,49.4,129.4,49.1"/>
				<path class="st0" d="M127.7,47.2c0.2-0.4,0.3-0.8,0.5-1.1c0.3,0.3,0.6,0.6,0.8,0.9c-0.1,0.3-0.3,0.7-0.4,1
					C128.3,47.6,128,47.4,127.7,47.2"/>
				<g>
					<defs>
						<path id="SVGID_00000018921983244086109410000009098745261046819768_" d="M113.4,51.7c-0.4,0.7-1.2,2.8-3.8,3.4
							c0.8,1.2,2.3,3.6,2.4,7.5c2.2-1,3.4-3,4.5-4.1c1.1-1.1,2.5-2.2,5.4-2c-1.2-1.6-3.5-5.7-4.5-7.9C114.5,49,113.8,51,113.4,51.7"
							/>
					</defs>
					<clipPath id="SVGID_00000003102691785950775690000013835090725285239708_">
						<use xlink:href="#SVGID_00000018921983244086109410000009098745261046819768_"  style="overflow:visible;"/>
					</clipPath>
					
						<linearGradient id="SVGID_00000002372505989023903890000016169222304035594928_" gradientUnits="userSpaceOnUse" x1="-1001.2375" y1="1438.7646" x2="-1001.1324" y2="1438.7646" gradientTransform="matrix(81.7613 -34.4954 -34.4954 -81.7613 131604.6562 83154.6953)">
						<stop  offset="0" style="stop-color:#FFFFFF"/>
						<stop  offset="0.1124" style="stop-color:#F5F5F6"/>
						<stop  offset="0.2443" style="stop-color:#E3E3E6"/>
						<stop  offset="0.3856" style="stop-color:#C8C9D1"/>
						<stop  offset="0.3866" style="stop-color:#C7C9D1"/>
						<stop  offset="0.5605" style="stop-color:#E6E5E9"/>
						<stop  offset="0.7042" style="stop-color:#FFFFFF"/>
						<stop  offset="0.7758" style="stop-color:#F8F8F8"/>
						<stop  offset="0.8355" style="stop-color:#EAE9EB"/>
						<stop  offset="0.8908" style="stop-color:#D5D6D9"/>
						<stop  offset="0.9436" style="stop-color:#BBBDC3"/>
						<stop  offset="0.9941" style="stop-color:#9CA1AA"/>
						<stop  offset="1" style="stop-color:#989DA7"/>
					</linearGradient>
					
						<polygon style="clip-path:url(#SVGID_00000003102691785950775690000013835090725285239708_);fill:url(#SVGID_00000002372505989023903890000016169222304035594928_);" points="
						104.6,50.8 120.1,44.2 127,60.5 111.5,67.1 					"/>
				</g>
				<g>
					<defs>
						<path id="SVGID_00000075156939266118847960000008342592582309212087_" d="M117.2,48.3c-0.1,0.1-0.1,0.2-0.1,0.3l9.5,16.5
							c0,0.1,0.1,0.1,0.2,0.1c0,0,0.1,0,0.1,0c0.1-0.1,0.1-0.2,0.1-0.3l-9.5-16.5C117.4,48.3,117.4,48.3,117.2,48.3
							C117.3,48.3,117.3,48.3,117.2,48.3"/>
					</defs>
					<use xlink:href="#SVGID_00000075156939266118847960000008342592582309212087_"  style="overflow:visible;fill:#030303;"/>
					<clipPath id="SVGID_00000005233005106248817320000014453615338532695937_">
						<use xlink:href="#SVGID_00000075156939266118847960000008342592582309212087_"  style="overflow:visible;"/>
					</clipPath>
					
						<rect x="113.4" y="46.9" transform="matrix(0.8542 -0.5199 0.5199 0.8542 -11.6823 71.7364)" style="clip-path:url(#SVGID_00000005233005106248817320000014453615338532695937_);fill:#030303;" width="17.3" height="19.6"/>
				</g>
				<path class="st0" d="M113.5,54.5c-0.1-0.3-0.3-0.7-0.4-1c-0.2,0.4-0.5,0.7-0.7,0.9c0.1,0.3,0.3,0.6,0.4,1
					C113,55.1,113.2,54.8,113.5,54.5"/>
				<path class="st0" d="M114.9,52.8c-0.1-0.4-0.3-0.8-0.5-1.2c-0.2,0.3-0.5,0.6-0.7,0.9c0.1,0.4,0.3,0.8,0.4,1.1
					C114.4,53.3,114.7,53.1,114.9,52.8"/>
				<path class="st0" d="M113.2,56.5c-0.1-0.3-0.3-0.7-0.4-1.1c-0.3,0.3-0.6,0.6-0.9,0.8c0.1,0.3,0.2,0.5,0.3,0.8
					c0,0.1,0.1,0.2,0.1,0.3C112.6,57.1,112.9,56.8,113.2,56.5"/>
				<path class="st0" d="M115.1,56.2c-0.2,0.3-0.5,0.5-0.7,0.8c0.2,0.5,0.4,0.9,0.6,1.4c0.2-0.2,0.4-0.5,0.7-0.8
					c0,0,0.1-0.1,0.1-0.1C115.6,57,115.3,56.6,115.1,56.2C115.1,56.1,115.1,56.2,115.1,56.2"/>
				<path class="st0" d="M116,55.3c0.3,0.5,0.5,0.9,0.7,1.3c0.4-0.3,0.7-0.5,1.1-0.7c-0.2-0.3-0.5-0.8-0.7-1.3
					C116.7,54.8,116.3,55,116,55.3"/>
				<path class="st0" d="M112.7,58.6c0.2,0.5,0.3,1,0.5,1.5c0.3-0.2,0.6-0.5,1-0.9c-0.2-0.5-0.3-1-0.5-1.4
					C113.3,58.1,113,58.4,112.7,58.6"/>
				<path class="st0" d="M114.5,54.9C114.6,54.8,114.6,54.8,114.5,54.9c-0.1-0.4-0.2-0.8-0.4-1.2c0,0,0,0,0,0
					c-0.2,0.3-0.5,0.6-0.7,0.9c0.1,0.4,0.3,0.8,0.4,1.1C114.1,55.4,114.3,55.2,114.5,54.9"/>
				<path class="st0" d="M117.1,51.5c-0.2-0.4-0.4-0.8-0.6-1.3c-0.4,0.1-0.8,0.3-1.2,0.6c0.2,0.4,0.4,0.8,0.5,1.2
					C116.3,51.8,116.7,51.6,117.1,51.5"/>
				<path class="st0" d="M116.4,53.3c-0.1-0.3-0.3-0.7-0.5-1.2c-0.3,0.2-0.6,0.4-0.9,0.7c0.2,0.5,0.3,0.9,0.5,1.2
					C115.7,53.7,116,53.5,116.4,53.3"/>
				<path class="st0" d="M113.9,55.7c-0.3,0.3-0.5,0.6-0.7,0.9c0,0.1,0.1,0.3,0.1,0.4c0.1,0.3,0.2,0.6,0.3,0.9
					c0.2-0.2,0.5-0.5,0.8-0.8c0-0.1-0.1-0.2-0.1-0.3C114.2,56.3,114,56,113.9,55.7"/>
				<path class="st0" d="M116.5,53.5c0.2,0.4,0.4,0.8,0.6,1.1c0.5-0.3,1-0.4,1.4-0.6c-0.3-0.5-0.6-1-0.7-1.3
					c-0.4,0.1-0.9,0.3-1.4,0.5C116.4,53.4,116.4,53.4,116.5,53.5"/>
				<path class="st0" d="M115.4,54c-0.3,0.2-0.5,0.5-0.8,0.8c0.1,0.2,0.2,0.5,0.3,0.7c0.1,0.2,0.2,0.4,0.3,0.7
					c0.3-0.3,0.6-0.6,0.9-0.9c-0.1-0.3-0.3-0.5-0.4-0.9C115.5,54.3,115.5,54.2,115.4,54"/>
				<path class="st0" d="M111.9,60.9c0.1,0.5,0.1,1.1,0.2,1.7c0.6-0.3,1.1-0.6,1.5-0.9c-0.1-0.5-0.3-1.1-0.5-1.6
					C112.7,60.5,112.3,60.7,111.9,60.9"/>
				<path class="st0" d="M112.3,57.4c-0.3,0.3-0.7,0.5-1.1,0.6c0.2,0.4,0.3,0.9,0.5,1.4c0.3-0.2,0.7-0.4,1.1-0.8
					C112.6,58.2,112.4,57.7,112.3,57.4"/>
				<path class="st0" d="M119.3,55.3c0.7-0.2,1.3-0.2,1.7-0.2c-0.3-0.4-0.5-0.9-0.8-1.3c-0.4,0-1,0.1-1.7,0.3
					C118.7,54.5,119,54.9,119.3,55.3"/>
				<path class="st0" d="M115.8,57.4c0.3,0.5,0.6,0.8,0.8,1.1c0.3-0.3,0.6-0.6,1-0.8c-0.3-0.3-0.5-0.6-0.9-1.2
					C116.4,56.8,116.1,57.1,115.8,57.4"/>
				<path class="st0" d="M117.8,55.9c0.4,0.6,0.7,0.9,0.9,1.2c0.4-0.2,0.9-0.3,1.4-0.4c-0.2-0.3-0.6-0.8-0.9-1.3
					C118.8,55.4,118.3,55.6,117.8,55.9"/>
				<path class="st0" d="M111.4,55.3c-0.4,0.3-0.8,0.5-1.2,0.6c0.2,0.3,0.3,0.6,0.5,0.9c0.4-0.2,0.8-0.4,1.2-0.6
					C111.7,55.9,111.5,55.6,111.4,55.3"/>
				<path class="st0" d="M114.2,59.2c0.2,0.5,0.4,1,0.6,1.4c0.3-0.4,0.7-0.7,1-1.1c-0.2-0.3-0.5-0.7-0.7-1.2
					C114.7,58.6,114.4,58.9,114.2,59.2"/>
				<path class="st0" d="M118.1,50c-0.2-0.5-0.4-0.9-0.6-1.3c-0.6,0.1-1.1,0.2-1.5,0.4c0.1,0.3,0.3,0.8,0.5,1.2
					C117.1,50,117.6,50,118.1,50"/>
				<path class="st0" d="M117.6,52.5c0,0.1,0.1,0.1,0.1,0.2c0.6-0.2,1.2-0.2,1.7-0.3c-0.2-0.4-0.4-0.8-0.7-1.2c-0.5,0-1,0.1-1.6,0.2
					C117.3,51.9,117.5,52.3,117.6,52.5"/>
				<path class="st0" d="M112.4,54.4c-0.1-0.2-0.2-0.5-0.3-0.7c-0.3,0.3-0.6,0.6-1.1,0.8c0.1,0.2,0.2,0.5,0.3,0.7
					C111.7,55,112.1,54.8,112.4,54.4"/>
				<path class="st0" d="M113.6,52.8c0-0.1,0.1-0.2,0.1-0.2c-0.1-0.3-0.2-0.6-0.3-0.8c0,0,0,0,0,0.1c-0.1,0.2-0.3,0.6-0.6,1
					c0.1,0.2,0.2,0.5,0.3,0.7C113.3,53.3,113.4,53,113.6,52.8"/>
				<path class="st0" d="M115.3,50.9c-0.2-0.4-0.3-0.8-0.5-1.1c-0.3,0.3-0.6,0.6-0.8,0.9c0.1,0.3,0.3,0.7,0.4,1
					C114.7,51.3,115,51.1,115.3,50.9"/>
			</g>
		</g>
		<g>
			<g>
				<path class="st0" d="M40.1,41.6c-0.6,0-1.1-0.2-1.5-0.7c-1-1-1.2-3.1-0.3-4.2c1.3-1.6,2.6-3.1,3.9-4.7l0.2-0.2
					c0.8-0.9,1.5-1.8,2.3-2.7c-0.9,0.7-1.9,1.5-3,2.1c-0.6,0.3-1.2,0.5-1.8,0.7c-0.3,0.1-0.6,0.1-0.8,0.1c-0.5,0-1.2-0.2-1.9-0.9
					c-0.3-0.3-0.5-0.6-0.7-0.9c-0.5,0.4-0.9,0.7-1.4,1.1c-0.2,0.2-0.4,0.3-0.6,0.4l-0.1,0c-0.6,0.3-1,0.4-1.5,0.4
					c-0.9,0-1.5-0.6-1.9-1c-0.5-0.6-0.9-1.2-1-1.8c-0.4,0.4-2.1,2.1-2.1,2.1c-0.4,0.6-0.9,0.9-1.5,0.9c-0.3,0-0.8-0.1-1.3-0.6
					c-0.2-0.2-0.6-0.7-0.7-1.3c-0.1-0.5-0.3-2,0.7-3.3c0.9-1.1,3.1-3.9,3.1-3.9c0-0.1-0.1-0.2-0.1-0.3c-0.2-0.8,0.3-1.3,0.5-1.5
					c0.5-0.6,1-1,1.4-1.4c4.6-4,8.8-7.8,12.6-11.7c0.3-0.3,0.6-0.5,0.9-0.8c0.4-0.3,0.7-0.3,1-0.3c0.6,0,1.1,0.3,1.4,0.9
					c0,0,0.1,0.1,0.1,0.1l0.1,0.1c1.2,1.2,0.7,2.4,0.3,3c-0.3,0.4-0.6,0.8-1,1.2c-1.6,1.5-3.2,3.1-4.8,4.6c-0.2,0.2-0.5,0.5-0.7,0.7
					c0.4,0.1,0.7,0.4,1,0.8c0.3,0.4,0.6,0.9,0.7,1.5c0.1-0.1,0.2-0.2,0.4-0.3c0.2-0.2,0.4-0.3,0.6-0.5c0.4-0.3,0.8-0.7,1.2-1.1
					c0.9-0.7,1.8-1.1,2.7-1.1c0.9,0,1.8,0.3,2.6,1c1,0.8,1.4,1.8,1.3,2.9c0.7-0.7,1.5-1.4,2.2-2.1c0.4-0.4,0.9-0.8,1.3-1.2
					c0.6-0.6,1.2-0.7,1.6-0.7c0.8,0,1.6,0.5,2,1.4c0,0,0,0,0,0.1c0.1-0.1,0.3-0.2,0.4-0.3c0.4-0.3,1-0.6,1.7-0.6
					c1.2,0,1.8,0.9,2.2,1.4c0.9,1.3,0.9,2.7,0.1,4.1c-2.3,3.6-4.8,6.3-7.6,8.3c-0.5,0.4-1.2,0.7-1.8,0.9c-0.4,0.1-0.7,0.2-1.1,0.2
					c-0.9,0-1.8-0.4-2.3-1.2c-2.3,2.6-4.9,5.7-7.1,9.2C41.4,41.2,40.8,41.6,40.1,41.6z"/>
				<path class="st0" d="M11.1,33.4c-0.9,0-1.8-0.1-2.6-0.3c-1.5-0.4-2.8-1.7-3.5-3.5c-0.6-1.6-0.5-3.3,0.4-4.6
					c1.4-2.1,3.1-3.5,5.1-4.4c0.4-0.2,0.8-0.2,1.2-0.2c0.6,0,1.2,0.2,1.7,0.6c0.6,0.5,0.9,1,0.8,1.6c-0.1,0.6-0.5,1-1.1,1.3
					c-1.1,0.5-2,1.3-2.8,2.4c-0.1,0.2-0.2,0.4-0.3,0.6c-0.1,0.3-0.1,0.5,0,0.7c0.1,0.2,0.3,0.3,0.5,0.3c0.3,0.1,0.7,0.1,1.1,0.1
					c0.3,0,0.5,0,0.8,0c3.6-0.4,6.8-2.1,9.6-4.9c0.4-0.4,0.7-0.9,1.1-1.4c0.1-0.1,0.1-0.2,0.1-0.2c0,0-0.1-0.1-0.2-0.1
					c-0.8-0.3-1.7-0.5-2.6-0.7l-0.4-0.1c-0.3-0.1-0.7-0.1-1.1-0.2c-0.3,0-0.7-0.1-1-0.2c-1.1-0.2-2.1-0.9-2.7-2
					c-0.1-0.1-0.1-0.2-0.2-0.3c-0.1-0.2-0.2-0.4-0.3-0.5c-0.9-1.1-0.8-2.5,0-3.6c0.6-0.7,1.2-1.3,1.8-1.8c2-1.5,4.2-2.4,6.3-3.2
					c3.3-1.3,6.5-2.1,9.5-2.6c0.7-0.1,1.6-0.2,2.4-0.2c0.6,0,1.2,0.1,1.8,0.2C38,6.4,38.9,7.5,38.8,9c0,0.6-0.1,2.6-2.2,3.5
					c-1.7,0.7-3.2,1.2-4.8,1.4c-0.1,0-0.3,0-0.4,0c-0.9,0-1.5-0.4-1.9-1.2c-0.1-0.2-0.2-0.5-0.2-0.7c-2.9,0.7-6.1,2-8,3.1
					c1.2,0.2,2.5,0.5,3.7,1.1c3.1,1.4,4.2,4.5,2.8,7.6c-0.7,1.7-1.9,3.1-3.7,4.6c-3.1,2.5-6.6,4.1-10.4,4.8
					C12.7,33.3,11.9,33.4,11.1,33.4z"/>
				<g>
					<path class="st0" d="M39.8,40.7c-0.6,0-1.1-0.2-1.5-0.7c-1-1-1.2-3.1-0.3-4.2c1.3-1.6,2.6-3.1,3.9-4.7l0.2-0.2
						c0.8-0.9,1.5-1.8,2.3-2.7c-0.9,0.7-1.9,1.5-3,2.1c-0.6,0.3-1.2,0.5-1.8,0.7c-0.3,0.1-0.6,0.1-0.8,0.1c-0.5,0-1.2-0.2-1.9-0.9
						c-0.3-0.3-0.5-0.6-0.7-0.9c-0.5,0.4-0.9,0.7-1.4,1.1c-0.2,0.2-0.4,0.3-0.6,0.4l-0.1,0c-0.6,0.3-1,0.4-1.5,0.4
						c-0.9,0-1.5-0.6-1.9-1c-0.5-0.6-0.9-1.2-1-1.8c-0.4,0.4-2.1,2.1-2.1,2.1c-0.4,0.6-0.9,0.9-1.5,0.9c-0.3,0-0.8-0.1-1.3-0.6
						c-0.2-0.2-0.6-0.7-0.7-1.3c-0.1-0.5-0.3-2,0.7-3.3c0.9-1.1,3.1-3.9,3.1-3.9c0-0.1-0.1-0.2-0.1-0.3c-0.2-0.8,0.3-1.3,0.5-1.5
						c0.5-0.6,1-1,1.4-1.4c4.6-4,8.8-7.8,12.6-11.7c0.3-0.3,0.6-0.5,0.9-0.8c0.4-0.3,0.7-0.3,1-0.3c0.6,0,1.1,0.3,1.4,0.9
						c0,0,0.1,0.1,0.1,0.1l0.1,0.1c1.2,1.2,0.7,2.4,0.3,3c-0.3,0.4-0.6,0.8-1,1.2c-1.6,1.5-3.2,3.1-4.8,4.6
						c-0.2,0.2-0.5,0.5-0.7,0.7c0.4,0.1,0.7,0.4,1,0.8c0.3,0.4,0.6,0.9,0.7,1.5c0.1-0.1,0.2-0.2,0.4-0.3c0.2-0.2,0.4-0.3,0.6-0.5
						c0.4-0.3,0.8-0.7,1.2-1.1c0.9-0.7,1.8-1.1,2.7-1.1c0.9,0,1.8,0.3,2.6,1c1,0.8,1.4,1.8,1.3,2.9c0.7-0.7,1.5-1.4,2.2-2.1
						c0.4-0.4,0.9-0.8,1.3-1.2c0.6-0.6,1.2-0.7,1.6-0.7c0.8,0,1.6,0.5,2,1.4c0,0,0,0,0,0.1c0.1-0.1,0.3-0.2,0.4-0.3
						c0.4-0.3,1-0.6,1.7-0.6c1.2,0,1.8,0.9,2.2,1.4c0.9,1.3,0.9,2.7,0.1,4.1c-2.3,3.6-4.8,6.3-7.6,8.3c-0.5,0.4-1.2,0.7-1.8,0.9
						c-0.4,0.1-0.7,0.2-1.1,0.2c-0.9,0-1.8-0.4-2.3-1.2c-2.3,2.6-4.9,5.7-7.1,9.2C41.2,40.3,40.5,40.7,39.8,40.7z"/>
					<path class="st0" d="M29.8,22.2c-0.1-0.1-0.2-0.1-0.3-0.1c-0.4-0.2-0.5-0.2-0.2-0.6c0.4-0.4,0.9-0.9,1.3-1.3
						c4.4-3.8,8.6-7.6,12.7-11.7C43.5,8.2,43.8,8,44,7.8c0.2-0.1,0.4-0.1,0.5,0.1c0.1,0.2,0.3,0.3,0.4,0.5c0.5,0.5,0.5,0.9,0.2,1.4
						c-0.2,0.4-0.5,0.7-0.8,1c-3.5,3.4-7.1,6.7-10.6,10.1c-0.8,0.8-1.6,1.6-2.4,2.5c-0.1,0.1-0.2,0.2-0.2,0.3
						c0.8-0.6,1.5-1.2,2.3-1.8c1.6-1.2,3.2-2.3,4.9-3.4c0.6-0.4,0.9-0.4,1.3,0.1c0.2,0.3,0.4,0.7,0.4,1c0,0.3-0.3,0.6-0.5,0.8
						c-2.2,1.9-4.2,3.9-6.1,6.1c-0.2,0.3-0.4,0.6-0.6,0.9c0,0,0.1,0.1,0.1,0.1c0.2-0.1,0.4-0.1,0.6-0.3c0.9-0.6,1.8-1.3,2.7-2
						c2.1-1.8,4.2-3.6,6.3-5.5c0.6-0.5,1.2-1,1.8-1.6c1.2-1,2.5-1.1,3.7-0.1c0.8,0.6,1.1,1.4,0.7,2.4c-0.3,0.8-0.7,1.5-1.1,2.2
						c-0.1,0.1-0.1,0.2-0.2,0.3c0,0,0,0.1,0.1,0.1c0.5-0.2,1.1-0.4,1.6-0.7c0.5-0.3,1-0.7,1.4-1.1c1.3-1.2,2.6-2.5,3.9-3.7
						c0.6-0.6,1.2-0.4,1.6,0.4c0.2,0.5,0.1,0.8-0.2,1.2c-0.6,0.7-1.2,1.4-1.8,2.1c-0.1,0.1-0.2,0.2-0.2,0.4c0.3-0.3,0.6-0.5,1-0.8
						c1.2-0.9,2.3-1.8,3.5-2.6c1-0.7,1.4-0.5,2.1,0.5c0.6,0.9,0.6,1.8,0,2.7c-2,3.1-4.3,5.8-7.3,8c-0.4,0.3-1,0.6-1.5,0.8
						c-1,0.4-1.9-0.1-2.3-1.1c-0.1-0.3-0.2-0.7-0.3-1c-0.4,0.4-0.8,0.8-1.1,1.2c-2.7,3-5.3,6.2-7.4,9.6c-0.3,0.5-0.9,0.5-1.3,0.1
						c-0.5-0.5-0.7-1.9-0.2-2.5c1.3-1.6,2.7-3.3,4-4.9c1.9-2.3,3.8-4.5,5.7-6.8c0.1-0.1,0.1-0.2,0.2-0.3c-0.6,0.2-1.1,0.5-1.7,0.6
						c-0.5,0.1-1,0.1-1.5,0.2c-0.2,0-0.4,0.1-0.5,0.2c-1.4,1.3-2.8,2.6-4.5,3.5c-0.5,0.3-1,0.5-1.5,0.6c-0.5,0.2-1,0-1.4-0.4
						c-0.7-0.7-0.8-1.1-0.9-2.2c-0.1,0.1-0.2,0.2-0.3,0.2c-0.9,0.7-1.7,1.4-2.6,2c-0.1,0.1-0.3,0.2-0.5,0.3
						c-0.8,0.4-1.3,0.4-1.9-0.3c-0.8-0.8-1-1.8-0.5-2.9c0.4-0.7,0.8-1.5,1.3-2.2c-0.4,0.3-0.9,0.6-1.2,1c-1.5,1.4-3,2.9-4.5,4.4
						c-0.1,0.1-0.1,0.1-0.2,0.2c-0.2,0.4-0.5,0.4-0.9,0.1c-0.2-0.2-0.3-0.4-0.4-0.6c-0.1-0.8-0.1-1.6,0.4-2.3
						c1.2-1.5,2.5-3.1,3.7-4.6C29.6,22.5,29.7,22.4,29.8,22.2z M58.1,20.6C58.1,20.6,58.1,20.6,58.1,20.6c-0.5,0.1-0.8,0.4-1.2,0.6
						c-2.3,1.6-4.3,3.5-6.4,5.4c-0.1,0.1-0.1,0.3-0.1,0.4c0.2,0.6,0.5,0.8,1.1,0.5c0.5-0.3,0.9-0.6,1.3-0.9c1.8-1.5,3.3-3.2,4.6-5.1
						C57.7,21.3,57.9,21,58.1,20.6z M42.6,22.6c-1.3,1.4-2.7,2.9-3.6,4.6c0.1,0.1,0.1,0.1,0.2,0.2c1.7-0.7,2.9-2,4.3-3.1
						C43.2,23.7,42.9,23.2,42.6,22.6z M46.9,20c-1,0-2.3,1-2.4,1.9c-0.1,0.4,0,0.7,0.4,1C45.7,22.1,46.6,21.3,46.9,20z"/>
					<path class="st0" d="M10.9,32.5c-0.9,0-1.8-0.1-2.6-0.3c-1.5-0.4-2.8-1.7-3.5-3.5c-0.6-1.6-0.5-3.3,0.4-4.6
						c1.4-2.1,3.1-3.5,5.1-4.4c0.4-0.2,0.8-0.2,1.2-0.2c0.6,0,1.2,0.2,1.7,0.6c0.6,0.5,0.9,1,0.8,1.6c-0.1,0.6-0.5,1-1.1,1.3
						c-1.1,0.5-2,1.3-2.8,2.4c-0.1,0.2-0.2,0.4-0.3,0.6c-0.1,0.3-0.1,0.5,0,0.7c0.1,0.2,0.3,0.3,0.5,0.3c0.3,0.1,0.7,0.1,1.1,0.1
						c0.3,0,0.5,0,0.8,0c3.6-0.4,6.8-2.1,9.6-4.9c0.4-0.4,0.7-0.9,1.1-1.4c0.1-0.1,0.1-0.2,0.1-0.2c0,0-0.1-0.1-0.2-0.1
						c-0.8-0.3-1.7-0.5-2.6-0.7l-0.4-0.1c-0.3-0.1-0.7-0.1-1.1-0.2c-0.3,0-0.7-0.1-1-0.2c-1.1-0.2-2.1-0.9-2.7-2
						c-0.1-0.1-0.1-0.2-0.2-0.3c-0.1-0.2-0.2-0.4-0.3-0.5c-0.9-1.1-0.8-2.5,0-3.6c0.6-0.7,1.2-1.3,1.8-1.8c2-1.5,4.2-2.4,6.3-3.2
						c3.3-1.3,6.5-2.1,9.5-2.6c0.7-0.1,1.6-0.2,2.4-0.2c0.6,0,1.2,0.1,1.8,0.2c1.5,0.4,2.4,1.6,2.4,3.1c0,0.6-0.1,2.6-2.2,3.5
						c-1.7,0.7-3.2,1.2-4.8,1.4c-0.1,0-0.3,0-0.4,0c-0.9,0-1.5-0.4-1.9-1.2c-0.1-0.2-0.2-0.5-0.2-0.7c-2.9,0.7-6.1,2-8,3.1
						c1.2,0.2,2.5,0.5,3.7,1.1c3.1,1.4,4.2,4.5,2.8,7.6c-0.7,1.7-1.9,3.1-3.7,4.6c-3.1,2.5-6.6,4.1-10.4,4.8
						C12.4,32.4,11.6,32.5,10.9,32.5z"/>
					<path class="st0" d="M18,15c0.9,0.1,1.8,0.3,2.7,0.4c1.2,0.2,2.3,0.5,3.4,1c2.4,1.1,3.3,3.5,2.2,5.9c-0.8,1.7-2,3-3.4,4.1
						c-2.9,2.3-6.2,3.9-9.8,4.6c-1.5,0.3-3,0.3-4.5-0.1c-2.1-0.6-3.8-4-2.4-6.2c1.2-1.7,2.6-3.1,4.6-3.9c0.6-0.2,1.1-0.2,1.6,0.2
						c0.4,0.3,0.4,0.5-0.1,0.8C11,22.4,9.9,23.4,9,24.6c-0.2,0.3-0.3,0.6-0.4,0.8c-0.5,1.2,0.1,2.4,1.4,2.7c0.7,0.2,1.5,0.2,2.3,0.1
						c4.1-0.5,7.5-2.3,10.3-5.2c0.5-0.5,0.9-1.1,1.3-1.7c0.6-1,0.4-1.7-0.7-2.1c-1-0.4-2.1-0.6-3.2-0.9c-0.7-0.2-1.4-0.2-2.1-0.4
						c-0.8-0.2-1.4-0.7-1.8-1.4c-0.2-0.3-0.3-0.7-0.6-1c-0.5-0.7-0.5-1.4,0-2c0.4-0.6,1-1.1,1.5-1.6c1.8-1.4,3.9-2.3,6-3.1
						c3-1.2,6.1-2,9.3-2.5c1.2-0.2,2.4-0.4,3.7,0c0.9,0.2,1.5,0.9,1.4,1.8c0,1-0.3,1.9-1.4,2.4c-1.4,0.6-2.9,1.1-4.5,1.3
						c-0.5,0.1-0.8,0-1-0.5c-0.1-0.3-0.1-0.5,0.2-0.7c0.6-0.4,1.3-0.7,1.9-1.1c0.1-0.1,0.2-0.2,0.4-0.3C28.2,9.4,19.2,12.9,18,15z"
						/>
				</g>
			</g>
			<g>
				<path class="st8" d="M29.7,22c-0.1-0.1-0.2-0.1-0.3-0.1c-0.4-0.2-0.5-0.2-0.2-0.6c0.4-0.4,0.9-0.9,1.3-1.3
					c4.4-3.8,8.6-7.6,12.7-11.7C43.5,8,43.7,7.8,44,7.6c0.2-0.1,0.4-0.1,0.5,0.1c0.1,0.2,0.3,0.3,0.4,0.5c0.5,0.5,0.5,0.9,0.2,1.4
					c-0.2,0.4-0.5,0.7-0.8,1c-3.5,3.4-7.1,6.7-10.6,10.1c-0.8,0.8-1.6,1.6-2.4,2.5c-0.1,0.1-0.2,0.2-0.2,0.3
					c0.8-0.6,1.5-1.2,2.3-1.8c1.6-1.2,3.2-2.3,4.9-3.4c0.6-0.4,0.9-0.4,1.3,0.1c0.2,0.3,0.4,0.7,0.4,1c0,0.3-0.3,0.6-0.5,0.8
					c-2.2,1.9-4.2,3.9-6.1,6.1c-0.2,0.3-0.4,0.6-0.6,0.9c0,0,0.1,0.1,0.1,0.1c0.2-0.1,0.4-0.1,0.6-0.3c0.9-0.6,1.8-1.3,2.7-2
					c2.1-1.8,4.2-3.6,6.3-5.5c0.6-0.5,1.2-1,1.8-1.6c1.2-1,2.5-1.1,3.7-0.1c0.8,0.6,1.1,1.4,0.7,2.4c-0.3,0.8-0.7,1.5-1.1,2.2
					c-0.1,0.1-0.1,0.2-0.2,0.3c0,0,0,0.1,0.1,0.1c0.5-0.2,1.1-0.4,1.6-0.7c0.5-0.3,1-0.7,1.4-1.1c1.3-1.2,2.6-2.5,3.9-3.7
					c0.6-0.6,1.2-0.4,1.6,0.4c0.2,0.5,0.1,0.8-0.2,1.2c-0.6,0.7-1.2,1.4-1.8,2.1c-0.1,0.1-0.2,0.2-0.2,0.4c0.3-0.3,0.6-0.5,1-0.8
					c1.2-0.9,2.3-1.8,3.5-2.6c1-0.7,1.4-0.5,2.1,0.5c0.6,0.9,0.6,1.8,0,2.7c-2,3.1-4.3,5.8-7.3,8c-0.4,0.3-1,0.6-1.5,0.8
					c-1,0.4-1.9-0.1-2.3-1.1c-0.1-0.3-0.2-0.7-0.3-1c-0.4,0.4-0.8,0.8-1.1,1.2c-2.7,3-5.3,6.2-7.4,9.6c-0.3,0.5-0.9,0.5-1.3,0.1
					c-0.5-0.5-0.7-1.9-0.2-2.5c1.3-1.6,2.7-3.3,4-4.9c1.9-2.3,3.8-4.5,5.7-6.8c0.1-0.1,0.1-0.2,0.2-0.3c-0.6,0.2-1.1,0.5-1.7,0.6
					c-0.5,0.1-1,0.1-1.5,0.2c-0.2,0-0.4,0.1-0.5,0.2c-1.4,1.3-2.8,2.6-4.5,3.5c-0.5,0.3-1,0.5-1.5,0.6c-0.5,0.2-1,0-1.4-0.4
					c-0.7-0.7-0.8-1.1-0.9-2.2c-0.1,0.1-0.2,0.2-0.3,0.2c-0.9,0.7-1.7,1.4-2.6,2c-0.1,0.1-0.3,0.2-0.5,0.3c-0.8,0.4-1.3,0.4-1.9-0.3
					c-0.8-0.8-1-1.8-0.5-2.9c0.4-0.7,0.8-1.5,1.3-2.2c-0.4,0.3-0.9,0.6-1.2,1c-1.5,1.4-3,2.9-4.5,4.4c-0.1,0.1-0.1,0.1-0.2,0.2
					c-0.2,0.4-0.5,0.4-0.9,0.1c-0.2-0.2-0.3-0.4-0.4-0.6c-0.1-0.8-0.1-1.6,0.4-2.3c1.2-1.5,2.5-3.1,3.7-4.6
					C29.5,22.2,29.6,22.1,29.7,22z M58.1,20.4C58.1,20.4,58,20.3,58.1,20.4c-0.5,0.1-0.8,0.4-1.2,0.6c-2.3,1.6-4.3,3.5-6.4,5.4
					c-0.1,0.1-0.1,0.3-0.1,0.4c0.2,0.6,0.5,0.8,1.1,0.5c0.5-0.3,0.9-0.6,1.3-0.9c1.8-1.5,3.3-3.2,4.6-5.1
					C57.7,21.1,57.9,20.7,58.1,20.4z M42.6,22.4c-1.3,1.4-2.7,2.9-3.6,4.6c0.1,0.1,0.1,0.1,0.2,0.2c1.7-0.7,2.9-2,4.3-3.1
					C43.1,23.5,42.9,22.9,42.6,22.4z M46.9,19.8c-1,0-2.3,1-2.4,1.9c-0.1,0.4,0,0.7,0.4,1C45.7,21.8,46.6,21,46.9,19.8z"/>
				<path class="st8" d="M18,14.8c0.9,0.1,1.8,0.3,2.7,0.4c1.2,0.2,2.3,0.5,3.4,1c2.4,1.1,3.3,3.5,2.2,5.9c-0.8,1.7-2,3-3.4,4.1
					c-2.9,2.3-6.2,3.9-9.8,4.6c-1.5,0.3-3,0.3-4.5-0.1c-2.1-0.6-3.8-4-2.4-6.2c1.2-1.7,2.6-3.1,4.6-3.9c0.6-0.2,1.1-0.2,1.6,0.2
					c0.4,0.3,0.4,0.5-0.1,0.8c-1.4,0.6-2.5,1.6-3.3,2.8c-0.2,0.3-0.3,0.6-0.4,0.8c-0.5,1.2,0.1,2.4,1.4,2.7c0.7,0.2,1.5,0.2,2.3,0.1
					c4.1-0.5,7.5-2.3,10.3-5.2c0.5-0.5,0.9-1.1,1.3-1.7c0.6-1,0.4-1.7-0.7-2.1c-1-0.4-2.1-0.6-3.2-0.9c-0.7-0.2-1.4-0.2-2.1-0.4
					c-0.8-0.2-1.4-0.7-1.8-1.4c-0.2-0.3-0.3-0.7-0.6-1c-0.5-0.7-0.5-1.4,0-2c0.4-0.6,1-1.1,1.5-1.6c1.8-1.4,3.9-2.3,6-3.1
					c3-1.2,6.1-2,9.3-2.5c1.2-0.2,2.4-0.4,3.7,0c0.9,0.2,1.5,0.9,1.4,1.8c0,1-0.3,1.9-1.4,2.4c-1.4,0.6-2.9,1.1-4.5,1.3
					c-0.5,0.1-0.8,0-1-0.5c-0.1-0.3-0.1-0.5,0.2-0.7c0.6-0.4,1.3-0.7,1.9-1.1c0.1-0.1,0.2-0.2,0.4-0.3C28.2,9.2,19.1,12.7,18,14.8z"
					/>
			</g>
		</g>
		<g>
			<path class="st0" d="M14.1,56.5c3,0,4.8,1.4,4.8,4.6c0,3.5-2.3,6.4-5.9,6.4c-3,0-4.8-1.6-4.8-4.6C8.2,59.3,10.5,56.5,14.1,56.5z
				 M13,64.8c1.9,0,2.6-2.3,2.6-3.8c0-1-0.4-1.9-1.6-1.9c-1.9,0-2.6,2.3-2.6,3.8C11.4,63.8,11.8,64.8,13,64.8z"/>
			<path class="st0" d="M20.7,56.7h5.2c1.9,0,3.2,1.1,3.2,3.4c0,2.1-1.8,3.9-4.5,3.9h-2.2l-0.7,3.2h-3.2L20.7,56.7z M22.9,61.5h1.2
				c1.3,0,1.7-0.5,1.7-1.2c0-0.8-0.7-0.9-1.4-0.9h-1.1L22.9,61.5z"/>
			<path class="st0" d="M30.4,56.7h8.6l-0.5,2.7h-5.4l-0.3,1.3h5l-0.5,2.5h-5L32,64.5h5.5L37,67.2h-8.7L30.4,56.7z"/>
			<path class="st0" d="M40.1,56.7h3.2l2,5.7h0l1.2-5.7h3.1l-2.2,10.4h-3.2l-1.9-5.8h0L41,67.2h-3.1L40.1,56.7z"/>
			<path class="st3" d="M52.8,60.9c0.3-2.7,2.1-4.1,4.5-4.1c2,0,3.9,0.9,3.9,3.2c0,3-3.3,3.6-5.4,4.6v0h4.8l-0.5,2.5h-8.7
				c0.4-3.1,2.5-3.9,4.7-5c1.5-0.7,2.2-1,2.2-2c0-0.5-0.3-1-1.2-1c-1.1,0-1.6,0.8-1.6,1.7H52.8z"/>
			<path class="st3" d="M65.6,65.1h-4.7l0.6-2.7l5.8-5.4h2.9L69,62.6h1.3l-0.5,2.5h-1.3l-0.5,2h-2.9L65.6,65.1z M66.2,62.6l0.6-2.9
				h0l-2.9,2.9H66.2z"/>
			<path class="st0" d="M76,61.3c0-0.3-0.1-0.5-0.3-0.7c-0.2-0.1-0.5-0.2-0.7-0.2c-0.4,0-1,0.1-1,0.7c0,0.6,1.3,0.7,2.1,1
				c1.5,0.5,1.9,1.3,1.9,2.3c0,2-2,3-3.8,3c-1.9,0-3.6-0.9-3.5-3h2.5c0,0.5,0.1,0.7,0.3,0.9c0.2,0.2,0.5,0.2,0.9,0.2
				c0.5,0,1.1-0.3,1.1-0.8c0-0.6-0.9-0.7-2-1.1c-1-0.3-2-0.9-2-2.3c0-1.9,1.8-2.7,3.5-2.7c1.8,0,3.4,0.7,3.3,2.7H76z"/>
			<path class="st0" d="M79.6,58.8h6.9l-0.4,2.1h-4.3l-0.2,1h4l-0.4,2h-4l-0.2,1h4.4l-0.4,2.1h-7L79.6,58.8z"/>
			<path class="st0" d="M90.2,67.2h-2.9l-0.7-8.4h2.5l0.4,4.9h0l2.2-4.9h2.7L90.2,67.2z"/>
			<path class="st0" d="M94.5,58.8h6.9l-0.4,2.1h-4.3l-0.2,1h4l-0.4,2h-4l-0.2,1h4.4l-0.4,2.1h-7L94.5,58.8z"/>
			<path class="st0" d="M102.2,58.8h2.6l1.6,4.6h0l0.9-4.6h2.4l-1.8,8.4h-2.5l-1.5-4.7h0l-1,4.7h-2.4L102.2,58.8z"/>
		</g>
	</g>
</g>
</svg>
