<?xml version="1.0" encoding="utf-8"?>
<!-- Generator: Adobe Illustrator 25.2.1, SVG Export Plug-In . SVG Version: 6.00 Build 0)  -->
<svg version="1.1" id="Lager_1" xmlns="http://www.w3.org/2000/svg" xmlns:xlink="http://www.w3.org/1999/xlink" x="0px" y="0px"
	 viewBox="0 0 400 200" style="enable-background:new 0 0 400 200;" xml:space="preserve">
<style type="text/css">
	.st0{fill:#FCFAD4;}
	.st1{fill:#E1001E;}
	.st2{clip-path:url(#SVGID_2_);fill:url(#SVGID_3_);}
	.st3{clip-path:url(#SVGID_5_);fill:url(#SVGID_6_);}
	.st4{fill:#020203;}
	.st5{clip-path:url(#SVGID_8_);fill:url(#SVGID_9_);}
	.st6{clip-path:url(#SVGID_11_);fill:url(#SVGID_12_);}
	.st7{fill:#FF8F00;}
</style>
<path d="M391.1,64.2c-2.1-1.8-4.7-2.7-8-2.7c-56.6,0-113.2,0-169.8,0c-57.9,0-115.7,0-173.6,0c0,0,0,0,0,0
	c-7.2,0-13.4,5.4-14.2,12.2c-0.4,3-0.8,6-1.3,9c-0.2,1.2-0.4,2.5-0.6,3.7l-1.1,7.5c-0.5,3.5-1,6.9-1.5,10.4
	c-0.4,2.8-0.8,5.7-1.2,8.5c-0.4,2.8-0.8,5.6-1.2,8.4c-0.4,2.8-0.8,5.7-1.2,8.5c-0.4,2.8-0.8,5.6-1.2,8.5c-0.4,2.7-0.8,5.4-1.2,8.1
	c-0.4,2.6-0.7,5.2-1.1,7.9c-0.4,2.7-0.8,5.3-1.2,8c-0.3,2.4-0.7,4.7-1,7.1l-0.6,4.1c-0.6,3.9-1.2,8-1.7,12c-0.5,4,0.8,7.5,4,10.2
	c2.1,1.8,4.7,2.7,8,2.7c38.5,0,77,0,115.5,0c9.4,0,18.8,0,28.2,0h199.3c4.7,0,8.6-1.8,11.6-5.4c1.5-1.8,2.4-3.7,2.7-5.7
	c0.4-2.3,0.7-4.6,1-6.8c0.1-1,0.3-2.1,0.4-3.1l0.8-5.8c0.6-4,1.2-8.1,1.8-12.1c0.4-2.8,0.8-5.7,1.2-8.5c0.4-2.8,0.8-5.6,1.2-8.5
	c0.4-2.9,0.8-5.9,1.3-8.8c0.4-3,0.9-6.1,1.3-9.1c0.4-2.8,0.8-5.7,1.2-8.5c0.4-2.8,0.8-5.6,1.2-8.5c0.4-2.9,0.8-5.8,1.3-8.7
	c0.4-2.4,0.7-4.9,1.1-7.3c0.2-1.5,0.4-3,0.7-4.5c0.6-4.2,1.2-8.4,1.8-12.7C395.6,70.3,394.2,66.8,391.1,64.2z"/>
<g>
	<path class="st0" d="M387.5,58.4c-2.1-1.8-4.7-2.7-8-2.7c-56.6,0-113.2,0-169.8,0c-57.9,0-115.7,0-173.6,0c0,0,0,0,0,0
		c-7.2,0-13.4,5.4-14.2,12.2c-0.4,3-0.8,6-1.3,9c-0.2,1.2-0.4,2.5-0.6,3.7L19,88.1c-0.5,3.5-1,6.9-1.5,10.4
		c-0.4,2.8-0.8,5.7-1.2,8.5c-0.4,2.8-0.8,5.6-1.2,8.4c-0.4,2.8-0.8,5.7-1.2,8.5c-0.4,2.8-0.8,5.6-1.2,8.5c-0.4,2.7-0.8,5.4-1.2,8.1
		c-0.4,2.6-0.7,5.2-1.1,7.9c-0.4,2.7-0.8,5.3-1.2,8c-0.3,2.4-0.7,4.7-1,7.1l-0.6,4.1c-0.6,3.9-1.2,8-1.7,12c-0.5,4,0.8,7.5,4,10.2
		c2.1,1.8,4.7,2.7,8,2.7c38.5,0,77,0,115.5,0c9.4,0,18.8,0,28.2,0h199.3c4.7,0,8.6-1.8,11.6-5.4c1.5-1.8,2.4-3.7,2.7-5.7
		c0.4-2.3,0.7-4.6,1-6.8c0.1-1,0.3-2.1,0.4-3.1l0.8-5.8c0.6-4,1.2-8.1,1.8-12.1c0.4-2.8,0.8-5.7,1.2-8.5c0.4-2.8,0.8-5.6,1.2-8.5
		c0.4-2.9,0.8-5.9,1.3-8.8c0.4-3,0.9-6.1,1.3-9.1c0.4-2.8,0.8-5.7,1.2-8.5c0.4-2.8,0.8-5.6,1.2-8.5c0.4-2.9,0.8-5.8,1.3-8.7
		c0.4-2.4,0.7-4.9,1.1-7.3c0.2-1.5,0.4-3,0.7-4.5c0.6-4.2,1.2-8.4,1.8-12.7C391.9,64.6,390.6,61.1,387.5,58.4z"/>
	<g>
		<path class="st1" d="M207.8,59.8c57.2,0,114.3,0,171.5,0c1.2,0,2.4,0.2,3.5,0.6c2.8,1.1,4.5,4.2,4.1,7.3
			c-1.1,7.5-2.2,15.1-3.3,22.6c-1.1,7.6-2.2,15.1-3.2,22.7c-1,6.9-2,13.9-3,20.8c-0.9,6-1.7,11.9-2.6,17.9
			c-0.9,6.3-1.8,12.6-2.7,18.9c-0.4,2.9-0.8,5.9-1.3,8.8c-0.7,4.5-4.7,8-9.3,8.1c-0.2,0-0.4,0-0.6,0c-114.3,0-228.6,0-343,0
			c-1.2,0-2.5-0.2-3.6-0.6c-2.8-1.1-4.5-4.2-4-7.3c1.1-8,2.3-16.1,3.4-24.1c1.2-8.2,2.4-16.4,3.6-24.6c1-7.3,2.1-14.5,3.1-21.8
			c0.9-6,1.7-11.9,2.6-17.9c0.9-5.9,1.7-11.9,2.5-17.8c0.3-2.2,0.5-4.4,1.1-6.5c1-4.1,4.9-7,9.2-7.1c0.3,0,0.6,0,0.8,0H207.8z"/>
		<path d="M361.3,189.2c-0.1,0-0.1,0-0.2,0l-0.2,0h-21.7c-107.1,0-214.2,0-321.3,0c-1.5,0-2.9-0.3-4.2-0.7c-3.5-1.4-5.7-5.2-5.1-9.1
			l1.4-9.9c0.7-4.7,1.3-9.4,2-14.2c0.6-4,1.2-8.1,1.7-12.1c0.6-4.2,1.2-8.4,1.8-12.6c0.5-3.7,1.1-7.4,1.6-11.1
			c0.5-3.6,1-7.1,1.5-10.7c0.4-3.1,0.9-6.3,1.4-9.4c0.4-2.8,0.8-5.7,1.2-8.5c0.4-2.6,0.7-5.1,1.1-7.7c0.5-3.4,1-6.8,1.5-10.2
			c0.1-0.5,0.1-1,0.2-1.5c0.2-1.7,0.5-3.4,0.9-5.1c1.2-4.8,5.7-8.3,10.8-8.3c0.2,0,0.4,0,0.6,0l0.2,0h188.4c51.4,0,102.8,0,154.2,0
			c1.4,0,2.9,0.3,4.1,0.7c3.5,1.3,5.7,5.2,5.1,9.1c-0.5,3.8-1.1,7.6-1.6,11.4c-0.5,3.8-1.1,7.5-1.6,11.3c-0.5,3.7-1.1,7.4-1.6,11.1
			c-0.6,3.9-1.1,7.7-1.7,11.6c-0.5,3.5-1,7.1-1.5,10.6c-0.5,3.4-1,6.8-1.5,10.2c-0.4,3-0.9,6-1.3,9c-0.4,3-0.8,6-1.3,8.9
			c-0.6,4.2-1.2,8.4-1.8,12.6l-0.9,6.3c-0.1,0.9-0.3,1.9-0.4,2.8c-0.3,2-0.6,4-0.9,6c-0.8,5.3-5.5,9.4-10.9,9.5
			C361.5,189.2,361.4,189.2,361.3,189.2z M339.3,185.9l21.8,0c0.1,0,0.3,0,0.4,0c3.7-0.1,7.1-3,7.6-6.7c0.3-2,0.6-4,0.9-5.9
			c0.1-0.9,0.3-1.9,0.4-2.8l0.9-6.3c0.6-4.2,1.2-8.4,1.8-12.6c0.4-3,0.9-6,1.3-8.9c0.4-3,0.8-6,1.3-9c0.5-3.4,1-6.8,1.5-10.2
			c0.5-3.5,1-7.1,1.5-10.6c0.6-3.9,1.1-7.7,1.7-11.6c0.5-3.7,1.1-7.4,1.6-11.1c0.5-3.8,1.1-7.5,1.6-11.3c0.5-3.8,1.1-7.6,1.6-11.4
			c0.3-2.3-1-4.7-3-5.4c-0.9-0.3-1.9-0.5-2.9-0.5c-51.4,0-102.8,0-154.2,0l-189.2,0c-3.5,0-6.7,2.5-7.6,5.8
			c-0.4,1.5-0.6,3.1-0.8,4.7c-0.1,0.5-0.1,1.1-0.2,1.6c-0.5,3.4-1,6.8-1.5,10.2c-0.4,2.6-0.7,5.1-1.1,7.7c-0.4,2.8-0.8,5.7-1.2,8.5
			c-0.5,3.1-0.9,6.2-1.4,9.4c-0.5,3.6-1,7.1-1.5,10.7c-0.5,3.7-1.1,7.4-1.6,11.1c-0.6,4.2-1.2,8.4-1.8,12.6c-0.6,4-1.2,8-1.7,12.1
			c-0.7,4.7-1.4,9.4-2,14.2l-1.4,9.9c-0.3,2.3,0.9,4.7,3,5.5c0.9,0.3,1.9,0.5,3,0.5C125.1,185.9,232.2,185.9,339.3,185.9z"/>
	</g>
	<path class="st0" d="M364.9,178.9c0,1.3-1.1,2.3-2.4,2.3c-1.3,0-2.4-1-2.4-2.3c0-1.3,1.1-2.3,2.4-2.3
		C363.8,176.6,364.9,177.6,364.9,178.9 M360.7,178.9c0,1,0.8,1.9,1.8,1.9c1,0,1.8-0.8,1.8-1.8c0-1-0.8-1.9-1.8-1.9
		C361.4,177,360.7,177.9,360.7,178.9 M362.1,180.1h-0.5v-2.3c0.2,0,0.5-0.1,0.9-0.1c0.4,0,0.6,0.1,0.8,0.2c0.1,0.1,0.2,0.3,0.2,0.5
		c0,0.3-0.2,0.5-0.5,0.6v0c0.2,0.1,0.3,0.3,0.4,0.6c0.1,0.4,0.1,0.5,0.2,0.6H363c-0.1-0.1-0.1-0.3-0.2-0.6c0-0.2-0.2-0.4-0.5-0.4
		h-0.3V180.1z M362.1,178.8h0.3c0.3,0,0.5-0.1,0.5-0.3c0-0.2-0.2-0.4-0.5-0.4c-0.1,0-0.2,0-0.3,0V178.8z"/>
	<path d="M40.5,66H373c0.1,0,0.2,0.1,0.4,0.1c3.5,0.6,6,3.3,5.8,6.9c-0.2,2.8-0.7,5.6-1.1,8.4c-0.7,4.5-1.3,9.1-2,13.6
		c-0.7,4.5-1.3,9.1-2,13.6c-0.7,4.6-1.3,9.2-2,13.8c-0.3,1.6-0.4,3.3-1,4.9c-1.4,3.9-5.1,6.4-9.3,6.4c-110,0-220,0-330,0
		c-0.3,0-0.6,0-0.9,0c-1.2-0.1-2.3-0.4-3.3-1c-2.5-1.6-3.6-4.3-3.1-7.7c0.8-5.5,1.6-11,2.5-16.5c0.8-5.5,1.6-11,2.4-16.5
		c0.9-5.8,1.7-11.6,2.6-17.4c0.6-4.2,3-6.9,7-8.3C39.4,66.2,39.9,66.1,40.5,66"/>
	<g>
		<path class="st0" d="M37.8,109.1h13.7c0.3,0,0.6,0.3,0.8,0.8c0.3,0.7,0.6,1,0.7,1.1c0.6,0.4,1.6,0.7,3.2,0.7c0.7,0,1.3-0.2,2-0.5
			c0.8-0.5,1.3-1.2,1.5-2.1c0.3-1.3-0.4-2-1.9-2.3c-2.1-0.3-4.2-0.5-6.3-0.8c-2.8-0.4-5-1.1-6.7-1.9c-2.2-1.1-3.7-2.7-4.3-4.6
			c-0.4-1.2-0.6-2.3-0.4-3.3c0.1-0.5,0.2-1.3,0.4-2.2c0.5-2.6,1.3-4.7,2.2-6.4c3.4-5.9,9.7-8.9,19-8.9c7.8,0,12.4,2.8,13.7,8.3
			c0.4,1.7,0.5,3,0.3,3.8c0,0.2-0.3,0.5-0.8,0.8h-4.2c-0.2,0-2.5-0.1-6.8-0.3c-0.7,0-1.3-0.1-1.7-0.1c-0.4-0.1-0.9-0.6-1.7-1.5
			c-0.6-0.7-1.5-1.1-2.6-1.1c-2.2,0-3.5,0.8-3.8,2.3c-0.2,1.1,0.4,1.8,1.7,2.2c3.5,0.8,6.3,1.3,8.2,1.6c3.2,0.6,5.4,1.2,6.4,2
			c2.9,2.1,3.9,5.7,2.8,10.9c-1,5-3.2,8.6-6.4,10.9c-2.1,1.4-5.2,2.5-9.3,3.2c-2.1,0.3-3.8,0.5-5.4,0.5c-4.2,0-7.2-0.4-9-1.1
			c-3-1.2-4.9-3.8-5.8-7.6c-0.3-1.4-0.4-2.5-0.2-3.3C37,109.8,37.3,109.4,37.8,109.1"/>
		<path class="st0" d="M81.7,80.1c2.5-0.2,3.9-0.3,4.3-0.3h19.2c1.3,0,3.8,0.1,7.5,0.3l0.3,0.7l-2,9.8h-9.6
			c-0.2,0.1-0.5,0.4-0.8,0.8c0.1-0.6-0.7,3.3-2.6,11.6c-1.7,7.9-3,13.8-3.9,17.8l-0.3,0.6h-9.8c-0.4,0-0.6-0.3-0.4-1l5.7-27.7
			c0.3-1.3,0.2-1.9-0.3-1.9c-0.5,0-1.4,0-2.8,0.1c-1.4,0-2.4,0.1-3.1,0.1c-1.1,0-2-0.1-2.7-0.2c-0.8-0.1-1.2-0.4-1.1-0.9l1.8-9
			L81.7,80.1z"/>
		<path class="st0" d="M107.8,120.1c0.1-0.7,0.3-1.3,0.4-1.9l0.5-2.8c0.5-2.8,0.8-4.2,0.8-4.4l1.3-6.2c0.6-3.1,1.4-6.7,2.3-11l2-9.4
			c0.4-1.8,0.7-3.1,0.8-4c0.1-0.2,0.3-0.4,0.7-0.5c1.6-0.2,2.8-0.3,3.5-0.3c0.4,0,1.5,0,3.5-0.1c1.5-0.1,2.6-0.1,3.5-0.1h14.4
			c2.8,0,4.8,1.3,6.2,3.8c1.4,2.6,1.7,6,0.8,10.1c-0.6,3.1-1.6,5.4-2.8,6.9c-0.6,0.7-2.2,2.1-4.8,4.1c-0.4,0.3-0.6,0.6-0.8,0.9
			c0,0.4,0,0.8,0.1,1.3l2.7,12.9l-0.3,1.7h-11.5c-0.5-1.1-1.1-2.9-1.6-5.4c-0.4-2-0.8-3.9-1.2-5.9c0-0.2-0.1-0.8-0.3-1.8
			c-0.1-0.7-0.2-1.3-0.3-1.6c-0.1-0.3-0.3-0.5-0.5-0.5h-4.9c-0.3,0.3-0.5,0.5-0.6,0.6c-0.2,0.3-0.3,0.5-0.4,0.7l-2.8,13.5l-0.4,0.4
			c-2.4,0.2-4,0.3-4.7,0.3h-5.2C107.9,121.4,107.7,121,107.8,120.1 M125.7,95.3c1,0,2.4-0.1,4.3-0.2c1.9-0.1,3.4-0.2,4.3-0.2
			c0.5,0,0.9-0.2,1.4-0.6c0.4-0.4,0.7-1,0.9-1.7c0.3-1.7-0.2-2.5-1.6-2.5h-9.4c-0.4,0-0.8,0.8-1.1,2.4c-0.1,0.6-0.2,1.3-0.2,2.1
			C124.5,95,125,95.3,125.7,95.3"/>
		<path class="st0" d="M145.7,120.7c0.1-0.6,0.3-1.4,0.5-2.4c0.2-1.1,0.3-1.9,0.5-2.4l1.5-7.4c1.5-7.4,2.8-13.5,3.9-18.3
			c1.1-4.9,1.9-8.1,2.3-9.8c0.2-0.2,0.3-0.3,0.4-0.4c0.6-0.4,2.7-0.6,6.5-0.6h4.8c2.4,0,5.2,0,8.5,0.1c6.3,0.1,9.8,0.2,10.3,0.3
			c0.5,0,0.7,0.2,0.7,0.6c0,0.7-0.1,1.9-0.5,3.6c-0.5,2.4-1,4.3-1.4,5.7l-0.3,0.4c-3.2,0.2-6.1,0.4-9,0.4h-7.2
			c-2.5,0-3.7,0.1-3.8,0.2c-0.2,0.3-0.4,0.8-0.6,1.5c-0.3,1.6-0.4,2.5-0.1,2.6c0.4,0.3,1,0.5,1.9,0.5c6.4,0,11.1,0.1,14.1,0.3
			l0.3,0.6l-0.2,0.9c-0.7,3.5-1.3,6.1-1.8,7.8c-0.2,0.7-0.5,1-0.8,1h-15.4c-0.6,0-1,0.9-1.4,2.8c-0.3,1.3,0.3,2,1.7,2
			c0.3,0,3.2,0.1,8.6,0.1c1.2,0,3,0,5.4,0.1c2.4,0.1,4.2,0.1,5.4,0.1c0.2,0.2,0.3,0.7,0.2,1.3l-1.5,7.5c0,0.2-0.2,0.6-0.4,1
			c-0.2,0.4-0.4,0.6-0.6,0.6H146L145.7,120.7z"/>
		<path class="st0" d="M181.5,120.7c0.1-0.6,0.3-1.4,0.5-2.4c0.2-1.1,0.3-1.9,0.5-2.4l1.5-7.4c1.5-7.4,2.8-13.5,3.9-18.3
			c1.1-4.9,1.9-8.1,2.3-9.8c0.2-0.2,0.3-0.3,0.4-0.4c0.6-0.4,2.7-0.6,6.5-0.6h4.8c2.4,0,5.2,0,8.5,0.1c6.3,0.1,9.8,0.2,10.3,0.3
			c0.5,0,0.7,0.2,0.7,0.6c0,0.7-0.1,1.9-0.5,3.6c-0.5,2.4-1,4.3-1.4,5.7l-0.3,0.4c-3.2,0.2-6.1,0.4-9,0.4H203
			c-2.5,0-3.7,0.1-3.8,0.2c-0.2,0.3-0.4,0.8-0.6,1.5c-0.3,1.6-0.4,2.5-0.1,2.6c0.4,0.3,1,0.5,1.9,0.5c6.4,0,11.1,0.1,14.1,0.3
			l0.3,0.6l-0.2,0.9c-0.7,3.5-1.3,6.1-1.8,7.8c-0.2,0.7-0.5,1-0.8,1h-15.4c-0.6,0-1,0.9-1.4,2.8c-0.3,1.3,0.3,2,1.7,2
			c0.3,0,3.2,0.1,8.6,0.1c1.2,0,3,0,5.4,0.1c2.4,0.1,4.2,0.1,5.4,0.1c0.2,0.2,0.3,0.7,0.2,1.3l-1.5,7.5c0,0.2-0.2,0.6-0.4,1
			c-0.2,0.4-0.4,0.6-0.6,0.6h-32.1L181.5,120.7z"/>
		<path class="st0" d="M226,80.1c2.5-0.2,3.9-0.3,4.3-0.3h19.2c1.3,0,3.8,0.1,7.5,0.3l0.3,0.7l-2,9.8h-9.6c-0.2,0.1-0.5,0.4-0.8,0.8
			c0.1-0.6-0.7,3.3-2.6,11.6c-1.7,7.9-3,13.8-3.9,17.8l-0.3,0.6h-9.8c-0.4,0-0.6-0.3-0.4-1l5.7-27.7c0.3-1.3,0.2-1.9-0.3-1.9
			c-0.5,0-1.4,0-2.8,0.1c-1.4,0-2.4,0.1-3.1,0.1c-1.1,0-2-0.1-2.7-0.2c-0.8-0.1-1.2-0.4-1.1-0.9l1.8-9L226,80.1z"/>
		<path class="st0" d="M259.8,91.1h6.6c0.1,0,0.2,0.2,0.3,0.5l0.3,12.6c0,0,0.1,0,0.1,0c0.2,0,0.4-0.2,0.6-0.7l5.2-12.2
			c0.1-0.3,0.4-0.4,0.8-0.4c0.6,0,1.5,0,2.7,0.1c1.2,0.1,2.1,0.1,2.7,0.1c0.2,0,0.3,0.1,0.3,0.4c0.2,3.7,0.4,6.4,0.5,8.3
			c0.1,2.2,0.2,3.4,0.3,3.6c0.1,0.3,0.1,0.5,0.2,0.5h0.1l0.4-0.9l4.7-11.5c0.1-0.2,0.2-0.4,0.2-0.5c0.1-0.2,0.9-0.2,2.3-0.2h2.5
			c1.4,0,2.1,0.1,2.1,0.4l-0.1,0.3c0,0.1,0,0.2,0,0.2l-6.2,15.2c-0.4,0.9-0.7,1.5-0.9,1.9l-3.8,8.9c-0.3,0.7-0.6,1.1-0.9,1.1h-6.6
			c-0.1,0-0.2-0.4-0.3-1.3l-0.4-9.1c0-0.1,0.1-0.2,0.1-0.3c0.1-0.3,0-0.6-0.1-1c-0.1-0.3-0.2-0.5-0.4-0.5s-0.3,0.2-0.5,0.7
			l-4.8,11.1l-0.6,0.5c-3.9,0.1-5.8,0.2-5.9,0.2c-0.6,0-0.9-0.4-0.9-1.1l-0.9-25.6L259.8,91.1z"/>
		<path class="st0" d="M290,118.7c0.1-0.4,0.2-0.9,0.3-1.6c0.1-0.7,0.2-1.3,0.3-1.6l1-5c1-5,1.8-9.1,2.5-12.3
			c0.7-3.3,1.2-5.5,1.5-6.6c0.1-0.1,0.2-0.2,0.3-0.3c0.4-0.3,1.8-0.4,4.1-0.4h3.1c1.5,0,3.4,0,5.4,0.1c4,0.1,6.2,0.2,6.6,0.2
			c0.3,0,0.5,0.2,0.5,0.4c0,0.4-0.1,1.3-0.3,2.4c-0.3,1.6-0.6,2.9-0.9,3.9l-0.2,0.2c-2,0.2-3.9,0.2-5.7,0.2h-4.6
			c-1.6,0-2.4,0-2.5,0.1c-0.1,0.2-0.3,0.5-0.4,1c-0.2,1.1-0.2,1.7-0.1,1.8c0.3,0.2,0.6,0.3,1.2,0.3c4.1,0,7.1,0.1,9,0.2l0.2,0.4
			l-0.1,0.6c-0.5,2.4-0.8,4.1-1.1,5.2c-0.1,0.4-0.3,0.7-0.5,0.7h-9.9c-0.4,0-0.7,0.6-0.9,1.9c-0.2,0.9,0.2,1.3,1.1,1.4
			c0.2,0,2,0,5.5,0c0.8,0,1.9,0,3.5,0.1c1.5,0.1,2.7,0.1,3.5,0.1c0.2,0.2,0.2,0.5,0.1,0.9l-1,5c0,0.2-0.1,0.4-0.3,0.7
			c-0.1,0.3-0.3,0.4-0.4,0.4h-20.5L290,118.7z"/>
		<path class="st0" d="M313.9,118.7c0.1-0.4,0.2-0.9,0.3-1.6c0.1-0.7,0.2-1.3,0.3-1.6l1-5c1-5,1.8-9.1,2.5-12.3
			c0.7-3.3,1.2-5.5,1.5-6.6c0.1-0.1,0.2-0.2,0.3-0.3c0.4-0.3,1.8-0.4,4.1-0.4h3.1c1.5,0,3.4,0,5.4,0.1c4,0.1,6.2,0.2,6.6,0.2
			c0.3,0,0.5,0.2,0.5,0.4c0,0.4-0.1,1.3-0.3,2.4c-0.3,1.6-0.6,2.9-0.9,3.9L338,98c-2,0.2-3.9,0.2-5.7,0.2h-4.6c-1.6,0-2.4,0-2.5,0.1
			c-0.1,0.2-0.3,0.5-0.4,1c-0.2,1.1-0.2,1.7-0.1,1.8c0.3,0.2,0.6,0.3,1.2,0.3c4.1,0,7.1,0.1,9,0.2l0.2,0.4l-0.1,0.6
			c-0.5,2.4-0.8,4.1-1.1,5.2c-0.1,0.4-0.3,0.7-0.5,0.7h-9.9c-0.4,0-0.7,0.6-0.9,1.9c-0.2,0.9,0.2,1.3,1.1,1.4c0.2,0,2,0,5.5,0
			c0.8,0,1.9,0,3.5,0.1c1.5,0.1,2.7,0.1,3.5,0.1c0.2,0.2,0.2,0.5,0.1,0.9l-1,5c0,0.2-0.1,0.4-0.3,0.7c-0.1,0.3-0.3,0.4-0.4,0.4
			h-20.5L313.9,118.7z"/>
		<path class="st0" d="M340.4,105.2c0.8-3.9,1.4-6.8,1.8-8.7c0-0.1,0.1-0.4,0.2-0.9c0.1-0.6,0.2-1,0.3-1.4c0.4-2.1,0.8-3.1,1.2-3.1
			h6.2l0.2,0.4l-1.4,8.7c0,0,0,0,0.1,0c0.2-0.1,0.3-0.2,0.4-0.2l7.2-8c0.5-0.6,0.9-0.9,1.1-0.9h8.5l0.1,0.1l0,0.1
			c0,0.2-0.1,0.3-0.2,0.5c-1,1.1-1.8,2-2.3,2.5c-3.1,3.4-5.1,5.6-5.9,6.6c-0.2,0.9,0,2.2,0.4,3.7c0.1,0.5,0.2,0.9,0.2,1.1l2.9,12.4
			c0,0.1,0,0.2,0,0.3c-0.1,0.4-0.2,0.6-0.3,0.6h-7.9l-0.2-0.2c-0.7-2.7-1.3-5.2-1.8-7.4c0-0.1-0.1-0.6-0.2-1.4
			c-0.1-0.6-0.2-1-0.3-1.3c-0.1-0.3-0.3-0.4-0.4-0.4c-0.3,0-0.7,0.3-1.4,1c-0.4,0.5-0.9,1.1-1.3,1.6c-0.5,0.6-0.8,1-0.9,1.1
			c-0.7,3.6-1.2,5.7-1.5,6.5c-0.1,0.3-0.3,0.5-0.6,0.5h-6l-0.2-0.5c0.2-1.3,0.4-2.8,0.8-4.6C339,112,339.6,109.1,340.4,105.2"/>
	</g>
	<g>
		<g>
			<defs>
				<path id="SVGID_1_" d="M342.2,136.9c8-0.5,12,2.5,15.2,5.6c3.2,3.1,6.6,8.8,12.7,11.5c0.3-11.1,4.6-17.7,6.9-21.2
					c-7.1-1.6-9.5-7.6-10.6-9.6c-1.1-2-3.2-7.8-11.4-8.6C352.1,120.9,345.7,132.5,342.2,136.9"/>
			</defs>
			<clipPath id="SVGID_2_">
				<use xlink:href="#SVGID_1_"  style="overflow:visible;"/>
			</clipPath>
			
				<linearGradient id="SVGID_3_" gradientUnits="userSpaceOnUse" x1="-863.603" y1="1494.6941" x2="-863.3069" y2="1494.6941" gradientTransform="matrix(-81.7613 -34.4954 34.4954 -81.7613 -121797.4062 92557.3672)">
				<stop  offset="0" style="stop-color:#FFFFFF"/>
				<stop  offset="0.1121" style="stop-color:#FAFAFA"/>
				<stop  offset="0.2438" style="stop-color:#ECECEC"/>
				<stop  offset="0.3847" style="stop-color:#D4D4D4"/>
				<stop  offset="0.3866" style="stop-color:#D4D4D4"/>
				<stop  offset="0.561" style="stop-color:#EEEEEE"/>
				<stop  offset="0.7042" style="stop-color:#FFFFFF"/>
				<stop  offset="0.7764" style="stop-color:#FCFCFC"/>
				<stop  offset="0.8365" style="stop-color:#F1F1F1"/>
				<stop  offset="0.8923" style="stop-color:#E0E0E0"/>
				<stop  offset="0.9455" style="stop-color:#C8C8C8"/>
				<stop  offset="0.9964" style="stop-color:#A9A9A9"/>
				<stop  offset="1" style="stop-color:#A6A6A6"/>
			</linearGradient>
			<polygon class="st2" points="391.1,120.6 347.4,102.2 328.1,148.1 371.7,166.5 			"/>
		</g>
		<g>
			<defs>
				<path id="SVGID_4_" d="M354.9,113.8l-26.8,46.5c-0.1,0.2-0.1,0.6,0.2,0.7c0.1,0,0.2,0.1,0.3,0.1c0.2,0,0.4-0.1,0.5-0.3
					l26.8-46.5c0.1-0.2,0.1-0.6-0.2-0.7c-0.1,0-0.2-0.1-0.3-0.1C355.2,113.5,355,113.6,354.9,113.8"/>
			</defs>
			<clipPath id="SVGID_5_">
				<use xlink:href="#SVGID_4_"  style="overflow:visible;"/>
			</clipPath>
			
				<linearGradient id="SVGID_6_" gradientUnits="userSpaceOnUse" x1="-810.3989" y1="1340.595" x2="-810.1028" y2="1340.595" gradientTransform="matrix(-2.5321 -1.5413 1.5413 -2.5321 -3775.4543 2283.2544)">
				<stop  offset="0" style="stop-color:#747474"/>
				<stop  offset="1" style="stop-color:#000000"/>
			</linearGradient>
			<polygon class="st3" points="377.1,126.4 335.5,101.1 306.8,148.2 348.4,173.5 			"/>
		</g>
		<path class="st4" d="M366.1,131.1c0.4-1,0.7-1.9,1.1-2.9c0.7,1,1.4,1.8,2.1,2.6c-0.4,0.9-0.7,1.8-1.1,2.7
			C367.5,132.9,366.9,132.1,366.1,131.1"/>
		<path class="st4" d="M362.1,126.3c0.4-1.1,0.9-2.2,1.3-3.4c0.7,0.7,1.4,1.6,2,2.6c-0.4,1-0.8,2.1-1.2,3.2
			C363.5,127.8,362.8,127,362.1,126.3"/>
		<path class="st4" d="M367,136.8c0.4-0.9,0.8-2,1.2-3.2c0.9,0.9,1.7,1.7,2.6,2.3c-0.3,0.8-0.6,1.5-0.9,2.3
			c-0.1,0.3-0.2,0.6-0.3,0.9C368.7,138.5,367.9,137.7,367,136.8"/>
		<path class="st4" d="M361.7,135.8c0.7,0.8,1.3,1.5,1.9,2.2c-0.6,1.4-1.1,2.7-1.7,3.8c-0.6-0.7-1.2-1.4-1.9-2.2
			c-0.1-0.1-0.2-0.2-0.3-0.4c0.7-1.1,1.3-2.2,1.9-3.6C361.6,135.7,361.7,135.7,361.7,135.8"/>
		<path class="st4" d="M359.1,133.2c-0.8,1.5-1.4,2.6-2,3.6c-1-0.8-2.1-1.4-3.1-1.9c0.6-0.9,1.3-2.1,2.1-3.6
			C357.1,131.8,358.1,132.5,359.1,133.2"/>
		<path class="st4" d="M368.3,142.7c-0.4,1.3-0.9,2.7-1.3,4.1c-0.9-0.7-1.8-1.5-2.8-2.5c0.5-1.3,1-2.7,1.5-4.1
			C366.7,141.2,367.5,142,368.3,142.7"/>
		<path class="st4" d="M363.2,132.1c0-0.1-0.1-0.1-0.1-0.2c0.4-1,0.8-2.1,1.2-3.2c0,0,0,0,0,0c0.7,0.9,1.3,1.7,1.9,2.4
			c-0.4,1.1-0.8,2.2-1.2,3.2C364.4,133.7,363.8,132.9,363.2,132.1"/>
		<path class="st4" d="M355.9,122.6c0.5-1.1,1.1-2.3,1.7-3.5c1.1,0.4,2.3,0.9,3.4,1.7c-0.5,1.2-1,2.3-1.5,3.4
			C358.3,123.5,357,123,355.9,122.6"/>
		<path class="st4" d="M358,127.6c0.4-0.8,0.9-2,1.5-3.4c0.9,0.5,1.7,1.2,2.6,2c-0.5,1.3-0.9,2.4-1.3,3.3
			C359.9,128.8,358.9,128.2,358,127.6"/>
		<path class="st4" d="M364.9,134.3c0.7,0.9,1.4,1.7,2.1,2.4c-0.1,0.4-0.3,0.7-0.4,1c-0.3,0.8-0.6,1.6-0.9,2.4
			c-0.7-0.7-1.4-1.4-2.1-2.3c0.1-0.3,0.2-0.6,0.4-0.9C364.2,136.3,364.6,135.4,364.9,134.3"/>
		<path class="st4" d="M357.7,128.2c-0.6,1.2-1.1,2.2-1.6,3.2c-1.4-0.7-2.7-1.2-4-1.6c0.9-1.5,1.6-2.8,2-3.6
			c1.2,0.3,2.5,0.8,3.8,1.5C357.9,127.9,357.8,128,357.7,128.2"/>
		<path class="st4" d="M360.8,129.6c0.8,0.7,1.5,1.4,2.2,2.3c-0.3,0.7-0.5,1.3-0.7,1.9c-0.2,0.6-0.5,1.2-0.8,1.8
			c-0.8-0.9-1.6-1.7-2.5-2.4c0.4-0.7,0.8-1.5,1.2-2.4C360.4,130.6,360.6,130.1,360.8,129.6"/>
		<path class="st4" d="M370.5,149.1c-0.2,1.5-0.4,3.1-0.4,4.9c-1.6-0.7-3-1.6-4.3-2.7c0.4-1.5,0.8-3,1.3-4.6
			C368.3,147.9,369.5,148.6,370.5,149.1"/>
		<path class="st4" d="M369.6,139.1c0.9,0.7,1.9,1.3,3.1,1.8c-0.5,1.2-0.9,2.5-1.3,4c-0.9-0.5-1.9-1.3-3-2.2
			C368.7,141.4,369.2,140.2,369.6,139.1"/>
		<path class="st4" d="M349.9,133.4c-2-0.5-3.7-0.6-4.9-0.7c0.7-1.2,1.5-2.4,2.3-3.8c1.2,0.1,2.9,0.3,4.7,0.8
			C351.4,131,350.6,132.2,349.9,133.4"/>
		<path class="st4" d="M359.7,139.2c-0.8,1.3-1.6,2.4-2.4,3.2c-0.8-0.8-1.7-1.6-2.7-2.3c0.8-0.8,1.5-1.8,2.5-3.3
			C358,137.5,358.8,138.3,359.7,139.2"/>
		<path class="st4" d="M354,134.9c-1,1.6-1.9,2.5-2.6,3.3c-1.2-0.5-2.5-0.9-3.9-1.2c0.7-0.9,1.5-2.2,2.5-3.7
			C351.2,133.8,352.6,134.2,354,134.9"/>
		<path class="st4" d="M372,133.2c1.1,0.7,2.2,1.3,3.5,1.8c-0.5,0.8-1,1.6-1.4,2.6c-1.2-0.5-2.3-1-3.3-1.8
			C371.2,135,371.6,134.1,372,133.2"/>
		<path class="st4" d="M364.3,144.3c-0.6,1.5-1.2,3-1.8,4c-1-1-1.9-2.1-2.7-3.1c0.7-0.9,1.4-2.1,2.1-3.5
			C362.7,142.7,363.5,143.5,364.3,144.3"/>
		<path class="st4" d="M353.2,118.3c0.7-1.3,1.3-2.6,1.8-3.6c1.6,0.2,3,0.5,4.2,1c-0.4,1-1,2.2-1.5,3.5
			C355.9,118.5,354.4,118.3,353.2,118.3"/>
		<path class="st4" d="M354.5,125.5c-0.1,0.2-0.2,0.4-0.3,0.7c-1.8-0.5-3.4-0.7-4.7-0.8c0.6-1.1,1.3-2.3,1.9-3.4
			c1.3,0,2.9,0.2,4.6,0.7C355.3,123.9,354.7,124.9,354.5,125.5"/>
		<path class="st4" d="M369.3,130.9c0.3-0.7,0.5-1.3,0.8-2c0.8,0.9,1.8,1.7,3,2.4c-0.3,0.6-0.6,1.3-1,1.9
			C371.1,132.6,370.2,131.8,369.3,130.9"/>
		<path class="st4" d="M365.8,126.2c-0.1-0.2-0.3-0.4-0.4-0.6c0.3-0.8,0.6-1.6,0.9-2.4c0,0.1,0.1,0.1,0.1,0.2
			c0.4,0.6,0.9,1.7,1.6,2.9c-0.3,0.7-0.5,1.4-0.8,2.1C366.7,127.6,366.3,126.9,365.8,126.2"/>
		<path class="st4" d="M361,120.8c0.5-1.2,1-2.3,1.4-3.2c0.9,0.8,1.6,1.6,2.2,2.4c-0.4,0.9-0.7,1.9-1.1,2.9
			C362.6,122.1,361.8,121.4,361,120.8"/>
		<g>
			<defs>
				<path id="SVGID_7_" d="M320.7,133.6c-1.1,2-3.5,8-10.6,9.6c2.3,3.4,6.5,10.1,6.9,21.2c6.2-2.7,9.5-8.4,12.7-11.5
					c3.2-3.1,7.2-6.1,15.2-5.6c-3.5-4.4-9.9-15.9-12.8-22.2C323.9,125.8,321.8,131.6,320.7,133.6"/>
			</defs>
			<clipPath id="SVGID_8_">
				<use xlink:href="#SVGID_7_"  style="overflow:visible;"/>
			</clipPath>
			
				<linearGradient id="SVGID_9_" gradientUnits="userSpaceOnUse" x1="-871.6031" y1="1498.3701" x2="-871.3071" y2="1498.3701" gradientTransform="matrix(81.7613 -34.4954 -34.4954 -81.7613 123265.3516 92592.2891)">
				<stop  offset="0" style="stop-color:#FFFFFF"/>
				<stop  offset="0.1121" style="stop-color:#FAFAFA"/>
				<stop  offset="0.2438" style="stop-color:#ECECEC"/>
				<stop  offset="0.3847" style="stop-color:#D4D4D4"/>
				<stop  offset="0.3866" style="stop-color:#D4D4D4"/>
				<stop  offset="0.561" style="stop-color:#EEEEEE"/>
				<stop  offset="0.7042" style="stop-color:#FFFFFF"/>
				<stop  offset="0.7764" style="stop-color:#FCFCFC"/>
				<stop  offset="0.8365" style="stop-color:#F1F1F1"/>
				<stop  offset="0.8923" style="stop-color:#E0E0E0"/>
				<stop  offset="0.9455" style="stop-color:#C8C8C8"/>
				<stop  offset="0.9964" style="stop-color:#A9A9A9"/>
				<stop  offset="1" style="stop-color:#A6A6A6"/>
			</linearGradient>
			<polygon class="st5" points="296,130.9 339.6,112.5 359,158.4 315.3,176.8 			"/>
		</g>
		<g>
			<defs>
				<path id="SVGID_10_" d="M331.4,123.9c-0.2,0.1-0.3,0.5-0.2,0.7l26.8,46.5c0.1,0.2,0.3,0.3,0.5,0.3c0.1,0,0.2,0,0.3-0.1
					c0.2-0.1,0.3-0.5,0.2-0.7l-26.8-46.5c-0.1-0.2-0.3-0.3-0.5-0.3C331.6,123.8,331.5,123.9,331.4,123.9"/>
			</defs>
			<clipPath id="SVGID_11_">
				<use xlink:href="#SVGID_10_"  style="overflow:visible;"/>
			</clipPath>
			
				<linearGradient id="SVGID_12_" gradientUnits="userSpaceOnUse" x1="-1031.1179" y1="1484.6581" x2="-1030.8218" y2="1484.6581" gradientTransform="matrix(2.5321 -1.5413 -1.5413 -2.5321 5243.4175 2318.1841)">
				<stop  offset="0" style="stop-color:#747474"/>
				<stop  offset="1" style="stop-color:#000000"/>
			</linearGradient>
			<polygon class="st6" points="310,136.7 351.5,111.4 380.2,158.5 338.7,183.8 			"/>
		</g>
		<path class="st4" d="M320.9,141.5c-0.4-1-0.7-1.9-1.1-2.9c-0.7,1-1.4,1.8-2.1,2.6c0.4,0.9,0.7,1.8,1,2.7
			C319.5,143.2,320.2,142.4,320.9,141.5"/>
		<path class="st4" d="M324.9,136.7c-0.4-1.1-0.9-2.2-1.3-3.4c-0.7,0.7-1.4,1.6-2,2.6c0.4,1,0.8,2.1,1.2,3.2
			C323.5,138.1,324.2,137.3,324.9,136.7"/>
		<path class="st4" d="M320,147.1c-0.4-0.9-0.8-2-1.2-3.2c-0.9,0.9-1.7,1.7-2.6,2.3c0.3,0.8,0.6,1.5,0.9,2.3
			c0.1,0.3,0.2,0.6,0.3,0.9C318.3,148.8,319.2,148,320,147.1"/>
		<path class="st4" d="M325.3,146.1c-0.7,0.8-1.3,1.5-1.9,2.2c0.6,1.4,1.1,2.7,1.7,3.8c0.6-0.7,1.2-1.4,1.9-2.2
			c0.1-0.1,0.2-0.2,0.3-0.4c-0.7-1.1-1.3-2.2-1.9-3.6C325.4,146,325.4,146.1,325.3,146.1"/>
		<path class="st4" d="M328,143.6c0.8,1.5,1.4,2.6,2,3.6c1-0.8,2.1-1.4,3.1-1.9c-0.6-0.9-1.3-2.1-2.1-3.6
			C329.9,142.2,328.9,142.8,328,143.6"/>
		<path class="st4" d="M318.7,153c0.4,1.3,0.9,2.7,1.3,4.1c0.9-0.7,1.8-1.5,2.8-2.5c-0.5-1.3-1-2.7-1.5-4.1
			C320.4,151.5,319.5,152.3,318.7,153"/>
		<path class="st4" d="M323.9,142.4c0-0.1,0.1-0.1,0.1-0.2c-0.4-1-0.8-2.1-1.2-3.2c0,0,0,0,0,0c-0.7,0.9-1.3,1.7-1.9,2.4
			c0.4,1.1,0.8,2.2,1.2,3.2C322.7,144,323.2,143.3,323.9,142.4"/>
		<path class="st4" d="M331.2,133c-0.5-1.1-1.1-2.3-1.7-3.5c-1.1,0.4-2.3,0.9-3.4,1.7c0.5,1.2,1,2.3,1.5,3.4
			C328.8,133.8,330,133.3,331.2,133"/>
		<path class="st4" d="M329.1,138c-0.4-0.8-0.9-2-1.5-3.4c-0.9,0.5-1.7,1.2-2.6,2c0.5,1.3,0.9,2.4,1.3,3.3
			C327.1,139.2,328.1,138.5,329.1,138"/>
		<path class="st4" d="M322.1,144.7c-0.7,0.9-1.4,1.7-2.1,2.4c0.1,0.4,0.3,0.7,0.4,1c0.3,0.8,0.6,1.6,0.9,2.4
			c0.7-0.7,1.4-1.4,2.1-2.3c-0.1-0.3-0.2-0.6-0.4-0.9C322.8,146.6,322.5,145.7,322.1,144.7"/>
		<path class="st4" d="M329.3,138.5c0.6,1.2,1.1,2.2,1.6,3.2c1.4-0.7,2.7-1.2,4-1.6c-0.9-1.5-1.6-2.8-2-3.6
			c-1.2,0.3-2.5,0.8-3.8,1.5C329.2,138.2,329.2,138.4,329.3,138.5"/>
		<path class="st4" d="M326.2,139.9c-0.8,0.7-1.5,1.4-2.2,2.3c0.3,0.7,0.5,1.3,0.7,1.9c0.2,0.6,0.5,1.2,0.8,1.8
			c0.8-0.9,1.6-1.7,2.5-2.4c-0.4-0.7-0.8-1.5-1.2-2.4C326.6,140.9,326.4,140.5,326.2,139.9"/>
		<path class="st4" d="M316.5,159.5c0.2,1.5,0.4,3.1,0.4,4.9c1.6-0.7,3-1.6,4.3-2.7c-0.4-1.5-0.8-3-1.3-4.6
			C318.7,158.2,317.6,159,316.5,159.5"/>
		<path class="st4" d="M317.5,149.5c-0.9,0.7-1.9,1.3-3.1,1.8c0.5,1.2,0.9,2.5,1.3,4c0.9-0.5,1.9-1.3,3-2.2
			C318.3,151.8,317.9,150.6,317.5,149.5"/>
		<path class="st4" d="M337.2,143.8c2-0.5,3.7-0.6,4.9-0.7c-0.7-1.2-1.5-2.4-2.3-3.8c-1.2,0.1-2.9,0.3-4.7,0.8
			C335.6,141.3,336.4,142.6,337.2,143.8"/>
		<path class="st4" d="M327.4,149.6c0.8,1.3,1.6,2.4,2.4,3.2c0.8-0.8,1.7-1.6,2.7-2.3c-0.8-0.8-1.5-1.8-2.5-3.3
			C329.1,147.8,328.2,148.6,327.4,149.6"/>
		<path class="st4" d="M333,145.3c1,1.6,1.9,2.5,2.6,3.3c1.2-0.5,2.5-0.9,3.9-1.2c-0.7-0.9-1.5-2.2-2.5-3.7
			C335.9,144.1,334.5,144.6,333,145.3"/>
		<path class="st4" d="M315,143.6c-1.1,0.7-2.2,1.3-3.5,1.8c0.5,0.8,1,1.6,1.4,2.6c1.2-0.5,2.3-1,3.3-1.8
			C315.8,145.3,315.4,144.4,315,143.6"/>
		<path class="st4" d="M322.8,154.6c0.6,1.5,1.2,3,1.8,4c1-1,1.9-2.1,2.7-3.1c-0.7-0.9-1.4-2.1-2.1-3.5
			C324.3,153,323.5,153.9,322.8,154.6"/>
		<path class="st4" d="M333.9,128.6c-0.7-1.3-1.3-2.6-1.8-3.6c-1.6,0.2-3,0.5-4.2,1c0.4,1,1,2.2,1.5,3.5
			C331.1,128.9,332.6,128.7,333.9,128.6"/>
		<path class="st4" d="M332.6,135.8c0.1,0.2,0.2,0.4,0.3,0.7c1.8-0.5,3.4-0.7,4.7-0.8c-0.6-1.1-1.3-2.3-1.9-3.4
			c-1.3,0-2.9,0.2-4.6,0.7C331.8,134.2,332.3,135.3,332.6,135.8"/>
		<path class="st4" d="M317.8,141.2c-0.3-0.7-0.5-1.3-0.8-2c-0.8,0.9-1.8,1.7-3,2.4c0.3,0.6,0.6,1.3,1,1.9
			C316,142.9,316.9,142.2,317.8,141.2"/>
		<path class="st4" d="M321.2,136.5c0.1-0.2,0.3-0.4,0.4-0.6c-0.3-0.8-0.6-1.6-0.9-2.4c0,0.1-0.1,0.1-0.1,0.2
			c-0.4,0.6-0.9,1.7-1.6,2.9c0.3,0.7,0.5,1.4,0.8,2.1C320.3,138,320.8,137.3,321.2,136.5"/>
		<path class="st4" d="M326.1,131.2c-0.5-1.2-1-2.3-1.4-3.2c-0.9,0.8-1.6,1.6-2.2,2.4c0.4,0.9,0.7,1.9,1.1,2.9
			C324.4,132.4,325.2,131.7,326.1,131.2"/>
	</g>
</g>
<g>
	<g>
		<path d="M114,105c-1.6,0-3.1-0.7-4.2-1.8c-2.9-2.9-3.3-8.7-0.8-11.7c3.6-4.4,7.3-8.9,10.9-13.1l0.5-0.6c2.1-2.6,4.3-5.1,6.4-7.7
			c-2.5,2-5.3,4.1-8.4,5.8c-1.6,0.9-3.3,1.5-4.9,2.1c-0.8,0.3-1.6,0.4-2.3,0.4c-1.4,0-3.5-0.4-5.4-2.5c-0.8-0.9-1.5-1.7-2-2.6
			c-1.3,1-2.7,2.1-4,3.1c-0.6,0.5-1.2,0.8-1.7,1L98,77.4c-1.6,0.8-2.8,1.2-4.1,1.2c-2.6,0-4.4-1.6-5.5-2.8c-1.5-1.6-2.4-3.3-2.9-5
			c-1,1-5.9,5.8-5.9,5.8c-1,1.6-2.6,2.5-4.3,2.5c-0.9,0-2.3-0.3-3.6-1.6c-0.6-0.6-1.7-1.9-2-3.7c-0.2-1.4-0.9-5.6,2-9.2
			c2.5-3.2,8.9-11.1,8.9-11.1c-0.1-0.3-0.2-0.5-0.3-0.9c-0.5-2.2,1-3.8,1.5-4.3c1.5-1.6,2.8-2.8,4-3.9c13.1-11.3,24.7-22,35.5-32.9
			c0.7-0.7,1.6-1.5,2.5-2.2c1.1-0.8,2.1-1,2.8-1c1.6,0,3,0.9,3.9,2.5c0.1,0.1,0.2,0.2,0.3,0.4l0.3,0.3c3.3,3.5,2,6.8,0.9,8.4
			c-0.8,1.2-1.7,2.4-2.9,3.5c-4.5,4.3-9.1,8.6-13.6,13c-0.7,0.7-1.4,1.3-2.1,2c1.1,0.4,2,1.1,2.9,2.2c0.8,1,1.7,2.5,1.9,4.1
			c0.3-0.3,0.7-0.6,1-0.9c0.6-0.5,1.1-1,1.7-1.5c1.1-1,2.3-2,3.4-3c2.4-2,5-3.1,7.7-3.1c2.5,0,5,0.9,7.2,2.7c2.7,2.2,4,5,3.8,8.1
			c2.1-1.9,4.1-3.9,6.1-5.8c1.2-1.2,2.4-2.3,3.6-3.5c1.7-1.7,3.4-2,4.6-2c2.4,0,4.4,1.5,5.7,4c0,0.1,0.1,0.1,0.1,0.2
			c0.4-0.3,0.8-0.6,1.3-0.9c1.2-0.8,2.8-1.8,4.7-1.8c3.3,0,5.1,2.6,6.1,4.1c2.6,3.7,2.7,7.7,0.2,11.5c-6.5,10-13.5,17.7-21.4,23.4
			c-1.5,1.1-3.2,2-5.1,2.6c-1,0.4-2.1,0.5-3.1,0.5c-2.7,0-5-1.2-6.6-3.4c-6.5,7.3-13.8,16.1-20.1,26C117.8,104,116,105,114,105z"/>
		<path d="M32.4,81.9c-2.6,0-5-0.3-7.3-1c-4.2-1.2-7.9-4.9-9.7-9.8c-1.7-4.6-1.4-9.4,1-13c3.9-5.9,8.6-9.9,14.4-12.3
			c1.1-0.5,2.3-0.7,3.4-0.7c1.7,0,3.3,0.6,4.7,1.6c1.7,1.3,2.5,2.8,2.3,4.4C41.1,52.9,40,54.2,38,55c-3.2,1.4-5.7,3.6-7.9,6.7
			c-0.3,0.5-0.6,1.1-0.9,1.7c-0.3,0.8-0.3,1.5-0.1,1.9c0.3,0.5,0.9,0.7,1.3,0.8c1,0.2,2,0.3,3.1,0.3c0.7,0,1.5,0,2.2-0.1
			c10.2-1.3,19.2-5.9,27-13.7c1.1-1.1,2.1-2.5,3-4.1c0.2-0.3,0.3-0.5,0.3-0.6c-0.1-0.1-0.3-0.1-0.5-0.2c-2.3-0.9-4.7-1.4-7.3-2
			l-1.2-0.3c-1-0.2-2-0.4-3.1-0.6c-0.9-0.1-1.8-0.3-2.8-0.5c-3.2-0.6-5.8-2.6-7.6-5.7c-0.2-0.3-0.3-0.6-0.5-0.9
			c-0.3-0.6-0.6-1.1-0.9-1.5c-2.4-3.2-2.4-6.9,0.1-10.1c1.6-2,3.3-3.7,5-5C53,17,59.2,14.3,65.2,12C74.6,8.4,83.4,6,92,4.7
			c2.1-0.3,4.4-0.7,6.8-0.7c1.8,0,3.4,0.2,5,0.6c4.3,1.1,6.9,4.4,6.7,8.6c-0.1,1.8-0.3,7.2-6.1,9.7c-4.7,2-9.1,3.3-13.6,3.9
			c-0.4,0.1-0.8,0.1-1.1,0.1c-2.4,0-4.3-1.2-5.4-3.4c-0.3-0.7-0.5-1.3-0.6-2c-8.2,2.1-17.2,5.7-22.7,8.7c3.4,0.6,7,1.4,10.4,3
			c8.6,4,11.8,12.6,7.9,21.3c-2.1,4.7-5.5,8.8-10.5,12.9c-8.7,7-18.6,11.6-29.3,13.5C36.9,81.7,34.6,81.9,32.4,81.9z"/>
		<g>
			<path d="M113.3,102.5c-1.6,0-3.1-0.7-4.2-1.8c-2.9-2.9-3.3-8.7-0.8-11.7c3.6-4.4,7.3-8.9,10.9-13.1l0.5-0.6
				c2.1-2.6,4.3-5.1,6.4-7.7c-2.5,2-5.3,4.1-8.4,5.8c-1.6,0.9-3.3,1.5-4.9,2.1c-0.8,0.3-1.6,0.4-2.3,0.4c-1.4,0-3.5-0.4-5.4-2.5
				c-0.8-0.9-1.5-1.7-2-2.6c-1.3,1-2.7,2.1-4,3.1c-0.6,0.5-1.2,0.8-1.7,1l-0.1,0.1c-1.6,0.8-2.8,1.2-4.1,1.2c-2.6,0-4.4-1.6-5.5-2.8
				c-1.5-1.6-2.4-3.3-2.9-5c-1,1-5.9,5.8-5.9,5.8c-1,1.6-2.6,2.5-4.3,2.5c-0.9,0-2.3-0.3-3.6-1.6c-0.6-0.6-1.7-1.9-2-3.7
				c-0.2-1.4-0.9-5.6,2-9.2c2.5-3.2,8.9-11.1,8.9-11.1c-0.1-0.3-0.2-0.5-0.3-0.9c-0.5-2.2,1-3.8,1.5-4.3c1.5-1.6,2.8-2.8,4-3.9
				c13.1-11.3,24.7-22,35.5-32.9c0.7-0.7,1.6-1.5,2.5-2.2c1.1-0.8,2.1-1,2.8-1c1.6,0,3,0.9,3.9,2.5c0.1,0.1,0.2,0.2,0.3,0.4l0.3,0.3
				c3.3,3.5,2,6.8,0.9,8.4c-0.8,1.2-1.7,2.4-2.9,3.5c-4.5,4.3-9.1,8.6-13.6,13c-0.7,0.7-1.4,1.3-2.1,2c1.1,0.4,2,1.1,2.9,2.2
				c0.8,1,1.7,2.5,1.9,4.1c0.3-0.3,0.7-0.6,1-0.9c0.6-0.5,1.1-1,1.7-1.5c1.1-1,2.3-2,3.4-3c2.4-2,5-3.1,7.7-3.1c2.5,0,5,0.9,7.2,2.7
				c2.7,2.2,4,5,3.8,8.1c2.1-1.9,4.1-3.9,6.1-5.8c1.2-1.2,2.4-2.3,3.6-3.5c1.7-1.7,3.4-2,4.6-2c2.4,0,4.4,1.5,5.7,4
				c0,0.1,0.1,0.1,0.1,0.2c0.4-0.3,0.8-0.6,1.3-0.9c1.2-0.8,2.8-1.8,4.7-1.8c3.3,0,5.1,2.6,6.1,4.1c2.6,3.7,2.7,7.7,0.2,11.5
				c-6.5,10-13.5,17.7-21.4,23.4c-1.5,1.1-3.2,2-5.1,2.6c-1,0.4-2.1,0.5-3.1,0.5c-2.7,0-5-1.2-6.6-3.4c-6.5,7.3-13.8,16.1-20.1,26
				C117.1,101.5,115.3,102.5,113.3,102.5z"/>
			<path d="M85,50.5c-0.4-0.2-0.6-0.3-0.9-0.4c-1.2-0.4-1.3-0.7-0.4-1.7c1.2-1.3,2.4-2.5,3.7-3.6c12.3-10.6,24.2-21.5,35.7-33
				c0.7-0.7,1.4-1.3,2.1-1.8c0.5-0.4,1-0.4,1.4,0.3c0.3,0.5,0.7,0.9,1.1,1.4c1.3,1.3,1.5,2.5,0.5,4.1c-0.7,1-1.5,2-2.4,2.8
				C115.9,28,105.9,37.5,96,47c-2.3,2.2-4.5,4.6-6.8,7c-0.2,0.3-0.5,0.5-0.6,0.9c2.2-1.7,4.3-3.5,6.6-5.1c4.6-3.3,9.1-6.5,13.8-9.7
				c1.7-1.2,2.6-1,3.7,0.4c0.6,0.8,1.3,1.9,1.3,2.9c0,0.8-0.8,1.7-1.5,2.4c-6.1,5.4-11.9,11-17.1,17.2c-0.7,0.8-1.2,1.7-1.7,2.5
				c0.1,0.1,0.2,0.3,0.3,0.4c0.6-0.3,1.2-0.4,1.7-0.8c2.5-1.8,5.2-3.5,7.6-5.6c6-5,11.8-10.2,17.7-15.4c1.7-1.5,3.3-3,5-4.4
				c3.5-2.9,7.1-3,10.4-0.3c2.2,1.8,3,4,2.1,6.6c-0.8,2.1-2,4.1-3,6.2c-0.2,0.3-0.4,0.6-0.6,0.9c0.1,0.1,0.1,0.2,0.2,0.3
				c1.5-0.6,3-1.1,4.4-1.9c1.4-0.9,2.8-1.9,4-3.1c3.7-3.5,7.4-7,11-10.6c1.8-1.7,3.5-1.2,4.6,1c0.7,1.4,0.4,2.3-0.6,3.3
				c-1.7,1.9-3.4,3.9-5.1,5.8c-0.2,0.3-0.4,0.6-0.5,1c0.9-0.7,1.8-1.4,2.7-2.1c3.3-2.5,6.5-5,9.9-7.3c2.8-1.9,3.9-1.4,5.9,1.4
				c1.8,2.6,1.8,5,0.1,7.5c-5.6,8.6-12.2,16.4-20.6,22.5c-1.3,0.9-2.7,1.6-4.2,2.1c-2.9,1-5.3-0.2-6.5-3c-0.4-0.9-0.6-1.8-0.9-2.9
				c-1.1,1.2-2.2,2.3-3.2,3.5c-7.6,8.6-14.8,17.4-21,27.1c-0.9,1.4-2.4,1.5-3.6,0.3c-1.5-1.5-1.9-5.3-0.6-6.9
				c3.8-4.6,7.6-9.2,11.4-13.8c5.4-6.4,10.7-12.8,16.1-19.1c0.2-0.3,0.4-0.5,0.7-0.9c-1.7,0.6-3.2,1.3-4.7,1.7
				c-1.3,0.3-2.8,0.3-4.1,0.5c-0.5,0.1-1.2,0.3-1.5,0.6c-3.9,3.8-8,7.3-12.7,9.9c-1.4,0.8-2.9,1.3-4.4,1.8c-1.5,0.5-2.9,0-4-1.2
				c-1.9-2.1-2.4-3.1-2.5-6.3c-0.4,0.3-0.6,0.5-0.9,0.7c-2.4,1.9-4.9,3.8-7.3,5.7c-0.4,0.3-0.9,0.6-1.4,0.8
				c-2.3,1.2-3.5,1.1-5.3-0.9c-2.2-2.4-2.9-5.1-1.5-8.1c1.1-2.1,2.3-4.1,3.6-6.3c-1.2,0.9-2.4,1.7-3.4,2.7
				c-4.2,4.1-8.4,8.2-12.6,12.3c-0.2,0.2-0.4,0.4-0.5,0.6c-0.7,1-1.5,1.2-2.4,0.3c-0.5-0.5-0.9-1.1-1-1.7c-0.4-2.3-0.3-4.5,1.3-6.5
				c3.5-4.3,6.9-8.7,10.4-13C84.4,51.1,84.7,50.8,85,50.5z M164.9,46c-0.1-0.1-0.2-0.2-0.3-0.3c-1,0.7-2.1,1.3-3.1,2
				c-6.4,4.6-12.2,9.9-18,15.3c-0.3,0.3-0.4,0.9-0.3,1.3c0.4,1.7,1.5,2.2,3.1,1.4c1.3-0.7,2.6-1.6,3.7-2.5c4.9-4.2,9.2-9,13-14.3
				C163.7,48,164.3,47,164.9,46z M121.2,51.6c-3.7,4-7.5,8.1-10.2,13c0.1,0.2,0.3,0.3,0.4,0.5c4.7-2,8.3-5.6,12-8.7
				C122.7,54.7,122,53.2,121.2,51.6z M133.3,44.2c-2.8,0-6.4,3-6.7,5.4c-0.2,1,0,2,1,2.8C129.9,50,132.4,47.8,133.3,44.2z"/>
			<path d="M31.7,79.4c-2.6,0-5-0.3-7.3-1c-4.2-1.2-7.9-4.9-9.7-9.8c-1.7-4.6-1.4-9.4,1-13c3.9-5.9,8.6-9.9,14.4-12.3
				c1.1-0.5,2.3-0.7,3.4-0.7c1.7,0,3.3,0.6,4.7,1.6c1.7,1.3,2.5,2.8,2.3,4.4c-0.2,1.7-1.3,2.9-3.2,3.8c-3.2,1.4-5.7,3.6-7.9,6.7
				c-0.3,0.5-0.6,1.1-0.9,1.7c-0.3,0.8-0.3,1.5-0.1,1.9c0.3,0.5,0.9,0.7,1.3,0.8c1,0.2,2,0.3,3.1,0.3c0.7,0,1.5,0,2.2-0.1
				c10.2-1.3,19.2-5.9,27-13.7c1.1-1.1,2.1-2.5,3-4.1c0.2-0.3,0.3-0.5,0.3-0.6c-0.1-0.1-0.3-0.1-0.5-0.2c-2.3-0.9-4.7-1.4-7.3-2
				l-1.2-0.3c-1-0.2-2-0.4-3.1-0.6c-0.9-0.1-1.8-0.3-2.8-0.5c-3.2-0.6-5.8-2.6-7.6-5.7c-0.2-0.3-0.3-0.6-0.5-0.9
				c-0.3-0.6-0.6-1.1-0.9-1.5c-2.4-3.2-2.4-6.9,0.1-10.1c1.6-2,3.3-3.7,5-5c5.5-4.2,11.8-6.8,17.7-9.1c9.4-3.6,18.2-6,26.9-7.3
				c2.1-0.3,4.4-0.7,6.8-0.7c1.8,0,3.4,0.2,5,0.6c4.3,1.1,6.9,4.4,6.7,8.6c-0.1,1.8-0.3,7.2-6.1,9.7c-4.7,2-9.1,3.3-13.6,3.9
				c-0.4,0.1-0.8,0.1-1.1,0.1c-2.4,0-4.3-1.2-5.4-3.4c-0.3-0.7-0.5-1.3-0.6-2c-8.2,2.1-17.2,5.7-22.7,8.7c3.4,0.6,7,1.4,10.4,3
				c8.6,4,11.8,12.6,7.9,21.3C76.4,57,73.1,61.1,68,65.2c-8.7,7-18.6,11.6-29.3,13.5C36.2,79.2,33.9,79.4,31.7,79.4z"/>
			<path d="M51.9,30.2c2.5,0.4,5.1,0.8,7.6,1.2c3.3,0.6,6.6,1.3,9.7,2.7c6.9,3.2,9.3,9.7,6.2,16.7c-2.1,4.7-5.6,8.4-9.5,11.6
				C57.6,69,48.4,73.3,38.1,75.2c-4.2,0.8-8.4,1-12.7-0.2c-6-1.7-10.8-11.2-6.7-17.4c3.2-4.9,7.3-8.7,12.8-11
				c1.6-0.7,3.2-0.6,4.6,0.5c1.3,1,1.2,1.5-0.2,2.2c-3.9,1.7-7,4.4-9.4,7.9c-0.5,0.7-0.9,1.6-1.3,2.4c-1.4,3.5,0.2,6.7,3.8,7.5
				c2.1,0.4,4.4,0.5,6.5,0.2c11.4-1.4,21-6.6,29.1-14.7c1.4-1.4,2.6-3.1,3.6-4.8c1.7-2.9,1.2-4.8-2-6c-2.9-1.1-5.9-1.7-8.9-2.4
				c-2-0.5-4-0.6-6-1c-2.4-0.5-4-1.9-5.2-4c-0.5-0.9-1-1.9-1.6-2.7c-1.5-2-1.3-4,0.1-5.7c1.3-1.6,2.7-3.1,4.4-4.4
				c5.1-3.9,10.9-6.4,16.8-8.6c8.5-3.2,17.2-5.7,26.1-7.1c3.4-0.5,6.9-1,10.3-0.1c2.6,0.7,4.1,2.5,4,5c-0.1,2.9-0.9,5.3-4,6.6
				c-4.1,1.8-8.3,3.1-12.7,3.7c-1.3,0.2-2.3-0.1-2.9-1.3c-0.4-0.8-0.4-1.4,0.5-1.9c1.8-1,3.6-2,5.4-3.1c0.3-0.2,0.7-0.4,1.2-0.8
				C80.6,14.3,55.2,24.3,51.9,30.2z"/>
		</g>
	</g>
	<g>
		<path class="st7" d="M84.9,49.8c-0.4-0.2-0.6-0.3-0.9-0.4c-1.2-0.4-1.3-0.7-0.4-1.7c1.2-1.3,2.4-2.5,3.7-3.6
			c12.3-10.6,24.2-21.5,35.7-33c0.7-0.7,1.4-1.3,2.1-1.8c0.5-0.4,1-0.4,1.4,0.3c0.3,0.5,0.7,0.9,1.1,1.4c1.3,1.3,1.5,2.5,0.5,4.1
			c-0.7,1-1.5,2-2.4,2.8c-9.9,9.5-19.9,18.9-29.8,28.4c-2.3,2.2-4.5,4.6-6.8,7c-0.2,0.3-0.5,0.5-0.6,0.9c2.2-1.7,4.3-3.5,6.6-5.1
			c4.6-3.3,9.1-6.5,13.8-9.7c1.7-1.2,2.6-1,3.7,0.4c0.6,0.8,1.3,1.9,1.3,2.9c0,0.8-0.8,1.7-1.5,2.4c-6.1,5.4-11.9,11-17.1,17.2
			c-0.7,0.8-1.2,1.7-1.7,2.5c0.1,0.1,0.2,0.3,0.3,0.4c0.6-0.3,1.2-0.4,1.7-0.8c2.5-1.8,5.2-3.5,7.6-5.6c6-5,11.8-10.2,17.7-15.4
			c1.7-1.5,3.3-3,5-4.4c3.5-2.9,7.1-3,10.4-0.3c2.2,1.8,3,4,2.1,6.6c-0.8,2.1-2,4.1-3,6.2c-0.2,0.3-0.4,0.6-0.6,0.9
			c0.1,0.1,0.1,0.2,0.2,0.3c1.5-0.6,3-1.1,4.4-1.9c1.4-0.9,2.8-1.9,4-3.1c3.7-3.5,7.4-7,11-10.6c1.8-1.7,3.5-1.2,4.6,1
			c0.7,1.4,0.4,2.3-0.6,3.3c-1.7,1.9-3.4,3.9-5.1,5.8c-0.2,0.3-0.4,0.6-0.5,1c0.9-0.7,1.8-1.4,2.7-2.1c3.3-2.5,6.5-5,9.9-7.3
			c2.8-1.9,3.9-1.4,5.9,1.4c1.8,2.6,1.8,5,0.1,7.5c-5.6,8.6-12.2,16.4-20.6,22.5c-1.3,0.9-2.7,1.6-4.2,2.1c-2.9,1-5.3-0.2-6.5-3
			c-0.4-0.9-0.6-1.8-0.9-2.9c-1.1,1.2-2.2,2.3-3.2,3.5c-7.6,8.6-14.8,17.4-21,27.1c-0.9,1.4-2.4,1.5-3.6,0.3
			c-1.5-1.5-1.9-5.3-0.6-6.9c3.8-4.6,7.6-9.2,11.4-13.8c5.4-6.4,10.7-12.8,16.1-19.1c0.2-0.3,0.4-0.5,0.7-0.9
			c-1.7,0.6-3.2,1.3-4.7,1.7c-1.3,0.3-2.8,0.3-4.1,0.5c-0.5,0.1-1.2,0.3-1.5,0.6c-3.9,3.8-8,7.3-12.7,9.9c-1.4,0.8-2.9,1.3-4.4,1.8
			c-1.5,0.5-2.9,0-4-1.2c-1.9-2.1-2.4-3.1-2.5-6.3c-0.4,0.3-0.6,0.5-0.9,0.7c-2.4,1.9-4.9,3.8-7.3,5.7c-0.4,0.3-0.9,0.6-1.4,0.8
			c-2.3,1.2-3.5,1.1-5.3-0.9c-2.2-2.4-2.9-5.1-1.5-8.1c1.1-2.1,2.3-4.1,3.6-6.3c-1.2,0.9-2.4,1.7-3.4,2.7
			c-4.2,4.1-8.4,8.2-12.6,12.3c-0.2,0.2-0.4,0.4-0.5,0.6c-0.7,1-1.5,1.2-2.4,0.3c-0.5-0.5-0.9-1.1-1-1.7c-0.4-2.3-0.3-4.5,1.3-6.5
			c3.5-4.3,6.9-8.7,10.4-13C84.3,50.4,84.6,50.1,84.9,49.8z M164.8,45.3c-0.1-0.1-0.2-0.2-0.3-0.3c-1,0.7-2.1,1.3-3.1,2
			c-6.4,4.6-12.2,9.9-18,15.3c-0.3,0.3-0.4,0.9-0.3,1.3c0.4,1.7,1.5,2.2,3.1,1.4c1.3-0.7,2.6-1.6,3.7-2.5c4.9-4.2,9.2-9,13-14.3
			C163.6,47.3,164.2,46.3,164.8,45.3z M121.1,50.9c-3.7,4-7.5,8.1-10.2,13c0.1,0.2,0.3,0.3,0.4,0.5c4.7-2,8.3-5.6,12-8.7
			C122.6,54,121.9,52.5,121.1,50.9z M133.2,43.5c-2.8,0-6.4,3-6.7,5.4c-0.2,1,0,2,1,2.8C129.8,49.3,132.3,47.1,133.2,43.5z"/>
		<path class="st7" d="M51.8,29.5c2.5,0.4,5.1,0.8,7.6,1.2c3.3,0.6,6.6,1.3,9.7,2.7c6.9,3.2,9.3,9.7,6.2,16.7
			c-2.1,4.7-5.6,8.4-9.5,11.6C57.5,68.3,48.3,72.6,38,74.5c-4.2,0.8-8.4,1-12.7-0.2c-6-1.7-10.8-11.2-6.7-17.4
			c3.2-4.9,7.3-8.7,12.8-11c1.6-0.7,3.2-0.6,4.6,0.5c1.3,1,1.2,1.5-0.2,2.2c-3.9,1.7-7,4.4-9.4,7.9c-0.5,0.7-0.9,1.6-1.3,2.4
			c-1.4,3.5,0.2,6.7,3.8,7.5c2.1,0.4,4.4,0.5,6.5,0.2c11.4-1.4,21-6.6,29.1-14.7c1.4-1.4,2.6-3.1,3.6-4.8c1.7-2.9,1.2-4.8-2-6
			c-2.9-1.1-5.9-1.7-8.9-2.4c-2-0.5-4-0.6-6-1c-2.4-0.5-4-1.9-5.2-4c-0.5-0.9-1-1.9-1.6-2.7c-1.5-2-1.3-4,0.1-5.7
			c1.3-1.6,2.7-3.1,4.4-4.4c5.1-3.9,10.9-6.4,16.8-8.6C74.1,8.9,82.8,6.4,91.8,5c3.4-0.5,6.9-1,10.3-0.1c2.6,0.7,4.1,2.5,4,5
			c-0.1,2.9-0.9,5.3-4,6.6c-4.1,1.8-8.3,3.1-12.7,3.7c-1.3,0.2-2.3-0.1-2.9-1.3c-0.4-0.8-0.4-1.4,0.5-1.9c1.8-1,3.6-2,5.4-3.1
			c0.3-0.2,0.7-0.4,1.2-0.8C80.5,13.6,55.1,23.6,51.8,29.5z"/>
	</g>
</g>
<g>
	<g>
		<path d="M53.1,176.5c-4.2,0-7.6-1.4-9.8-4c-2.3-2.8-3.2-6.8-2.4-11.4c1.6-9.3,9-15.7,18-15.7c4.2,0,7.6,1.4,9.8,4
			c2.3,2.8,3.2,6.8,2.4,11.4C69.4,170,62.1,176.5,53.1,176.5z M57.2,153c-1.3,0-5.7,0.6-7,7.8c-0.5,2.9-0.2,5.1,1,6.5
			c1.2,1.4,2.8,1.5,3.5,1.5c1.3,0,5.7-0.6,7-7.8c0.5-2.9,0.2-5.1-1-6.5C59.5,153.1,57.9,153,57.2,153z"/>
		<path d="M72,175.8l5.2-29.5c0-0.1,0.2-0.3,0.3-0.3h15.2c3.3,0,5.8,1,7.4,2.9c1.5,1.8,2.1,4.4,1.6,7.2c-1.2,6.7-6.3,10.8-13.7,10.8
			h-5.1l-1.5,8.6c0,0.1-0.2,0.3-0.3,0.3H72z M84.2,159.6h3.5c2.9,0,4.6-0.5,5.1-2.8c0.1-0.6,0.2-1.4-0.3-2c-0.6-0.7-1.7-0.9-3.5-0.9
			h-3.8L84.2,159.6z"/>
		<path d="M101,175.8l5.2-29.5c0-0.1,0.2-0.3,0.3-0.3h24.4l-1.3,7.6c0,0.1-0.2,0.3-0.3,0.3h-15l-0.6,3.4h13.9l-1.2,7
			c0,0.1-0.2,0.3-0.3,0.3h-13.6l-0.6,3.4h15.8l-1.3,7.6c0,0.1-0.2,0.3-0.3,0.3H101z"/>
		<path d="M147.8,175.8l-6.1-15.7l-2.7,15.4c0,0.1-0.2,0.3-0.3,0.3h-8.6l5.2-29.5c0-0.1,0.2-0.3,0.3-0.3h9.3l5.7,15.4l2.7-15.1
			c0-0.1,0.2-0.3,0.3-0.3h8.6l-5.2,29.5c0,0.1-0.2,0.3-0.3,0.3H147.8z"/>
	</g>
	<g>
		<path class="st0" d="M177.3,176.8c0.4-2.9,1.7-5.8,3.8-8.2c3-3.4,7.3-5.7,11.4-7.9c0,0,1.2-0.7,1.7-0.9c0.2-0.1,0.4-0.2,0.6-0.3
			c1.8-0.9,4-2.1,4.3-4.1c0.2-1.3,0.1-2.3-0.5-2.9c-0.6-0.7-1.4-1-2.7-1c-1.4,0-2.5,0.4-3.4,1.1c-1.2,1-1.9,2.7-2.3,5.2
			c0,0.1-0.1,0.1-0.1,0.2c-0.1,0.1-0.2,0.1-0.2,0.1h-8.7c0.5-4.2,2.3-7.8,5.1-10.3c2.9-2.6,6.9-4,11.5-4c4.7,0,8.1,1.2,10,3.4
			c1.4,1.7,1.9,4,1.4,6.8c-1.2,7-15.7,14.2-15.5,14.6H207l-1.4,7.9c0,0.2-0.2,0.3-0.4,0.3H177.3z"/>
		<path class="st0" d="M223.9,176.8l1.1-6.4h-14.3l1.5-8.7c0-0.1,0.1-0.1,0.1-0.2l17.8-17.2c0.1-0.1,0.2-0.1,0.3-0.1h9.2l-3.2,18
			h4.4l-1.4,7.9c0,0.2-0.2,0.3-0.4,0.3h-4l-1.1,6.1c0,0.2-0.2,0.3-0.4,0.3H223.9z M219,162.2h7.5l1.5-8.6L219,162.2z"/>
		<path class="st0" d="M241.3,177.6c0,0,0-0.1,0-0.1l19.1-34.7c0.1-0.1,0.2-0.2,0.3-0.2h7c0,0,0,0.1,0,0.1l-19.1,34.7
			c-0.1,0.1-0.2,0.2-0.3,0.2H241.3z"/>
		<path class="st0" d="M271.4,176.8c0.1-1.7,2.9-11.4,10.1-19.5c1.1-1.3,2.1-2.5,3-3.3l1.5-1.5h-15.2l1.4-7.9c0-0.2,0.2-0.3,0.4-0.3
			h24.9l-1.3,7.5c0,0.1-0.1,0.2-0.2,0.2c-9.4,7.5-12.8,17.5-14,24.5c0,0.1-0.1,0.1-0.1,0.2c-0.1,0.1-0.2,0.1-0.2,0.1H271.4z"/>
	</g>
</g>
</svg>
