<?xml version="1.0" encoding="utf-8"?>
<!-- Generator: Adobe Illustrator 25.2.1, SVG Export Plug-In . SVG Version: 6.00 Build 0)  -->
<svg version="1.1" id="Lager_1" xmlns="http://www.w3.org/2000/svg" xmlns:xlink="http://www.w3.org/1999/xlink" x="0px" y="0px"
	 viewBox="0 0 400 150.5" style="enable-background:new 0 0 400 150.5;" xml:space="preserve">
<style type="text/css">
	.st0{fill:#FCFAD4;}
	.st1{fill:#E1001E;}
	.st2{fill:#020203;}
	.st3{fill:#FFFFFF;}
	.st4{clip-path:url(#SVGID_2_);fill:url(#SVGID_3_);}
	.st5{clip-path:url(#SVGID_5_);fill:url(#SVGID_6_);}
	.st6{clip-path:url(#SVGID_8_);fill:url(#SVGID_9_);}
	.st7{clip-path:url(#SVGID_11_);fill:url(#SVGID_12_);}
</style>
<g>
	<path class="st0" d="M390.9,7.7c-2.1-1.8-4.8-2.7-8.1-2.7c-57.3,0-114.6,0-172,0c-58.6,0-117.2,0-175.9,0c0,0,0,0,0,0
		c-7.2,0-13.6,5.4-14.4,12.4c-0.4,3-0.8,6.1-1.3,9.1c-0.2,1.3-0.4,2.5-0.6,3.8l-1.1,7.6c-0.5,3.5-1,7-1.5,10.5
		c-0.4,2.9-0.8,5.8-1.2,8.7c-0.4,2.8-0.8,5.7-1.2,8.5c-0.4,2.9-0.8,5.7-1.2,8.6c-0.4,2.9-0.8,5.7-1.2,8.6c-0.4,2.7-0.8,5.5-1.2,8.2
		c-0.4,2.7-0.8,5.3-1.1,8c-0.4,2.7-0.8,5.4-1.2,8.1c-0.3,2.4-0.7,4.8-1,7.2l-0.6,4.2c-0.6,4-1.2,8.1-1.7,12.2c-0.5,4,0.9,7.6,4,10.3
		c2.1,1.8,4.8,2.7,8.1,2.7c39,0,78,0,117,0c9.5,0,19.1,0,28.6,0H364c4.8,0,8.7-1.9,11.7-5.5c1.5-1.9,2.4-3.8,2.7-5.8
		c0.4-2.3,0.7-4.6,1-6.9c0.1-1,0.3-2.1,0.4-3.1l0.9-5.9c0.6-4.1,1.2-8.2,1.8-12.3c0.4-2.9,0.8-5.7,1.2-8.6c0.4-2.9,0.8-5.7,1.2-8.6
		c0.4-3,0.9-5.9,1.3-8.9c0.4-3.1,0.9-6.2,1.3-9.2c0.4-2.9,0.8-5.7,1.2-8.6c0.4-2.9,0.8-5.7,1.2-8.6c0.4-2.9,0.8-5.8,1.3-8.8
		c0.4-2.5,0.7-5,1.1-7.4c0.2-1.5,0.4-3,0.7-4.6c0.6-4.2,1.2-8.6,1.8-12.9C395.4,13.9,394,10.4,390.9,7.7z"/>
	<g>
		<path class="st1" d="M208.9,9.2c57.9,0,115.8,0,173.7,0c1.2,0,2.5,0.2,3.6,0.6c2.9,1.1,4.6,4.3,4.1,7.4
			c-1.1,7.6-2.2,15.3-3.3,22.9c-1.1,7.7-2.2,15.3-3.3,23c-1,7-2,14-3,21.1c-0.9,6-1.7,12.1-2.6,18.1c-0.9,6.4-1.8,12.7-2.8,19.1
			c-0.4,3-0.8,5.9-1.3,8.9c-0.7,4.5-4.8,8.1-9.4,8.2c-0.2,0-0.4,0-0.6,0c-115.8,0-231.6,0-347.4,0c-1.2,0-2.5-0.2-3.6-0.6
			c-2.9-1.1-4.5-4.3-4.1-7.4c1.2-8.1,2.3-16.3,3.5-24.4c1.2-8.3,2.4-16.6,3.6-25c1.1-7.3,2.1-14.7,3.1-22c0.9-6,1.8-12.1,2.6-18.1
			c0.9-6,1.7-12.1,2.6-18.1c0.3-2.2,0.5-4.4,1.1-6.6c1-4.1,5-7.1,9.3-7.1c0.3,0,0.6,0,0.8,0H208.9z"/>
		<path class="st2" d="M364.4,140.3c-0.1,0-0.1,0-0.2,0l-0.2,0h-21.9c-108.5,0-217,0-325.5,0c-1.5,0-3-0.3-4.2-0.8
			c-3.6-1.4-5.7-5.2-5.2-9.2l1.4-10.1c0.7-4.8,1.4-9.6,2.1-14.3c0.6-4.1,1.2-8.2,1.8-12.2c0.6-4.2,1.2-8.5,1.8-12.7
			c0.5-3.7,1.1-7.5,1.6-11.2c0.5-3.6,1-7.2,1.5-10.8c0.5-3.2,0.9-6.3,1.4-9.5c0.4-2.9,0.8-5.8,1.2-8.6c0.4-2.6,0.7-5.2,1.1-7.8
			c0.5-3.4,1-6.9,1.5-10.3c0.1-0.5,0.1-1,0.2-1.6c0.2-1.7,0.5-3.5,0.9-5.2C25,11,29.6,7.5,34.7,7.4c0.2,0,0.4,0,0.6,0l0.2,0h190.9
			c52.1,0,104.1,0,156.2,0c1.5,0,2.9,0.3,4.2,0.7c3.6,1.4,5.8,5.2,5.2,9.2c-0.5,3.8-1.1,7.7-1.7,11.5c-0.5,3.8-1.1,7.6-1.6,11.4
			c-0.5,3.7-1.1,7.5-1.6,11.2c-0.6,3.9-1.1,7.8-1.7,11.8c-0.5,3.6-1,7.2-1.5,10.7c-0.5,3.4-1,6.9-1.5,10.3c-0.4,3-0.9,6.1-1.3,9.1
			c-0.4,3-0.9,6-1.3,9.1c-0.6,4.3-1.2,8.5-1.8,12.8l-0.9,6.4c-0.1,1-0.3,1.9-0.4,2.9c-0.3,2-0.6,4-0.9,6.1c-0.8,5.4-5.6,9.5-11,9.6
			C364.6,140.2,364.5,140.3,364.4,140.3z M342.1,136.8l22.1,0c0.1,0,0.3,0,0.4,0c3.8-0.1,7.2-3,7.7-6.7c0.3-2,0.6-4,0.9-6
			c0.1-1,0.3-1.9,0.4-2.9l0.9-6.4c0.6-4.3,1.2-8.5,1.8-12.8c0.4-3,0.9-6,1.3-9.1c0.4-3,0.9-6.1,1.3-9.1c0.5-3.4,1-6.9,1.5-10.3
			c0.5-3.6,1-7.1,1.5-10.7c0.6-3.9,1.1-7.8,1.7-11.8c0.5-3.8,1.1-7.5,1.6-11.3c0.5-3.8,1.1-7.6,1.6-11.4c0.6-3.8,1.1-7.7,1.7-11.5
			c0.3-2.4-1-4.7-3-5.5c-0.9-0.3-1.9-0.5-3-0.5c-52.1,0-104.1,0-156.2,0l-191.7,0c-3.6,0-6.8,2.5-7.7,5.8c-0.4,1.5-0.6,3.1-0.8,4.8
			c-0.1,0.5-0.1,1.1-0.2,1.6c-0.5,3.4-1,6.9-1.5,10.3c-0.4,2.6-0.7,5.2-1.1,7.8c-0.4,2.9-0.8,5.8-1.3,8.6c-0.5,3.2-0.9,6.3-1.4,9.5
			c-0.5,3.6-1,7.2-1.5,10.8c-0.5,3.7-1.1,7.5-1.6,11.2c-0.6,4.2-1.2,8.5-1.8,12.7c-0.6,4.1-1.2,8.2-1.8,12.2
			c-0.7,4.8-1.4,9.6-2.1,14.3l-1.4,10.1c-0.3,2.4,1,4.7,3,5.5c0.9,0.3,1.9,0.5,3,0.5C125.1,136.8,233.6,136.8,342.1,136.8z"/>
	</g>
	<path class="st3" d="M368,129.8c0,1.3-1.1,2.4-2.4,2.4c-1.4,0-2.4-1.1-2.4-2.4c0-1.3,1.1-2.4,2.4-2.4
		C366.9,127.4,368,128.4,368,129.8 M363.7,129.8c0,1.1,0.8,1.9,1.8,1.9c1,0,1.8-0.8,1.8-1.9c0-1.1-0.8-1.9-1.8-1.9
		C364.5,127.9,363.7,128.7,363.7,129.8 M365.2,131h-0.5v-2.4c0.2,0,0.5-0.1,0.9-0.1c0.4,0,0.6,0.1,0.8,0.2c0.1,0.1,0.2,0.3,0.2,0.5
		c0,0.3-0.2,0.5-0.5,0.6v0c0.2,0.1,0.3,0.3,0.4,0.6c0.1,0.4,0.1,0.5,0.2,0.6h-0.6c-0.1-0.1-0.1-0.3-0.2-0.6c0-0.2-0.2-0.4-0.5-0.4
		h-0.3V131z M365.2,129.7h0.3c0.3,0,0.5-0.1,0.5-0.3c0-0.2-0.2-0.4-0.5-0.4c-0.1,0-0.2,0-0.3,0V129.7z"/>
	<path class="st2" d="M39.4,15.4h336.8c0.1,0,0.3,0.1,0.4,0.1c3.5,0.6,6.1,3.4,5.9,7c-0.2,2.8-0.7,5.7-1.1,8.5
		c-0.7,4.6-1.4,9.2-2,13.8c-0.7,4.6-1.4,9.2-2,13.8c-0.7,4.7-1.4,9.3-2.1,14c-0.3,1.7-0.4,3.4-1,4.9c-1.4,4-5.1,6.5-9.4,6.5
		C253.4,84,142,84,30.5,84c-0.3,0-0.6,0-0.9,0c-1.2-0.1-2.4-0.4-3.4-1c-2.6-1.6-3.6-4.4-3.1-7.8c0.9-5.6,1.7-11.1,2.5-16.7
		c0.8-5.6,1.6-11.1,2.4-16.7c0.9-5.9,1.8-11.8,2.6-17.6c0.6-4.3,3.1-7,7.1-8.4C38.3,15.6,38.8,15.5,39.4,15.4"/>
	<g>
		<path class="st2" d="M35.6,117.8h8.6c0.2,0,0.3,0.2,0.5,0.5c0.2,0.4,0.4,0.7,0.4,0.8c0.4,0.3,1,0.5,2,0.5c0.4,0,0.8-0.1,1.2-0.4
			c0.5-0.3,0.8-0.8,0.9-1.4c0.2-0.9-0.2-1.4-1.2-1.6c-1.3-0.2-2.6-0.4-3.9-0.5c-1.8-0.3-3.2-0.7-4.2-1.3c-1.4-0.8-2.3-1.8-2.7-3.2
			c-0.3-0.8-0.4-1.6-0.3-2.3c0.1-0.4,0.1-0.9,0.3-1.5c0.3-1.8,0.8-3.2,1.4-4.3c2.1-4,6.1-6.1,11.9-6.1c4.9,0,7.8,1.9,8.6,5.7
			c0.2,1.2,0.3,2,0.2,2.6c0,0.1-0.2,0.3-0.5,0.5h-2.7c-0.1,0-1.5-0.1-4.3-0.2c-0.5,0-0.8,0-1.1,0c-0.2-0.1-0.6-0.4-1-1
			c-0.4-0.5-0.9-0.7-1.6-0.7c-1.4,0-2.2,0.5-2.4,1.6c-0.1,0.7,0.2,1.2,1.1,1.5c2.2,0.5,3.9,0.9,5.1,1.1c2,0.4,3.4,0.8,4,1.3
			c1.8,1.4,2.4,3.9,1.8,7.5c-0.6,3.4-2,5.9-4,7.4c-1.3,1-3.3,1.7-5.8,2.2c-1.3,0.2-2.4,0.4-3.4,0.4c-2.6,0-4.5-0.3-5.6-0.8
			c-1.9-0.8-3.1-2.6-3.6-5.2c-0.2-0.9-0.2-1.7-0.1-2.3C35.1,118.2,35.3,117.9,35.6,117.8"/>
		<path class="st2" d="M64,97.7h6.4c0.1,0,0.2,0.2,0.3,0.5l0.3,12.8c0,0,0.1,0,0.1,0c0.2,0,0.4-0.2,0.6-0.7l5.1-12.4
			c0.1-0.3,0.4-0.4,0.7-0.4c0.6,0,1.5,0,2.7,0.1c1.2,0.1,2.1,0.1,2.7,0.1c0.2,0,0.3,0.1,0.3,0.4c0.2,3.7,0.4,6.5,0.5,8.4
			c0.1,2.2,0.2,3.4,0.3,3.7c0.1,0.4,0.1,0.5,0.2,0.5h0.1l0.4-0.9l4.6-11.7c0.1-0.2,0.2-0.4,0.2-0.5c0.1-0.2,0.9-0.2,2.3-0.2h2.5
			c1.3,0,2,0.1,2.1,0.4l-0.1,0.3c0,0.1,0,0.2,0,0.2l-6.1,15.4c-0.4,0.9-0.7,1.5-0.9,2l-3.7,9.1c-0.3,0.7-0.6,1.1-0.9,1.1h-6.4
			c-0.1,0-0.2-0.4-0.3-1.3l-0.4-9.2c0-0.1,0-1.2,0-1.3c-0.1-0.5,0,0,0,0c-0.1-0.4-0.2-0.5-0.4-0.5c-0.2,0-0.3,0.2-0.5,0.7L72,125.5
			l-0.6,0.5c-3.8,0.1-5.7,0.2-5.7,0.2c-0.6,0-0.9-0.4-0.9-1.1l-0.9-26L64,97.7z"/>
		<path class="st2" d="M93.9,125.7c0.1-0.4,0.2-0.9,0.3-1.7c0.1-0.7,0.2-1.3,0.3-1.7l0.9-5c0.9-5,1.8-9.2,2.4-12.5
			c0.7-3.3,1.2-5.5,1.5-6.7c0.1-0.1,0.2-0.2,0.2-0.3c0.4-0.3,1.7-0.4,4.1-0.4h3c1.5,0,3.3,0,5.3,0.1c4,0.1,6.1,0.2,6.5,0.2
			c0.3,0,0.4,0.2,0.5,0.4c0,0.4-0.1,1.3-0.3,2.5c-0.3,1.6-0.6,2.9-0.9,3.9l-0.2,0.2c-2,0.2-3.8,0.2-5.6,0.2h-4.5
			c-1.5,0-2.3,0-2.4,0.1c-0.1,0.2-0.3,0.5-0.3,1.1c-0.2,1.1-0.2,1.7-0.1,1.8c0.2,0.2,0.6,0.3,1.2,0.3c4,0,6.9,0.1,8.8,0.2l0.2,0.4
			l-0.1,0.6c-0.5,2.4-0.8,4.2-1.1,5.3c-0.1,0.4-0.3,0.7-0.5,0.7h-9.6c-0.4,0-0.7,0.6-0.9,1.9c-0.2,0.9,0.2,1.3,1.1,1.4
			c0.2,0,2,0,5.4,0c0.8,0,1.9,0,3.4,0.1c1.5,0.1,2.6,0.1,3.4,0.1c0.2,0.2,0.2,0.5,0.1,0.9l-1,5.1c0,0.2-0.1,0.4-0.3,0.7
			c-0.1,0.3-0.3,0.4-0.3,0.4H94.1L93.9,125.7z"/>
		<path class="st2" d="M120.6,110.3C120.6,110,120.3,111.2,120.6,110.3c0.3-1.2,0.7-3.2,1.2-6c0.5-2.6,0.9-4.6,1.3-6
			c0.2-0.4,0.5-0.6,0.8-0.6c0.9-0.1,1.5-0.1,2-0.1c0.2,0,1,0,2.3-0.1c1,0,1.7-0.1,2.3-0.1h5.5c0.7,0,1.7,0.1,2.4,0.2
			c0.5,0.2,0.6,0.2,0.9,0.4c0.2,0.1,0.7,0.6,0.9,0.8c2.9,2.7,3.9,6.4,3,11.1c-0.3,1.4-0.5,2.3-1.3,5.4c-0.1,0.2-0.8,2.5-1.5,4
			c-0.5,1.1-0.9,1.9-1.4,2.5c-1.4,1.9-2.9,3.1-4.6,3.7c-0.8,0.3-2.4,0.5-4.7,0.6c-1.7,0.1-3.2,0.1-4.4,0.1h-7.4
			c-0.3-0.3-0.4-0.5-0.4-0.7l2.6-13.9C120.6,110.3,120.5,110.6,120.6,110.3 M127.2,118.7c1.4,0,2.6-0.1,3.7-0.3
			c1.3-0.3,2.4-1.1,3.2-2.4c0.7-1.2,1.2-2.9,1.7-5.2c0.3-1.4,0.1-2.7-0.3-3.9c-0.5-1.3-1.1-1.9-1.9-1.9H129c-0.2,0-0.3,0.1-0.4,0.4
			c-0.3,0.8-0.7,2.5-1.2,5.1l-1.3,7C126,118.3,126.4,118.7,127.2,118.7"/>
		<path class="st2" d="M143.2,125.7c0.1-0.4,0.2-0.9,0.3-1.7c0.1-0.7,0.2-1.3,0.3-1.7l0.9-5c0.9-5,1.8-9.2,2.4-12.5
			c0.7-3.3,1.2-5.5,1.5-6.7c0.1-0.1,0.2-0.2,0.2-0.3c0.4-0.3,1.7-0.4,4.1-0.4h3c1.5,0,3.3,0,5.3,0.1c4,0.1,6.1,0.2,6.5,0.2
			c0.3,0,0.4,0.2,0.5,0.4c0,0.4-0.1,1.3-0.3,2.5c-0.3,1.6-0.6,2.9-0.9,3.9l-0.2,0.2c-2,0.2-3.8,0.2-5.6,0.2h-4.5
			c-1.5,0-2.3,0-2.4,0.1c-0.1,0.2-0.3,0.5-0.3,1.1c-0.2,1.1-0.2,1.7-0.1,1.8c0.2,0.2,0.6,0.3,1.2,0.3c4,0,6.9,0.1,8.8,0.2l0.2,0.4
			l-0.1,0.6c-0.5,2.4-0.8,4.2-1.1,5.3c-0.1,0.4-0.3,0.7-0.5,0.7h-9.6c-0.4,0-0.7,0.6-0.9,1.9c-0.2,0.9,0.2,1.3,1.1,1.4
			c0.2,0,2,0,5.4,0c0.8,0,1.9,0,3.4,0.1c1.5,0.1,2.6,0.1,3.4,0.1c0.2,0.2,0.2,0.5,0.1,0.9l-1,5.1c0,0.2-0.1,0.4-0.3,0.7
			c-0.1,0.3-0.3,0.4-0.3,0.4h-20.1L143.2,125.7z"/>
		<path class="st2" d="M166.9,125.1l2.5-13.5l0.2-1.1c0.9-4.7,1.4-7.4,1.6-8.1c0.3-1.6,0.6-3,0.8-4c0.2-0.6,0.6-0.9,1.1-0.9
			c0.7,0,1.8,0,3.3,0.1c1.4,0.1,2.5,0.1,3.3,0.1c0.2,0.3,0.8,2.1,2,5.4c1.1,3.2,1.7,5,1.8,5.3c0.1,0.3,0.1,0.6,0.1,0.7
			c0.4,1.1,0.5,1.6,0.6,1.7l0.1,0.1c0.2-0.1,0.3-0.1,0.5-0.1l2.3-12.2c0-0.2,0.3-0.6,0.7-1.1h2.7c0.3,0,0.9,0,1.6,0.1
			c0.7,0.1,1.2,0.1,1.6,0.1c0.3,0,0.3,0.4,0.2,1.1l-2.6,13.7c-0.2,1.1-0.5,2.6-0.9,4.4c-0.5,2.4-0.8,3.9-0.9,4.4
			c-0.3,1.7-0.6,2.9-0.8,3.8c-0.2,0.8-0.6,1.1-1.3,1.1c-2.1,0-4.1-0.1-6-0.2c-0.3-0.3-0.6-0.9-1-2l-3.8-11.9c-0.1,0-0.1,0-0.1,0
			c-0.2,0-0.4,0.1-0.4,0.2l-2.4,13c-0.3,0.4-0.4,0.6-0.5,0.7c-2.3,0.1-3.7,0.2-4.1,0.2c-0.6,0-1.3-0.1-1.9-0.2
			C166.9,125.6,166.8,125.3,166.9,125.1"/>
	</g>
	<g>
		<path class="st0" d="M36.7,59.1h13.9c0.3,0,0.6,0.3,0.8,0.8c0.4,0.7,0.6,1,0.7,1.2c0.6,0.5,1.7,0.7,3.3,0.7c0.7,0,1.4-0.2,2-0.5
			c0.8-0.5,1.3-1.2,1.5-2.1c0.3-1.3-0.4-2.1-2-2.3c-2.1-0.3-4.2-0.5-6.4-0.8c-2.8-0.5-5.1-1.1-6.8-1.9c-2.3-1.1-3.7-2.7-4.4-4.7
			c-0.4-1.3-0.6-2.4-0.4-3.3c0.1-0.5,0.2-1.3,0.4-2.2c0.5-2.6,1.3-4.8,2.2-6.4c3.4-6,9.8-9,19.2-9c7.9,0,12.6,2.8,13.9,8.4
			c0.4,1.7,0.5,3,0.3,3.9c0,0.2-0.3,0.5-0.8,0.8h-4.3c-0.2,0-2.5-0.1-6.9-0.3c-0.8,0-1.3-0.1-1.8-0.1c-0.4-0.1-0.9-0.7-1.7-1.5
			c-0.6-0.7-1.5-1.1-2.7-1.1c-2.3,0-3.6,0.8-3.9,2.4c-0.2,1.1,0.4,1.8,1.8,2.2c3.6,0.8,6.3,1.3,8.3,1.6c3.3,0.6,5.4,1.3,6.5,2
			c3,2.1,3.9,5.8,2.8,11.1c-1,5-3.2,8.7-6.5,11c-2.1,1.5-5.3,2.5-9.4,3.2c-2.1,0.3-3.9,0.5-5.4,0.5c-4.2,0-7.3-0.4-9.1-1.2
			c-3.1-1.2-5-3.8-5.9-7.7c-0.3-1.4-0.4-2.5-0.2-3.3C35.8,59.7,36.2,59.3,36.7,59.1"/>
		<path class="st0" d="M81.1,29.7c2.5-0.2,4-0.3,4.4-0.3h19.4c1.3,0,3.9,0.1,7.6,0.3l0.3,0.7l-2,9.9h-9.7c-0.2,0.1-0.5,0.4-0.8,0.8
			c0.1-0.6-0.8,3.4-2.6,11.8c-1.7,8-3.1,14-3.9,18l-0.3,0.6h-9.9c-0.4,0-0.6-0.3-0.5-1l5.7-28.1c0.3-1.3,0.2-1.9-0.3-1.9
			c-0.5,0-1.4,0-2.8,0.1c-1.4,0-2.4,0.1-3.1,0.1c-1.1,0-2-0.1-2.7-0.2c-0.8-0.1-1.2-0.4-1.1-0.9l1.9-9.2L81.1,29.7z"/>
		<path class="st0" d="M107.6,70.3c0.1-0.7,0.3-1.3,0.4-1.9l0.5-2.9c0.5-2.8,0.8-4.3,0.8-4.4l1.3-6.3c0.6-3.1,1.4-6.8,2.3-11.1
			l2-9.5c0.4-1.8,0.7-3.1,0.9-4c0.1-0.2,0.3-0.4,0.7-0.5c1.6-0.2,2.8-0.3,3.6-0.3c0.4,0,1.6,0,3.6-0.1c1.5-0.1,2.7-0.1,3.6-0.1h14.6
			c2.8,0,4.9,1.3,6.3,3.8c1.4,2.7,1.7,6.1,0.9,10.3c-0.6,3.1-1.6,5.4-2.8,7c-0.6,0.7-2.2,2.1-4.9,4.2c-0.4,0.3-0.6,0.6-0.8,0.9
			c0,0.4,0,0.8,0.1,1.3l2.7,13.1l-0.3,1.7h-11.7c-0.5-1.2-1.1-3-1.7-5.5c-0.4-2-0.8-4-1.2-6c0-0.2-0.1-0.8-0.3-1.8
			c-0.1-0.7-0.2-1.3-0.3-1.6c-0.1-0.3-0.3-0.5-0.5-0.5h-5c-0.3,0.3-0.5,0.5-0.6,0.6c-0.2,0.3-0.4,0.5-0.5,0.7l-2.8,13.7l-0.4,0.4
			c-2.4,0.2-4,0.3-4.7,0.3H108C107.7,71.5,107.5,71.1,107.6,70.3 M125.7,45c1,0,2.4-0.1,4.4-0.2c1.9-0.1,3.4-0.2,4.4-0.2
			c0.5,0,0.9-0.2,1.4-0.6c0.4-0.4,0.7-1,0.9-1.7c0.3-1.7-0.2-2.5-1.7-2.5h-9.5c-0.4,0-0.8,0.8-1.1,2.4c-0.1,0.6-0.2,1.3-0.2,2.1
			C124.5,44.8,125,45,125.7,45"/>
		<path class="st0" d="M146,70.8c0.1-0.6,0.3-1.4,0.5-2.5c0.2-1.1,0.4-1.9,0.5-2.5l1.5-7.5c1.5-7.5,2.8-13.7,3.9-18.6
			c1.1-4.9,1.9-8.2,2.4-9.9c0.2-0.2,0.3-0.3,0.4-0.4c0.6-0.4,2.8-0.6,6.6-0.6h4.9c2.4,0,5.3,0,8.6,0.1c6.4,0.1,9.9,0.2,10.4,0.3
			c0.5,0,0.7,0.2,0.7,0.6c0,0.7-0.1,1.9-0.5,3.7c-0.5,2.4-1,4.3-1.4,5.8l-0.3,0.4c-3.2,0.2-6.2,0.4-9.1,0.4h-7.3
			c-2.5,0-3.8,0.1-3.9,0.2c-0.2,0.3-0.4,0.8-0.6,1.6c-0.3,1.6-0.4,2.5-0.1,2.7c0.4,0.3,1,0.5,1.9,0.5c6.5,0,11.2,0.1,14.3,0.3
			l0.3,0.6l-0.2,0.9c-0.7,3.6-1.3,6.2-1.8,7.9c-0.2,0.7-0.5,1-0.9,1h-15.6c-0.6,0-1.1,1-1.4,2.9c-0.3,1.3,0.3,2,1.7,2.1
			c0.3,0,3.2,0.1,8.7,0.1c1.2,0,3.1,0,5.5,0.1c2.4,0.1,4.3,0.1,5.5,0.1c0.2,0.2,0.3,0.7,0.2,1.3l-1.5,7.6c-0.1,0.2-0.2,0.6-0.4,1
			c-0.2,0.4-0.4,0.6-0.6,0.6h-32.5L146,70.8z"/>
		<path class="st0" d="M182.2,70.8c0.1-0.6,0.3-1.4,0.5-2.5c0.2-1.1,0.4-1.9,0.5-2.5l1.5-7.5c1.5-7.5,2.8-13.7,3.9-18.6
			c1.1-4.9,1.9-8.2,2.4-9.9c0.2-0.2,0.3-0.3,0.4-0.4c0.6-0.4,2.8-0.6,6.6-0.6h4.9c2.4,0,5.3,0,8.6,0.1c6.4,0.1,9.9,0.2,10.4,0.3
			c0.5,0,0.7,0.2,0.7,0.6c0,0.7-0.1,1.9-0.5,3.7c-0.5,2.4-1,4.3-1.4,5.8l-0.3,0.4c-3.2,0.2-6.2,0.4-9.1,0.4h-7.3
			c-2.5,0-3.8,0.1-3.9,0.2c-0.2,0.3-0.4,0.8-0.6,1.6c-0.3,1.6-0.4,2.5-0.1,2.7c0.4,0.3,1,0.5,1.9,0.5c6.5,0,11.2,0.1,14.3,0.3
			l0.3,0.6l-0.2,0.9c-0.7,3.6-1.3,6.2-1.8,7.9c-0.2,0.7-0.5,1-0.9,1h-15.6c-0.6,0-1.1,1-1.4,2.9c-0.3,1.3,0.3,2,1.7,2.1
			c0.3,0,3.2,0.1,8.7,0.1c1.2,0,3.1,0,5.5,0.1c2.4,0.1,4.3,0.1,5.5,0.1c0.2,0.2,0.3,0.7,0.2,1.3l-1.5,7.6c-0.1,0.2-0.2,0.6-0.4,1
			c-0.2,0.4-0.4,0.6-0.6,0.6h-32.5L182.2,70.8z"/>
		<path class="st0" d="M227.4,29.7c2.5-0.2,4-0.3,4.4-0.3h19.4c1.3,0,3.9,0.1,7.6,0.3l0.3,0.7l-2,9.9h-9.7c-0.2,0.1-0.5,0.4-0.8,0.8
			c0.1-0.6-0.8,3.4-2.6,11.8c-1.7,8-3.1,14-3.9,18l-0.3,0.6h-9.9c-0.4,0-0.6-0.3-0.5-1l5.7-28.1c0.3-1.3,0.2-1.9-0.3-1.9
			c-0.5,0-1.4,0-2.8,0.1c-1.4,0-2.4,0.1-3.1,0.1c-1.1,0-2-0.1-2.7-0.2c-0.8-0.1-1.2-0.4-1.1-0.9l1.9-9.2L227.4,29.7z"/>
		<path class="st0" d="M261.5,40.8h6.7c0.1,0,0.2,0.2,0.3,0.5l0.3,12.8c0,0,0.1,0,0.1,0c0.2,0,0.4-0.2,0.6-0.7l5.3-12.4
			c0.1-0.3,0.4-0.4,0.8-0.4c0.6,0,1.5,0,2.8,0.1c1.2,0.1,2.1,0.1,2.8,0.1c0.2,0,0.3,0.1,0.3,0.4c0.2,3.7,0.4,6.5,0.5,8.4
			c0.1,2.2,0.2,3.4,0.3,3.7c0.1,0.4,0.1,0.5,0.3,0.5h0.1l0.4-0.9l4.8-11.7c0.1-0.2,0.2-0.4,0.2-0.5c0.1-0.2,0.9-0.2,2.3-0.2h2.6
			c1.4,0,2.1,0.1,2.1,0.4l-0.1,0.3c0,0.1,0,0.2,0,0.2l-6.3,15.4c-0.4,0.9-0.7,1.5-0.9,2l-3.8,9.1c-0.3,0.7-0.6,1.1-0.9,1.1h-6.7
			c-0.1,0-0.2-0.4-0.3-1.3l-0.4-9.2c0-0.1,0.1-0.2,0.1-0.3c0.1-0.3,0-0.6-0.1-1c-0.1-0.4-0.2-0.5-0.4-0.5c-0.2,0-0.3,0.2-0.5,0.7
			l-4.8,11.2l-0.6,0.5c-3.9,0.1-5.9,0.2-5.9,0.2c-0.6,0-0.9-0.4-0.9-1.1l-0.9-26L261.5,40.8z"/>
		<path class="st0" d="M292.2,68.8c0.1-0.4,0.2-0.9,0.3-1.7c0.1-0.7,0.2-1.3,0.3-1.7l1-5c1-5,1.8-9.2,2.5-12.5
			c0.7-3.3,1.2-5.5,1.5-6.7c0.1-0.1,0.2-0.2,0.3-0.3c0.4-0.3,1.8-0.4,4.2-0.4h3.1c1.6,0,3.4,0,5.5,0.1c4.1,0.1,6.3,0.2,6.7,0.2
			c0.3,0,0.5,0.2,0.5,0.4c0,0.4-0.1,1.3-0.3,2.5c-0.3,1.6-0.6,2.9-0.9,3.9l-0.2,0.2c-2,0.2-4,0.2-5.8,0.2h-4.7c-1.6,0-2.4,0-2.5,0.1
			c-0.1,0.2-0.3,0.5-0.4,1.1c-0.2,1.1-0.2,1.7-0.1,1.8c0.3,0.2,0.7,0.3,1.2,0.3c4.1,0,7.2,0.1,9.1,0.2l0.2,0.4l-0.1,0.6
			c-0.5,2.4-0.9,4.2-1.2,5.3c-0.1,0.4-0.3,0.7-0.6,0.7h-10c-0.4,0-0.7,0.6-0.9,1.9c-0.2,0.9,0.2,1.3,1.1,1.4c0.2,0,2.1,0,5.6,0
			c0.8,0,2,0,3.5,0.1c1.6,0.1,2.7,0.1,3.5,0.1c0.2,0.2,0.2,0.5,0.1,0.9l-1,5.1c0,0.2-0.1,0.4-0.3,0.7c-0.2,0.3-0.3,0.4-0.4,0.4
			h-20.8L292.2,68.8z"/>
		<path class="st0" d="M316.4,68.8c0.1-0.4,0.2-0.9,0.3-1.7c0.1-0.7,0.2-1.3,0.3-1.7l1-5c1-5,1.8-9.2,2.5-12.5
			c0.7-3.3,1.2-5.5,1.5-6.7c0.1-0.1,0.2-0.2,0.3-0.3c0.4-0.3,1.8-0.4,4.2-0.4h3.1c1.6,0,3.4,0,5.5,0.1c4.1,0.1,6.3,0.2,6.7,0.2
			c0.3,0,0.5,0.2,0.5,0.4c0,0.4-0.1,1.3-0.3,2.5c-0.3,1.6-0.6,2.9-0.9,3.9l-0.2,0.2c-2,0.2-4,0.2-5.8,0.2h-4.7c-1.6,0-2.4,0-2.5,0.1
			c-0.1,0.2-0.3,0.5-0.4,1.1c-0.2,1.1-0.2,1.7-0.1,1.8c0.3,0.2,0.7,0.3,1.2,0.3c4.1,0,7.2,0.1,9.1,0.2l0.2,0.4l-0.1,0.6
			c-0.5,2.4-0.9,4.2-1.2,5.3c-0.1,0.4-0.3,0.7-0.6,0.7h-10c-0.4,0-0.7,0.6-0.9,1.9c-0.2,0.9,0.2,1.3,1.1,1.4c0.2,0,2.1,0,5.6,0
			c0.8,0,2,0,3.5,0.1c1.6,0.1,2.7,0.1,3.5,0.1c0.2,0.2,0.2,0.5,0.1,0.9l-1,5.1c0,0.2-0.1,0.4-0.3,0.7c-0.2,0.3-0.3,0.4-0.4,0.4
			h-20.8L316.4,68.8z"/>
		<path class="st0" d="M343.2,55.1c0.8-3.9,1.4-6.8,1.8-8.8c0-0.1,0.1-0.4,0.2-1c0.1-0.6,0.2-1,0.3-1.4c0.4-2.1,0.8-3.1,1.2-3.1h6.3
			l0.2,0.4l-1.4,8.8c0,0,0,0,0.1,0c0.2-0.1,0.3-0.2,0.4-0.2l7.3-8.1c0.5-0.6,0.9-0.9,1.1-0.9h8.6l0.1,0.1l0,0.1
			c0,0.2-0.1,0.3-0.3,0.5c-1,1.2-1.8,2-2.3,2.5c-3.2,3.4-5.1,5.6-6,6.7c-0.2,0.9,0,2.2,0.4,3.7c0.1,0.5,0.2,0.9,0.2,1.1l3,12.5
			c0,0.1,0,0.2,0,0.3c-0.1,0.4-0.2,0.6-0.3,0.6h-8l-0.2-0.2c-0.7-2.7-1.4-5.2-1.9-7.5c0-0.1-0.1-0.6-0.2-1.4c-0.1-0.6-0.2-1-0.3-1.3
			c-0.1-0.3-0.3-0.4-0.4-0.4c-0.3,0-0.8,0.4-1.4,1.1c-0.4,0.5-0.9,1.1-1.3,1.6c-0.5,0.6-0.8,1-0.9,1.1c-0.7,3.6-1.2,5.8-1.5,6.6
			c-0.1,0.3-0.4,0.5-0.7,0.5h-6.1l-0.2-0.5c0.2-1.3,0.4-2.8,0.8-4.6C341.8,62,342.4,59,343.2,55.1"/>
	</g>
	<g>
		<path class="st0" d="M244.2,97.1c2.9-2.5,6.4-3.8,10.7-3.8c9.7,0,13.3,5.9,11,17.8c-1.2,6.3-3.5,11-6.9,14.1
			c-2.9,2.6-6.4,3.9-10.6,3.9c-4.3,0-7.5-1.2-9.5-3.7c-2.5-3-3.1-7.8-1.8-14.2C238.5,104.8,240.8,100.1,244.2,97.1 M246.5,117.3
			c0.6,1.8,1.7,2.6,3.4,2.6c1.6,0,3-0.8,4.3-2.4c1.3-1.6,2.1-3.7,2.6-6.2c0.5-2.7,0.5-4.9,0-6.6c-0.6-1.8-1.7-2.7-3.4-2.7
			c-1.5,0-3,0.9-4.2,2.6c-1.3,1.7-2.2,3.8-2.7,6.3C245.9,113.5,245.9,115.7,246.5,117.3"/>
		<path class="st0" d="M206.4,116.9c1.8-2.8,3.9-4.8,6.4-6.2c0.9-0.4,1.5-0.8,2-1c2.1-1,3.3-1.5,3.6-1.6c1.6-0.5,3-1,3.1-1l1.6-0.6
			c0.3-0.1,0.7-0.4,1-0.8c0.4-0.4,0.7-0.9,0.8-1.3c0.3-1.4-0.6-2.1-2.5-2.1h-1.6c-0.6,0-1.1,0.2-1.6,0.6c-0.2,0.2-0.8,0.8-1.6,2
			c-0.7,0.9-1.2,1.4-1.7,1.4h-9c-0.1,0-0.1-0.1-0.1-0.3c0.4-2,0.9-3.6,1.5-4.7c1.3-2.6,3.4-4.6,6-6c2.2-1.2,4.5-1.6,6.6-1.8
			c0.3,0,1.5-0.1,3.6,0c1.5,0.1,2.7,0.1,3.5,0.3c0.8,0.1,1.8,0.4,3.1,1c3.6,1.7,4.9,5.2,3.8,10.6l-0.4,2.1c-0.1,0.5-0.5,1.3-1.3,2.5
			c-0.6,1-1.1,1.8-1.6,2.2c-1.1,1.3-2.4,2.2-3.7,2.6l-11.6,3.4c-0.6,0.1-0.9,0.4-1,0.7l0,0.1c0.3,0.2,0.6,0.3,0.8,0.4h15.2
			c0.1,0.1,0.2,0.3,0.2,0.6c0,0.4,0,0.7,0,0.9l-1.4,7l-0.5,0.6c-3.7,0.2-6.4,0.3-8.1,0.3h-7.4c-2.5,0-6.4-0.1-11.7-0.3l-0.2-0.6
			c0.1-0.7,0.2-1.1,0.2-1.2C203.4,122.9,204.6,119.7,206.4,116.9"/>
		<path class="st0" d="M270.1,116.9c1.8-2.8,3.9-4.8,6.4-6.2c0.9-0.4,1.5-0.8,2-1c2.1-1,3.3-1.5,3.6-1.6c1.2-0.4,3-1,3.1-1l1.6-0.6
			c0.3-0.1,0.7-0.4,1-0.8c0.4-0.4,0.7-0.9,0.8-1.3c0.3-1.4-0.6-2.1-2.5-2.1h-1.6c-0.6,0-1.1,0.2-1.6,0.6c-0.2,0.2-0.8,0.8-1.6,2
			c-0.7,0.9-1.2,1.4-1.7,1.4h-9c-0.1,0-0.1-0.1-0.1-0.3c0.4-2,0.9-3.6,1.5-4.7c1.3-2.6,3.4-4.6,6-6c2.2-1.2,4.5-1.6,6.6-1.8
			c0.3,0,1.5-0.1,3.6,0c1.5,0.1,2.7,0.1,3.5,0.3c0.8,0.1,1.8,0.4,3.1,1c3.6,1.7,4.9,5.2,3.8,10.6l-0.4,2.1c-0.1,0.5-0.5,1.3-1.3,2.5
			c-0.6,1-1.1,1.8-1.6,2.2c-1.1,1.3-2.4,2.2-3.7,2.6l-11.6,3.4c-0.6,0.1-0.9,0.4-1,0.7l0,0.1c0.3,0.1,0.6,0.3,0.8,0.4h15.2
			c0.1,0.1,0.2,0.3,0.2,0.6c0,0.4,0,0.7,0,0.9l-1.4,7l-0.5,0.6c-3.7,0.2-6.4,0.3-8.1,0.3H278c-2.5,0-6.4-0.1-11.7-0.3l-0.2-0.6
			c0.1-0.7,0.2-1.1,0.2-1.2C267,122.9,268.3,119.7,270.1,116.9"/>
		<path class="st0" d="M315,117.7l-2,9c-0.4,1.7-0.4,1.7-0.5,1.9c-0.1,0.2-0.1,0.2-0.3,0.2l-0.5,0.1h-7.8c-0.6,0-1.1-0.1-1.4-0.4
			c-0.1-0.4-0.1-0.7-0.1-0.9l4.6-20.3l-0.5-0.4c-0.1,0-0.6,0.2-1.4,0.5c-0.6,0.2-1,0.4-1.3,0.4c-0.8,0-1.1-0.5-0.9-1.4l1.3-5.6
			c0.1-0.3,0.3-0.5,0.4-0.8c2.2-1.1,3.9-2.2,5.3-3.2c1.5-1.1,2.4-1.7,2.7-1.9c3.3-0.2,5.5-0.3,6.3-0.3c0.8,0,1.1,0.3,1,0.8
			c-0.3,1.2-0.6,2.8-1,4.8c-0.5,2.4-0.8,4-1,4.9c-0.7,3.3-1.4,6.5-2,9.7"/>
	</g>
	<g>
		<g>
			<defs>
				<path id="SVGID_1_" d="M345,87.2c8.1-0.5,12.1,2.6,15.4,5.7c3.3,3.1,6.6,8.9,12.9,11.7c0.4-11.2,4.6-18,7-21.4
					c-7.2-1.6-9.6-7.7-10.7-9.7c-1.1-2-3.3-7.9-11.6-8.8C355,71.1,348.6,82.7,345,87.2"/>
			</defs>
			<clipPath id="SVGID_2_">
				<use xlink:href="#SVGID_1_"  style="overflow:visible;"/>
			</clipPath>
			
				<linearGradient id="SVGID_3_" gradientUnits="userSpaceOnUse" x1="-863.4971" y1="1477.2036" x2="-863.1972" y2="1477.2036" gradientTransform="matrix(-81.7613 -34.4954 34.4954 -81.7613 -121182.1875 91081.3281)">
				<stop  offset="0" style="stop-color:#FFFFFF"/>
				<stop  offset="0.1121" style="stop-color:#FAFAFA"/>
				<stop  offset="0.2438" style="stop-color:#ECECEC"/>
				<stop  offset="0.3847" style="stop-color:#D4D4D4"/>
				<stop  offset="0.3866" style="stop-color:#D4D4D4"/>
				<stop  offset="0.561" style="stop-color:#EEEEEE"/>
				<stop  offset="0.7042" style="stop-color:#FFFFFF"/>
				<stop  offset="0.7764" style="stop-color:#FCFCFC"/>
				<stop  offset="0.8365" style="stop-color:#F1F1F1"/>
				<stop  offset="0.8923" style="stop-color:#E0E0E0"/>
				<stop  offset="0.9455" style="stop-color:#C8C8C8"/>
				<stop  offset="0.9964" style="stop-color:#A9A9A9"/>
				<stop  offset="1" style="stop-color:#A6A6A6"/>
			</linearGradient>
			<polygon class="st4" points="394.5,70.7 350.3,52.1 330.7,98.5 374.9,117.2 			"/>
		</g>
		<g>
			<defs>
				<path id="SVGID_4_" d="M357.9,63.8l-27.1,47.1c-0.1,0.3-0.1,0.6,0.2,0.7c0.1,0,0.2,0.1,0.3,0.1c0.2,0,0.4-0.1,0.5-0.3l27.1-47.1
					c0.1-0.3,0.1-0.6-0.2-0.7c-0.1,0-0.2-0.1-0.3-0.1C358.2,63.5,358,63.6,357.9,63.8"/>
			</defs>
			<clipPath id="SVGID_5_">
				<use xlink:href="#SVGID_4_"  style="overflow:visible;"/>
			</clipPath>
			
				<linearGradient id="SVGID_6_" gradientUnits="userSpaceOnUse" x1="-805.6344" y1="1332.431" x2="-805.3345" y2="1332.431" gradientTransform="matrix(-2.5321 -1.5413 1.5413 -2.5321 -3747.9656 2220.26)">
				<stop  offset="0" style="stop-color:#747474"/>
				<stop  offset="1" style="stop-color:#000000"/>
			</linearGradient>
			<polygon class="st5" points="380.3,76.5 338.3,50.9 309.2,98.7 351.3,124.3 			"/>
		</g>
		<path class="st2" d="M369.3,81.4c0.4-1,0.7-2,1.1-2.9c0.7,1,1.4,1.9,2.1,2.6c-0.4,0.9-0.7,1.9-1.1,2.7
			C370.7,83.1,370,82.3,369.3,81.4"/>
		<path class="st2" d="M365.2,76.5c0.4-1.1,0.9-2.3,1.3-3.4c0.7,0.7,1.4,1.6,2,2.6c-0.4,1.1-0.8,2.2-1.2,3.2
			C366.6,78,365.9,77.2,365.2,76.5"/>
		<path class="st2" d="M370.2,87.1c0.4-1,0.8-2.1,1.2-3.2c0.9,0.9,1.7,1.7,2.6,2.4c-0.3,0.8-0.7,1.6-1,2.4c-0.1,0.3-0.2,0.6-0.3,0.9
			C371.9,88.8,371,88,370.2,87.1"/>
		<path class="st2" d="M364.8,86.1c0.7,0.8,1.3,1.5,1.9,2.2c-0.6,1.4-1.1,2.7-1.7,3.9c-0.6-0.7-1.2-1.4-1.9-2.2
			c-0.1-0.1-0.2-0.3-0.3-0.4c0.7-1.1,1.3-2.3,1.9-3.6C364.7,86,364.7,86,364.8,86.1"/>
		<path class="st2" d="M362.1,83.5c-0.8,1.5-1.4,2.7-2,3.6c-1-0.8-2.1-1.4-3.1-1.9c0.6-1,1.3-2.1,2.1-3.6
			C360.1,82.1,361.1,82.7,362.1,83.5"/>
		<path class="st2" d="M371.5,93.1c-0.5,1.4-0.9,2.8-1.3,4.2c-0.9-0.7-1.8-1.6-2.8-2.6c0.5-1.3,1-2.7,1.5-4.1
			C369.8,91.5,370.7,92.4,371.5,93.1"/>
		<path class="st2" d="M366.3,82.4c0-0.1-0.1-0.1-0.1-0.2c0.4-1,0.8-2.1,1.2-3.3c0,0,0,0,0,0c0.7,0.9,1.3,1.7,1.9,2.4
			c-0.4,1.1-0.8,2.2-1.2,3.3C367.5,83.9,366.9,83.2,366.3,82.4"/>
		<path class="st2" d="M358.9,72.8c0.5-1.1,1.1-2.3,1.7-3.6c1.1,0.4,2.3,0.9,3.5,1.8c-0.5,1.2-1,2.4-1.5,3.5
			C361.3,73.6,360.1,73.1,358.9,72.8"/>
		<path class="st2" d="M361,77.9c0.4-0.8,0.9-2,1.5-3.4c0.9,0.6,1.8,1.2,2.6,2.1c-0.5,1.3-1,2.5-1.3,3.3C363,79,362,78.4,361,77.9"
			/>
		<path class="st2" d="M368.1,84.6c0.7,0.9,1.4,1.7,2.1,2.4c-0.1,0.4-0.3,0.7-0.4,1c-0.3,0.8-0.6,1.6-0.9,2.5
			c-0.7-0.7-1.4-1.4-2.2-2.3c0.1-0.3,0.2-0.6,0.4-0.9C367.3,86.6,367.7,85.7,368.1,84.6"/>
		<path class="st2" d="M360.8,78.4c-0.6,1.2-1.1,2.3-1.6,3.2c-1.4-0.7-2.8-1.2-4.1-1.6c0.9-1.5,1.6-2.8,2.1-3.7
			c1.3,0.4,2.6,0.8,3.9,1.6C360.9,78.1,360.8,78.2,360.8,78.4"/>
		<path class="st2" d="M363.9,79.8c0.8,0.7,1.5,1.5,2.3,2.4c-0.3,0.7-0.5,1.4-0.7,1.9c-0.2,0.6-0.5,1.3-0.8,1.9
			c-0.8-0.9-1.7-1.7-2.5-2.4c0.4-0.7,0.8-1.5,1.2-2.5C363.5,80.8,363.7,80.4,363.9,79.8"/>
		<path class="st2" d="M373.7,99.6c-0.2,1.5-0.4,3.2-0.4,5c-1.6-0.7-3.1-1.7-4.4-2.7c0.4-1.5,0.8-3.1,1.3-4.6
			C371.5,98.3,372.7,99.1,373.7,99.6"/>
		<path class="st2" d="M372.7,89.5c1,0.7,2,1.3,3.1,1.8c-0.5,1.2-0.9,2.6-1.3,4c-0.9-0.5-1.9-1.3-3.1-2.2
			C371.9,91.8,372.3,90.6,372.7,89.5"/>
		<path class="st2" d="M352.8,83.7c-2-0.5-3.8-0.6-4.9-0.7c0.8-1.2,1.5-2.5,2.3-3.8c1.2,0.1,2.9,0.3,4.8,0.8
			C354.3,81.2,353.6,82.5,352.8,83.7"/>
		<path class="st2" d="M362.7,89.6c-0.8,1.3-1.6,2.4-2.4,3.3c-0.8-0.8-1.7-1.6-2.7-2.3c0.8-0.8,1.6-1.8,2.5-3.4
			C361,87.8,361.9,88.6,362.7,89.6"/>
		<path class="st2" d="M357,85.2c-1,1.6-1.9,2.6-2.7,3.4c-1.2-0.5-2.5-0.9-4-1.2c0.7-0.9,1.6-2.2,2.5-3.7
			C354.1,84,355.5,84.5,357,85.2"/>
		<path class="st2" d="M375.3,83.5c1.1,0.7,2.3,1.3,3.5,1.8c-0.5,0.8-1,1.7-1.5,2.6c-1.2-0.5-2.3-1.1-3.3-1.8
			C374.4,85.3,374.8,84.4,375.3,83.5"/>
		<path class="st2" d="M367.4,94.7c-0.6,1.6-1.2,3-1.8,4.1c-1-1.1-1.9-2.1-2.7-3.1c0.7-1,1.4-2.1,2.1-3.5
			C365.8,93.1,366.6,93.9,367.4,94.7"/>
		<path class="st2" d="M356.2,68.4c0.7-1.3,1.3-2.6,1.8-3.7c1.6,0.2,3,0.5,4.2,1c-0.4,1-1,2.2-1.6,3.5
			C358.9,68.6,357.4,68.4,356.2,68.4"/>
		<path class="st2" d="M357.5,75.6c-0.1,0.2-0.2,0.4-0.3,0.7c-1.8-0.5-3.5-0.7-4.8-0.8c0.6-1.2,1.3-2.3,1.9-3.5
			c1.3,0,2.9,0.2,4.6,0.7C358.3,74,357.7,75.1,357.5,75.6"/>
		<path class="st2" d="M372.4,81.1c0.3-0.7,0.5-1.3,0.8-2c0.8,0.9,1.8,1.7,3,2.4c-0.3,0.6-0.7,1.3-1,2
			C374.3,82.9,373.4,82.1,372.4,81.1"/>
		<path class="st2" d="M368.9,76.3c-0.1-0.2-0.3-0.4-0.4-0.6c0.3-0.8,0.6-1.7,0.9-2.4c0,0.1,0.1,0.1,0.1,0.2
			c0.4,0.6,0.9,1.7,1.6,2.9c-0.3,0.7-0.5,1.4-0.8,2.1C369.9,77.8,369.4,77.1,368.9,76.3"/>
		<path class="st2" d="M364.1,70.9c0.5-1.2,1-2.3,1.4-3.3c0.9,0.8,1.6,1.6,2.2,2.5c-0.4,0.9-0.7,1.9-1.1,2.9
			C365.7,72.2,364.9,71.5,364.1,70.9"/>
		<g>
			<defs>
				<path id="SVGID_7_" d="M323.2,83.9c-1.1,2-3.6,8.1-10.7,9.7c2.4,3.5,6.6,10.2,7,21.4c6.3-2.8,9.6-8.5,12.9-11.7
					c3.3-3.1,7.3-6.2,15.4-5.7c-3.6-4.5-10-16.1-12.9-22.5C326.5,76,324.4,81.9,323.2,83.9"/>
			</defs>
			<clipPath id="SVGID_8_">
				<use xlink:href="#SVGID_7_"  style="overflow:visible;"/>
			</clipPath>
			
				<linearGradient id="SVGID_9_" gradientUnits="userSpaceOnUse" x1="-871.4386" y1="1480.8533" x2="-871.1387" y2="1480.8533" gradientTransform="matrix(81.7613 -34.4954 -34.4954 -81.7613 122650.125 91116.2578)">
				<stop  offset="0" style="stop-color:#FFFFFF"/>
				<stop  offset="0.1121" style="stop-color:#FAFAFA"/>
				<stop  offset="0.2438" style="stop-color:#ECECEC"/>
				<stop  offset="0.3847" style="stop-color:#D4D4D4"/>
				<stop  offset="0.3866" style="stop-color:#D4D4D4"/>
				<stop  offset="0.561" style="stop-color:#EEEEEE"/>
				<stop  offset="0.7042" style="stop-color:#FFFFFF"/>
				<stop  offset="0.7764" style="stop-color:#FCFCFC"/>
				<stop  offset="0.8365" style="stop-color:#F1F1F1"/>
				<stop  offset="0.8923" style="stop-color:#E0E0E0"/>
				<stop  offset="0.9455" style="stop-color:#C8C8C8"/>
				<stop  offset="0.9964" style="stop-color:#A9A9A9"/>
				<stop  offset="1" style="stop-color:#A6A6A6"/>
			</linearGradient>
			<polygon class="st6" points="298.2,81.2 342.4,62.5 362,109 317.8,127.7 			"/>
		</g>
		<g>
			<defs>
				<path id="SVGID_10_" d="M334.1,74.1c-0.3,0.1-0.3,0.5-0.2,0.7l27.1,47.1c0.1,0.2,0.3,0.3,0.5,0.3c0.1,0,0.2,0,0.3-0.1
					c0.3-0.1,0.3-0.5,0.2-0.7l-27.1-47.1c-0.1-0.2-0.3-0.3-0.5-0.3C334.3,74,334.2,74,334.1,74.1"/>
			</defs>
			<clipPath id="SVGID_11_">
				<use xlink:href="#SVGID_10_"  style="overflow:visible;"/>
			</clipPath>
			
				<linearGradient id="SVGID_12_" gradientUnits="userSpaceOnUse" x1="-1024.7341" y1="1475.4554" x2="-1024.4342" y2="1475.4554" gradientTransform="matrix(2.5321 -1.5413 -1.5413 -2.5321 5215.9287 2255.1897)">
				<stop  offset="0" style="stop-color:#747474"/>
				<stop  offset="1" style="stop-color:#000000"/>
			</linearGradient>
			<polygon class="st7" points="312.4,87 354.5,61.4 383.5,109.1 341.4,134.8 			"/>
		</g>
		<path class="st2" d="M323.5,91.9c-0.4-1-0.7-2-1.1-2.9c-0.7,1-1.4,1.9-2.1,2.6c0.4,0.9,0.7,1.9,1.1,2.7
			C322,93.6,322.7,92.8,323.5,91.9"/>
		<path class="st2" d="M327.5,87c-0.4-1.1-0.9-2.3-1.3-3.4c-0.7,0.7-1.4,1.6-2,2.6c0.4,1.1,0.8,2.2,1.2,3.2
			C326.1,88.5,326.8,87.7,327.5,87"/>
		<path class="st2" d="M322.6,97.6c-0.4-1-0.8-2.1-1.2-3.2c-0.9,0.9-1.7,1.7-2.6,2.4c0.3,0.8,0.7,1.6,1,2.4c0.1,0.3,0.2,0.6,0.3,0.9
			C320.9,99.3,321.7,98.5,322.6,97.6"/>
		<path class="st2" d="M328,96.6c-0.7,0.8-1.3,1.5-1.9,2.2c0.6,1.4,1.1,2.7,1.7,3.9c0.6-0.7,1.2-1.4,1.9-2.2
			c0.1-0.1,0.2-0.3,0.3-0.4c-0.7-1.1-1.3-2.3-1.9-3.6C328,96.5,328,96.5,328,96.6"/>
		<path class="st2" d="M330.6,94c0.8,1.5,1.4,2.7,2,3.6c1-0.8,2.1-1.4,3.1-1.9c-0.6-1-1.3-2.1-2.1-3.6
			C332.6,92.6,331.6,93.2,330.6,94"/>
		<path class="st2" d="M321.2,103.5c0.5,1.4,0.9,2.8,1.3,4.2c0.9-0.7,1.8-1.6,2.8-2.6c-0.5-1.3-1-2.7-1.5-4.1
			C322.9,102,322,102.8,321.2,103.5"/>
		<path class="st2" d="M326.5,92.8c0-0.1,0.1-0.1,0.1-0.2c-0.4-1-0.8-2.1-1.2-3.3c0,0,0,0,0,0c-0.7,0.9-1.3,1.7-1.9,2.4
			c0.4,1.1,0.8,2.2,1.2,3.3C325.2,94.4,325.8,93.7,326.5,92.8"/>
		<path class="st2" d="M333.9,83.2c-0.5-1.1-1.1-2.3-1.7-3.6c-1.1,0.4-2.3,0.9-3.5,1.8c0.5,1.2,1,2.4,1.5,3.5
			C331.4,84.1,332.7,83.6,333.9,83.2"/>
		<path class="st2" d="M331.7,88.3c-0.4-0.8-0.9-2-1.5-3.4c-0.9,0.6-1.8,1.2-2.6,2.1c0.5,1.3,1,2.5,1.3,3.3
			C329.8,89.5,330.8,88.9,331.7,88.3"/>
		<path class="st2" d="M324.7,95.1c-0.7,0.9-1.4,1.7-2.1,2.4c0.1,0.4,0.3,0.7,0.4,1c0.3,0.8,0.6,1.6,0.9,2.5
			c0.7-0.7,1.4-1.4,2.2-2.3c-0.1-0.3-0.2-0.6-0.4-0.9C325.4,97.1,325.1,96.1,324.7,95.1"/>
		<path class="st2" d="M332,88.8c0.6,1.2,1.1,2.3,1.6,3.2c1.4-0.7,2.8-1.2,4.1-1.6c-0.9-1.5-1.6-2.9-2.1-3.7
			c-1.3,0.4-2.6,0.8-3.9,1.6C331.8,88.5,331.9,88.7,332,88.8"/>
		<path class="st2" d="M328.9,90.3c-0.8,0.7-1.5,1.5-2.3,2.4c0.3,0.7,0.5,1.4,0.7,1.9c0.2,0.6,0.5,1.3,0.8,1.9
			c0.8-0.9,1.7-1.7,2.5-2.4c-0.4-0.7-0.8-1.5-1.2-2.5C329.3,91.3,329.1,90.9,328.9,90.3"/>
		<path class="st2" d="M319,110.1c0.2,1.5,0.4,3.2,0.4,5c1.6-0.7,3.1-1.7,4.4-2.7c-0.4-1.5-0.8-3.1-1.3-4.6
			C321.2,108.8,320.1,109.6,319,110.1"/>
		<path class="st2" d="M320,99.9c-1,0.7-2,1.3-3.1,1.8c0.5,1.2,0.9,2.6,1.3,4c0.9-0.5,1.9-1.3,3.1-2.2
			C320.8,102.3,320.4,101.1,320,99.9"/>
		<path class="st2" d="M339.9,94.2c2-0.5,3.8-0.6,4.9-0.7c-0.8-1.2-1.5-2.5-2.3-3.8c-1.2,0.1-2.9,0.3-4.8,0.8
			C338.4,91.7,339.2,93,339.9,94.2"/>
		<path class="st2" d="M330,100c0.8,1.3,1.6,2.4,2.4,3.3c0.8-0.8,1.7-1.6,2.7-2.3c-0.8-0.8-1.6-1.8-2.5-3.4
			C331.7,98.3,330.9,99.1,330,100"/>
		<path class="st2" d="M335.8,95.7c1,1.6,1.9,2.6,2.7,3.4c1.2-0.5,2.5-0.9,4-1.2c-0.7-0.9-1.6-2.2-2.5-3.7
			C338.6,94.5,337.2,95,335.8,95.7"/>
		<path class="st2" d="M317.5,94c-1.1,0.7-2.3,1.3-3.5,1.8c0.5,0.8,1,1.7,1.5,2.6c1.2-0.5,2.3-1.1,3.3-1.8
			C318.3,95.7,317.9,94.8,317.5,94"/>
		<path class="st2" d="M325.4,105.1c0.6,1.6,1.2,3,1.8,4.1c1-1.1,1.9-2.1,2.7-3.1c-0.7-1-1.4-2.1-2.1-3.5
			C326.9,103.6,326.1,104.4,325.4,105.1"/>
		<path class="st2" d="M336.6,78.8c-0.7-1.3-1.3-2.6-1.8-3.7c-1.6,0.2-3,0.5-4.2,1c0.4,1,1,2.2,1.6,3.5
			C333.8,79.1,335.3,78.9,336.6,78.8"/>
		<path class="st2" d="M335.3,86.1c0.1,0.2,0.2,0.4,0.3,0.7c1.8-0.5,3.5-0.7,4.8-0.8c-0.6-1.2-1.3-2.3-1.9-3.5
			c-1.3,0-2.9,0.2-4.6,0.7C334.5,84.5,335,85.6,335.3,86.1"/>
		<path class="st2" d="M320.3,91.6c-0.3-0.7-0.5-1.3-0.8-2c-0.8,0.9-1.8,1.7-3,2.4c0.3,0.6,0.6,1.3,1,2
			C318.5,93.3,319.4,92.5,320.3,91.6"/>
		<path class="st2" d="M323.8,86.8c0.1-0.2,0.3-0.4,0.4-0.6c-0.3-0.8-0.6-1.7-0.9-2.4c0,0.1-0.1,0.1-0.1,0.2
			c-0.4,0.6-0.9,1.7-1.6,2.9c0.3,0.7,0.5,1.4,0.8,2.1C322.9,88.3,323.3,87.6,323.8,86.8"/>
		<path class="st2" d="M328.7,81.4c-0.5-1.2-1-2.3-1.4-3.3c-0.9,0.8-1.6,1.6-2.2,2.5c0.4,0.9,0.7,1.9,1.1,2.9
			C327,82.7,327.9,82,328.7,81.4"/>
	</g>
</g>
</svg>
