<?xml version="1.0" encoding="utf-8"?>
<!-- Generator: Adobe Illustrator 25.0.0, SVG Export Plug-In . SVG Version: 6.00 Build 0)  -->
<svg version="1.1"
	 id="svg3377" xmlns:cc="http://creativecommons.org/ns#" xmlns:dc="http://purl.org/dc/elements/1.1/" xmlns:rdf="http://www.w3.org/1999/02/22-rdf-syntax-ns#" xmlns:svg="http://www.w3.org/2000/svg"
	 xmlns="http://www.w3.org/2000/svg" xmlns:xlink="http://www.w3.org/1999/xlink" x="0px" y="0px" viewBox="0 0 107.8 40.6"
	 style="enable-background:new 0 0 107.8 40.6;" xml:space="preserve">
<style type="text/css">
	.st0{fill-rule:evenodd;clip-rule:evenodd;fill:#FFFFFF;}
</style>
<g id="layer1" transform="translate(-226.92454,-384.13241)">
	<g id="g3395">
		<path id="Fill-1" class="st0" d="M298.3,401.2h3.7v-3.6h-3.7V401.2z M298.3,418.2h3.7v-15.6h-3.7V418.2L298.3,418.2z M327.1,414.9
			c-2.7,0-3.3-1-3.3-4.6c0-3.7,0.6-4.8,3.3-4.8c3.1,0,4,0.9,4,4.8C331.1,414.2,330.2,414.9,327.1,414.9L327.1,414.9z M331.4,402.6
			v1.2c-1.2-1.1-3.2-1.5-4.9-1.5c-5.4,0-6.3,3.2-6.3,8c0,3.7,0.4,7.9,6.4,7.9c1.5,0,3.4-0.4,4.5-1.4c0,0.8,0,1.9-0.1,2.7
			c-0.2,1.5-1.7,2.1-3.8,2.1c-2,0-2.7-0.6-2.7-1.7h-4c0,4,3.6,4.8,6.8,4.8c2.9,0,6.7-0.8,7.3-4.5c0.1-0.9,0.1-2.3,0.1-3.7v-13.9
			H331.4L331.4,402.6z M312.1,402.3c-2.2,0-3.7,0.7-4.6,1.5v-1.2h-3.2v15.6h3.7v-7.3c0-2.7-0.3-5.4,3.7-5.4c3.2,0,2.9,1.4,2.9,4.5
			v8.2h3.7v-8.5C318.2,406.3,318.4,402.3,312.1,402.3L312.1,402.3L312.1,402.3z M291.4,402.3c-1.8,0-3.3,0.6-4.3,1.7v-1.4h-3.2v15.6
			h3.7v-6.8c0-1.2-0.1-2.9,0.4-4.1c0.4-1.1,1.3-1.9,2.9-1.9c1.5,0,2.1,0.3,2.1,1.8h3.6C296.5,403.8,294.8,402.3,291.4,402.3
			L291.4,402.3L291.4,402.3z M275,415.2c-3.1,0-4.1-0.9-4.1-4.8s0.9-4.8,4.1-4.8c2.7,0,3.3,1.1,3.3,4.8S277.7,415.2,275,415.2
			L275,415.2z M275.8,402.3c-1.7,0-3.6,0.2-4.8,1.4v-6.2h-3.7v20.7h3.3V417c1,0.9,2.5,1.5,4.6,1.5c6.3,0,6.7-4.2,6.7-8
			C282,405.7,281.2,402.3,275.8,402.3L275.8,402.3L275.8,402.3z"/>
		<path id="Fill-3" class="st0" d="M237.3,410.7c-4.7,0-8.6-3.6-9-8.2h-1.5c0.4,9.5,8.3,17,17.9,17c6.4,0,11.9-3.3,15.1-8.2
			c1.7-2.6,2.7-5.6,2.8-8.8h-16.5C245.9,407.1,242,410.7,237.3,410.7L237.3,410.7z"/>
		<path id="Fill-4" class="st0" d="M228.4,401.2c0.4-4.6,4.2-8.2,9-8.2c4.7,0,8.6,3.6,9,8.2h16.5c-0.4-9.5-8.3-17-17.9-17
			c-9.7,0-17.6,7.6-17.9,17H228.4"/>
	</g>
</g>
</svg>
