<?xml version="1.0" encoding="utf-8"?>
<!-- Generator: Adobe Illustrator 25.0.0, SVG Export Plug-In . SVG Version: 6.00 Build 0)  -->
<svg version="1.1" id="Lager_1" xmlns="http://www.w3.org/2000/svg" xmlns:xlink="http://www.w3.org/1999/xlink" x="0px" y="0px"
	 viewBox="0 0 600 114" style="enable-background:new 0 0 600 114;" xml:space="preserve">
<style type="text/css">
	.st0{fill-rule:evenodd;clip-rule:evenodd;fill:#FFFFFF;}
</style>
<g>
	<path class="st0" d="M0.5,23.5c8.2,0,16.2,0,24.4-0.1c1.4,0,1.7,0.6,1.6,1.8c-0.1,1.4,0,2.8,0,4.3c0.3-0.1,0.6,0,0.7-0.2
		C44.3,14,70.4,20.1,78.7,41.6c5.9,15.3,4.8,30.1-6.4,43.1c-11.6,13.7-33.9,14.4-45,5.6c-0.2-0.1-0.4-0.2-1-0.4c0,8.2,0,16.2,0,24.2
		c-7.9,0-15.7-0.1-23.6,0c-1.8,0-2.4-0.2-2.4-2.2C0.5,82.4,0.5,52.9,0.5,23.5z M25.8,58.4c-0.1,8.5,5.8,14.5,14.1,14.7
		c8,0.1,14.1-5.8,14.3-13.7c0.1-9.2-5.4-15.3-13.8-15.4C31.8,43.9,25.9,49.6,25.8,58.4z"/>
	<path class="st0" d="M597.3,94.1c-7.3-0.5-14.5-0.1-21.9-0.2c-0.7,0-1.5-0.1-2.2,0c-1.6,0.2-2-0.6-1.9-2s0-2.8,0-4.5
		c-1.5,1.2-2.7,2.3-4,3.3c-12.1,8.9-31.4,6.8-41.8-4.5c-12.9-14.1-12.8-39.7-0.2-53.9c11.5-12.9,33.5-14.5,45.1-5.4
		c0.2,0.1,0.4,0.1,0.9,0.3c0-6.3,0.1-12.3-0.1-18.4c0-1.9,0.7-2.4,2.3-2.7c6.9-1.3,13.8-2.7,20.7-4c0.4-0.1,0.8,0,1-0.5
		c1.7-0.4,2.1,0.3,2,2C597.3,33.7,597.3,64,597.3,94.1z M543.6,58.5c0,8.7,5.8,14.7,14,14.7c8.5,0,14.3-6,14.4-14.6
		c0-8.5-5.9-14.4-14.3-14.4C549.2,44.2,543.6,49.9,543.6,58.5z"/>
	<path class="st0" d="M416.4,21c8,0.1,14.5,1.2,20.9,4c14.9,6.4,22.8,20,21.5,36.2c-1.6,19.4-14.7,30.6-32.1,33.9
		c-10.3,2-20.5,1.2-30.2-3c-15.3-6.6-22.1-19.6-21.3-35.3c1.2-22.4,17.5-32.9,34.9-35.2C412.6,21.2,415.1,21.1,416.4,21z
		 M402.6,58.6c0,8.5,6.2,14.6,14.3,14.5c8.4-0.1,14.1-6.1,14.1-14.4c0-8.8-5.9-14.7-14.3-14.7C408.4,44,402.6,50,402.6,58.6z"/>
	<path class="st0" d="M128.5,21c10.8,0.3,21,2.7,29.5,9.8c7.1,6,10.7,13.7,11.5,22.9c0.9,10.4-1,20.2-8.1,28.3
		c-6,7.1-13.8,10.8-22.8,12.7c-10.5,2.2-20.9,1.6-30.9-2.6c-16.6-6.8-23.2-21.4-21.6-37.7C88,36.2,100.9,25.4,117.9,22
		C121.3,21.3,124.9,21,128.5,21z M128,44c-8.5-0.1-14.4,5.9-14.5,14.5c-0.2,8.2,6.2,14.5,14.3,14.5c8.2,0,14.2-6,14.3-14.3
		C142.2,50.2,136.3,44.1,128,44z"/>
	<path class="st0" d="M322.9,29.2c8.6-8.4,18.6-9.6,29.3-6.8c9.7,2.6,14.3,9.9,16.2,19.4c0.5,2.5,0.6,5.1,0.6,7.7c0,14,0,28,0,42
		c0,1.9-0.4,2.6-2.4,2.6c-7.2-0.1-14.2-0.1-21.4,0c-1.9,0-2.5-0.5-2.5-2.5c0.1-11.6,0-23.4-0.1-35c0-1.2-0.1-2.3-0.4-3.5
		c-1.2-6.3-3.8-8.4-9.7-8.2c-5.8,0.2-9.3,3.4-9.8,9.2c-0.6,6.6-0.2,13.1-0.2,19.6c-0.1,6.1-0.1,12.1,0,18.1c0,1.8-0.5,2.3-2.3,2.2
		c-7.3-0.1-14.6-0.1-21.9,0c-1.6,0-2.1-0.4-2.1-2.1c0.1-22.1,0.1-44.3,0-66.3c0-1.9,0.6-2.1,2.3-2.1c7.2,0.1,14.2,0.1,21.4,0
		c2.1,0,2.8,0.6,2.6,2.6C322.5,26.9,322.4,28,322.9,29.2z"/>
	<path class="st0" d="M210.1,21c8.7,0.3,16.5,1,24.4,2.8c1.6,0.4,2,0.9,1.5,2.5c-1.3,5.2-2.6,10.4-3.7,15.7c-0.4,2-1.1,2-2.8,1.5
		c-8.1-2.4-16.2-4-24.8-2.7c-0.7,0.1-1.3,0.3-1.9,0.5c-1.6,0.5-2.8,1.4-2.8,3.1c0,1.8,1.4,2.6,2.9,2.9c5.6,1.3,11.3,1.6,16.8,3
		c3,0.8,5.9,1.7,8.7,3c7.7,3.7,11.1,9.6,10.8,18.1c-0.3,10-5.5,16.5-14.4,20.4c-7.2,3.1-14.8,3.9-22.6,4.1
		c-9.6,0.2-19.1-1.1-28.4-3.7c-1.5-0.4-1.9-0.9-1.5-2.5c1.5-5.5,2.9-11,4.2-16.6c0.4-1.8,1.1-1.9,2.7-1.3c8.6,3.3,17.4,5.3,26.7,4.6
		c1.3-0.1,2.5-0.3,3.6-0.8c1.3-0.6,2.2-1.5,2.2-3c0-1.6-0.9-2.4-2.3-2.9c-2.9-1.1-6-1.4-9-1.8c-5.3-0.7-10.4-1.6-15.4-3.6
		c-14.3-5.8-17.3-24.2-5.6-34.3c6.5-5.6,14.3-7.4,22.5-8.3C205,21.2,207.9,21.2,210.1,21z"/>
	<path class="st0" d="M244.2,50.6c0-13.6,0-27.2,0-40.8c0-1.9,0.5-2.3,2.3-2.3c7.2,0.1,14.4,0.1,21.6,0c2,0,2.3,0.7,2.3,2.4
		c-0.1,3.8,0,7.7-0.1,11.4c-0.1,1.7,0.6,2.1,2.2,2.1c6.6-0.1,13.1,0,19.7-0.1c1.7,0,2.3,0.3,1.3,2c-3.4,6.2-6.8,12.3-10,18.6
		c-0.6,1.1-1.3,1.5-2.6,1.5c-2.7-0.1-5.5,0.1-8.2-0.1c-1.9-0.1-2.4,0.5-2.3,2.3c0.1,14.3,0,28.6,0,43c0,3.2,0,3.2-3.2,3.2
		c-6.8,0-13.6-0.1-20.4,0.1c-2.1,0-2.7-0.5-2.6-2.6C244.2,77.8,244.2,64.2,244.2,50.6z"/>
	<path class="st0" d="M490.9,31c6-8.1,13.8-9.1,22.4-8.5c1.6,0.1,2.3,0.7,2.2,2.5c-0.3,6.7-0.4,13.4-0.5,20.1c0,1.6-0.5,2-2.1,1.6
		c-3-0.8-6.1-1-9.2-0.8c-8.6,0.7-12.8,5.3-12.8,13.9c0,10.4-0.1,20.9,0,31.3c0,2.1-0.4,2.9-2.7,2.8c-7.1-0.2-14.1-0.1-21.1,0
		c-1.6,0-2.3-0.2-2.3-2.1c0.1-22.1,0.1-44.3,0-66.3c0-1.6,0.4-2.1,2.1-2.1c7.4,0.1,14.7,0.1,22.1,0c1.6,0,2,0.5,1.9,2
		C490.8,27,490.9,28.7,490.9,31z"/>
</g>
</svg>
